<?xml version="1.0" encoding="utf-8"?>
<!-- Generator: Adobe Illustrator 15.0.2, SVG Export Plug-In . SVG Version: 6.00 Build 0)  -->
<!DOCTYPE svg PUBLIC "-//W3C//DTD SVG 1.1//EN" "http://www.w3.org/Graphics/SVG/1.1/DTD/svg11.dtd">
<svg version="1.1" id="Layer_1" xmlns="http://www.w3.org/2000/svg" xmlns:xlink="http://www.w3.org/1999/xlink" x="0px" y="0px"
	 width="136.062px" height="136.063px" viewBox="0 0 136.062 136.063" enable-background="new 0 0 136.062 136.063"
	 xml:space="preserve">
<path fill="#FFFFFF" d="M108.411,100.462c-0.058-0.316,0.158-2.285-2.104-2.285c-7.312,0-20.209,24.695-20.209,28.934
	c0,0.875,0.629,1.084,0.979,1.084c0.552,0,1.126-0.236,1.417-0.916c0,0,2.166-5.693,5-10.668c4.25-7.457,9.185-13.531,10.653-13.531
	c1.221,0-4.589,15.949-4.589,23.24c0,1.953,0.945,2.715,2.101,2.715c1.188,0,1.87-1.135,1.834-2.061
	c-0.146-3.676,0.101-4.893,0.537-8.074C104.855,112.88,108.411,103.319,108.411,100.462z"/>
<path fill="#FFFFFF" d="M129.546,98.688c-0.959,0-1.699,0.668-1.903,1.459c0,0-6.439,25.547-14.106,25.547
	c-6.646,0,5.238-23.91,5.238-23.91c0.396-0.914,0.303-3.008-1.709-3.008c-0.96,0-1.991,0.529-2.48,1.771
	c-1.92,4.865-6.138,14.426-6.138,20.988c0,3.568,1.278,6.736,5.213,6.736c10.417,0,16.112-22.25,17.707-27.225
	C131.658,100.138,131.202,98.688,129.546,98.688z"/>
<path fill="#FFFFFF" d="M119.356,36.117l-0.014-0.223c-0.023-0.186-0.05-0.354-0.075-0.49c-0.055-0.281-0.114-0.509-0.17-0.72
	c-0.118-0.422-0.239-0.787-0.363-1.141c-0.25-0.701-0.508-1.348-0.771-1.989c-0.523-1.279-1.074-2.505-1.646-3.719
	c-1.132-2.431-2.326-4.805-3.571-7.16c-1.227-2.362-2.498-4.701-3.862-7.022c-0.684-1.163-1.395-2.315-2.152-3.478
	c-0.771-1.168-1.519-2.31-2.639-3.571c-0.296-0.321-0.605-0.651-1.085-1.038c-0.25-0.195-0.526-0.409-1.011-0.651
	c-0.229-0.11-0.558-0.252-0.977-0.347c-0.114-0.024-0.23-0.045-0.347-0.062c-0.136-0.014-0.28-0.026-0.423-0.031l-0.192-0.005
	l-1.966-0.04l-3.919-0.076l-7.852-0.157L70.636,3.852C60.172,3.626,49.711,3.477,39.253,3.475l-0.49,0.009l-0.126,0.002
	l-0.285,0.012l-0.121,0.004c-0.764,0.071-1.025,0.183-1.346,0.281c-1.181,0.439-1.625,0.841-2.098,1.188
	c-0.872,0.699-1.39,1.312-1.918,1.906c-1.002,1.19-1.825,2.324-2.607,3.474c-1.538,2.305-2.918,4.596-4.296,6.882
	c-1.345,2.3-2.736,4.553-4.049,6.846l-3.943,6.894c-0.941,1.649-0.373,3.75,1.274,4.696c1.649,0.946,3.755,0.378,4.703-1.271
	l0.007-0.017c1.276-2.22,2.645-4.444,4.031-6.621c1.399-2.174,2.766-4.368,4.266-6.459c1.466-2.101,2.999-4.156,4.586-6.055
	c0.38-0.457,0.763-0.913,1.143-1.346l4.494,20.176l0.14,0.642l-11.187,0.504c-0.708,0.028-1.29,0.594-1.314,1.312
	c-0.024,0.753,0.563,1.388,1.316,1.407l12.205,0.499c0.245,0.594,0.516,1.184,0.808,1.761l2.861,5.877
	c1.895,3.926,3.872,7.813,5.815,11.718c3.073,6.065,6.225,12.099,9.464,18.091c-0.527-0.484-1.056-0.955-1.578-1.453
	c-3.693-3.535-7.324-7.258-10.889-11.034c-3.548-3.797-7.065-7.645-10.551-11.511c-3.496-3.862-6.953-7.783-10.337-11.719
	l-0.026-0.028c-0.06-0.064-0.114-0.128-0.174-0.188c-1.768-1.823-4.676-1.868-6.497-0.102c-1.82,1.768-1.868,4.677-0.1,6.497
	c7.331,7.557,14.589,15.109,22.096,22.5c3.75,3.705,7.493,7.406,11.457,10.998c0.995,0.898,2.003,1.793,3.056,2.676
	c1.067,0.885,2.12,1.75,3.451,2.643c0.345,0.225,0.703,0.447,1.164,0.691c0.23,0.123,0.494,0.25,0.832,0.379
	c0.368,0.123,0.758,0.299,1.651,0.348c0.091,0.006,0.62-0.016,0.414-0.01l0.062-0.006l0.29-0.033
	c0.116-0.014,0.229-0.035,0.344-0.061c0.316-0.074,0.495-0.135,0.67-0.197c0.353-0.131,0.595-0.246,0.83-0.359
	c0.446-0.229,0.803-0.443,1.141-0.654c1.316-0.842,2.388-1.668,3.472-2.516c4.249-3.379,8.125-6.916,12.049-10.449
	c3.897-3.543,7.73-7.146,11.516-10.792c3.784-3.655,7.55-7.319,11.25-11.079c1.854-1.882,3.688-3.779,5.499-5.737
	c0.905-0.979,1.802-1.978,2.695-3.022c0.446-0.523,0.891-1.058,1.343-1.654c0.23-0.297,0.453-0.604,0.698-0.97
	c0.121-0.188,0.252-0.395,0.393-0.651c0.07-0.129,0.147-0.286,0.234-0.478c0.039-0.088,0.091-0.24,0.134-0.361
	c0.045-0.14,0.104-0.349,0.143-0.561c0.028-0.159,0.04-0.321,0.047-0.48c0.01-0.211,0-0.278,0.005-0.264L119.356,36.117z
	 M98.917,10.889c-0.035-0.024-0.044-0.038-0.039-0.033C98.882,10.858,98.903,10.879,98.917,10.889z M94.174,11.34l3.919-0.079
	l1.186-0.026c0.645,0.667,1.374,1.625,2.051,2.588c0.708,1.005,1.384,2.07,2.054,3.146c1.335,2.16,2.616,4.389,3.851,6.64
	c1.209,2.264,2.381,4.56,3.471,6.863c0.264,0.554,0.499,1.105,0.752,1.659l-19.283,0.725l4.216-13.969
	c0.16-0.528-0.093-1.103-0.605-1.338c-0.559-0.264-1.227-0.017-1.488,0.544L88.92,29.714L71.037,11.83l15.285-0.335L94.174,11.34z
	 M48.958,25.882l-6.461-13.686c7.252-0.02,14.51-0.112,21.765-0.248c-1.133,1.103-2.26,2.208-3.41,3.299
	c-1.799,1.667-3.611,3.326-5.441,4.966c-1.827,1.642-3.682,3.255-5.532,4.876L48.958,25.882z M64.231,18.617
	c1.164-1.238,2.338-2.471,3.526-3.69l18.168,18.166l-34.785,1.312C51.081,34.304,62.556,20.418,64.231,18.617z M54.479,42.761
	L52.72,38.75l32.029,1.107L67.627,74.409c-2.552-6.591-5.245-13.122-7.979-19.633C57.925,50.77,56.247,46.744,54.479,42.761z
	 M103.711,46.003c-3.663,3.669-7.4,7.295-11.203,10.846c-3.8,3.554-7.64,7.067-11.53,10.508c-2.732,2.413-5.516,4.8-8.326,7.067
	l17.048-34.396l19.163,0.661C107.186,42.476,105.46,44.247,103.711,46.003z"/>
<path fill="#FFFFFF" d="M7.279,108.226h6.25v3.631c1.15-2.723,3.071-3.91,5.898-3.873v5.826c-3.805-0.104-5.898,1.084-5.898,4.014
	v8.658h-6.25V108.226z"/>
<path fill="#FFFFFF" d="M22.084,120.128v-11.902h6.247v10.891c0,2.059,0.804,3.07,2.583,3.07c1.885,0,3.106-1.117,3.106-3.455
	v-10.506h6.247v18.256h-6.247v-2.828c-0.977,1.885-2.759,3.246-5.794,3.246C24.7,126.899,22.084,124.737,22.084,120.128z"/>
<path fill="#FFFFFF" d="M49.527,123.653v2.828h-6.25v-26.283h6.25v10.75c1.045-1.744,2.93-3.211,5.688-3.211
	c4.257,0,7.715,3.211,7.715,9.459v0.281c0,6.281-3.458,9.422-7.75,9.422C52.457,126.899,50.433,125.608,49.527,123.653z
	 M56.575,117.478v-0.281c0-3.211-1.395-4.746-3.593-4.746c-2.27,0-3.632,1.641-3.632,4.711v0.281c0,3.105,1.362,4.676,3.632,4.676
	C55.32,122.118,56.575,120.478,56.575,117.478z"/>
<path fill="#FFFFFF" d="M70.057,124.632l-7.293-16.406h6.771l3.769,9.738l3.491-9.738h5.968l-9.772,24.363h-5.97L70.057,124.632z"/>
<path fill="#FFFFFF" d="M103.175,120.251c0.487,0.033,0.629,0.029,1.467,0.088c1.042,0.074,1.724-0.658,1.739-1.518
	c0.016-0.863-0.516-1.566-1.529-1.588c-0.374-0.008-0.735,0.016-1.106,0.016l-3.396,0.055c-1.771,0.068-5.789,0.389-7.56,0.67
	l-3.303,0.564c-1.135,0.26-2.315,0.543-3.428,0.916c-0.413,0.145-0.674,0.725-0.56,1.156c0.119,0.455,0.585,0.725,1.038,0.605
	c0.607-0.154,1.227-0.281,1.847-0.398l3.223-0.475c1.381-0.154,2.54-0.225,3.932-0.275c1.534-0.051,2.799-0.059,4.342-0.012
	L103.175,120.251z"/>
</svg>
