<?xml version="1.0" encoding="utf-8"?>
<!-- Generator: Adobe Illustrator 15.0.2, SVG Export Plug-In . SVG Version: 6.00 Build 0)  -->
<!DOCTYPE svg PUBLIC "-//W3C//DTD SVG 1.1//EN" "http://www.w3.org/Graphics/SVG/1.1/DTD/svg11.dtd">
<svg version="1.1" id="Layer_1" xmlns="http://www.w3.org/2000/svg" xmlns:xlink="http://www.w3.org/1999/xlink" x="0px" y="0px"
	 width="175.748px" height="175.748px" viewBox="0 0 175.748 175.748" enable-background="new 0 0 175.748 175.748"
	 xml:space="preserve">
<g>
	<path fill="#FFFFFF" d="M106.488,90.976v-0.42c0-3.15-2.561-5.879-5.627-5.879H95.15v11.926h5.711
		C104.012,96.603,106.488,94.125,106.488,90.976z"/>
	<path fill="#FFFFFF" d="M106.111,76.992v-0.168c0-3.191-2.184-5.375-5.25-5.375H95.15v11.128h5.711
		C103.885,82.577,106.111,80.184,106.111,76.992z"/>
	<path fill="#FFFFFF" d="M53.125,71.701h-6.299v11.674h6.299c3.148,0,5.627-2.394,5.627-5.627v-0.42
		C58.752,74.179,56.273,71.701,53.125,71.701z"/>
	<path fill="#FFFFFF" d="M75.711,110.326h-0.42c-3.149,0-5.627,2.479-5.627,5.627v14.152c0,3.148,2.478,5.627,5.627,5.627h0.42
		c3.149,0,5.627-2.479,5.627-5.627v-14.152C81.338,112.804,78.86,110.326,75.711,110.326z"/>
	<path fill="#FFFFFF" d="M98.965,42.896c1.218-5.192,2.989-10.604,2.376-10.604c-1.096,0-4.776,4.529-7.947,10.094
		c-0.192,0.338-0.379,0.68-0.562,1.023l0.035-0.006c1.32-0.21,4.319-0.45,5.64-0.5L98.965,42.896z"/>
	<path fill="#FFFFFF" d="M87.874,0.409c-47.887,0-86.707,38.82-86.707,86.708c0,47.887,38.82,86.707,86.707,86.707
		c47.888,0,86.707-38.82,86.707-86.707C174.581,39.229,135.762,0.409,87.874,0.409z M59.781,29.599c0.48,0,4.041,0.055,7.99,0.115
		c-0.432,0.456-0.868,0.909-1.301,1.363c-0.623,0.641-1.25,1.275-1.882,1.905l-1.902,1.885l-0.766,0.745l-2.521-5.833
		C59.555,29.666,59.686,29.599,59.781,29.599z M68.734,30.301l6.874,6.877l-13.157,0.374c0.027-0.031,0.051-0.062,0.078-0.093
		l0.43-0.514l0.859-1.027l1.737-2.036c0.583-0.676,1.172-1.348,1.763-2.017C67.791,31.343,68.258,30.819,68.734,30.301z
		 M60.304,114.988c0,0.629-0.462,1.049-1.008,1.049c-0.504,0-0.924-0.377-1.05-0.881c-0.336-2.688-2.688-4.83-5.543-4.83h-0.42
		c-3.149,0-5.669,2.479-5.669,5.627v14.152c0,3.148,2.52,5.627,5.669,5.627h0.42c2.855,0,5.207-2.143,5.543-4.83
		c0.126-0.504,0.546-0.881,1.05-0.881c0.546,0,1.008,0.42,1.008,1.049v0.127c-0.462,3.779-3.695,6.551-7.601,6.551h-0.42
		c-4.241,0-7.727-3.359-7.727-7.643v-14.152c0-4.283,3.485-7.684,7.727-7.684h0.42c3.905,0,7.139,2.855,7.601,6.592V114.988z
		 M60.809,77.748c0,3.821-2.604,6.929-6.256,7.601L60.305,97.4c0.084,0.168,0.127,0.336,0.127,0.504
		c0,0.631-0.547,0.967-1.092,0.967c-0.379,0-0.715-0.168-0.883-0.547l-6.131-12.891h-5.5v12.43c0,0.713-0.504,1.008-1.051,1.008
		c-0.504,0-1.008-0.295-1.008-1.008V70.693c0-0.546,0.463-1.05,1.008-1.05h7.35c4.24,0,7.684,3.443,7.684,7.685V77.748z
		 M53.234,38.52c-0.076-0.458,3.207-5.526,5.216-7.81l1.873,6.901l-4.62,0.129c-0.188,0.006-0.34,0.156-0.341,0.345
		c-0.006,0.192,0.146,0.354,0.342,0.36l4.899,0.123c0.023,0.045,0.051,0.091,0.082,0.129c0.092,0.652,0.33,1.239,0.602,1.808
		l0.929,1.982c0.612,1.318,1.25,2.632,1.875,3.948c0.638,1.311,1.274,2.623,1.925,3.929c0.428,0.84,0.85,1.679,1.281,2.519
		C63.56,49.86,53.32,39.031,53.234,38.52z M65.92,45.618c-0.565-1.344-1.119-2.694-1.697-4.03l-0.862-2.011
		c-0.134-0.324-0.282-0.645-0.458-0.951l12.526,0.313l-6.772,13.517c-0.359-0.928-0.723-1.855-1.088-2.784
		C67.03,48.315,66.475,46.965,65.92,45.618z M83.396,130.105c0,4.283-3.443,7.643-7.685,7.643h-0.42
		c-4.241,0-7.685-3.359-7.685-7.643v-14.152c0-4.283,3.443-7.684,7.685-7.684h0.42c4.241,0,7.685,3.4,7.685,7.684V130.105z
		 M83.439,91.228c0,4.283-3.443,7.643-7.686,7.643h-0.42c-4.24,0-7.684-3.359-7.684-7.643V70.441c0-0.714,0.504-1.05,1.049-1.05
		c0.504,0,1.008,0.336,1.008,1.05v20.787c0,3.148,2.479,5.627,5.627,5.627h0.42c3.15,0,5.627-2.479,5.627-5.627V70.441
		c0-0.714,0.504-1.05,1.008-1.05c0.547,0,1.051,0.336,1.051,1.05V91.228z M69.842,52.895l6.971-13.921l7.42,0.186
		C83.112,40.956,73.504,50.161,69.842,52.895z M77.202,37.134l1.665-5.1c0.041-0.13-0.021-0.274-0.146-0.333
		c-0.141-0.058-0.299,0.005-0.359,0.141l-1.984,4.557l-6.655-6.652c4.562,0.066,9.062,0.138,9.525,0.138
		c0.694,0,3.829,4.374,5.061,7.067L77.202,37.134z M91.928,45.177c-1.352,2.768-2.266,5.167-2.266,5.167
		c-0.216,0.505-0.645,0.684-1.058,0.684c-0.261,0-0.73-0.156-0.73-0.807c0-0.786,0.595-2.514,1.57-4.666
		c-0.417,0.079-0.834,0.162-1.242,0.267c-0.339,0.09-0.685-0.111-0.771-0.451c-0.087-0.321,0.106-0.754,0.417-0.863
		c0.779-0.262,1.604-0.461,2.4-0.646c3.204-6.475,8.943-15.227,12.703-15.227c1.689,0,1.527,1.467,1.57,1.705
		c0,1.944-2.205,8.05-3.059,12.517c0.133-0.003,0.266-0.008,0.403-0.006c0.755,0.018,1.15,0.541,1.138,1.186
		c-0.008,0.64-0.518,1.188-1.295,1.132c-0.285-0.02-0.457-0.03-0.6-0.038c-0.233,1.667-0.351,2.686-0.258,4.986
		c0.027,0.689-0.479,1.538-1.367,1.538c-0.86,0-1.568-0.569-1.568-2.026c0-1.274,0.239-2.905,0.592-4.652l-0.353-0.021
		c-1.15-0.035-2.094-0.03-3.237,0.011c-1.037,0.036-1.903,0.089-2.934,0.202L91.928,45.177z M93.094,70.441
		c0-0.546,0.461-1.05,1.008-1.05h6.76c4.242,0,7.307,3.191,7.307,7.433v0.168c0,2.855-1.344,5.333-3.527,6.677
		c2.352,1.386,3.906,4.031,3.906,6.887v0.42c0,4.24-3.443,7.684-7.686,7.684h-6.76c-0.547,0-1.008-0.504-1.008-1.049V70.441z
		 M108.964,136.697c0,0.672-0.462,1.051-1.008,1.051H107.2c-0.294,0-0.84-0.168-1.05-0.672l-10.876-24.691v24.355
		c0,0.713-0.546,1.008-1.05,1.008s-1.05-0.295-1.05-1.008v-27.422c0-0.545,0.504-1.049,1.05-1.049h0.756
		c0.294,0,0.714,0.209,0.924,0.672l10.96,24.732v-24.355c0-0.713,0.546-1.049,1.05-1.049s1.05,0.336,1.05,1.049V136.697z
		 M108.436,51.085c-2.934,0-3.889-2.362-3.889-5.024c0-4.895,3.148-12.03,4.579-15.655c0.367-0.927,1.136-1.324,1.853-1.324
		c1.498,0,1.568,1.563,1.273,2.245c0,0-8.864,17.836-3.91,17.836c5.722,0,10.525-19.059,10.525-19.059
		c0.153-0.588,0.706-1.088,1.418-1.088c1.237,0,1.577,1.082,1.36,1.76C120.457,34.489,116.206,51.085,108.436,51.085z
		 M115.975,70.399c0-0.63,0.545-1.008,1.092-1.008c0.461,0,0.756,0.21,0.924,0.63l6.047,14.529l6.047-14.529
		c0.168-0.42,0.461-0.63,0.924-0.63c0.545,0,1.092,0.378,1.092,1.008c0,0.126-0.043,0.252-0.084,0.42l-6.93,16.629v10.415
		c0,0.713-0.545,1.008-1.049,1.008s-1.051-0.295-1.051-1.008V87.448l-6.928-16.629C116.016,70.735,115.975,70.609,115.975,70.399z
		 M132.518,110.578h-12.682v10.877h8.986c0.714,0,1.05,0.504,1.05,1.049c0,0.547-0.336,1.051-1.05,1.051h-8.986v13.186
		c0,0.713-0.504,1.008-1.008,1.008s-1.05-0.295-1.05-1.008v-27.17c0-0.545,0.42-1.049,1.05-1.049h13.689
		c0.714,0,1.05,0.504,1.05,1.008S133.231,110.578,132.518,110.578z"/>
</g>
</svg>
