<?xml version="1.0" encoding="utf-8"?>
<!-- Generator: Adobe Illustrator 16.0.0, SVG Export Plug-In . SVG Version: 6.00 Build 0)  -->
<!DOCTYPE svg PUBLIC "-//W3C//DTD SVG 1.1//EN" "http://www.w3.org/Graphics/SVG/1.1/DTD/svg11.dtd">
<svg version="1.1" id="Layer_1" xmlns="http://www.w3.org/2000/svg" xmlns:xlink="http://www.w3.org/1999/xlink" x="0px" y="0px"
	 width="124.17px" height="129.114px" viewBox="0 0 124.17 129.114" enable-background="new 0 0 124.17 129.114"
	 xml:space="preserve">
<path fill="#F4323C" d="M101.132,96.988c-0.058-0.317,0.158-2.285-2.104-2.285c-7.312,0-20.209,24.694-20.209,28.934
	c0,0.875,0.629,1.084,0.979,1.084c0.552,0,1.126-0.237,1.417-0.917c0,0,2.166-5.693,5-10.667c4.25-7.458,9.185-13.531,10.653-13.531
	c1.221,0-4.589,15.948-4.589,23.239c0,1.953,0.945,2.716,2.101,2.716c1.188,0,1.87-1.136,1.834-2.061
	c-0.146-3.676,0.101-4.893,0.537-8.074C97.576,109.406,101.132,99.845,101.132,96.988z"/>
<path fill="#F4323C" d="M122.267,95.213c-0.959,0-1.699,0.669-1.903,1.46c0,0-6.439,25.547-14.106,25.547
	c-6.646,0,5.238-23.91,5.238-23.91c0.396-0.914,0.303-3.008-1.709-3.008c-0.96,0-1.991,0.529-2.48,1.771
	c-1.92,4.864-6.138,14.425-6.138,20.987c0,3.569,1.278,6.736,5.213,6.736c10.417,0,16.112-22.25,17.707-27.225
	C124.379,96.664,123.923,95.213,122.267,95.213z"/>
<path fill="#F4323C" d="M112.077,32.642l-0.014-0.223c-0.023-0.186-0.05-0.354-0.075-0.49c-0.055-0.281-0.114-0.509-0.17-0.72
	c-0.118-0.422-0.239-0.787-0.363-1.141c-0.25-0.701-0.508-1.348-0.771-1.989c-0.523-1.279-1.074-2.505-1.646-3.719
	c-1.132-2.431-2.326-4.805-3.571-7.16c-1.227-2.362-2.498-4.701-3.862-7.022c-0.684-1.163-1.395-2.315-2.152-3.478
	c-0.771-1.168-1.519-2.31-2.639-3.571c-0.296-0.321-0.605-0.651-1.085-1.038c-0.25-0.195-0.526-0.409-1.011-0.651
	c-0.229-0.11-0.558-0.252-0.977-0.347c-0.114-0.024-0.23-0.045-0.347-0.062C93.259,1.017,93.114,1.005,92.972,1l-0.192-0.005
	l-1.966-0.04l-3.919-0.076l-7.852-0.157L63.356,0.377C52.893,0.152,42.432,0.002,31.974,0l-0.49,0.009l-0.126,0.002l-0.285,0.012
	l-0.121,0.004c-0.764,0.071-1.025,0.183-1.346,0.281c-1.181,0.439-1.625,0.841-2.098,1.188c-0.872,0.699-1.39,1.312-1.918,1.906
	c-1.002,1.19-1.825,2.324-2.607,3.474c-1.538,2.305-2.918,4.596-4.296,6.882c-1.345,2.3-2.736,4.553-4.049,6.846L10.695,27.5
	c-0.941,1.649-0.373,3.75,1.274,4.696c1.649,0.946,3.755,0.378,4.703-1.271l0.007-0.017c1.276-2.22,2.645-4.444,4.031-6.621
	c1.399-2.174,2.766-4.368,4.266-6.459c1.466-2.101,2.999-4.156,4.586-6.055c0.38-0.457,0.763-0.913,1.143-1.346l4.494,20.176
	l0.14,0.642l-11.187,0.504c-0.708,0.028-1.29,0.594-1.314,1.312c-0.024,0.753,0.563,1.388,1.316,1.407l12.205,0.499
	c0.245,0.594,0.516,1.184,0.808,1.761l2.861,5.877c1.895,3.926,3.872,7.813,5.815,11.718c3.073,6.065,6.225,12.099,9.464,18.092
	c-0.527-0.484-1.056-0.955-1.578-1.454c-3.693-3.534-7.324-7.258-10.889-11.034c-3.548-3.797-7.065-7.645-10.551-11.511
	c-3.496-3.862-6.953-7.783-10.337-11.719l-0.026-0.028c-0.06-0.064-0.114-0.128-0.174-0.188c-1.768-1.823-4.676-1.868-6.497-0.102
	c-1.82,1.768-1.868,4.677-0.1,6.497c7.331,7.557,14.589,15.109,22.096,22.5c3.75,3.705,7.493,7.405,11.457,10.998
	c0.995,0.898,2.003,1.792,3.056,2.676c1.067,0.885,2.12,1.75,3.451,2.643c0.345,0.224,0.703,0.447,1.164,0.691
	c0.23,0.122,0.494,0.25,0.832,0.379c0.368,0.123,0.758,0.299,1.651,0.347c0.091,0.007,0.62-0.015,0.414-0.01l0.062-0.005l0.29-0.033
	c0.116-0.014,0.229-0.035,0.344-0.062c0.316-0.073,0.495-0.134,0.67-0.197c0.353-0.131,0.595-0.245,0.83-0.358
	c0.446-0.229,0.803-0.443,1.141-0.654c1.316-0.842,2.388-1.668,3.472-2.517c4.249-3.379,8.125-6.915,12.049-10.449
	c3.897-3.543,7.73-7.146,11.516-10.791c3.784-3.655,7.55-7.319,11.25-11.079c1.854-1.882,3.688-3.779,5.499-5.737
	c0.905-0.979,1.802-1.978,2.695-3.022c0.446-0.523,0.891-1.058,1.343-1.654c0.23-0.297,0.453-0.604,0.698-0.97
	c0.121-0.188,0.252-0.395,0.393-0.651c0.07-0.129,0.147-0.286,0.234-0.478c0.039-0.088,0.091-0.24,0.134-0.361
	c0.045-0.14,0.104-0.349,0.143-0.561c0.028-0.159,0.04-0.321,0.047-0.48c0.01-0.211,0-0.278,0.005-0.264L112.077,32.642z
	 M91.638,7.414c-0.035-0.024-0.044-0.038-0.039-0.033C91.603,7.383,91.624,7.404,91.638,7.414z M86.895,7.866l3.919-0.079
	l1.186-0.026c0.645,0.667,1.374,1.625,2.051,2.588c0.708,1.005,1.384,2.07,2.054,3.146c1.335,2.16,2.616,4.389,3.851,6.64
	c1.209,2.264,2.381,4.56,3.471,6.863c0.264,0.554,0.499,1.105,0.752,1.659l-19.283,0.725l4.216-13.969
	c0.16-0.528-0.093-1.103-0.605-1.338c-0.559-0.264-1.227-0.017-1.488,0.544L81.641,26.24L63.758,8.355L79.043,8.02L86.895,7.866z
	 M41.679,22.407L35.218,8.721c7.252-0.02,14.51-0.112,21.765-0.248c-1.133,1.103-2.26,2.208-3.41,3.299
	c-1.799,1.667-3.611,3.326-5.441,4.966c-1.827,1.642-3.682,3.255-5.532,4.876L41.679,22.407z M56.952,15.142
	c1.164-1.238,2.338-2.471,3.526-3.69l18.168,18.166l-34.785,1.312C43.802,30.829,55.276,16.943,56.952,15.142z M47.199,39.287
	l-1.759-4.011l32.029,1.107L60.348,70.935c-2.552-6.591-5.245-13.122-7.979-19.633C50.646,47.295,48.968,43.27,47.199,39.287z
	 M96.432,42.528c-3.663,3.669-7.4,7.295-11.203,10.846c-3.8,3.554-7.64,7.067-11.53,10.508c-2.732,2.414-5.516,4.8-8.326,7.068
	L82.42,36.554l19.163,0.661C99.906,39.001,98.181,40.772,96.432,42.528z"/>
<path fill="#F4323C" d="M0,104.751h6.25v3.631c1.15-2.724,3.071-3.91,5.898-3.873v5.826c-3.805-0.104-5.898,1.084-5.898,4.014v8.657
	H0V104.751z"/>
<path fill="#F4323C" d="M14.805,116.654v-11.902h6.247v10.891c0,2.058,0.804,3.07,2.583,3.07c1.885,0,3.106-1.117,3.106-3.455
	v-10.506h6.247v18.255h-6.247v-2.827c-0.977,1.884-2.759,3.245-5.794,3.245C17.421,123.424,14.805,121.263,14.805,116.654z"/>
<path fill="#F4323C" d="M42.248,120.179v2.827h-6.25V96.724h6.25v10.75c1.045-1.744,2.93-3.211,5.688-3.211
	c4.257,0,7.715,3.211,7.715,9.459v0.28c0,6.281-3.458,9.422-7.75,9.422C45.178,123.424,43.153,122.134,42.248,120.179z
	 M49.296,114.002v-0.28c0-3.211-1.395-4.746-3.593-4.746c-2.27,0-3.632,1.64-3.632,4.71v0.281c0,3.105,1.362,4.676,3.632,4.676
	C48.041,118.643,49.296,117.003,49.296,114.002z"/>
<path fill="#F4323C" d="M62.777,121.158l-7.293-16.406h6.771l3.769,9.738l3.491-9.738h5.968l-9.772,24.362h-5.97L62.777,121.158z"/>
<path fill="#F4323C" d="M95.896,116.776c0.487,0.034,0.629,0.029,1.467,0.089c1.042,0.074,1.724-0.658,1.739-1.519
	c0.016-0.862-0.516-1.566-1.529-1.587c-0.374-0.008-0.735,0.016-1.106,0.016l-3.396,0.055c-1.771,0.068-5.789,0.389-7.56,0.67
	l-3.303,0.564c-1.135,0.26-2.315,0.543-3.428,0.916c-0.413,0.145-0.674,0.725-0.56,1.156c0.119,0.454,0.585,0.725,1.038,0.604
	c0.607-0.154,1.227-0.281,1.847-0.397l3.223-0.476c1.381-0.153,2.54-0.224,3.932-0.274c1.534-0.051,2.799-0.059,4.342-0.012
	L95.896,116.776z"/>
</svg>
