<?xml version="1.0" encoding="UTF-8" standalone="no"?>
<svg width="58px" height="39px" viewBox="0 0 58 39" version="1.1" xmlns="http://www.w3.org/2000/svg" xmlns:xlink="http://www.w3.org/1999/xlink">
    <!-- Generator: Sketch 3.8.3 (29802) - http://www.bohemiancoding.com/sketch -->
    <title>Envelope</title>
    <desc>Created with Sketch.</desc>
    <defs></defs>
    <g id="Page-1" stroke="none" stroke-width="1" fill="none" fill-rule="evenodd">
        <g id="Desktop-HD" transform="translate(-626.000000, -960.000000)" fill="#FFFFFF">
            <g id="Envelope" transform="translate(626.000000, 960.000000)">
                <path d="M55.758122,0 L1.29670051,0 C0.579625129,0 0,0.540822076 0,1.20989279 L0,37.5066764 C0,38.1757471 0.579625129,38.7165692 1.29670051,38.7165692 L55.758122,38.7165692 C56.4739007,38.7165692 57.0548225,38.1757471 57.0548225,37.5066764 L57.0548225,1.20989279 C57.0548225,0.540822076 56.4739007,0 55.758122,0 L55.758122,0 Z M54.4614215,33.370053 L38.3978956,18.383111 L36.564361,20.0938994 L53.9297743,36.2967836 L3.12504823,36.2967836 L20.4904615,20.0938994 L18.656927,18.383111 L2.59340102,33.370053 L2.59340102,2.41978558 L54.4614215,2.41978558 L54.4614215,33.370053 L54.4614215,33.370053 Z" id="Shape"></path>
                <path d="M51.8407898,2.41978558 L28.5274113,24.172448 L5.21403276,2.41978558 L2.59340102,2.41978558 L2.59340102,3.39616905 L27.610644,26.7386306 C28.1176539,27.2116987 28.9371686,27.2116987 29.4441785,26.7386306 L54.4614215,3.39616905 L54.4614215,2.41978558 L51.8407898,2.41978558 L51.8407898,2.41978558 Z" id="Shape"></path>
            </g>
        </g>
    </g>
</svg>