<?xml version="1.0" encoding="UTF-8" standalone="no"?>
<svg width="39px" height="39px" viewBox="0 0 39 39" version="1.1" xmlns="http://www.w3.org/2000/svg" xmlns:xlink="http://www.w3.org/1999/xlink">
    <!-- Generator: Sketch 3.8.3 (29802) - http://www.bohemiancoding.com/sketch -->
    <title>facebook</title>
    <desc>Created with Sketch.</desc>
    <defs></defs>
    <g id="Page-1" stroke="none" stroke-width="1" fill="none" fill-rule="evenodd">
        <g id="Desktop-HD" transform="translate(-783.000000, -960.000000)" fill="#FFFFFF">
            <g id="facebook" transform="translate(783.000000, 960.000000)">
                <g id="Group">
                    <path d="M19.4784571,0 C8.73798095,0 0,8.73798095 0,19.4784571 C0,30.2189333 8.73798095,38.9569143 19.4784571,38.9569143 C30.2189333,38.9569143 38.9569143,30.2189333 38.9569143,19.4784571 C38.9569143,8.73798095 30.2189333,0 19.4784571,0 L19.4784571,0 Z M19.4784571,36.7283429 C9.96679048,36.7283429 2.22857143,28.99 2.22857143,19.4784571 C2.22857143,9.96691429 9.96679048,2.22857143 19.4784571,2.22857143 C28.9901238,2.22857143 36.7283429,9.96691429 36.7283429,19.4784571 C36.7283429,28.99 28.9901238,36.7283429 19.4784571,36.7283429 L19.4784571,36.7283429 Z" id="Shape"></path>
                    <path d="M23.9898286,8.90834286 L21.3484762,8.90834286 C19.1866381,8.90834286 17.4278,10.667181 17.4278,12.829019 L17.4278,15.8004476 L14.9670857,15.8004476 C14.3516286,15.8004476 13.8528,16.2992762 13.8528,16.9147333 C13.8528,17.5301905 14.3516286,18.029019 14.9670857,18.029019 L17.4278,18.029019 L17.4278,28.3464381 C17.4278,28.9618952 17.9266286,29.4607238 18.5420857,29.4607238 C19.1575429,29.4607238 19.6563714,28.9618952 19.6563714,28.3464381 L19.6563714,18.029019 L23.4635143,18.029019 C24.0789714,18.029019 24.5778,17.5301905 24.5778,16.9147333 C24.5778,16.2992762 24.0789714,15.8004476 23.4635143,15.8004476 L19.6563714,15.8004476 L19.6563714,12.829019 C19.6563714,11.8959905 20.4154476,11.1369143 21.3484762,11.1369143 L23.9897048,11.1369143 C24.6051619,11.1369143 25.1039905,10.6380857 25.1039905,10.0226286 C25.1039905,9.40717143 24.6051619,8.90834286 23.9898286,8.90834286 L23.9898286,8.90834286 Z" id="Shape"></path>
                </g>
            </g>
        </g>
    </g>
</svg>