<svg width="1501px" height="799px" viewBox="-59 146 1501 799" version="1.1" xmlns="http://www.w3.org/2000/svg" xmlns:xlink="http://www.w3.org/1999/xlink">
  <!-- Generator: Sketch 39.1 (31720) - http://www.bohemiancoding.com/sketch -->
  <desc>Created with Sketch.</desc>
  <defs></defs>
  <g id="Splash-Overlay" stroke="none" stroke-width="1" fill="none" fill-rule="evenodd" transform="translate(-56.000000, 148.000000)">
    <path d="M509.5,72 L775.5,72" id="Line" stroke="#D8D8D8" stroke-width="4" stroke-linecap="square"></path>
    <path d="M828.5,72 L1094.5,72" id="Line" stroke="#D8D8D8" stroke-width="4" stroke-linecap="square"></path>
    <path d="M198.5,128 L464.5,128" id="Line" stroke="#D8D8D8" stroke-width="4" stroke-linecap="square"></path>
    <path d="M170.5,0 L170.5,128" id="Line" stroke="#D8D8D8" stroke-width="4" stroke-linecap="square"></path>
    <path d="M339.5,526 L21,741" id="Line" stroke="#D8D8D8" stroke-width="4" stroke-linecap="square"></path>
    <path d="M318.5,492 L0,707" id="Line" stroke="#D8D8D8" stroke-width="4" stroke-linecap="square"></path>
    <path d="M321.5,512 L3,727" id="Line" stroke="#D8D8D8" stroke-width="4" stroke-linecap="square"></path>
    <path d="M908.5,710 L908.5,795" id="Line" stroke="#D8D8D8" stroke-width="4" stroke-linecap="square"></path>
    <ellipse id="Oval-1" fill="#D8D8D8" cx="514" cy="395.655172" rx="14" ry="13.6551724"></ellipse>
    <ellipse id="Oval-1" fill="#D8D8D8" cx="908" cy="710.359606" rx="26" ry="25.3596059"></ellipse>
    <path d="M913.5,701 L1411.5,701" id="Line" stroke="#D8D8D8" stroke-width="4" stroke-linecap="square"></path>
    <path d="M712.5,629.5 L1210.5,629.5" id="Line" stroke="#D8D8D8" stroke-width="7" stroke-linecap="square"></path>
    <path d="M226.5,104.5 L724.5,104.5" id="Line" stroke="#D8D8D8" stroke-width="7" stroke-linecap="square"></path>
    <path d="M712.5,605.5 L1210.5,605.5" id="Line" stroke="#D8D8D8" stroke-width="7" stroke-linecap="square"></path>
    <path d="M667.5,79.5 L1493.5,79.5" id="Line" stroke="#D8D8D8" stroke-width="7" stroke-linecap="square"></path>
    <path d="M611.5,53.5 L1490.5,53.5" id="Line" stroke="#D8D8D8" stroke-width="7" stroke-linecap="square"></path>
    <path d="M712.5,629.5 L1210.5,629.5" id="Line" stroke="#D8D8D8" stroke-width="7" stroke-linecap="square"></path>
    <path d="M712.5,605.5 L1210.5,605.5" id="Line" stroke="#D8D8D8" stroke-width="7" stroke-linecap="square"></path>
    <ellipse id="Oval-7" stroke="#D8D8D8" stroke-width="4" cx="1413" cy="697" rx="56" ry="56"></ellipse>
    <ellipse id="Oval-1" fill="#D8D8D8" cx="1413" cy="697.359606" rx="26" ry="25.3596059"></ellipse>
    <ellipse id="Oval-7" stroke="#D8D8D8" stroke-width="4" cx="172" cy="126" rx="56" ry="56"></ellipse>
    <ellipse id="Oval-1" fill="#D8D8D8" cx="172" cy="126.359606" rx="26" ry="25.3596059"></ellipse>
  </g>
</svg>