<?xml version="1.0" encoding="UTF-8" standalone="no"?>
<svg width="39px" height="39px" viewBox="0 0 39 39" version="1.1" xmlns="http://www.w3.org/2000/svg" xmlns:xlink="http://www.w3.org/1999/xlink">
    <!-- Generator: Sketch 3.8.3 (29802) - http://www.bohemiancoding.com/sketch -->
    <title>twitter</title>
    <desc>Created with Sketch.</desc>
    <defs></defs>
    <g id="Page-1" stroke="none" stroke-width="1" fill="none" fill-rule="evenodd">
        <g id="Desktop-HD" transform="translate(-714.000000, -960.000000)" fill="#FFFFFF">
            <g id="twitter" transform="translate(714.000000, 960.000000)">
                <g id="Group">
                    <path d="M19.4784571,0 C8.73798095,0 0,8.73798095 0,19.4784571 C0,30.2189333 8.73798095,38.9569143 19.4784571,38.9569143 C30.2189333,38.9569143 38.9569143,30.2189333 38.9569143,19.4784571 C38.9569143,8.73798095 30.2189333,0 19.4784571,0 L19.4784571,0 Z M19.4784571,36.7283429 C9.96691429,36.7283429 2.22857143,28.99 2.22857143,19.4784571 C2.22857143,9.96691429 9.96691429,2.22857143 19.4784571,2.22857143 C28.99,2.22857143 36.7283429,9.96691429 36.7283429,19.4784571 C36.7283429,28.99 28.99,36.7283429 19.4784571,36.7283429 L19.4784571,36.7283429 Z" id="Shape"></path>
                    <path d="M23.3165524,16.4426476 C23.9320095,16.4426476 24.4308381,15.943819 24.4308381,15.3283619 C24.4308381,14.7129048 23.9320095,14.2140762 23.3165524,14.2140762 L16.7546476,14.2140762 L16.7546476,13.0817143 C16.7546476,12.4662571 16.255819,11.9674286 15.6403619,11.9674286 C15.0249048,11.9674286 14.5260762,12.4662571 14.5260762,13.0817143 L14.5260762,20.4419429 C14.5260762,24.0523524 17.4633333,26.9897333 21.0737429,26.9897333 L23.3165524,26.9897333 C23.9320095,26.9897333 24.4308381,26.4909048 24.4308381,25.8754476 C24.4308381,25.2599905 23.9320095,24.7611619 23.3165524,24.7611619 L21.0737429,24.7611619 C18.6922667,24.7611619 16.7546476,22.8236667 16.7546476,20.4419429 L16.7546476,16.4426476 L23.3165524,16.4426476 L23.3165524,16.4426476 Z" id="Shape"></path>
                </g>
            </g>
        </g>
    </g>
</svg>