<svg id="Layer_1" data-name="Layer 1" xmlns="http://www.w3.org/2000/svg" viewBox="0 0 600 600"><defs><style>.cls-1{fill:none;stroke:#fff;stroke-miterlimit:10;stroke-width:5px;}</style></defs><title>ruby</title><ellipse class="cls-1" cx="254.01" cy="191.79" rx="169" ry="67.81" transform="translate(-59.44 136.51) rotate(-27.05)"/><polyline class="cls-1" points="102.48 431.75 417.7 512.07 537.23 209.73"/><polyline class="cls-1" points="289.83 261.66 214.13 300.32 98.64 300.64 91.58 253.83 57.93 344.07 102.53 431.39 258.83 431.83 354.32 388.22 417.46 511.86"/><polyline class="cls-1" points="417.51 511.84 354.37 388.19 445.68 336.42 536.97 209.54 492.37 122.21 399.55 96.56 433.33 129.72 365.35 223.09 289.65 261.75"/><polyline class="cls-1" points="258.76 431.69 417.7 512.07 445.78 336.18"/><path class="cls-1" d="M57.86,343.92l40.7-43.42s4,128.66,3.9,130.75c1.3.36,111.59-131.08,111.59-131.08L354.35,388l11.1-165.16s171.14-12.29,171.61-13.56c-1.72-1.17-103.63-79.81-103.63-79.81l59-7.51"/></svg>