<?xml version="1.0" standalone="no"?>
<!DOCTYPE svg PUBLIC "-//W3C//DTD SVG 20010904//EN"
 "http://www.w3.org/TR/2001/REC-SVG-20010904/DTD/svg10.dtd">
<svg version="1.0" xmlns="http://www.w3.org/2000/svg"
 width="1831.934010pt" height="1832.206103pt" viewBox="0 0 1831.934010 1832.206103"
 preserveAspectRatio="xMidYMid meet">
<g transform="translate(-0.924753,1832.641420) rotate(-360.00) scale(0.095238,-0.095238)"
fill="" stroke="none">
<path d="M9230 19240 c-32 -2 -141 -9 -242 -15 -334 -21 -621 -54 -982 -115
-1609 -272 -3122 -954 -4409 -1988 -475 -381 -985 -884 -1372 -1351 -1630
-1967 -2402 -4454 -2177 -7014 267 -3049 1996 -5800 4641 -7389 2037 -1223
4472 -1644 6825 -1179 1382 274 2694 855 3837 1699 650 480 1281 1088 1790
1724 865 1079 1489 2335 1821 3662 125 497 213 1030 259 1567 23 261 32 1036
16 1322 -89 1565 -550 3072 -1343 4394 -1377 2296 -3619 3908 -6223 4473 -427
93 -868 156 -1376 196 -134 11 -953 22 -1065 14z m1695 -2662 c32 -15 111
-117 149 -190 38 -76 59 -170 51 -227 -4 -27 -28 -153 -53 -280 -49 -247 -90
-523 -115 -774 -22 -218 -23 -214 18 -228 57 -18 110 -70 145 -143 46 -93 39
-100 -78 -80 -48 9 -96 12 -107 9 -17 -7 -18 -28 -12 -344 7 -370 8 -361 -56
-335 -17 7 -50 34 -73 60 -75 85 -112 228 -123 468 l-6 144 -35 0 c-19 0 -147
-12 -284 -26 -138 -14 -303 -29 -368 -33 l-117 -7 -60 -132 c-49 -109 -161
-381 -186 -456 -9 -24 -52 -23 -74 1 -78 86 -73 272 15 523 l44 124 -25 16
c-81 53 -154 154 -128 180 7 7 47 7 124 -3 92 -10 115 -10 118 1 28 82 320
613 471 855 275 439 630 868 736 889 1 0 14 -6 29 -12z m2318 -69 c15 -16 35
-53 45 -82 23 -68 24 -227 1 -323 -67 -283 -594 -1451 -795 -1761 -74 -115
-216 -261 -306 -313 -246 -145 -557 -122 -750 54 -108 99 -161 207 -184 373
-39 297 106 751 481 1503 220 440 288 561 318 565 35 5 81 -43 107 -113 19
-50 21 -74 17 -168 -8 -165 -35 -239 -270 -741 -292 -621 -373 -864 -373
-1123 0 -132 1 -139 32 -194 41 -74 89 -100 184 -100 94 0 170 39 273 142 155
153 279 371 465 813 234 558 630 1420 681 1483 18 21 45 16 74 -15z m-6092
-81 c0 -13 -646 -593 -652 -586 -15 17 -409 581 -409 586 0 2 239 5 530 5 292
0 531 -3 531 -5z m1447 -5 c-8 -21 -424 -588 -430 -586 -6 2 -284 258 -603
556 l-42 39 539 0 c325 0 538 -3 536 -9z m-867 -383 c143 -133 260 -243 260
-244 0 -2 -296 -4 -657 -4 l-657 0 333 304 332 305 65 -60 c35 -34 181 -169
324 -301z m-1580 41 l198 -284 -208 -3 c-114 -1 -304 -1 -422 0 l-214 3 216
286 c119 157 220 285 224 284 4 -2 96 -130 206 -286z m2806 0 l200 -284 -204
-3 c-113 -1 -300 -1 -415 0 l-211 3 207 286 c114 157 211 284 215 283 4 -1 97
-129 208 -285z m-2151 -1313 c201 -485 364 -884 363 -888 -3 -6 -1596 1750
-1602 1767 -2 5 193 8 435 6 l438 -3 366 -882z m1258 874 c0 -26 -718 -1835
-726 -1827 -7 8 -711 1765 -727 1817 l-8 24 731 0 c576 0 730 -3 730 -14z
m1058 1 c-6 -17 -1577 -1771 -1582 -1766 -2 2 153 403 346 891 l349 888 446 0
c341 0 444 -3 441 -13z m-3009 -3331 c172 -33 306 -104 429 -226 95 -95 158
-197 203 -328 l33 -98 0 -283 0 -284 -35 -99 c-40 -116 -76 -181 -146 -268
-128 -158 -314 -261 -530 -292 l-91 -13 441 -693 c242 -381 443 -696 446 -701
3 -4 -74 -7 -171 -7 l-177 0 -446 703 -446 704 -202 0 -202 0 0 -704 0 -703
-153 0 -152 0 0 1653 0 1654 561 0 c439 0 577 -3 638 -15z m1691 -1311 l3
-1325 23 -62 c61 -161 181 -280 338 -332 62 -21 85 -22 289 -19 l221 3 79 38
c140 67 240 181 284 322 20 66 21 101 21 1384 l0 1317 152 0 152 0 0 -1320 c0
-1278 -1 -1324 -21 -1407 -40 -167 -121 -306 -245 -419 -89 -81 -179 -133
-301 -175 l-100 -33 -257 0 c-238 -1 -264 1 -341 23 -145 42 -240 99 -352 212
-55 55 -116 127 -135 161 -49 83 -93 217 -106 322 -7 58 -11 536 -11 1363 l0
1273 152 0 152 0 3 -1326z m3654 1297 c257 -81 445 -250 540 -486 45 -111 58
-200 53 -351 -4 -120 -9 -150 -39 -241 -58 -172 -172 -322 -319 -419 l-61 -41
63 -41 c93 -60 211 -191 262 -289 80 -155 89 -200 95 -458 5 -253 -5 -322 -61
-459 -96 -232 -302 -409 -552 -473 -76 -19 -117 -20 -668 -20 l-586 0 0 1654
0 1654 601 -4 c579 -3 604 -4 672 -26z m1660 -656 l340 -685 339 685 339 685
161 0 c89 0 162 -2 162 -4 0 -2 -192 -393 -426 -867 l-425 -863 0 -787 0 -786
-152 0 -152 0 0 791 0 792 -285 576 c-157 317 -348 705 -425 862 l-140 286
162 0 163 0 339 -685z m-7107 -3582 c219 -62 415 -224 514 -423 57 -116 80
-211 87 -362 7 -154 24 -136 -149 -161 -64 -10 -124 -20 -134 -23 -17 -4 -18
6 -18 116 0 67 -6 146 -12 177 -43 203 -225 375 -429 407 -89 13 -291 13 -378
0 -208 -33 -387 -203 -430 -407 -8 -39 -11 -354 -11 -1009 0 -822 2 -961 16
-1014 43 -166 164 -297 335 -363 54 -21 88 -25 237 -29 202 -5 268 4 376 55
142 68 252 207 284 360 6 31 12 108 12 171 0 112 0 115 23 115 23 0 193 -26
252 -38 l29 -6 0 -96 c-2 -417 -262 -750 -649 -832 -96 -20 -475 -20 -571 0
-160 34 -283 102 -407 227 -130 129 -192 247 -227 428 -22 114 -22 1948 0
2062 63 330 306 582 631 653 105 23 528 17 619 -8z m2544 8 c329 -67 579 -324
639 -655 21 -119 21 -1949 -1 -2060 -35 -181 -103 -308 -231 -434 -121 -119
-245 -187 -403 -221 -96 -20 -474 -20 -570 0 -333 71 -590 346 -639 684 -8 59
-11 368 -8 1055 l3 971 24 79 c93 303 321 518 616 581 106 22 462 23 570 0z
m2326 -1236 c463 -809 693 -1221 698 -1250 4 -24 10 519 13 1206 l5 1250 147
0 147 0 3 -1657 3 -1657 -81 3 -81 3 -690 1204 c-497 868 -692 1218 -700 1255
-7 35 -11 -332 -12 -1207 l-1 -1257 -152 0 -152 0 0 1652 c0 909 3 1655 7
1659 4 4 41 6 81 5 l74 -3 691 -1206z m3751 1064 l0 -142 -780 -2 -779 -3 0
-609 0 -609 630 0 630 0 0 -147 0 -147 -630 0 -630 0 -3 -753 -3 -754 -149 -3
-150 -3 0 1660 0 1659 932 -3 932 -2 0 -142z m-6292 -4668 c67 -24 119 -73
156 -147 29 -60 33 -78 33 -154 0 -203 -129 -437 -385 -698 l-115 -118 254 0
254 0 0 -53 0 -52 -347 0 -346 0 0 36 c0 34 14 52 170 208 181 180 264 286
332 423 53 105 67 159 68 252 1 62 -3 81 -27 122 -37 63 -95 93 -182 92 -126
0 -204 -67 -213 -180 l-4 -63 -38 6 c-21 3 -47 6 -57 6 -14 0 -18 10 -18 46 0
138 110 266 251 291 59 10 159 2 214 -17z m940 -5 c93 -41 150 -108 176 -209
14 -54 16 -123 13 -429 -3 -344 -4 -367 -25 -412 -56 -120 -147 -179 -288
-186 -147 -7 -247 43 -310 157 l-31 56 -3 397 c-4 450 -2 462 73 547 72 82
162 115 287 104 34 -3 83 -14 108 -25z m933 -6 c30 -14 70 -43 88 -64 178
-203 57 -558 -321 -945 l-96 -97 256 0 255 0 0 -53 0 -52 -346 0 -347 0 0 44
c0 44 3 48 98 132 173 152 316 330 395 490 135 273 76 466 -141 467 -123 1
-204 -69 -213 -185 l-5 -58 -49 7 c-26 4 -52 10 -57 13 -14 9 0 102 22 153 41
93 119 153 224 175 71 15 175 3 237 -27z m908 11 c67 -22 128 -78 163 -149 26
-53 30 -72 30 -155 0 -86 -4 -102 -32 -158 -19 -37 -48 -74 -73 -93 l-42 -31
58 -59 c71 -70 94 -133 94 -251 0 -123 -22 -182 -94 -254 -69 -69 -131 -94
-237 -93 -106 0 -168 24 -237 93 -63 63 -93 131 -93 207 0 32 3 35 39 41 22 4
48 9 58 12 15 4 18 -2 18 -38 0 -78 44 -152 110 -187 42 -22 168 -22 210 0 78
41 111 108 111 230 0 157 -61 228 -204 239 l-75 6 0 53 0 52 79 6 c83 5 107
14 144 54 36 39 56 97 56 168 0 134 -70 209 -201 217 -132 7 -218 -62 -228
-184 l-5 -58 -48 7 c-27 4 -53 10 -58 13 -14 9 0 102 23 153 68 154 248 220
434 159z m-3469 -637 l4 -50 -169 0 -168 0 0 53 0 53 165 -3 165 -3 3 -50z
m4245 3 l0 -53 -163 0 -163 0 0 53 0 52 163 0 163 0 0 -52z"/>
<path d="M10731 16015 c-54 -73 -155 -218 -225 -322 -216 -322 -523 -846 -496
-846 7 0 130 14 275 31 144 18 289 32 322 32 l60 0 5 45 c3 24 11 125 17 223
20 301 68 646 120 863 14 56 24 104 23 105 -2 2 -47 -57 -101 -131z"/>
<path d="M5219 11383 l0 -662 413 0 c387 0 418 1 483 21 140 43 270 163 328
303 29 67 30 76 33 297 5 253 -2 309 -50 405 -64 126 -177 222 -314 267 -65
21 -93 23 -481 27 l-412 4 0 -662z"/>
<path d="M10490 11477 l0 -567 412 0 c447 0 472 2 575 58 119 65 212 178 252
307 25 81 29 291 6 375 -38 142 -147 272 -282 336 -106 50 -181 57 -609 57
l-354 1 0 -567z"/>
<path d="M10490 9959 l0 -656 402 0 c443 0 470 3 588 66 115 61 199 161 245
291 22 63 24 85 24 296 0 197 -2 236 -20 294 -41 130 -139 245 -265 309 -105
53 -140 57 -572 57 l-402 0 0 -657z"/>
<path d="M8075 7790 c-195 -32 -379 -210 -419 -406 -17 -78 -17 -1922 0 -2000
37 -177 165 -321 345 -387 63 -23 83 -25 273 -25 190 0 210 2 273 25 176 64
295 193 342 370 12 47 15 217 15 1009 0 653 -4 969 -12 1008 -42 201 -224 375
-429 407 -81 12 -307 12 -388 -1z"/>
<path d="M9034 3119 c-24 -10 -57 -37 -73 -59 l-31 -40 -3 -393 -3 -393 26
-43 c37 -64 99 -95 185 -95 86 0 140 25 184 87 l31 45 3 360 c3 240 0 375 -8
404 -14 52 -66 114 -112 133 -49 21 -148 18 -199 -6z"/>
</g>
</svg>
