<?xml version="1.0" encoding="utf-8"?>
<!-- Generator: Adobe Illustrator 16.0.0, SVG Export Plug-In . SVG Version: 6.00 Build 0)  -->
<!DOCTYPE svg PUBLIC "-//W3C//DTD SVG 1.1//EN" "http://www.w3.org/Graphics/SVG/1.1/DTD/svg11.dtd">
<svg version="1.1" id="Layer_1" xmlns="http://www.w3.org/2000/svg" xmlns:xlink="http://www.w3.org/1999/xlink" x="0px" y="0px"
	 width="600px" height="600px" viewBox="0 0 600 600" enable-background="new 0 0 600 600" xml:space="preserve">
<g>
	<path fill="#FFFFFF" d="M596.088,299.251c0,163.94-132.932,296.884-296.883,296.884c-163.981,0-296.906-132.943-296.906-296.884
		c0-163.986,132.925-296.888,296.906-296.888C463.156,2.363,596.088,135.265,596.088,299.251z M299.205,46.79
		c-139.431,0-252.474,113.019-252.474,252.461c0,139.42,113.042,252.455,252.474,252.455c139.396,0,252.456-113.035,252.456-252.455
		C551.661,159.809,438.602,46.79,299.205,46.79z"/>
	<g>
		<g>
			<path fill="#FFFFFF" d="M176.181,238.516c-9.168,0-22.167,5.307-26.03,14.451h-0.418V92.574h-42.708v118.704h-0.222v171.994
				h0.222v0.197h42.708V275.113c0.238-3.798,1.303-7.708,5.97-7.708c5.528,0,6.744,5.784,6.744,10.15v105.716h42.873V276.071
				C205.319,250.305,194.236,238.516,176.181,238.516z M267.714,238.516c-23.601,0-50.594,10.111-50.594,46.705v54.953
				c0,36.6,26.993,46.699,50.594,46.699c22.622,0,47.671-10.1,47.671-46.699v-14.468h-41.427v25.288
				c0,5.324-1.439,9.901-7.468,9.901c-5.306,0-6.486-3.635-6.486-9.166v-36.85h55.381V285.22
				C315.385,249.828,288.412,238.516,267.714,238.516z M273.958,291.745h-13.954v-18.044c0-5.557,1.181-9.178,6.486-9.178
				c6.028,0,7.468,4.572,7.468,9.883V291.745z M450.494,238.516c-23.6,0-50.555,10.111-50.555,46.705v54.953
				c0,36.6,26.955,46.699,50.555,46.699c23.635,0,50.602-10.1,50.602-46.699V285.22
				C501.096,248.627,474.129,238.516,450.494,238.516z M458.206,348.618c0,4.788-2.376,9.365-7.712,9.365
				c-5.288,0-7.688-4.577-7.688-9.365v-74.713c0-4.811,2.399-9.383,7.688-9.383c5.336,0,7.712,4.572,7.712,9.383V348.618z
				 M367.149,260.2h-0.442v-18.061h-41.433v141.132h42.854v-75.377c0-11.106,6.745-18.551,18.321-18.551
				c2.389,0,4.813,0.233,7.211,0.473v-51.301C384.04,239.466,371.261,246.71,367.149,260.2z"/>
		</g>
	</g>
	<g>
		<g>
			<path fill="#FFFFFF" d="M252.373,179.687c-8.154,0-17.462,3.49-17.462,16.127v18.965c0,12.648,9.308,16.125,17.462,16.125
				c7.817,0,16.47-3.477,16.47-16.125v-4.998h-14.298v8.76c0,1.817-0.505,3.395-2.574,3.395c-1.847,0-2.248-1.258-2.248-3.174
				v-12.702h19.12v-10.246C268.842,183.588,259.531,179.687,252.373,179.687z M254.544,198.051h-4.822v-6.232
				c0-1.904,0.401-3.15,2.248-3.15c2.069,0,2.574,1.571,2.574,3.407V198.051z M217.106,219.669h-0.162l-3.833-38.736h-13.723
				l7.233,48.726h19.392l6.899-48.726h-12.976L217.106,219.669z M181.592,179.687c-8.153,0-17.468,3.49-17.468,16.127v18.965
				c0,12.648,9.315,16.125,17.468,16.125c7.828,0,16.47-3.477,16.47-16.125v-4.998h-14.298v8.76c0,1.817-0.507,3.395-2.587,3.395
				c-1.828,0-2.247-1.258-2.247-3.174v-12.702h19.133v-10.246C198.062,183.588,188.736,179.687,181.592,179.687z M183.764,198.051
				h-4.834v-6.232c0-1.904,0.419-3.15,2.247-3.15c2.08,0,2.587,1.571,2.587,3.407V198.051z M427.851,180.933l-2.573,37.514h-0.177
				l-3.797-37.514h-14.306l7.876,42.75c0.151,1.002,0.512,2.731,0.512,3.146c0,2.096-0.594,2.83-2.889,3.016h-3.438v6.972h15.471
				c7.908,0,9.646-6.814,10.636-14.137l5.659-41.747H427.851z M388.199,179.687c-11.185,0-16.296,4.141-16.296,14.87v5.16h13.708
				v-9.651c0-1.502,0.572-2.894,2.215-2.894c1.701,0,2.505,1.497,2.505,2.894v6.174c0,2.819-0.734,3.652-9.041,6.803
				c-9.098,3.332-9.387,5.34-9.387,10.892v6.581c0,6.162,3.296,10.39,9.609,10.39c3.748,0,7.175-1.718,9.317-3.989v2.743h14.316
				v-35.604C405.146,182.767,398.659,179.687,388.199,179.687z M390.331,219.192c0,1.061-0.734,2.488-2.553,2.488
				c-1.35,0-2.167-1.322-2.167-2.727v-5.072c0-3.436,1.668-5.499,4.72-7.415V219.192z M286.729,187.171h-0.161v-6.238h-14.312
				v48.726h14.793v-26.04c0-3.796,2.335-6.39,6.319-6.39c0.852,0,1.678,0.076,2.51,0.17v-17.712
				C292.553,180.006,288.127,182.505,286.729,187.171z M315.989,218.446h-0.162l-3.821-37.514h-14.31l7.915,42.75
				c0.146,1.002,0.473,2.731,0.473,3.146c0,2.096-0.565,2.83-2.884,3.016h-3.431v6.972h15.439c7.944,0,9.658-6.814,10.672-14.137
				l5.66-41.747h-12.989L315.989,218.446z M351.459,182.304c-2.081-1.725-4.807-2.617-7.441-2.617
				c-7.653,0-10.648,4.141-10.648,11.724v28.171c-0.174,6.495,2.912,11.322,9.971,11.322c3.067,0,5.819-1.063,8.119-2.69v1.433
				h1.203l-0.003,0.012h15.564v-0.012h0.092V48.887h-16.856V182.304z M351.459,220.857c-0.256,0.047-0.537,0.076-0.861,0.076
				c-2.003,0-2.41-1.479-2.41-3.232v-24.625c0-2.668,0.407-3.919,2.666-3.919c0.223,0,0.42,0.022,0.605,0.054V220.857z"/>
		</g>
	</g>
</g>
<g>
</g>
<g>
</g>
<g>
</g>
<g>
</g>
<g>
</g>
<g>
</g>
<g>
</g>
<g>
</g>
<g>
</g>
<g>
</g>
<g>
</g>
<g>
</g>
</svg>
