<?xml version="1.0" encoding="utf-8"?>
<!-- Generator: Adobe Illustrator 16.0.0, SVG Export Plug-In . SVG Version: 6.00 Build 0)  -->
<!DOCTYPE svg PUBLIC "-//W3C//DTD SVG 1.1//EN" "http://www.w3.org/Graphics/SVG/1.1/DTD/svg11.dtd">
<svg version="1.1" id="Layer_1" xmlns="http://www.w3.org/2000/svg" xmlns:xlink="http://www.w3.org/1999/xlink" x="0px" y="0px"
	 width="322.977px" height="63.667px" viewBox="0 0 322.977 63.667" enable-background="new 0 0 322.977 63.667"
	 xml:space="preserve">
<g>
	<path fill="#FFFFFF" d="M102.86,29.777c-0.564,2.818-1.764,5.248-3.588,7.287c-1.832,2.04-4.17,3.708-7.022,5.014
		c-2.851,1.304-6.109,2.265-9.767,2.9c-3.663,0.634-7.637,0.953-11.928,0.953h-2.43c0.423,2.675,1.564,4.804,3.43,6.383
		c1.865,1.588,4.59,2.377,8.183,2.377c2.6,0,5.228-0.422,7.865-1.263c2.64-0.846,5.053-1.972,7.235-3.38l-1.688,9.713
		c-2.255,1.198-4.614,2.056-7.077,2.584c-2.465,0.528-4.819,0.795-7.074,0.795c-3.312,0-6.246-0.474-8.817-1.429
		c-2.569-0.945-4.745-2.283-6.543-4.008c-1.795-1.726-3.17-3.788-4.12-6.176c-0.952-2.396-1.425-5.036-1.425-7.924
		c0-0.843,0.053-1.687,0.161-2.531c0.104-0.839,0.221-1.719,0.364-2.639c0.635-3.38,1.85-6.582,3.643-9.61
		c1.799-3.023,3.993-5.66,6.604-7.914c2.601-2.252,5.522-4.05,8.761-5.39c3.236-1.338,6.61-2.008,10.137-2.008
		c4.568,0,8.287,1.145,11.136,3.437c2.851,2.283,4.274,5.436,4.274,9.45C103.175,27.525,103.07,28.653,102.86,29.777z
		 M91.776,23.494c-1.199-1.021-2.818-1.531-4.858-1.531c-1.898,0-3.802,0.388-5.699,1.16c-1.901,0.776-3.694,1.887-5.385,3.327
		c-1.687,1.446-3.169,3.153-4.432,5.122c-1.27,1.969-2.186,4.157-2.749,6.547h2.115c6.757,0,12.084-0.813,15.991-2.429
		c3.905-1.623,6.139-3.804,6.702-6.55c0.074-0.351,0.105-0.843,0.105-1.474C93.566,25.907,92.971,24.515,91.776,23.494z"/>
	<path fill="#FFFFFF" d="M152.274,30.201l-5.594,32.304h-9.612l5.809-32.939c0.07-0.354,0.123-0.652,0.157-0.898
		c0.039-0.244,0.055-0.54,0.055-0.896c0-1.971-0.58-3.521-1.742-4.648c-1.159-1.126-2.73-1.688-4.698-1.688
		c-3.52,0-6.547,0.879-9.079,2.639c-2.534,1.764-4.684,3.997-6.442,6.706c-1.759,2.71-3.167,5.661-4.225,8.867
		c-1.056,3.208-1.831,6.253-2.325,9.138l-2.423,13.721h-9.61l8.442-47.827h9.613l-1.902,10.131l0.214,0.11
		c1.967-3.73,4.576-6.562,7.81-8.496c3.241-1.937,6.971-2.91,11.192-2.91c2.043,0,3.96,0.299,5.756,0.898
		c1.796,0.602,3.342,1.477,4.644,2.641c1.303,1.165,2.34,2.589,3.122,4.273c0.764,1.69,1.158,3.594,1.158,5.708
		C152.594,28.086,152.488,29.141,152.274,30.201z"/>
	<path fill="#FFFFFF" d="M170.968,63.357h-3.909l-11.405-48.68h9.291l4.962,21.327c0.35,1.55,0.689,3.293,1.008,5.223
		c0.312,1.946,0.617,3.822,0.894,5.654h0.213c0.911-1.832,1.861-3.708,2.849-5.654c0.986-1.93,1.936-3.673,2.855-5.223
		l12.457-21.327h9.394L170.968,63.357z"/>
	<path fill="#FFFFFF" d="M236.211,62.505h-9.603l1.688-9.29l-0.315-0.103c-2.047,3.803-4.669,6.51-7.865,8.126
		c-3.207,1.62-6.391,2.429-9.558,2.429c-3.026,0-5.647-0.549-7.862-1.631c-2.223-1.094-4.055-2.537-5.492-4.332
		c-1.447-1.794-2.519-3.836-3.221-6.124c-0.707-2.283-1.056-4.63-1.056-7.021c0-0.774,0.033-1.547,0.104-2.322
		c0.066-0.774,0.17-1.55,0.319-2.324c0.841-4.361,2.354-8.186,4.535-11.463c2.185-3.266,4.811-6.011,7.866-8.23
		c3.063-2.218,6.386-3.891,9.979-5.014c3.586-1.128,7.248-1.693,10.982-1.693c3.23,0,6.386,0.34,9.445,1.003
		c3.068,0.675,5.719,1.639,7.979,2.908L236.211,62.505z M230.091,21.644c-1.479-0.209-2.922-0.318-4.331-0.318
		c-2.745,0-5.386,0.51-7.916,1.535c-2.535,1.023-4.824,2.416-6.863,4.173c-2.044,1.757-3.765,3.835-5.174,6.23
		c-1.412,2.393-2.358,4.92-2.854,7.602c-0.209,1.265-0.311,2.496-0.311,3.694c0,1.41,0.171,2.777,0.522,4.118
		c0.353,1.335,0.931,2.513,1.745,3.534c0.805,1.023,1.863,1.83,3.166,2.429c1.301,0.595,2.904,0.898,4.803,0.898
		c1.758,0,3.605-0.506,5.544-1.534c1.938-1.019,3.763-2.477,5.493-4.382c1.721-1.896,3.267-4.221,4.64-6.967
		c1.372-2.743,2.377-5.84,3.015-9.286l2.004-10.881C232.732,22.141,231.57,21.855,230.091,21.644z"/>
	<path fill="#FFFFFF" d="M274.496,22.385h-15.211l-4.428,25.447c-0.073,0.351-0.126,0.738-0.158,1.16
		c-0.038,0.424-0.057,0.813-0.057,1.164c0,1.9,0.531,3.216,1.584,3.956c1.057,0.738,2.466,1.109,4.224,1.109
		c0.842,0,1.777-0.065,2.797-0.207c1.023-0.144,1.917-0.395,2.696-0.745l-1.377,7.714c-0.77,0.354-1.809,0.613-3.11,0.788
		c-1.301,0.171-2.378,0.265-3.224,0.265c-3.733,0-6.843-1.053-9.342-3.168c-2.5-2.114-3.748-5.106-3.748-8.974
		c0-0.494,0-0.986,0-1.479c0-0.495,0.07-0.989,0.207-1.481l4.435-25.55l1.376-7.707l1.688-9.715L263.195,0l-2.533,14.678h16.896
		L274.496,22.385z"/>
	<path fill="#FFFFFF" d="M320.491,45.72c-1.649,3.521-3.854,6.613-6.597,9.295c-2.742,2.673-5.916,4.783-9.503,6.331
		c-3.594,1.547-7.358,2.321-11.296,2.321c-3.102,0-5.949-0.494-8.553-1.477c-2.611-0.986-4.858-2.393-6.762-4.227
		c-1.896-1.83-3.397-4.024-4.486-6.596c-1.087-2.567-1.638-5.437-1.638-8.606c0-4.011,0.832-7.777,2.486-11.299
		c1.646-3.519,3.851-6.615,6.597-9.293c2.745-2.671,5.909-4.785,9.5-6.33c3.594-1.548,7.357-2.327,11.299-2.327
		c3.102,0,5.949,0.497,8.549,1.477c2.607,0.992,4.859,2.396,6.757,4.229c1.903,1.83,3.402,4.027,4.492,6.603
		c1.085,2.565,1.64,5.435,1.64,8.603C322.977,38.435,322.146,42.201,320.491,45.72z M309.988,25.391
		c-2.185-2.286-5.211-3.428-9.082-3.428c-2.675,0-5.207,0.579-7.602,1.741c-2.396,1.159-4.467,2.714-6.229,4.646
		c-1.763,1.935-3.149,4.156-4.173,6.651s-1.53,5.055-1.53,7.654c0,3.802,1.094,6.846,3.277,9.132
		c2.181,2.292,5.202,3.434,9.075,3.434c2.674,0,5.21-0.581,7.603-1.743c2.393-1.164,4.469-2.702,6.23-4.646
		c1.758-1.933,3.149-4.149,4.17-6.649c1.02-2.5,1.534-5.052,1.534-7.654C313.263,30.725,312.164,27.683,309.988,25.391z"/>
</g>
<g>
	<g>
		<path fill="#FFFFFF" d="M5.299,23.328c-6.668,8.418-6.923,19.866-1.44,28.435c4.929-12.658,11.139-26.899,18.788-39.614
			C15.465,15.184,8.763,18.955,5.299,23.328z M52.708,5.703c-0.078-0.66-0.421-1.219-0.917-1.59
			c-0.473-0.396-1.097-0.604-1.759-0.526c0,0-1.967,0.421-5.097,1.226C29.987,19.167,17.721,38.399,8.215,56.87
			c0.354,0.308,0.714,0.615,1.087,0.906c10.625,8.407,26.048,6.611,34.452-4.001C53.437,41.533,52.708,5.703,52.708,5.703z"/>
	</g>
	<g>
		<path fill="#D8D8D8" d="M11.039,59.032c11.235-18.053,25.227-35.646,41.614-46.856c0.105-3.945,0.055-6.473,0.055-6.473
			c-0.078-0.66-0.421-1.219-0.917-1.59c-0.473-0.396-1.097-0.604-1.759-0.526c0,0-1.967,0.421-5.097,1.226
			C29.987,19.167,17.721,38.399,8.215,56.87c0.354,0.308,0.714,0.615,1.087,0.906C9.866,58.226,10.449,58.643,11.039,59.032z"/>
	</g>
</g>
<g>
</g>
<g>
</g>
<g>
</g>
<g>
</g>
<g>
</g>
<g>
</g>
</svg>
