<?xml version="1.0" encoding="utf-8"?>
<!-- Generator: Adobe Illustrator 16.0.0, SVG Export Plug-In . SVG Version: 6.00 Build 0)  -->
<!DOCTYPE svg PUBLIC "-//W3C//DTD SVG 1.1//EN" "http://www.w3.org/Graphics/SVG/1.1/DTD/svg11.dtd">
<svg version="1.1" id="Layer_1" xmlns="http://www.w3.org/2000/svg" xmlns:xlink="http://www.w3.org/1999/xlink" x="0px" y="0px"
	 width="91.017px" height="50.919px" viewBox="0 0 91.017 50.919" enable-background="new 0 0 91.017 50.919" xml:space="preserve">
<g>
	<circle opacity="0.5" fill="#FFFFFF" cx="25.46" cy="25.46" r="25.46"/>
	<g>
		<g>
			<path fill="#FFFFFF" d="M4.754,30.704h1.803v-5.247h3.314v-1.319H6.557v-3.477h4.136v-1.318H4.754V30.704z M14.312,22.336
				c-0.772,0-1.416,0.113-2.205,0.354v1.223c0.628-0.177,1.159-0.258,1.722-0.258c0.966,0,1.352,0.387,1.352,1.32v0.853
				c0,0-1.367,0.031-2.012,0.097c-1.512,0.16-2.284,0.981-2.284,2.461c0,1.466,0.869,2.447,2.236,2.447
				c0.548,0,1.062-0.145,2.173-0.645l0.145,0.516h1.465v-5.472c0-1.239-0.146-1.819-0.58-2.253
				C15.921,22.561,15.181,22.336,14.312,22.336z M15.181,29.208c-0.386,0.177-0.756,0.306-1.126,0.306
				c-0.934,0-1.416-0.436-1.416-1.305c0-0.707,0.386-1.158,1.175-1.271c0.386-0.064,1.367-0.097,1.367-0.097V29.208z M19.06,30.704
				h1.722v-8.239H19.06V30.704z M19.929,19.214c-0.692,0-1.062,0.37-1.062,1.062c0,0.692,0.354,1.047,1.046,1.047
				s1.062-0.37,1.062-1.062S20.62,19.214,19.929,19.214z M24.579,23.237l-0.145-0.772H22.97v8.239h1.722v-6.373
				c0.258-0.306,0.869-0.483,1.32-0.483c0.611,0,0.9,0.113,1.335,0.354V22.69c-0.305-0.209-0.595-0.354-1.078-0.354
				C25.642,22.336,24.934,22.786,24.579,23.237z M31.146,21.483c0-0.998,0.305-1.336,1.271-1.336c0.258,0,0.692,0.032,0.95,0.064
				v-1.159c-0.37-0.08-1.062-0.145-1.513-0.145c-1.643,0-2.431,0.837-2.431,2.591v0.966l-0.998,0.16v0.982h0.998v7.097h1.723v-7.097
				h1.689v-1.142h-1.689V21.483z M36.327,22.336c-0.772,0-1.417,0.113-2.205,0.354v1.223c0.628-0.177,1.158-0.258,1.722-0.258
				c0.966,0,1.352,0.387,1.352,1.32v0.853c0,0-1.368,0.031-2.012,0.097c-1.513,0.16-2.285,0.981-2.285,2.461
				c0,1.466,0.869,2.447,2.237,2.447c0.547,0,1.062-0.145,2.173-0.645l0.145,0.516h1.464v-5.472c0-1.239-0.145-1.819-0.578-2.253
				C37.936,22.561,37.195,22.336,36.327,22.336z M37.195,29.208c-0.386,0.177-0.756,0.306-1.126,0.306
				c-0.934,0-1.416-0.436-1.416-1.305c0-0.707,0.386-1.158,1.174-1.271c0.387-0.064,1.368-0.097,1.368-0.097V29.208z M44.565,26.279
				l2.302-3.814h-1.448l-1.593,2.784l-1.609-2.784h-1.931l2.396,3.91l-2.703,4.329h1.561l1.867-3.202l1.899,3.202h1.946
				L44.565,26.279z"/>
		</g>
	</g>
	<path fill="#FFFFFF" stroke="#FFFFFF" stroke-width="0.4438" d="M63.089,30.704V20.63l-3.38,10.074h-1.11l-3.396-10.058v10.058
		h-1.03V19.343h1.642l3.363,9.96l3.251-9.96h1.706v11.361H63.089z"/>
	<path fill="#FFFFFF" stroke="#FFFFFF" stroke-width="0.4438" d="M72.196,26.826h-4.861c0,2.204,0.886,3.122,2.752,3.122
		c0.467,0,1.224-0.081,1.867-0.209v0.853c-0.691,0.145-1.384,0.241-2.092,0.241c-2.607,0-3.557-1.562-3.557-4.039
		c0-2.945,1.288-4.329,3.154-4.329c2.06,0,2.784,1.512,2.784,3.348C72.244,26.053,72.196,26.826,72.196,26.826z M69.396,23.35
		c-1.143,0-1.963,1.014-2.044,2.591h3.862c0-0.112,0.016-0.321,0.016-0.434C71.229,24.138,70.603,23.35,69.396,23.35z"/>
	<path fill="#FFFFFF" stroke="#FFFFFF" stroke-width="0.4438" d="M79.212,30.704L79.1,30.285c-0.419,0.274-1.239,0.548-1.852,0.548
		c-2.72,0-3.572-1.979-3.572-4.071c0-2.109,0.966-4.297,3.604-4.297c0.58,0,1.239,0.209,1.771,0.499v-3.942h0.981v11.683H79.212z
		 M79.051,23.945c-0.338-0.354-1.046-0.595-1.674-0.595c-1.674,0-2.688,1.288-2.688,3.363c0,1.931,0.789,3.235,2.72,3.235
		c0.499,0,1.143-0.178,1.642-0.435V23.945z"/>
	<path fill="#FFFFFF" stroke="#FFFFFF" stroke-width="0.4438" d="M83.009,21.273c-0.354,0-0.644-0.112-0.644-0.772
		c0-0.66,0.306-0.788,0.659-0.788c0.354,0,0.66,0.113,0.66,0.772S83.363,21.273,83.009,21.273z M82.526,30.704v-8.111h0.981v8.111
		H82.526z"/>
	<path fill="#FFFFFF" stroke="#FFFFFF" stroke-width="0.4438" d="M90.071,30.704l-0.178-0.579c-1.029,0.579-1.528,0.708-2.301,0.708
		c-1.287,0-2.285-0.772-2.285-2.301c0-1.497,0.805-2.351,2.092-2.479c0.645-0.063,2.414-0.16,2.414-0.16v-0.95
		c0-1.029-0.37-1.593-1.577-1.593c-0.467,0-1.206,0.113-1.657,0.273V22.77c0.387-0.145,1.143-0.305,1.786-0.305
		c0.82,0,1.464,0.225,1.803,0.562c0.37,0.386,0.627,0.902,0.627,2.205v5.472H90.071z M89.813,26.729c0,0-1.561,0.065-1.995,0.129
		c-1.095,0.162-1.513,0.725-1.513,1.528c0,0.983,0.435,1.562,1.577,1.562c0.547,0,1.545-0.402,1.931-0.725V26.729z"/>
</g>
<g>
</g>
<g>
</g>
<g>
</g>
<g>
</g>
<g>
</g>
<g>
</g>
</svg>
