<?xml version="1.0" encoding="utf-8"?>
<!-- Generator: Adobe Illustrator 16.0.0, SVG Export Plug-In . SVG Version: 6.00 Build 0)  -->
<!DOCTYPE svg PUBLIC "-//W3C//DTD SVG 1.1//EN" "http://www.w3.org/Graphics/SVG/1.1/DTD/svg11.dtd">
<svg version="1.1" id="Layer_1" xmlns="http://www.w3.org/2000/svg" xmlns:xlink="http://www.w3.org/1999/xlink" x="0px" y="0px"
	 width="699.858px" height="233.577px" viewBox="0 0 699.858 233.577" enable-background="new 0 0 699.858 233.577"
	 xml:space="preserve">
<g>
	<path fill="#FFFFFF" d="M338.393,0c-64.499,0-116.788,52.288-116.788,116.788s52.289,116.789,116.788,116.789
		c64.502,0,116.789-52.288,116.789-116.789S402.895,0,338.393,0z M338.393,225.096c-60.937,0-109.228-48.295-109.228-109.231
		c0-60.939,48.291-109.23,109.228-109.23c60.938,0,109.23,48.291,109.23,109.23C447.623,176.801,399.33,225.096,338.393,225.096z"/>
</g>
<path opacity="0.5" fill="#FFFFFF" d="M238.9,115.866c0,54.603,44.634,99.024,99.492,99.024c54.86,0,99.493-44.422,99.493-99.024
	c0-54.604-44.633-99.024-99.493-99.024C283.534,16.841,238.9,61.262,238.9,115.866z"/>
<path opacity="0.6" fill="#FFFFFF" d="M437.886,115.866c0-13.596-2.769-26.56-7.771-38.365c-0.599-0.912-1.049-1.937-1.321-2.968
	c-0.137-0.294-0.274-0.588-0.414-0.881c-0.546,3.427-3.286,7.12-6.598,7.12c-3.613,0-6.551-4.39-6.699-8.039h-0.269
	c-0.146,3.648-3.085,8.039-6.697,8.039c-3.613,0-6.551-4.39-6.697-8.039h-0.029c-0.145,3.648-3.084,8.039-6.697,8.039
	c-3.612,0-6.551-4.39-6.697-8.039h-0.027c-0.147,3.648-3.086,8.039-6.7,8.039c-3.61,0-6.55-4.39-6.694-8.039h-0.269
	c-0.146,3.648-3.086,8.039-6.697,8.039c-3.615,0-6.551-4.39-6.697-8.039h-0.03c-0.146,3.648-3.087,8.039-6.697,8.039
	c-3.612,0-6.551-4.39-6.696-8.039h-0.029c-0.145,3.648-3.085,8.039-6.698,8.039c-3.613,0-6.55-4.39-6.697-8.039h-0.268
	c-0.148,3.648-3.086,8.039-6.698,8.039c-3.613,0-6.551-4.39-6.697-8.039h-0.028c-0.147,3.648-3.084,8.039-6.697,8.039
	c-3.614,0-6.551-4.39-6.698-8.039h-0.028c-0.146,3.648-3.084,8.039-6.697,8.039c-3.613,0-6.551-4.39-6.698-8.039h-0.268
	c-0.146,3.648-3.084,8.039-6.697,8.039c-3.614,0-6.551-4.39-6.698-8.039h-0.028c-0.146,3.648-3.084,8.039-6.697,8.039
	c-3.613,0-6.55-4.39-6.697-8.039h-0.028c-0.147,3.648-3.085,8.039-6.698,8.039s-6.551-4.39-6.697-8.039h-0.269
	c-0.146,3.648-3.084,8.039-6.697,8.039c-0.234,0-0.466-0.02-0.694-0.056c-4.183,10.929-6.482,22.776-6.482,35.15
	c0,54.603,44.634,99.024,99.492,99.024C393.253,214.89,437.886,170.468,437.886,115.866z"/>
<path opacity="0.8" fill="#FFFFFF" d="M287.741,85.083c0,0-5.942,19.985-5.439,23.983c0.504,3.995,8.562,33.204,12.339,34.967
	c0,0,6.043-2.265,7.555,10.574c1.51,12.845,19.389,25.687,19.389,25.687s10.826,5.54,12.336,11.584
	c1.512,6.042,13.347,5.79,14.102,5.537c0.755-0.252,25.252-42.507,32.555-43.516c7.302-1.008,9.567-7.052,9.567-7.052l10.826-14.101
	l-2.91-31.493l-11.979-16.167L287.741,85.083z"/>
<path fill="#1D4D7D" d="M234.563,123.689"/>
<path fill="#FFFFFF" d="M301.762,74.049c0,0,3.555-15.402,5.53-15.995c1.974-0.592,20.732-10.269,22.115-19.55
	c0,0,0.073,11.256,5.169,12.244c5.101,0.987,8.063-1.186,8.063-1.186s10.975-4.563,13.229,2.173
	c2.257,6.734,15.008,16.586,16.984,17.573c1.973,0.988,4.397,2.532,4.199,6.877c-0.199,4.344,9.03,9.265,9.03,9.265
	s-15.913,3.308-47.957,1.879c-32.044-1.429-50.384-2.246-50.384-2.246L301.762,74.049z"/>
<g>
	<g>
		<path fill="#FFFFFF" d="M0,159.454V85.06h16.367v74.394H0z"/>
		<path fill="#FFFFFF" d="M80.451,160.729c-21.893,0-38.153-16.897-38.153-38.26v-0.213c0-21.149,15.941-38.472,38.791-38.472
			c14.029,0,22.425,4.676,29.333,11.478l-10.415,12.009c-5.739-5.208-11.584-8.396-19.023-8.396
			c-12.541,0-21.575,10.415-21.575,23.168v0.212c0,12.753,8.821,23.382,21.575,23.382c8.502,0,13.709-3.401,19.555-8.715
			l10.416,10.521C103.301,155.627,94.799,160.729,80.451,160.729z"/>
		<path fill="#FFFFFF" d="M134.651,159.454V85.06h56.115v14.56h-39.854v15.091h35.071v14.56h-35.071v15.623h40.385v14.56H134.651z"
			/>
	</g>
</g>
<g>
	<g>
		<path fill="#FFFFFF" d="M480.081,159.454V85.06h16.366v59.515h37.091v14.879H480.081z"/>
		<path fill="#FFFFFF" d="M604.636,159.454l-6.802-16.686h-31.458l-6.802,16.686h-16.686l31.883-74.926h15.092l31.883,74.926
			H604.636z M582.104,104.189l-9.884,24.125h19.768L582.104,104.189z"/>
		<path fill="#FFFFFF" d="M672.014,159.454h-35.39V85.06h34.54c15.197,0,24.55,7.545,24.55,19.236v0.213
			c0,8.396-4.464,13.072-9.777,16.048c8.608,3.295,13.922,8.289,13.922,18.279v0.213
			C699.858,152.652,688.806,159.454,672.014,159.454z M679.453,107.059c0-4.889-3.826-7.652-10.733-7.652h-16.154v15.729h15.091
			c7.228,0,11.797-2.338,11.797-7.864V107.059z M683.599,136.816c0-4.994-3.72-8.076-12.116-8.076h-18.917v16.366h19.448
			c7.228,0,11.585-2.55,11.585-8.077V136.816z"/>
	</g>
</g>
<g>
</g>
<g>
</g>
<g>
</g>
<g>
</g>
<g>
</g>
<g>
</g>
</svg>
