<?xml version="1.0" encoding="utf-8"?>
<!-- Generator: Adobe Illustrator 16.0.0, SVG Export Plug-In . SVG Version: 6.00 Build 0)  -->
<!DOCTYPE svg PUBLIC "-//W3C//DTD SVG 1.1//EN" "http://www.w3.org/Graphics/SVG/1.1/DTD/svg11.dtd">
<svg version="1.1" id="b_x2F_w_-_logo_tag_bug" xmlns="http://www.w3.org/2000/svg" xmlns:xlink="http://www.w3.org/1999/xlink"
	 x="0px" y="0px" width="748.846px" height="199.677px" viewBox="0 0 748.846 199.677" enable-background="new 0 0 748.846 199.677"
	 xml:space="preserve">
<g id="outlines_1_">
	<g>
		<g>
			<path fill="#FFFFFF" d="M260.951,105.983l-20.187-42.326c-4.818-10.027-9.768-21.357-11.461-26.697l-0.391,0.391
				c0.651,7.554,0.782,17.061,0.912,25.005l0.521,43.628H215.63V15.862h16.93l21.88,44.02c4.167,8.334,8.074,19.014,9.246,23.182
				l0.391-0.392c-0.391-4.558-1.302-17.451-1.302-25.655l-0.261-41.154h14.195v90.121H260.951z"/>
			<path fill="#FFFFFF" d="M303.534,76.942v1.041c0,9.117,3.387,18.754,16.279,18.754c6.121,0,11.461-2.214,16.41-6.512l5.6,8.726
				c-6.902,5.86-14.847,8.726-23.702,8.726c-18.624,0-30.345-13.414-30.345-34.512c0-11.591,2.475-19.275,8.205-25.786
				c5.339-6.121,11.851-8.856,20.186-8.856c6.512,0,12.503,1.693,18.103,6.772c5.73,5.21,8.596,13.284,8.596,28.651v2.996H303.534z
				 M316.167,49.332c-8.074,0-12.502,6.382-12.502,17.062h24.354C328.019,55.714,323.33,49.332,316.167,49.332z"/>
			<path fill="#FFFFFF" d="M419.047,106.244h-13.414l-8.074-30.345c-2.084-7.813-4.298-17.972-4.298-17.972H393
				c0,0-1.042,6.512-4.298,18.624l-7.944,29.692h-13.414l-17.972-65.247l14.195-1.953l7.163,31.907
				c1.823,8.204,3.386,17.321,3.386,17.321h0.391c0,0,1.303-8.596,3.776-17.713l8.466-30.475h14.065l7.423,29.693
				c2.735,10.68,4.168,18.754,4.168,18.754h0.391c0,0,1.562-10.027,3.256-17.711l6.771-30.736h14.847L419.047,106.244z"/>
			<path fill="#FFFFFF" d="M521.144,105.983l-7.813-13.935c-6.251-11.069-10.419-17.321-15.367-22.271
				c-1.693-1.692-2.996-2.604-5.861-2.734v38.939h-14.716V15.862h27.479c20.186,0,29.302,11.721,29.302,25.786
				c0,12.894-8.335,24.745-22.399,24.745c3.256,1.692,9.246,10.418,13.935,17.972l13.284,21.618H521.144z M500.307,27.974h-8.205
				v28.521h7.685c7.813,0,11.981-1.042,14.716-3.777c2.475-2.475,4.037-6.25,4.037-10.939
				C518.539,32.662,513.591,27.974,500.307,27.974z"/>
			<path fill="#FFFFFF" d="M558.647,76.942v1.041c0,9.117,3.387,18.754,16.279,18.754c6.121,0,11.461-2.214,16.41-6.512l5.6,8.726
				c-6.902,5.86-14.847,8.726-23.702,8.726c-18.624,0-30.345-13.414-30.345-34.512c0-11.591,2.475-19.275,8.205-25.786
				c5.339-6.121,11.851-8.856,20.186-8.856c6.512,0,12.503,1.693,18.103,6.772c5.73,5.21,8.596,13.284,8.596,28.651v2.996H558.647z
				 M571.28,49.332c-8.074,0-12.502,6.382-12.502,17.062h24.354C583.132,55.714,578.443,49.332,571.28,49.332z"/>
			<path fill="#FFFFFF" d="M624.803,107.417c-14.456,0-14.456-13.023-14.456-18.624V32.662c0-8.985-0.391-13.805-1.303-19.274
				l14.717-3.256c1.042,4.037,1.172,9.507,1.172,18.103v55.87c0,8.855,0.391,10.289,1.433,11.852
				c0.781,1.172,2.995,1.823,4.688,1.041l2.344,8.856C630.793,106.896,628.059,107.417,624.803,107.417z"/>
			<path fill="#FFFFFF" d="M649.675,30.317c-5.21,0-9.247-4.297-9.247-9.506c0-5.34,4.167-9.638,9.507-9.638
				c5.079,0,9.377,4.167,9.377,9.638C659.312,26.021,655.014,30.317,649.675,30.317z M642.512,105.983V41.128l14.456-2.605v67.461
				H642.512z"/>
			<path fill="#FFFFFF" d="M697.989,107.677c-17.972,0-28-12.633-28-33.861c0-23.963,14.326-35.423,29.042-35.423
				c7.163,0,12.372,1.692,18.232,7.163l-7.162,9.507c-3.907-3.517-7.293-5.079-11.07-5.079c-4.558,0-8.335,2.344-10.419,6.643
				c-1.953,4.037-2.734,10.158-2.734,18.362c0,8.986,1.433,14.716,4.428,17.972c2.084,2.345,5.209,3.777,8.726,3.777
				c4.559,0,8.986-2.214,13.284-6.512l6.771,8.726C713.097,104.942,706.846,107.677,697.989,107.677z"/>
			<path fill="#FFFFFF" d="M731.306,107.426c-5.277,0-9.62-4.265-9.62-9.673c0-5.381,4.343-9.672,9.62-9.672
				c5.278,0,9.621,4.291,9.621,9.672C740.927,103.161,736.584,107.426,731.306,107.426z M731.306,90.005
				c-4.107,0-7.41,3.433-7.41,7.748c0,4.316,3.303,7.801,7.41,7.801c4.108,0,7.437-3.484,7.437-7.801
				C738.742,93.438,735.414,90.005,731.306,90.005z M733.204,103.11c-0.416-0.729-0.598-1.015-1.014-1.795
				c-1.066-1.949-1.404-2.496-1.794-2.652c-0.104-0.051-0.208-0.078-0.339-0.078v4.525h-2.132V92.267h4.03
				c1.924,0,3.198,1.275,3.198,3.173c0,1.638-1.092,2.964-2.418,2.99c0.208,0.183,0.312,0.286,0.442,0.468
				c0.623,0.78,2.6,4.213,2.6,4.213H733.204z M732.061,94.165c-0.234-0.078-0.702-0.156-1.223-0.156h-0.78v2.939h0.729
				c0.936,0,1.352-0.105,1.638-0.365c0.261-0.26,0.416-0.649,0.416-1.092C732.84,94.815,732.58,94.374,732.061,94.165z"/>
		</g>
		<g>
			<path fill="none" stroke="#FFFFFF" stroke-width="4" d="M164.81,50.55c7.643,35.148-22.118,71.465-66.475,81.107
				c-44.351,9.645-86.506-11.033-94.148-46.182c-7.641-35.148,22.12-71.463,66.472-81.107
				C115.015-5.274,157.167,15.401,164.81,50.55z"/>
			<path fill="none" stroke="#FFFFFF" stroke-width="4" d="M138.192,69.177c0,25.693-20.83,46.523-46.525,46.523
				c-25.691,0-46.521-20.83-46.521-46.523s20.83-46.522,46.521-46.522C117.362,22.654,138.192,43.483,138.192,69.177z"/>
			<path fill="none" stroke="#FFFFFF" stroke-width="4" d="M112.799,68.011c0,15.633-12.672,28.305-28.298,28.305
				c-15.632,0-28.304-12.672-28.304-28.305c0-15.629,12.672-28.299,28.304-28.299C100.127,39.712,112.799,52.382,112.799,68.011z"/>
		</g>
	</g>
	<g>
		<path fill="#FFFFFF" d="M14.742,190.481c-2.147,1.645-4.15,2.217-7.085,2.217c-5.081,0-7.657-3.363-7.657-8.693
			c0-5.297,2.04-10.699,4.831-13.527c2.147-2.182,4.509-3.219,8.123-3.219c4.831,0,7.693,3.006,7.693,8.301
			C20.646,181.356,18.678,187.476,14.742,190.481z M12.452,169.62c-2.576,0-4.58,1.109-5.868,2.861
			c-2.004,2.684-3.363,7.156-3.363,12.203c0,3.971,1.86,5.76,5.081,5.76c2.075,0,3.614-0.75,5.009-2.111
			c2.433-2.432,4.151-8.695,4.151-13.061C17.462,171.839,15.959,169.62,12.452,169.62z"/>
		<path fill="#FFFFFF" d="M38.689,178.708l-2.898,13.525h-2.827l2.576-12.059c0.215-0.93,0.286-1.502,0.286-1.932
			c0-1.182-0.608-1.789-1.717-1.789c-1.431,0-3.829,1.145-6.226,4.15l-2.469,11.629h-2.72l2.72-12.738
			c0.501-2.289,0.501-3.041,0.143-4.4l2.612-1.217c0.394,1.145,0.644,2.111,0.179,3.936c1.932-2.576,4.616-3.793,6.906-3.793
			c2.183,0,3.542,1.359,3.542,3.543C38.797,177.921,38.761,178.315,38.689,178.708z"/>
		<path fill="#FFFFFF" d="M49.466,184.04h-6.834l0.573-2.719h6.834L49.466,184.04z"/>
		<path fill="#FFFFFF" d="M68.329,189.265c-2.326,2.111-4.759,2.969-8.444,2.969h-6.405l5.224-24.545h5.26
			c3.614,0,5.332,0.393,7.084,1.895c1.646,1.396,2.433,3.758,2.433,7.158C73.481,180.999,71.084,186.796,68.329,189.265z
			 M69.331,172.304c-1.181-1.896-2.684-2.219-5.26-2.219h-2.935L56.951,189.8h2.612c3.328,0,5.618-0.75,7.085-2.539
			c2.433-3.006,3.649-7.408,3.649-10.162C70.297,174.88,70.046,173.413,69.331,172.304z"/>
		<path fill="#FFFFFF" d="M89.261,182.251c-1.503,1.395-3.793,2.039-7.693,2.039c-0.68,0-1.431-0.035-2.218-0.072
			c-0.179,0.824-0.25,1.576-0.25,2.256c0,2.504,1.646,3.828,3.542,3.828c2.219,0,3.542-0.537,5.225-2.039l1.181,1.717
			c-1.789,1.824-3.65,2.648-7.228,2.648c-3.292,0-5.833-2.361-5.833-6.441c0-3.436,1.324-7.371,3.936-9.768
			c1.789-1.682,3.721-2.506,5.868-2.506c3.364,0,5.117,1.826,5.117,4.617C90.906,180.032,90.262,181.321,89.261,182.251z
			 M85.36,176.132c-2.29,0-4.616,2.291-5.546,5.977c0.501,0.035,1.288,0.035,1.825,0.035c3.22,0,4.616-0.43,5.546-1.359
			c0.573-0.572,0.895-1.289,0.895-2.184C88.08,177.241,87.328,176.132,85.36,176.132z"/>
		<path fill="#FFFFFF" d="M117.716,179.495l-2.72,12.738h-2.862l2.648-12.451c0.143-0.609,0.214-1.217,0.214-1.719
			c0-1.037-0.537-1.574-1.753-1.574c-1.396,0-3.721,1.719-5.618,4.045l-2.504,11.699h-2.827l2.577-12.166
			c0.179-0.787,0.357-1.752,0.357-2.074c0-0.895-0.322-1.504-1.431-1.504c-1.36,0-3.793,1.467-5.904,4.115l-2.469,11.629H92.74
			l2.72-12.773c0.465-2.254,0.537-2.971,0.143-4.365l2.612-1.217c0.537,1.145,0.537,2.576,0.179,3.936
			c2.469-2.861,4.759-3.793,6.583-3.793c2.147,0,3.042,1.432,3.042,3.758c2.433-2.791,4.867-3.828,6.691-3.828
			c2.147,0,3.292,1.717,3.292,3.471C118.002,177.921,117.859,178.78,117.716,179.495z"/>
		<path fill="#FFFFFF" d="M135.841,179.103l-1.539,7.371c-0.644,3.006-0.287,3.756,0.608,4.723l-2.219,1.717
			c-1.073-1.109-1.467-2.146-1.324-3.9c-1.217,2.148-3.435,3.543-6.19,3.543c-2.183,0-4.258-1.717-4.258-5.652
			c0-3.508,1.359-7.586,3.721-9.984c1.86-1.896,4.365-3.006,7.121-3.006c1.932,0,3.649,0.502,5.009,1.467
			C136.521,176.239,136.092,177.921,135.841,179.103z M131.512,176.167c-2.219,0-3.686,0.787-5.188,2.576
			c-1.789,2.148-2.505,5.547-2.505,8.195c0,2.361,0.895,3.221,2.577,3.221c1.896,0,4.043-1.789,5.331-4.295l1.933-9.195
			C133.122,176.347,132.371,176.167,131.512,176.167z"/>
		<path fill="#FFFFFF" d="M154.869,178.708l-2.898,13.525h-2.827l2.576-12.059c0.215-0.93,0.286-1.502,0.286-1.932
			c0-1.182-0.608-1.789-1.717-1.789c-1.431,0-3.829,1.145-6.226,4.15l-2.469,11.629h-2.72l2.72-12.738
			c0.501-2.289,0.501-3.041,0.143-4.4l2.612-1.217c0.394,1.145,0.644,2.111,0.179,3.936c1.932-2.576,4.616-3.793,6.906-3.793
			c2.183,0,3.542,1.359,3.542,3.543C154.976,177.921,154.94,178.315,154.869,178.708z"/>
		<path fill="#FFFFFF" d="M172.447,186.474c-0.644,2.934-0.322,3.613,0.572,4.723l-2.397,1.789c-0.931-0.93-1.467-1.861-1.324-3.828
			c-1.717,2.254-3.649,3.326-6.262,3.326c-3.363,0-4.974-2.146-4.974-5.975c0-3.613,1.431-7.299,3.972-9.875
			c1.718-1.754,4.258-2.576,6.19-2.576c2.004,0,3.042,0.213,3.936,0.68l1.825-8.625l2.719,0.467L172.447,186.474z M168.153,176.382
			c-1.396,0-3.185,0.787-4.294,1.969c-1.61,1.754-2.827,5.654-2.827,8.301c0,2.291,0.895,3.471,2.612,3.471
			c2.075,0,4.33-1.18,6.119-4.258l1.825-8.73C170.479,176.562,169.835,176.382,168.153,176.382z"/>
		<path fill="#FFFFFF" d="M199.46,192.233l-0.715-7.549h-9.16l-3.972,7.549H182.5l13.418-24.545h3.829l2.898,24.545H199.46z
			 M197.242,170.192c0,0-0.895,1.824-1.539,3.041l-4.831,9.053h7.622L197.242,170.192z"/>
		<path fill="#FFFFFF" d="M219.354,189.442c-1.718,2.076-4.258,3.221-6.584,3.221c-1.825,0-3.077-0.285-4.223-0.895l-1.574,7.371
			l-2.898,0.537l4.33-20.217c0.501-2.398,0.465-3.148,0.107-4.365l2.611-1.217c0.43,1.002,0.608,1.969,0.287,3.793
			c1.896-2.506,4.508-3.613,6.477-3.613c3.077,0,4.58,2.254,4.58,5.725C222.467,182.931,221.25,187.153,219.354,189.442z
			 M216.812,176.562c-1.789,0-4.007,1.395-5.903,3.936l-1.861,8.768c0.895,0.75,2.183,1.072,3.686,1.072
			c1.646,0,3.507-1.037,4.401-2.361c1.288-1.932,2.29-5.439,2.29-8.016C219.425,177.491,218.566,176.562,216.812,176.562z"/>
		<path fill="#FFFFFF" d="M238.513,189.442c-1.717,2.076-4.258,3.221-6.584,3.221c-1.824,0-3.077-0.285-4.222-0.895l-1.574,7.371
			l-2.898,0.537l4.329-20.217c0.501-2.398,0.466-3.148,0.107-4.365l2.612-1.217c0.43,1.002,0.608,1.969,0.286,3.793
			c1.896-2.506,4.509-3.613,6.477-3.613c3.077,0,4.58,2.254,4.58,5.725C241.626,182.931,240.409,187.153,238.513,189.442z
			 M235.973,176.562c-1.789,0-4.008,1.395-5.904,3.936l-1.86,8.768c0.895,0.75,2.183,1.072,3.686,1.072
			c1.646,0,3.507-1.037,4.401-2.361c1.288-1.932,2.29-5.439,2.29-8.016C238.585,177.491,237.726,176.562,235.973,176.562z"/>
		<path fill="#FFFFFF" d="M250.971,172.374l-3.399,15.924c-0.107,0.5-0.179,0.967-0.179,1.289c0,0.572,0.25,0.857,0.751,0.857
			c0.215,0,0.501,0,0.68-0.07l0.18,1.824c-0.752,0.322-1.432,0.393-2.183,0.393c-1.468,0-2.362-0.715-2.362-2.109
			c0-0.467,0.072-0.967,0.179-1.539l3.507-16.568c0.501-2.396,0.466-4.221,0.144-5.367l2.97-1.145
			C251.722,167.329,251.436,170.228,250.971,172.374z"/>
		<path fill="#FFFFFF" d="M255.554,192.233h-2.97l3.793-17.748l3.041-0.465L255.554,192.233z M259.061,171.087
			c-1.217,0-2.184-0.967-2.184-2.146c0-1.217,0.967-2.219,2.184-2.219c1.216,0,2.183,0.967,2.183,2.182
			C261.243,170.12,260.276,171.087,259.061,171.087z"/>
		<path fill="#FFFFFF" d="M274.479,177.636c-1.109-0.932-2.326-1.254-3.614-1.254c-1.396,0-2.862,0.787-3.793,2.004
			c-1.252,1.682-2.505,5.404-2.505,8.158c0,2.506,1.109,3.865,3.363,3.865c1.432,0,2.935-0.68,4.259-1.932l1.145,1.789
			c-2.004,1.682-3.722,2.361-5.939,2.361c-3.972,0-5.833-2.111-5.833-6.047c0-4.045,2.183-8.66,4.58-10.592
			c1.682-1.396,3.436-2.039,5.332-2.039c1.789,0,3.185,0.5,4.329,1.502L274.479,177.636z"/>
		<path fill="#FFFFFF" d="M291.039,179.103l-1.538,7.371c-0.645,3.006-0.286,3.756,0.608,4.723l-2.219,1.717
			c-1.073-1.109-1.467-2.146-1.324-3.9c-1.216,2.148-3.435,3.543-6.189,3.543c-2.184,0-4.259-1.717-4.259-5.652
			c0-3.508,1.36-7.586,3.722-9.984c1.86-1.896,4.365-3.006,7.12-3.006c1.933,0,3.65,0.502,5.01,1.467
			C291.72,176.239,291.29,177.921,291.039,179.103z M286.71,176.167c-2.219,0-3.686,0.787-5.188,2.576
			c-1.789,2.148-2.505,5.547-2.505,8.195c0,2.361,0.895,3.221,2.576,3.221c1.896,0,4.044-1.789,5.332-4.295l1.932-9.195
			C288.32,176.347,287.568,176.167,286.71,176.167z"/>
		<path fill="#FFFFFF" d="M303.991,176.526h-3.864l-2.219,10.447c-0.179,0.787-0.25,1.432-0.25,1.932
			c0,1.324,0.536,1.754,1.789,1.754c0.787,0,1.288-0.107,1.86-0.357v1.789c-1.002,0.465-2.039,0.715-3.292,0.715
			c-2.075,0-3.148-1.037-3.148-2.898c0-0.643,0.107-1.682,0.286-2.611l2.254-10.77h-2.325l0.394-2.111h2.361
			c0.357-1.432,0.823-3.148,1.252-4.51l3.042-0.643c-0.466,1.322-1.146,3.613-1.467,5.152h4.437L303.991,176.526z"/>
		<path fill="#FFFFFF" d="M307.243,192.233h-2.97l3.793-17.748l3.041-0.465L307.243,192.233z M310.75,171.087
			c-1.217,0-2.184-0.967-2.184-2.146c0-1.217,0.967-2.219,2.184-2.219c1.216,0,2.183,0.967,2.183,2.182
			C312.933,170.12,311.966,171.087,310.75,171.087z"/>
		<path fill="#FFFFFF" d="M319.333,192.698c-3.864,0-6.048-2.396-6.048-6.439c0-7.086,4.259-12.381,9.912-12.381
			c4.15,0,6.047,2.611,6.047,6.477C329.244,187.261,325.165,192.698,319.333,192.698z M322.696,176.167
			c-4.008,0-6.333,4.473-6.333,10.27c0,2.791,1.252,3.938,3.506,3.938c4.115,0,6.298-4.867,6.298-10.342
			C326.167,177.206,324.557,176.167,322.696,176.167z"/>
		<path fill="#FFFFFF" d="M347.503,178.708l-2.898,13.525h-2.827l2.577-12.059c0.214-0.93,0.286-1.502,0.286-1.932
			c0-1.182-0.608-1.789-1.718-1.789c-1.432,0-3.829,1.145-6.226,4.15l-2.47,11.629h-2.719l2.719-12.738
			c0.501-2.289,0.501-3.041,0.144-4.4l2.612-1.217c0.394,1.145,0.644,2.111,0.179,3.936c1.932-2.576,4.615-3.793,6.905-3.793
			c2.184,0,3.543,1.359,3.543,3.543C347.61,177.921,347.574,178.315,347.503,178.708z"/>
		<path fill="#FFFFFF" d="M374.73,180.677c-1.503,1.217-3.507,1.789-6.405,1.789h-4.294l-2.075,9.768h-2.862l5.224-24.545h6.369
			c5.653,0,7.479,2.719,7.479,5.688C378.165,176.239,377.127,178.78,374.73,180.677z M369.757,170.157h-3.113l-2.111,9.91h4.115
			c2.075,0,3.112-0.393,4.114-1.324c1.503-1.359,2.219-3.111,2.219-4.686C374.98,171.479,373.656,170.157,369.757,170.157z"/>
		<path fill="#FFFFFF" d="M391.689,182.251c-1.503,1.395-3.793,2.039-7.692,2.039c-0.681,0-1.432-0.035-2.219-0.072
			c-0.179,0.824-0.251,1.576-0.251,2.256c0,2.504,1.646,3.828,3.543,3.828c2.218,0,3.542-0.537,5.224-2.039l1.181,1.717
			c-1.789,1.824-3.649,2.648-7.228,2.648c-3.292,0-5.832-2.361-5.832-6.441c0-3.436,1.323-7.371,3.936-9.768
			c1.789-1.682,3.722-2.506,5.868-2.506c3.363,0,5.117,1.826,5.117,4.617C393.336,180.032,392.691,181.321,391.689,182.251z
			 M387.789,176.132c-2.29,0-4.615,2.291-5.546,5.977c0.501,0.035,1.288,0.035,1.825,0.035c3.22,0,4.615-0.43,5.546-1.359
			c0.572-0.572,0.895-1.289,0.895-2.184C390.509,177.241,389.758,176.132,387.789,176.132z"/>
		<path fill="#FFFFFF" d="M406.585,177.169c-0.322-0.107-0.572-0.143-1.109-0.143c-1.682,0-3.507,1.467-5.224,4.043l-2.362,11.164
			h-2.719l2.576-12.094c0.572-2.684,0.608-3.758,0.215-5.045l2.611-1.217c0.537,1.324,0.573,2.146,0.144,4.258
			c1.718-2.611,4.079-4.186,5.761-4.186c0.645,0,0.966,0.07,1.324,0.178L406.585,177.169z"/>
		<path fill="#FFFFFF" d="M420.867,169.333c-0.787-0.537-1.682-0.822-2.647-0.822c-1.574,0-2.72,1.109-3.077,3.148l-0.501,2.756
			h4.938l-1.252,2.111h-4.079l-3.221,16.209c-0.644,3.291-1.396,5.223-2.755,6.941l-2.29-1.252c1.109-1.539,1.789-3.186,2.326-5.941
			l3.112-15.957h-1.824l0.394-2.111h1.824l0.466-2.398c0.465-2.361,1.359-3.9,2.719-4.795c0.967-0.643,2.075-0.895,3.399-0.895
			c1.539,0,2.612,0.287,3.507,0.895L420.867,169.333z"/>
		<path fill="#FFFFFF" d="M424.048,192.698c-3.864,0-6.048-2.396-6.048-6.439c0-7.086,4.259-12.381,9.912-12.381
			c4.15,0,6.047,2.611,6.047,6.477C433.959,187.261,429.88,192.698,424.048,192.698z M427.411,176.167
			c-4.008,0-6.333,4.473-6.333,10.27c0,2.791,1.252,3.938,3.506,3.938c4.115,0,6.298-4.867,6.298-10.342
			C430.882,177.206,429.271,176.167,427.411,176.167z"/>
		<path fill="#FFFFFF" d="M447.638,177.169c-0.322-0.107-0.572-0.143-1.109-0.143c-1.682,0-3.507,1.467-5.224,4.043l-2.362,11.164
			h-2.719l2.576-12.094c0.572-2.684,0.608-3.758,0.215-5.045l2.611-1.217c0.537,1.324,0.573,2.146,0.144,4.258
			c1.718-2.611,4.079-4.186,5.761-4.186c0.645,0,0.966,0.07,1.324,0.178L447.638,177.169z"/>
		<path fill="#FFFFFF" d="M473.558,179.495l-2.72,12.738h-2.862l2.647-12.451c0.144-0.609,0.215-1.217,0.215-1.719
			c0-1.037-0.537-1.574-1.753-1.574c-1.396,0-3.722,1.719-5.618,4.045l-2.505,11.699h-2.826l2.576-12.166
			c0.179-0.787,0.357-1.752,0.357-2.074c0-0.895-0.322-1.504-1.431-1.504c-1.36,0-3.793,1.467-5.904,4.115l-2.469,11.629h-2.684
			l2.719-12.773c0.466-2.254,0.537-2.971,0.144-4.365l2.612-1.217c0.536,1.145,0.536,2.576,0.179,3.936
			c2.469-2.861,4.759-3.793,6.584-3.793c2.146,0,3.041,1.432,3.041,3.758c2.434-2.791,4.866-3.828,6.691-3.828
			c2.146,0,3.292,1.717,3.292,3.471C473.844,177.921,473.7,178.78,473.558,179.495z"/>
		<path fill="#FFFFFF" d="M491.682,179.103l-1.538,7.371c-0.645,3.006-0.286,3.756,0.608,4.723l-2.219,1.717
			c-1.073-1.109-1.467-2.146-1.324-3.9c-1.216,2.148-3.435,3.543-6.189,3.543c-2.184,0-4.259-1.717-4.259-5.652
			c0-3.508,1.36-7.586,3.722-9.984c1.86-1.896,4.365-3.006,7.12-3.006c1.933,0,3.65,0.502,5.01,1.467
			C492.362,176.239,491.933,177.921,491.682,179.103z M487.353,176.167c-2.219,0-3.686,0.787-5.188,2.576
			c-1.789,2.148-2.505,5.547-2.505,8.195c0,2.361,0.895,3.221,2.576,3.221c1.896,0,4.044-1.789,5.332-4.295l1.932-9.195
			C488.963,176.347,488.211,176.167,487.353,176.167z"/>
		<path fill="#FFFFFF" d="M510.71,178.708l-2.898,13.525h-2.827l2.577-12.059c0.214-0.93,0.286-1.502,0.286-1.932
			c0-1.182-0.608-1.789-1.718-1.789c-1.432,0-3.829,1.145-6.226,4.15l-2.47,11.629h-2.719l2.719-12.738
			c0.501-2.289,0.501-3.041,0.144-4.4l2.612-1.217c0.394,1.145,0.644,2.111,0.179,3.936c1.932-2.576,4.615-3.793,6.905-3.793
			c2.184,0,3.543,1.359,3.543,3.543C510.817,177.921,510.781,178.315,510.71,178.708z"/>
		<path fill="#FFFFFF" d="M526.804,177.636c-1.109-0.932-2.326-1.254-3.614-1.254c-1.396,0-2.862,0.787-3.793,2.004
			c-1.252,1.682-2.505,5.404-2.505,8.158c0,2.506,1.109,3.865,3.363,3.865c1.432,0,2.935-0.68,4.259-1.932l1.145,1.789
			c-2.004,1.682-3.722,2.361-5.939,2.361c-3.972,0-5.833-2.111-5.833-6.047c0-4.045,2.183-8.66,4.58-10.592
			c1.682-1.396,3.436-2.039,5.332-2.039c1.789,0,3.185,0.5,4.329,1.502L526.804,177.636z"/>
		<path fill="#FFFFFF" d="M541.776,182.251c-1.503,1.395-3.793,2.039-7.692,2.039c-0.681,0-1.432-0.035-2.219-0.072
			c-0.179,0.824-0.251,1.576-0.251,2.256c0,2.504,1.646,3.828,3.543,3.828c2.218,0,3.542-0.537,5.224-2.039l1.181,1.717
			c-1.789,1.824-3.649,2.648-7.228,2.648c-3.292,0-5.832-2.361-5.832-6.441c0-3.436,1.323-7.371,3.936-9.768
			c1.789-1.682,3.722-2.506,5.868-2.506c3.363,0,5.117,1.826,5.117,4.617C543.423,180.032,542.778,181.321,541.776,182.251z
			 M537.876,176.132c-2.29,0-4.615,2.291-5.546,5.977c0.501,0.035,1.288,0.035,1.825,0.035c3.22,0,4.615-0.43,5.546-1.359
			c0.572-0.572,0.895-1.289,0.895-2.184C540.596,177.241,539.845,176.132,537.876,176.132z"/>
		<path fill="#FFFFFF" d="M576.983,192.233h-2.934l2.397-17.998c0.215-1.574,0.716-4.186,0.716-4.186
			c-0.501,1.217-1.288,2.898-1.789,3.863l-9.16,18.32h-2.505l-1.146-17.426c-0.107-1.859-0.215-3.076-0.215-4.723
			c-0.071,0.287-0.93,3.256-1.288,4.688l-5.081,17.461h-2.826l7.371-24.545h4.294l1.073,16.029c0.107,1.717,0.143,2.396,0.036,4.293
			c0.858-2.074,1.145-2.791,1.753-4.006l8.087-16.316h4.329L576.983,192.233z"/>
		<path fill="#FFFFFF" d="M597.438,179.103l-1.538,7.371c-0.645,3.006-0.286,3.756,0.608,4.723l-2.219,1.717
			c-1.073-1.109-1.467-2.146-1.324-3.9c-1.216,2.148-3.435,3.543-6.19,3.543c-2.183,0-4.258-1.717-4.258-5.652
			c0-3.508,1.36-7.586,3.722-9.984c1.86-1.896,4.365-3.006,7.12-3.006c1.933,0,3.65,0.502,5.01,1.467
			C598.119,176.239,597.689,177.921,597.438,179.103z M593.109,176.167c-2.219,0-3.686,0.787-5.188,2.576
			c-1.789,2.148-2.505,5.547-2.505,8.195c0,2.361,0.895,3.221,2.576,3.221c1.896,0,4.044-1.789,5.332-4.295l1.932-9.195
			C594.72,176.347,593.968,176.167,593.109,176.167z"/>
		<path fill="#FFFFFF" d="M616.466,178.708l-2.898,13.525h-2.827l2.577-12.059c0.214-0.93,0.286-1.502,0.286-1.932
			c0-1.182-0.608-1.789-1.718-1.789c-1.432,0-3.829,1.145-6.226,4.15l-2.47,11.629h-2.719l2.719-12.738
			c0.501-2.289,0.501-3.041,0.144-4.4l2.612-1.217c0.394,1.145,0.644,2.111,0.179,3.936c1.932-2.576,4.615-3.793,6.905-3.793
			c2.184,0,3.543,1.359,3.543,3.543C616.573,177.921,616.537,178.315,616.466,178.708z"/>
		<path fill="#FFFFFF" d="M634.373,179.103l-1.538,7.371c-0.645,3.006-0.286,3.756,0.608,4.723l-2.219,1.717
			c-1.073-1.109-1.467-2.146-1.324-3.9c-1.216,2.148-3.435,3.543-6.189,3.543c-2.184,0-4.259-1.717-4.259-5.652
			c0-3.508,1.36-7.586,3.722-9.984c1.86-1.896,4.365-3.006,7.12-3.006c1.933,0,3.65,0.502,5.01,1.467
			C635.054,176.239,634.624,177.921,634.373,179.103z M630.044,176.167c-2.219,0-3.686,0.787-5.188,2.576
			c-1.789,2.148-2.505,5.547-2.505,8.195c0,2.361,0.895,3.221,2.576,3.221c1.896,0,4.044-1.789,5.332-4.295l1.932-9.195
			C631.654,176.347,630.902,176.167,630.044,176.167z"/>
		<path fill="#FFFFFF" d="M653.716,179.28l-1.682,8.051c-0.357,1.646-0.751,4.008-1.002,5.01c-1.288,5.26-4.007,7.193-9.231,7.193
			c-2.146,0-4.008-0.467-6.262-1.611l1.038-2.254c1.86,1.074,3.398,1.502,5.475,1.502c3.578,0,5.295-0.93,6.118-4.436l0.752-3.256
			c-1.789,2.324-3.614,3.076-6.263,3.076c-3.005,0-4.866-2.182-4.866-6.012c0-3.863,1.825-7.871,4.151-9.982
			c1.968-1.789,4.187-2.684,6.87-2.684s4.15,0.43,5.939,1.574C654.503,176.132,654.038,177.778,653.716,179.28z M648.563,176.347
			c-1.718,0-3.221,0.502-4.616,1.824c-1.682,1.574-3.148,5.689-3.148,8.303c0,2.646,1.073,3.686,2.898,3.686
			c2.04,0,4.079-1.146,5.939-4.295l1.896-8.98C650.711,176.489,649.816,176.347,648.563,176.347z"/>
		<path fill="#FFFFFF" d="M670.446,182.251c-1.503,1.395-3.793,2.039-7.692,2.039c-0.681,0-1.432-0.035-2.219-0.072
			c-0.179,0.824-0.251,1.576-0.251,2.256c0,2.504,1.646,3.828,3.543,3.828c2.218,0,3.542-0.537,5.224-2.039l1.181,1.717
			c-1.789,1.824-3.649,2.648-7.228,2.648c-3.292,0-5.832-2.361-5.832-6.441c0-3.436,1.323-7.371,3.936-9.768
			c1.789-1.682,3.722-2.506,5.868-2.506c3.363,0,5.117,1.826,5.117,4.617C672.093,180.032,671.448,181.321,670.446,182.251z
			 M666.546,176.132c-2.29,0-4.615,2.291-5.546,5.977c0.501,0.035,1.288,0.035,1.825,0.035c3.22,0,4.615-0.43,5.546-1.359
			c0.572-0.572,0.895-1.289,0.895-2.184C669.266,177.241,668.515,176.132,666.546,176.132z"/>
		<path fill="#FFFFFF" d="M698.902,179.495l-2.72,12.738h-2.862l2.647-12.451c0.144-0.609,0.215-1.217,0.215-1.719
			c0-1.037-0.537-1.574-1.753-1.574c-1.396,0-3.722,1.719-5.618,4.045l-2.505,11.699h-2.826l2.576-12.166
			c0.179-0.787,0.357-1.752,0.357-2.074c0-0.895-0.322-1.504-1.431-1.504c-1.36,0-3.793,1.467-5.904,4.115l-2.469,11.629h-2.684
			l2.719-12.773c0.466-2.254,0.537-2.971,0.144-4.365l2.612-1.217c0.536,1.145,0.536,2.576,0.179,3.936
			c2.469-2.861,4.759-3.793,6.584-3.793c2.146,0,3.041,1.432,3.041,3.758c2.434-2.791,4.866-3.828,6.691-3.828
			c2.146,0,3.292,1.717,3.292,3.471C699.188,177.921,699.045,178.78,698.902,179.495z"/>
		<path fill="#FFFFFF" d="M715.604,182.251c-1.503,1.395-3.793,2.039-7.692,2.039c-0.681,0-1.432-0.035-2.219-0.072
			c-0.179,0.824-0.251,1.576-0.251,2.256c0,2.504,1.646,3.828,3.543,3.828c2.218,0,3.542-0.537,5.224-2.039l1.181,1.717
			c-1.789,1.824-3.649,2.648-7.228,2.648c-3.292,0-5.832-2.361-5.832-6.441c0-3.436,1.323-7.371,3.936-9.768
			c1.789-1.682,3.722-2.506,5.868-2.506c3.363,0,5.117,1.826,5.117,4.617C717.25,180.032,716.605,181.321,715.604,182.251z
			 M711.703,176.132c-2.29,0-4.615,2.291-5.546,5.977c0.501,0.035,1.288,0.035,1.825,0.035c3.22,0,4.615-0.43,5.546-1.359
			c0.572-0.572,0.895-1.289,0.895-2.184C714.423,177.241,713.672,176.132,711.703,176.132z"/>
		<path fill="#FFFFFF" d="M735.078,178.708l-2.898,13.525h-2.827l2.577-12.059c0.214-0.93,0.286-1.502,0.286-1.932
			c0-1.182-0.608-1.789-1.718-1.789c-1.432,0-3.829,1.145-6.226,4.15l-2.47,11.629h-2.719l2.719-12.738
			c0.501-2.289,0.501-3.041,0.144-4.4l2.612-1.217c0.394,1.145,0.644,2.111,0.179,3.936c1.932-2.576,4.615-3.793,6.905-3.793
			c2.184,0,3.543,1.359,3.543,3.543C735.186,177.921,735.149,178.315,735.078,178.708z"/>
		<path fill="#FFFFFF" d="M747.736,176.526h-3.864l-2.219,10.447c-0.179,0.787-0.25,1.432-0.25,1.932
			c0,1.324,0.536,1.754,1.789,1.754c0.787,0,1.288-0.107,1.86-0.357v1.789c-1.002,0.465-2.039,0.715-3.292,0.715
			c-2.075,0-3.148-1.037-3.148-2.898c0-0.643,0.107-1.682,0.286-2.611l2.254-10.77h-2.325l0.394-2.111h2.361
			c0.357-1.432,0.823-3.148,1.252-4.51l3.042-0.643c-0.466,1.322-1.146,3.613-1.468,5.152h4.438L747.736,176.526z"/>
	</g>
</g>
<g>
</g>
<g>
</g>
<g>
</g>
<g>
</g>
<g>
</g>
<g>
</g>
</svg>
