<?xml version="1.0" encoding="utf-8"?>
<!-- Generator: Adobe Illustrator 16.0.0, SVG Export Plug-In . SVG Version: 6.00 Build 0)  -->
<!DOCTYPE svg PUBLIC "-//W3C//DTD SVG 1.1//EN" "http://www.w3.org/Graphics/SVG/1.1/DTD/svg11.dtd">
<svg version="1.1" id="Layer_1" xmlns="http://www.w3.org/2000/svg" xmlns:xlink="http://www.w3.org/1999/xlink" x="0px" y="0px"
	 width="263.898px" height="40.837px" viewBox="0 0 263.898 40.837" enable-background="new 0 0 263.898 40.837"
	 xml:space="preserve">
<path fill="#FFFFFF" d="M256.486,12.944c0-2.037,1.648-3.695,3.706-3.695c2.037,0,3.706,1.658,3.706,3.695
	c0,2.059-1.669,3.718-3.706,3.718C258.135,16.662,256.486,15.003,256.486,12.944z M262.922,12.944c0-1.648-1.145-2.824-2.729-2.824
	c-1.617,0-2.729,1.176-2.729,2.824c0,1.67,1.112,2.835,2.729,2.835C261.777,15.779,262.922,14.614,262.922,12.944z M262.029,14.972
	h-0.965l-0.893-1.691h-0.662v1.691h-0.84V10.96h1.932c1.051,0,1.555,0.284,1.555,1.229c0,0.735-0.389,1.04-1.092,1.092
	L262.029,14.972z M260.612,12.672c0.452,0.011,0.767-0.095,0.767-0.588c0-0.546-0.578-0.504-0.966-0.504h-0.903v1.092H260.612z"/>
<g>
	<path fill="#FFFFFF" d="M23.698,5.586H15.15v27.337H8.548V5.586H0V0h23.698V5.586z"/>
	<path fill="#FFFFFF" d="M32.458,11.68c1.989-1.65,4.443-2.963,7.067-2.963c2.582,0,6.221,1.566,6.221,7.406v16.8h-6.263V18.662
		c0-1.904,0.127-4.909-2.582-4.909c-1.819,0-3.258,1.312-4.443,2.582v16.588h-6.263V0h6.263V11.68z"/>
	<path fill="#FFFFFF" d="M48.327,21.074c0-6.306,3.47-12.357,10.411-12.357c6.94,0,10.41,6.052,10.41,12.357
		c0,6.263-3.512,12.356-10.41,12.356S48.327,27.337,48.327,21.074z M62.715,21.074c0-2.963-0.592-7.744-3.978-7.744
		c-3.386,0-3.978,4.781-3.978,7.744c0,2.962,0.592,7.744,3.978,7.744C62.123,28.818,62.715,24.036,62.715,21.074z"/>
	<path fill="#FFFFFF" d="M85.186,30.469c-1.989,1.65-4.443,2.962-7.067,2.962c-2.582,0-6.221-1.565-6.221-7.405V9.225h6.263v14.262
		c0,1.904-0.127,4.909,2.582,4.909c1.82,0,3.259-1.312,4.443-2.582V9.225h6.263v23.698h-6.263V30.469z"/>
	<path fill="#FFFFFF" d="M101.69,25.137c-0.719,0-1.777,0.381-1.777,1.481c0,3.089,16.419-2.285,16.419,6.982
		c0,3.513-2.37,7.236-11.764,7.236c-8.167,0-10.96-2.878-10.96-5.967c0-1.82,1.143-2.751,2.582-3.598
		c-1.016-0.762-1.862-1.65-1.862-3.004c0-2.328,1.27-3.555,3.089-4.74c-1.735-1.692-2.962-3.809-2.962-6.517
		c0-5.248,4.443-8.295,9.564-8.295c2.074,0,4.062,0.593,5.84,1.65c1.27-1.185,2.412-1.946,4.274-1.946
		c0.592,0,1.227,0.042,1.82,0.169v4.401c-0.635-0.254-1.312-0.508-1.989-0.508c-0.677,0-1.1,0.212-1.693,0.508
		c0.677,1.27,1.228,2.666,1.27,4.021c0,5.247-4.401,8.294-9.521,8.294L101.69,25.137z M99.701,32.966
		c-0.592,0.381-0.973,0.719-0.973,1.481c0,2.2,4.443,2.327,5.924,2.327c1.058,0,6.56-0.127,6.56-2.031
		c0-1.228-0.846-1.101-4.57-1.312L99.701,32.966z M104.018,21.159c2.624,0,3.386-2.158,3.386-4.401c0-2.158-1.016-3.979-3.386-3.979
		c-2.624,0-3.428,2.201-3.428,4.444C100.59,19.382,101.605,21.159,104.018,21.159z"/>
	<path fill="#FFFFFF" d="M124.923,11.68c1.989-1.65,4.443-2.963,7.067-2.963c2.582,0,6.221,1.566,6.221,7.406v16.8h-6.263V18.662
		c0-1.904,0.127-4.909-2.582-4.909c-1.82,0-3.258,1.312-4.443,2.582v16.588h-6.263V0h6.263V11.68z"/>
	<path fill="#FFFFFF" d="M149.594,9.225h4.867v5.206h-4.867v12.061c0,1.143,0.338,2.327,2.37,2.327c1.058,0,1.735-0.423,2.497-0.889
		v4.782c-1.312,0.381-2.666,0.719-4.021,0.719c-3.893,0-7.109-2.2-7.109-7.363V14.431h-2.92V9.225h2.92V3.301h6.263V9.225z"/>
	<path fill="#FFFFFF" d="M180.528,32.923h-3.385l-5.586-26.914h-0.085l-5.882,26.914h-3.385L155.307,0h3.301l5.417,26.575h0.084
		L170.033,0h3.259l5.628,26.575h0.084L184.803,0h3.258L180.528,32.923z"/>
	<path fill="#FFFFFF" d="M186.622,21.243c0-8.76,4.147-12.356,9.353-12.356s9.353,3.597,9.353,12.356s-4.147,12.357-9.353,12.357
		S186.622,30.003,186.622,21.243z M202.025,21.243c0-3.978-0.973-9.563-6.051-9.563s-6.052,5.586-6.052,9.563
		c0,3.979,0.974,9.564,6.052,9.564S202.025,25.222,202.025,21.243z"/>
	<path fill="#FFFFFF" d="M211.208,14.6h0.085c1.312-2.793,3.004-5.375,6.474-5.375h1.27v3.005c-4.317-0.593-6.56,4.062-7.829,7.448
		v13.245h-3.301V9.563h3.301V14.6z"/>
	<path fill="#FFFFFF" d="M225.004,20.397l8.675-10.834h3.682l-6.433,7.998l7.405,15.361h-3.555l-5.967-12.695l-3.808,4.697v7.998
		h-3.301V0h3.301V20.397z"/>
	<path fill="#FFFFFF" d="M252.638,14.769c-1.312-1.946-2.878-3.089-5.332-3.089c-2.158,0-4.189,1.1-4.189,3.47
		c0,5.713,12.314,3.217,12.314,11.088c0,4.57-3.259,7.363-7.659,7.363c-3.767,0-6.813-1.65-8.718-4.909l2.624-1.65
		c1.27,2.412,3.301,3.767,6.094,3.767c2.412,0,4.57-1.312,4.57-3.979c0-5.882-12.314-3.089-12.314-11.468
		c0-4.021,3.301-6.475,7.151-6.475c3.259,0,5.967,1.354,7.786,4.062L252.638,14.769z"/>
</g>
</svg>
