<?xml version="1.0" encoding="utf-8"?>
<!-- Generator: Adobe Illustrator 15.0.2, SVG Export Plug-In . SVG Version: 6.00 Build 0)  -->
<!DOCTYPE svg PUBLIC "-//W3C//DTD SVG 1.1//EN" "http://www.w3.org/Graphics/SVG/1.1/DTD/svg11.dtd">
<svg version="1.1" id="Layer_1" xmlns="http://www.w3.org/2000/svg" xmlns:xlink="http://www.w3.org/1999/xlink" x="0px" y="0px"
	 width="118.771px" height="118.771px" viewBox="0 0 118.771 118.771" enable-background="new 0 0 118.771 118.771"
	 xml:space="preserve">
<path fill="#F25F0E" d="M59.273,0.225c32.537,0,58.918,26.379,58.918,58.917c0,32.54-26.381,58.917-58.918,58.917
	c-32.538,0-58.917-26.377-58.917-58.917C0.356,26.604,26.735,0.225,59.273,0.225L59.273,0.225z"/>
<path id="bar_chart_6_icon" fill="#FFFFFF" d="M75.46,34.188l5.111,5.113l-2.611,2.547l-5.131-5.133L75.46,34.188z M70.622,38.836
	l-2.707,2.602l5.172,5.17l2.686-2.623L70.622,38.836z M28.765,89.894h16.379V73.997H28.765V89.894z M74.767,29.168l10.736,10.738
	l2.504-13.028L74.767,29.168z M71.157,89.894h16.539V56.173H71.157V89.894z M70.898,48.744l-5.188-5.187l-8.317,7.994l-7.321-6.923
	L29.574,65.05l5.042,4.959L49.86,54.767l7.55,7.144L70.898,48.744z M49.961,89.894h16.54V66.45h-16.54V89.894z"/>
</svg>
