<?xml version="1.0" encoding="utf-8"?>
<!-- Generator: Adobe Illustrator 16.0.0, SVG Export Plug-In . SVG Version: 6.00 Build 0)  -->
<!DOCTYPE svg PUBLIC "-//W3C//DTD SVG 1.1//EN" "http://www.w3.org/Graphics/SVG/1.1/DTD/svg11.dtd">
<svg version="1.1" id="Layer_1" xmlns="http://www.w3.org/2000/svg" xmlns:xlink="http://www.w3.org/1999/xlink" x="0px" y="0px"
	 width="22px" height="22px" viewBox="0 0 22 22" enable-background="new 0 0 22 22" xml:space="preserve">
<path d="M19,0H3C1.343,0,0,1.343,0,3v16c0,1.657,1.343,3,3,3h16c1.656,0,3-1.343,3-3V3C22,1.343,20.657,0,19,0z M18.862,11.912
	H15.84V20h-3.08v-8.088h-2.139V9h2.139c0,0,0-1.193,0-2.487c0-1.955,1.264-3.75,4.174-3.75c1.18,0,2.051,0.113,2.051,0.113
	l-0.068,2.72c0,0-0.889-0.009-1.859-0.009c-1.049,0-1.217,0.484-1.217,1.287c0,0.119,0,0.146,0,0.134c0,0.22,0,0.76,0,1.992H19
	L18.862,11.912z"/>
</svg>
