<?xml version="1.0" encoding="utf-8"?>
<!-- Generator: Adobe Illustrator 15.0.2, SVG Export Plug-In . SVG Version: 6.00 Build 0)  -->
<!DOCTYPE svg PUBLIC "-//W3C//DTD SVG 1.1//EN" "http://www.w3.org/Graphics/SVG/1.1/DTD/svg11.dtd">
<svg version="1.1" xmlns="http://www.w3.org/2000/svg" xmlns:xlink="http://www.w3.org/1999/xlink" x="0px" y="0px"
	 width="118.772px" height="118.772px" viewBox="0 0 118.772 118.772" enable-background="new 0 0 118.772 118.772"
	 xml:space="preserve">
<g id="homepage">
	<path display="none" fill-rule="evenodd" clip-rule="evenodd" fill="#F25F0E" d="M59.273,0.225
		c32.537,0,58.918,26.379,58.918,58.917c0,32.54-26.381,58.917-58.918,58.917c-32.538,0-58.917-26.377-58.917-58.917
		C0.356,26.604,26.735,0.225,59.273,0.225L59.273,0.225z"/>
	<g display="none">
		<defs>
			<path id="SVGID_1_" d="M59.273,0.225c32.537,0,58.918,26.379,58.918,58.917c0,32.54-26.381,58.917-58.918,58.917
				c-32.538,0-58.917-26.377-58.917-58.917C0.356,26.604,26.735,0.225,59.273,0.225L59.273,0.225z"/>
		</defs>
		<clipPath id="SVGID_2_" display="inline">
			<use xlink:href="#SVGID_1_"  overflow="visible"/>
		</clipPath>
		<path id="wrench-icon" display="inline" clip-path="url(#SVGID_2_)" fill="#FFFFFF" d="M10.084,126.099l43.634-43.634
			c2.988-2.99,7.146-4.529,11.362-4.203c7.986,0.617,16.184-2.127,22.291-8.235c7.95-7.95,10.202-19.44,6.76-29.397L76.052,58.708
			C69,59.122,58.095,48.217,58.51,41.165l18.078-18.078c-9.958-3.444-21.447-1.191-29.397,6.759
			c-6.108,6.108-8.853,14.305-8.234,22.292c0.326,4.22-1.211,8.37-4.204,11.364l-43.634,43.634c-5.236,5.236-5.236,13.728,0,18.964
			C-3.644,131.336,4.847,131.336,10.084,126.099z M-4.108,115.963c0-3.052,2.475-5.527,5.527-5.527s5.526,2.476,5.526,5.527
			c0,3.051-2.475,5.526-5.526,5.526C-1.633,121.49-4.108,119.015-4.108,115.963z"/>
	</g>
	<g display="none">
		<defs>
			<path id="SVGID_3_" d="M80.39,89.143H38.389c-2.319,0-4.201-1.881-4.201-4.199V55.543c0-2.32,1.882-4.201,4.201-4.201v-8.399
				c0-11.598,9.402-21,20.999-21c10.16,0,18.631,7.216,20.578,16.801h-8.748c-1.736-4.884-6.352-8.401-11.83-8.401
				c-6.957,0-12.6,5.641-12.6,12.6v8.399H80.39v-8.399l0,0v8.399c2.318,0,4.199,1.881,4.199,4.201v29.401
				C84.589,87.262,82.708,89.143,80.39,89.143L80.39,89.143z M76.189,59.742h-33.6v21.001h33.6V59.742L76.189,59.742z"/>
		</defs>
		<clipPath id="SVGID_4_" display="inline">
			<use xlink:href="#SVGID_3_"  overflow="visible"/>
		</clipPath>
	</g>
	<g display="none">
		<path display="inline" fill="#FFFFFF" stroke="#FFFFFF" stroke-width="4.252" stroke-miterlimit="10" d="M68.359,46.274V26.628
			h2.807v-2.806h-2.807l0,0h-8.416H59.94h-8.419l0,0h-2.809v2.806h2.809v19.646c0,0-19.646,28.065-19.646,36.485
			c0,8.419,8.42,8.419,8.42,8.419H59.94h0.003h19.644c0,0,8.419,0,8.419-8.419C88.005,74.339,68.359,46.274,68.359,46.274z
			 M79.586,88.372H59.94H40.295c-0.937,0-5.613-0.273-5.613-5.612c0-5.487,11.739-24.305,19.139-34.874l0.507-0.729v-0.883V26.628
			h11.225v19.646v0.883l0.507,0.729c7.401,10.568,19.14,29.386,19.14,34.874C85.199,87.889,80.888,88.35,79.586,88.372z"/>
		<path display="inline" fill="#FFFFFF" d="M51.52,77.146c0,1.551-1.257,2.807-2.807,2.807s-2.807-1.256-2.807-2.807
			c0-1.546,1.257-2.807,2.807-2.807S51.52,75.6,51.52,77.146z"/>
		<path display="inline" fill="#FFFFFF" d="M62.746,65.919c0,3.103-2.513,5.612-5.612,5.612s-5.613-2.51-5.613-5.612
			c0-3.104,2.514-5.613,5.613-5.613S62.746,62.816,62.746,65.919z"/>
		<circle display="inline" fill="#FFFFFF" cx="68.359" cy="77.146" r="5.613"/>
	</g>
	<g display="none">
		<path display="inline" fill-rule="evenodd" clip-rule="evenodd" fill="#FFFFFF" d="M106.868,35.9c0,8.809,0,17.619,0,26.429
			c-4.406,0.076-9.115-0.152-13.33,0.115c0,4.404,0,8.809,0,13.213c-4.405,0-8.81,0-13.215,0c0.077-4.365-0.152-9.039,0.115-13.213
			c4.366,0,8.733,0,13.1,0c0.126-8.837-0.268-18.194,0.229-26.659C96.192,35.888,103.218,35.633,106.868,35.9z"/>
		<path display="inline" fill-rule="evenodd" clip-rule="evenodd" fill="#FFFFFF" d="M27.12,35.669c0-4.367,0-8.733,0-13.1
			c8.848,0,17.696,0,26.544,0c0,4.405,0,8.81,0,13.215c-8.848,0-17.696,0-26.544,0c0,8.886,0,17.772,0,26.659
			c4.442,0,8.886,0,13.329,0c0,4.367,0,8.732,0,13.1c4.175,0.268,8.848,0.039,13.215,0.113c0,4.443,0,8.887,0,13.33
			c-4.405,0-8.81,0-13.215,0c0-4.443,0-8.887,0-13.33c-4.405-0.074-9.116,0.154-13.329-0.113c0-4.367,0-8.732,0-13.1
			c-4.176-0.268-8.848-0.039-13.215-0.115c0-8.81,0-17.62,0-26.429c2.601-0.14,9.725-0.218,12.985,0
			C26.992,35.849,27.095,35.798,27.12,35.669z"/>
		<path display="inline" fill-rule="evenodd" clip-rule="evenodd" fill="#FFFFFF" d="M66.993,35.669c0-4.367,0-8.733,0-13.1
			c8.849,0,17.696,0,26.545,0c0,4.405,0,8.81,0,13.215c-8.849,0-17.696,0-26.545,0c-0.073,4.407,0.149,9.112-0.114,13.33
			c-4.406-0.038-8.984,0.097-13.215-0.115c0.113-3.095-0.178-9.089,0.115-13.099c4.003-0.203,9.357-0.176,12.984,0
			C66.866,35.849,66.969,35.798,66.993,35.669z"/>
		<path display="inline" fill-rule="evenodd" clip-rule="evenodd" fill="#FFFFFF" d="M66.993,88.872c0-4.402,0-8.809,0-13.215
			c4.405,0,8.811,0,13.215,0c0,4.406,0,8.812,0,13.215c-4.137,0.27-8.771,0.039-13.1,0.115c-0.268,4.176-0.038,8.85-0.115,13.215
			c-4.404,0-8.81,0-13.214,0c-0.259-3.787-0.086-9.018,0-13.215c4.329,0,8.656,0,12.984,0
			C66.897,89.006,66.968,88.963,66.993,88.872z"/>
	</g>
</g>
<g id="accomodation">
	<path fill-rule="evenodd" clip-rule="evenodd" fill="#730189" d="M59.273,0.225c32.537,0,58.918,26.379,58.918,58.917
		c0,32.54-26.381,58.917-58.918,58.917c-32.538,0-58.917-26.377-58.917-58.917C0.356,26.604,26.735,0.225,59.273,0.225L59.273,0.225
		z"/>
	<polygon fill="#FFFFFF" points="83.053,48.137 83.053,26.553 70.719,26.553 70.719,35.803 58.386,23.468 24.469,57.384 
		30.635,57.384 30.635,91.303 49.139,91.303 49.139,63.553 67.636,63.553 67.636,91.303 86.136,91.303 86.136,57.384 92.303,57.384 
			"/>
</g>
</svg>
