<?xml version="1.0" encoding="utf-8"?>
<!-- Generator: Adobe Illustrator 16.0.0, SVG Export Plug-In . SVG Version: 6.00 Build 0)  -->
<!DOCTYPE svg PUBLIC "-//W3C//DTD SVG 1.1//EN" "http://www.w3.org/Graphics/SVG/1.1/DTD/svg11.dtd">
<svg version="1.1" id="Layer_1" xmlns="http://www.w3.org/2000/svg" xmlns:xlink="http://www.w3.org/1999/xlink" x="0px" y="0px"
	 width="22px" height="22px" viewBox="0 0 22 22" enable-background="new 0 0 22 22" xml:space="preserve">
<path d="M19,0H3C1.343,0,0,1.343,0,3v16c0,1.657,1.343,3,3,3h16c1.656,0,3-1.343,3-3V3C22,1.343,20.657,0,19,0z M18.614,11.161
	C16.983,17.778,6.036,20.583,1,13.717c1.93,1.84,5.289,2.002,7.419-0.202C7.17,13.7,6.259,12.473,7.795,11.81
	c-1.381,0.152-2.147-0.583-2.461-1.208c0.32-0.337,0.681-0.494,1.37-0.543c-1.51-0.355-2.069-1.096-2.241-1.993
	c0.421-0.1,0.945-0.185,1.229-0.146c-1.32-0.694-1.781-1.735-1.708-2.518c2.364,0.879,3.871,1.584,5.129,2.261
	c0.448,0.239,0.951,0.671,1.517,1.219c0.72-1.902,1.607-3.865,3.128-4.84c-0.023,0.224-0.141,0.427-0.297,0.597
	c0.432-0.392,0.992-0.663,1.562-0.741c-0.064,0.429-0.682,0.669-1.055,0.808c0.285-0.086,1.779-0.753,1.945-0.374
	c0.189,0.432-1.033,0.635-1.242,0.707c-0.158,0.054-0.312,0.111-0.467,0.173c1.896-0.187,3.711,1.38,4.238,3.322
	c0.039,0.144,0.076,0.295,0.113,0.461c0.691,0.258,1.951-0.014,2.357-0.265c-0.293,0.695-1.055,1.206-2.18,1.3
	c0.541,0.223,1.562,0.351,2.266,0.23C20.553,10.736,19.834,11.169,18.614,11.161z"/>
</svg>
