<?xml version="1.0" encoding="utf-8"?>
<!-- Generator: Adobe Illustrator 15.0.2, SVG Export Plug-In . SVG Version: 6.00 Build 0)  -->
<!DOCTYPE svg PUBLIC "-//W3C//DTD SVG 1.1//EN" "http://www.w3.org/Graphics/SVG/1.1/DTD/svg11.dtd">
<svg version="1.1" xmlns="http://www.w3.org/2000/svg" xmlns:xlink="http://www.w3.org/1999/xlink" x="0px" y="0px"
	 width="118.772px" height="118.772px" viewBox="0 0 118.772 118.772" enable-background="new 0 0 118.772 118.772"
	 xml:space="preserve">
<g id="homepage">
	<path fill-rule="evenodd" clip-rule="evenodd" fill="#F25F0E" d="M59.273,0.225c32.537,0,58.918,26.379,58.918,58.917
		c0,32.54-26.381,58.917-58.918,58.917c-32.538,0-58.917-26.377-58.917-58.917C0.356,26.604,26.735,0.225,59.273,0.225L59.273,0.225
		z"/>
	<g display="none">
		<defs>
			<path id="SVGID_1_" d="M59.273,0.225c32.537,0,58.918,26.379,58.918,58.917c0,32.54-26.381,58.917-58.918,58.917
				c-32.538,0-58.917-26.377-58.917-58.917C0.356,26.604,26.735,0.225,59.273,0.225L59.273,0.225z"/>
		</defs>
		<clipPath id="SVGID_2_" display="inline">
			<use xlink:href="#SVGID_1_"  overflow="visible"/>
		</clipPath>
		<path id="wrench-icon" display="inline" clip-path="url(#SVGID_2_)" fill="#FFFFFF" d="M10.084,126.099l43.634-43.634
			c2.988-2.99,7.146-4.529,11.362-4.203c7.986,0.617,16.184-2.127,22.291-8.235c7.95-7.95,10.202-19.44,6.76-29.397L76.052,58.708
			C69,59.122,58.095,48.217,58.51,41.165l18.078-18.078c-9.958-3.444-21.447-1.191-29.397,6.759
			c-6.108,6.108-8.853,14.305-8.234,22.292c0.326,4.22-1.211,8.37-4.204,11.364l-43.634,43.634c-5.236,5.236-5.236,13.728,0,18.964
			C-3.644,131.336,4.847,131.336,10.084,126.099z M-4.108,115.963c0-3.052,2.475-5.527,5.527-5.527s5.526,2.476,5.526,5.527
			c0,3.051-2.475,5.526-5.526,5.526C-1.633,121.49-4.108,119.015-4.108,115.963z"/>
	</g>
	<g>
		<defs>
			<path id="SVGID_3_" d="M80.39,51.342c2.318,0,4.199,1.881,4.199,4.201v29.401c0,2.318-1.881,4.199-4.199,4.199l0,0H38.389
				c-2.319,0-4.201-1.881-4.201-4.199V55.543c0-2.32,1.882-4.201,4.201-4.201v-8.399c0-11.598,9.402-21,20.999-21
				c10.16,0,18.631,7.216,20.578,16.801h-8.748c-1.736-4.884-6.352-8.401-11.83-8.401c-6.957,0-12.6,5.641-12.6,12.6v8.399H80.39
				 M76.189,59.742h-33.6v21.001h33.6V59.742L76.189,59.742z"/>
		</defs>
		<use xlink:href="#SVGID_3_"  overflow="visible" fill-rule="evenodd" clip-rule="evenodd" fill="#FFFFFF"/>
		<clipPath id="SVGID_4_">
			<use xlink:href="#SVGID_3_"  overflow="visible"/>
		</clipPath>
	</g>
	<g display="none">
		<path display="inline" fill="#FFFFFF" stroke="#FFFFFF" stroke-width="4.252" stroke-miterlimit="10" d="M68.359,46.274V26.628
			h2.807v-2.806h-2.807l0,0h-8.416H59.94h-8.419l0,0h-2.809v2.806h2.809v19.646c0,0-19.646,28.065-19.646,36.485
			c0,8.419,8.42,8.419,8.42,8.419H59.94h0.003h19.644c0,0,8.419,0,8.419-8.419C88.005,74.339,68.359,46.274,68.359,46.274z
			 M79.586,88.372H59.94H40.295c-0.937,0-5.613-0.273-5.613-5.612c0-5.487,11.739-24.305,19.139-34.874l0.507-0.729v-0.883V26.628
			h11.225v19.646v0.883l0.507,0.729c7.401,10.568,19.14,29.386,19.14,34.874C85.199,87.889,80.888,88.35,79.586,88.372z"/>
		<path display="inline" fill="#FFFFFF" d="M51.52,77.146c0,1.551-1.257,2.807-2.807,2.807s-2.807-1.256-2.807-2.807
			c0-1.546,1.257-2.807,2.807-2.807S51.52,75.6,51.52,77.146z"/>
		<path display="inline" fill="#FFFFFF" d="M62.746,65.919c0,3.103-2.513,5.612-5.612,5.612s-5.613-2.51-5.613-5.612
			c0-3.104,2.514-5.613,5.613-5.613S62.746,62.816,62.746,65.919z"/>
		<circle display="inline" fill="#FFFFFF" cx="68.359" cy="77.146" r="5.613"/>
	</g>
	<g display="none">
		<path display="inline" fill-rule="evenodd" clip-rule="evenodd" fill="#FFFFFF" d="M106.868,35.9c0,8.809,0,17.619,0,26.429
			c-4.406,0.076-9.115-0.152-13.33,0.115c0,4.404,0,8.809,0,13.213c-4.405,0-8.81,0-13.215,0c0.077-4.365-0.152-9.039,0.115-13.213
			c4.366,0,8.733,0,13.1,0c0.126-8.837-0.268-18.194,0.229-26.659C96.192,35.888,103.218,35.633,106.868,35.9z"/>
		<path display="inline" fill-rule="evenodd" clip-rule="evenodd" fill="#FFFFFF" d="M27.12,35.669c0-4.367,0-8.733,0-13.1
			c8.848,0,17.696,0,26.544,0c0,4.405,0,8.81,0,13.215c-8.848,0-17.696,0-26.544,0c0,8.886,0,17.772,0,26.659
			c4.442,0,8.886,0,13.329,0c0,4.367,0,8.732,0,13.1c4.175,0.268,8.848,0.039,13.215,0.113c0,4.443,0,8.887,0,13.33
			c-4.405,0-8.81,0-13.215,0c0-4.443,0-8.887,0-13.33c-4.405-0.074-9.116,0.154-13.329-0.113c0-4.367,0-8.732,0-13.1
			c-4.176-0.268-8.848-0.039-13.215-0.115c0-8.81,0-17.62,0-26.429c2.601-0.14,9.725-0.218,12.985,0
			C26.992,35.849,27.095,35.798,27.12,35.669z"/>
		<path display="inline" fill-rule="evenodd" clip-rule="evenodd" fill="#FFFFFF" d="M66.993,35.669c0-4.367,0-8.733,0-13.1
			c8.849,0,17.696,0,26.545,0c0,4.405,0,8.81,0,13.215c-8.849,0-17.696,0-26.545,0c-0.073,4.407,0.149,9.112-0.114,13.33
			c-4.406-0.038-8.984,0.097-13.215-0.115c0.113-3.095-0.178-9.089,0.115-13.099c4.003-0.203,9.357-0.176,12.984,0
			C66.866,35.849,66.969,35.798,66.993,35.669z"/>
		<path display="inline" fill-rule="evenodd" clip-rule="evenodd" fill="#FFFFFF" d="M66.993,88.872c0-4.402,0-8.809,0-13.215
			c4.405,0,8.811,0,13.215,0c0,4.406,0,8.812,0,13.215c-4.137,0.27-8.771,0.039-13.1,0.115c-0.268,4.176-0.038,8.85-0.115,13.215
			c-4.404,0-8.81,0-13.214,0c-0.259-3.787-0.086-9.018,0-13.215c4.329,0,8.656,0,12.984,0
			C66.897,89.006,66.968,88.963,66.993,88.872z"/>
	</g>
	<g display="none">
		<path display="inline" fill-rule="evenodd" clip-rule="evenodd" fill="#FFFFFF" d="M99.606,66.069L99.606,66.069
			c0-2.851-2.312-5.162-5.161-5.162H66.058c-2.854,0-5.162,2.312-5.162,5.162l0,0"/>
		<path display="inline" fill-rule="evenodd" clip-rule="evenodd" fill="#FFFFFF" d="M60.896,81.553L60.896,81.553
			c0,2.85,2.309,5.161,5.162,5.161h28.387c2.849,0,5.161-2.312,5.161-5.161l0,0"/>
		<g display="inline">
			<g>
				<path fill="#FFFFFF" d="M56.094,39.682l-4.74,45.033H31.729l-4.741-45.033H56.094 M58.316,37.682H24.767l5.162,49.033h23.226
					L58.316,37.682L58.316,37.682z"/>
			</g>
		</g>
		<path display="inline" fill-rule="evenodd" clip-rule="evenodd" fill="#FFFFFF" d="M99.606,76.391c0,1.428-1.157,2.581-2.58,2.581
			H63.477c-1.427,0-2.581-1.153-2.581-2.581v-5.162c0-1.426,1.154-2.58,2.581-2.58h33.549c1.423,0,2.58,1.154,2.58,2.58V76.391z"/>
		
			<polyline display="inline" fill-rule="evenodd" clip-rule="evenodd" fill="none" stroke="#FFFFFF" stroke-width="2" stroke-miterlimit="10" points="
			44.347,60.907 48.306,29.201 64.958,29.201 		"/>
		<g display="inline">
			<polygon fill-rule="evenodd" clip-rule="evenodd" fill="#FFFFFF" points="26.894,58.327 29.929,86.714 53.155,86.714 
				56.188,58.327 			"/>
		</g>
	</g>
</g>
<g id="feen" display="none">
	<path display="inline" fill-rule="evenodd" clip-rule="evenodd" fill="#FCA926" d="M59.273,0.225
		c32.537,0,58.918,26.379,58.918,58.917c0,32.54-26.381,58.917-58.918,58.917c-32.538,0-58.917-26.377-58.917-58.917
		C0.356,26.604,26.735,0.225,59.273,0.225L59.273,0.225z"/>
	<g display="inline">
		<g>
			<path fill="#FFFFFF" d="M80.164,33.414l-2.596-5.194H59.387l0,0H41.206l-2.597,5.194l-5.195,2.598v5.194h25.965l0,0h25.98v-5.194
				L80.164,33.414z M63.281,36.011H55.49c-0.723,0-1.299-0.583-1.299-1.299c0-0.72,0.576-1.299,1.299-1.299h7.791
				c0.717,0,1.301,0.579,1.301,1.299C64.582,35.428,63.998,36.011,63.281,36.011z"/>
		</g>
		<polygon fill="#FFFFFF" points="43.795,90.553 74.97,90.553 76.697,74.969 42.065,74.969 		"/>
		<polygon fill="#FFFFFF" points="80.164,43.803 38.601,43.803 39.757,54.191 79.007,54.191 		"/>
		<polygon opacity="0.5" fill="#FFFFFF" points="39.757,54.191 42.065,74.969 76.697,74.969 79.007,54.191 		"/>
	</g>
</g>
<g id="relax" display="none">
	<path display="inline" fill-rule="evenodd" clip-rule="evenodd" fill="#62B0D6" d="M59.273,0.225
		c32.537,0,58.918,26.379,58.918,58.917c0,32.54-26.381,58.917-58.918,58.917c-32.538,0-58.917-26.377-58.917-58.917
		C0.356,26.604,26.735,0.225,59.273,0.225L59.273,0.225z"/>
	<g display="inline">
		<g>
			<path fill="#FFFFFF" d="M83.884,34.725l-22.66,22.661H57.55L34.888,34.725H83.884 M88.712,32.725H30.06l26.662,26.661h5.331
				L88.712,32.725L88.712,32.725z"/>
		</g>
		<path fill="#FFFFFF" d="M67.384,46.055c0,2.942-2.39,5.333-5.332,5.333c-2.941,0-5.331-2.39-5.331-5.333
			c0-2.942,2.39-5.332,5.331-5.332C64.995,40.723,67.384,43.113,67.384,46.055z"/>
		<line fill="none" stroke="#FFFFFF" stroke-width="2" x1="72.717" y1="27.393" x2="56.721" y2="56.72"/>
		<path fill="#FFFFFF" d="M62.054,86.108V59.386h-5.331v26.722c-9.045,0.371-15.997,2.588-15.997,5.271h37.325
			C78.051,88.696,71.096,86.479,62.054,86.108z"/>
		<polygon opacity="0.4" fill="#FFFFFF" points="43.39,43.389 75.382,43.389 59.387,59.386 		"/>
	</g>
</g>
<g id="accomodation" display="none">
	<path display="inline" fill-rule="evenodd" clip-rule="evenodd" fill="#730189" d="M59.273,0.225
		c32.537,0,58.918,26.379,58.918,58.917c0,32.54-26.381,58.917-58.918,58.917c-32.538,0-58.917-26.377-58.917-58.917
		C0.356,26.604,26.735,0.225,59.273,0.225L59.273,0.225z"/>
	<polygon display="inline" fill="#FFFFFF" points="83.053,48.137 83.053,26.553 70.719,26.553 70.719,35.803 58.386,23.468 
		24.469,57.384 30.635,57.384 30.635,91.303 49.139,91.303 49.139,63.553 67.636,63.553 67.636,91.303 86.136,91.303 86.136,57.384 
		92.303,57.384 	"/>
</g>
</svg>
