<?xml version="1.0" encoding="utf-8"?>
<!-- Generator: Adobe Illustrator 15.0.2, SVG Export Plug-In . SVG Version: 6.00 Build 0)  -->
<!DOCTYPE svg PUBLIC "-//W3C//DTD SVG 1.1//EN" "http://www.w3.org/Graphics/SVG/1.1/DTD/svg11.dtd">
<svg version="1.1" id="Layer_1" xmlns="http://www.w3.org/2000/svg" xmlns:xlink="http://www.w3.org/1999/xlink" x="0px" y="0px"
	 width="118.772px" height="118.772px" viewBox="0 0 118.772 118.772" enable-background="new 0 0 118.772 118.772"
	 xml:space="preserve">
<path fill-rule="evenodd" clip-rule="evenodd" fill="#F25F0E" d="M59.273,0.225c32.537,0,58.918,26.379,58.918,58.917
	c0,32.54-26.381,58.917-58.918,58.917c-32.538,0-58.917-26.377-58.917-58.917C0.356,26.604,26.735,0.225,59.273,0.225L59.273,0.225z
	"/>
<g>
	<defs>
		<path id="SVGID_1_" d="M59.273,0.225c32.537,0,58.918,26.379,58.918,58.917c0,32.54-26.381,58.917-58.918,58.917
			c-32.538,0-58.917-26.377-58.917-58.917C0.356,26.604,26.735,0.225,59.273,0.225L59.273,0.225z"/>
	</defs>
	<clipPath id="SVGID_2_">
		<use xlink:href="#SVGID_1_"  overflow="visible"/>
	</clipPath>
	<path id="wrench-icon" clip-path="url(#SVGID_2_)" fill="#FFFFFF" d="M10.084,126.099l43.634-43.634
		c2.988-2.99,7.146-4.529,11.362-4.203c7.986,0.617,16.184-2.127,22.291-8.235c7.95-7.95,10.202-19.44,6.76-29.397L76.052,58.708
		C69,59.122,58.095,48.217,58.51,41.165l18.078-18.078c-9.958-3.444-21.447-1.191-29.397,6.759
		c-6.108,6.108-8.853,14.305-8.234,22.292c0.326,4.22-1.211,8.37-4.204,11.364l-43.634,43.634c-5.236,5.236-5.236,13.728,0,18.964
		C-3.644,131.336,4.847,131.336,10.084,126.099z M-4.108,115.963c0-3.052,2.475-5.527,5.527-5.527s5.526,2.476,5.526,5.527
		c0,3.051-2.475,5.526-5.526,5.526C-1.633,121.49-4.108,119.015-4.108,115.963z"/>
</g>
<g display="none">
	<defs>
		<path id="SVGID_3_" d="M80.39,89.143H38.389c-2.319,0-4.201-1.881-4.201-4.199V55.543c0-2.32,1.882-4.201,4.201-4.201v-8.399
			c0-11.598,9.402-21,20.999-21c10.16,0,18.631,7.216,20.578,16.801h-8.748c-1.736-4.884-6.352-8.401-11.83-8.401
			c-6.957,0-12.6,5.641-12.6,12.6v8.399H80.39v-8.399l0,0v8.399c2.318,0,4.199,1.881,4.199,4.201v29.401
			C84.589,87.262,82.708,89.143,80.39,89.143L80.39,89.143z M76.189,59.742h-33.6v21.001h33.6V59.742L76.189,59.742z"/>
	</defs>
	<clipPath id="SVGID_4_" display="inline">
		<use xlink:href="#SVGID_3_"  overflow="visible"/>
	</clipPath>
</g>
<g display="none">
	<path display="inline" fill="#FFFFFF" stroke="#FFFFFF" stroke-width="4.252" stroke-miterlimit="10" d="M68.359,46.274V26.628
		h2.807v-2.806h-2.807l0,0h-8.416H59.94h-8.419l0,0h-2.809v2.806h2.809v19.646c0,0-19.646,28.065-19.646,36.485
		c0,8.419,8.42,8.419,8.42,8.419H59.94h0.003h19.644c0,0,8.419,0,8.419-8.419C88.005,74.339,68.359,46.274,68.359,46.274z
		 M79.586,88.372H59.94H40.295c-0.937,0-5.613-0.273-5.613-5.612c0-5.487,11.739-24.305,19.139-34.874l0.507-0.729v-0.883V26.628
		h11.225v19.646v0.883l0.507,0.729c7.401,10.568,19.14,29.386,19.14,34.874C85.199,87.889,80.888,88.35,79.586,88.372z"/>
	<path display="inline" fill="#FFFFFF" d="M51.52,77.146c0,1.551-1.257,2.807-2.807,2.807s-2.807-1.256-2.807-2.807
		c0-1.546,1.257-2.807,2.807-2.807S51.52,75.6,51.52,77.146z"/>
	<path display="inline" fill="#FFFFFF" d="M62.746,65.919c0,3.103-2.513,5.612-5.612,5.612s-5.613-2.51-5.613-5.612
		c0-3.104,2.514-5.613,5.613-5.613S62.746,62.816,62.746,65.919z"/>
	<circle display="inline" fill="#FFFFFF" cx="68.359" cy="77.146" r="5.613"/>
</g>
</svg>
