<?xml version="1.0" encoding="UTF-8"?>
<svg width="1023px" height="300px" viewBox="0 0 1023 300" version="1.1" xmlns="http://www.w3.org/2000/svg" xmlns:xlink="http://www.w3.org/1999/xlink">
    <!-- Generator: Sketch 50.2 (55047) - http://www.bohemiancoding.com/sketch -->
    <title>Logotype Copy</title>
    <desc>Created with Sketch.</desc>
    <defs></defs>
    <g id="Logotype-Copy" stroke="none" stroke-width="1" fill="none" fill-rule="evenodd">
        <path d="M290.04,134 L284.6,110.54 L253.66,110.54 L248.22,134 L218.3,134 L251.96,23.5 L287.32,23.5 L320.98,134 L290.04,134 Z M258.93,87.93 L279.33,87.93 L277.46,80.28 C274.74,69.74 272.02,56.31 269.3,45.26 L268.62,45.26 C266.24,56.48 263.52,69.74 260.8,80.28 L258.93,87.93 Z M360.637222,136.04 C346.697222,136.04 330.717222,130.94 318.817222,120.23 L335.477222,100.17 C343.297222,106.46 353.157222,110.88 361.317222,110.88 C370.157222,110.88 373.897222,107.99 373.897222,103.06 C373.897222,97.79 368.287222,96.09 358.937222,92.35 L345.167222,86.57 C333.267222,81.81 322.897222,71.78 322.897222,55.8 C322.897222,36.93 339.897222,21.46 364.037222,21.46 C376.617222,21.46 390.557222,26.22 400.757222,36.25 L386.137222,54.61 C378.657222,49.34 372.197222,46.62 364.037222,46.62 C356.897222,46.62 352.477222,49.17 352.477222,54.1 C352.477222,59.37 358.767222,61.24 368.797222,65.15 L382.227222,70.42 C395.997222,75.86 403.817222,85.38 403.817222,100.68 C403.817222,119.38 388.177222,136.04 360.637222,136.04 Z M447.214444,136.04 C433.274444,136.04 417.294444,130.94 405.394444,120.23 L422.054444,100.17 C429.874444,106.46 439.734444,110.88 447.894444,110.88 C456.734444,110.88 460.474444,107.99 460.474444,103.06 C460.474444,97.79 454.864444,96.09 445.514444,92.35 L431.744444,86.57 C419.844444,81.81 409.474444,71.78 409.474444,55.8 C409.474444,36.93 426.474444,21.46 450.614444,21.46 C463.194444,21.46 477.134444,26.22 487.334444,36.25 L472.714444,54.61 C465.234444,49.34 458.774444,46.62 450.614444,46.62 C443.474444,46.62 439.054444,49.17 439.054444,54.1 C439.054444,59.37 445.344444,61.24 455.374444,65.15 L468.804444,70.42 C482.574444,75.86 490.394444,85.38 490.394444,100.68 C490.394444,119.38 474.754444,136.04 447.214444,136.04 Z M502.171666,134 L502.171666,23.5 L573.571666,23.5 L573.571666,47.98 L531.411666,47.98 L531.411666,65.32 L567.451666,65.32 L567.451666,89.8 L531.411666,89.8 L531.411666,109.52 L575.271666,109.52 L575.271666,134 L502.171666,134 Z M590.788887,134 L590.788887,23.5 L622.068887,23.5 L638.728887,68.72 C640.768887,74.84 642.468887,81.64 644.508887,88.1 L645.188887,88.1 C647.228887,81.64 648.928887,74.84 650.968887,68.72 L666.948887,23.5 L698.228887,23.5 L698.228887,134 L671.708887,134 L671.708887,101.36 C671.708887,90.14 674.088887,72.97 675.448887,61.92 L674.768887,61.92 L665.588887,88.44 L651.988887,124.99 L636.348887,124.99 L622.748887,88.44 L613.908887,61.92 L613.228887,61.92 C614.588887,72.97 616.968887,90.14 616.968887,101.36 L616.968887,134 L590.788887,134 Z M716.806109,134 L716.806109,23.5 L756.586109,23.5 C779.706109,23.5 798.406109,29.28 798.406109,51.04 C798.406109,60.56 792.966109,71.44 784.466109,74.84 L784.466109,75.52 C795.006109,78.58 803.506109,86.74 803.506109,101.36 C803.506109,124.14 783.786109,134 759.986109,134 L716.806109,134 Z M746.046109,66.68 L755.906109,66.68 C765.426109,66.68 769.846109,62.26 769.846109,55.46 C769.846109,48.66 765.426109,45.94 755.906109,45.94 L746.046109,45.94 L746.046109,66.68 Z M746.046109,111.56 L757.946109,111.56 C769.506109,111.56 774.946109,107.48 774.946109,99.32 C774.946109,91.16 769.506109,88.1 757.946109,88.1 L746.046109,88.1 L746.046109,111.56 Z M814.943331,134 L814.943331,23.5 L844.183331,23.5 L844.183331,109.52 L886.003331,109.52 L886.003331,134 L814.943331,134 Z M903.220553,134 L903.220553,95.92 L869.900553,23.5 L901.180553,23.5 L909.340553,46.62 C912.060553,54.95 914.780553,62.6 917.670553,71.27 L918.350553,71.27 C921.240553,62.6 924.130553,54.95 927.020553,46.62 L935.180553,23.5 L965.780553,23.5 L932.460553,95.92 L932.460553,134 L903.220553,134 Z M232.24,279 L232.24,168.5 L304.32,168.5 L304.32,192.98 L261.48,192.98 L261.48,214.06 L298.2,214.06 L298.2,238.54 L261.48,238.54 L261.48,279 L232.24,279 Z M362.337222,281.04 C331.737222,281.04 310.997222,259.62 310.997222,223.24 C310.997222,186.86 331.737222,166.46 362.337222,166.46 C392.937222,166.46 413.677222,187.03 413.677222,223.24 C413.677222,259.62 392.937222,281.04 362.337222,281.04 Z M362.337222,255.88 C375.597222,255.88 383.757222,243.3 383.757222,223.24 C383.757222,203.18 375.597222,191.62 362.337222,191.62 C349.077222,191.62 340.917222,203.18 340.917222,223.24 C340.917222,243.3 349.077222,255.88 362.337222,255.88 Z M472.714444,281.04 C441.774444,281.04 426.814444,263.36 426.814444,225.62 L426.814444,168.5 L456.054444,168.5 L456.054444,229.02 C456.054444,248.74 461.154444,255.88 472.714444,255.88 C484.274444,255.88 489.714444,248.74 489.714444,229.02 L489.714444,168.5 L517.934444,168.5 L517.934444,225.62 C517.934444,263.36 503.654444,281.04 472.714444,281.04 Z M627.971666,279 L595.331666,279 L576.291666,241.94 L565.071666,241.94 L565.071666,279 L535.831666,279 L535.831666,168.5 L577.651666,168.5 C601.451666,168.5 621.851666,176.66 621.851666,204.2 C621.851666,220.01 614.711666,230.38 604.001666,236.16 L627.971666,279 Z M565.071666,191.62 L565.071666,218.82 L575.611666,218.82 C587.171666,218.82 593.291666,213.72 593.291666,204.2 C593.291666,194.68 587.171666,191.62 575.611666,191.62 L565.071666,191.62 Z" id="ASSEMBLY-FOUR" fill="#444444"></path>
        <g id="Group" transform="translate(31.000000, 22.000000)" fill="#8400FF">
            <polygon id="AF-Master-Copy-3" points="64 176.021983 31.5345338 257 0 257 33.3660131 176"></polygon>
            <path d="M108.204161,64.5545024 L81.4539924,131.545024 L108.204161,131.545024 L108.204161,64.5545024 Z M137.626308,256.775657 L108.393302,257 L108.393302,159.50816 L70.5890049,159.50816 L40,159.50816 L105.904138,0 L137.626308,0 L137.626308,131.454967 L169,131.454967 L169,159.00549 L137.626308,159.00549 L137.626308,256.775657 Z" id="AF-Master-Copy-5"></path>
        </g>
    </g>
</svg>