<?xml version="1.0" encoding="utf-8"?>
<!-- Generator: Adobe Illustrator 16.0.0, SVG Export Plug-In . SVG Version: 6.00 Build 0)  -->
<!DOCTYPE svg PUBLIC "-//W3C//DTD SVG 1.1//EN" "http://www.w3.org/Graphics/SVG/1.1/DTD/svg11.dtd">
<svg version="1.1" id="Layer_1" xmlns="http://www.w3.org/2000/svg" xmlns:xlink="http://www.w3.org/1999/xlink" x="0px" y="0px"
	 width="1190.55px" height="841.89px" viewBox="0 0 1190.55 841.89" enable-background="new 0 0 1190.55 841.89"
	 xml:space="preserve">
<g>
	<path fill="#88B227" d="M314.826,362.86c-3.81-2.115-14.729-0.809-27.842,3.25c-22.952,15.689-42.322,38.803-43.674,75.922
		c-0.245,0.884-2.509-0.125-2.958-0.398c-6.196-11.88-8.65-24.391-3.479-42.435c0.965-1.606-2.185-3.582-2.754-3.018
		c-1.136,1.138-5.872,6.183-9.02,11.637c-15.589,27.041-5.39,61.699,21.883,76.863c27.269,15.188,61.702,5.388,76.889-21.886
		C341.435,431.311,325.123,368.612,314.826,362.86z"/>
	<g>
		<path fill="#13110C" d="M412.437,377.968c-32.33,0-55.798,24.037-55.798,57.155c0,33.391,23.403,56.712,56.926,56.712
			c16.933,0,30.337-5.296,40.999-16.196c3.179-3.438,3.524-6.751,3.524-8.014c0-5.402-4.019-9.325-9.545-9.325
			c-2.792,0-5.126,1.057-7.796,3.524c-6.038,5.628-13.987,11.371-27.182,11.371c-18.352,0-33.273-13.771-34.209-31.461h73.021
			c7.939,0,11.798-3.717,11.798-11.352c0-2.244,0-3.867-0.452-7.067C459.793,394.92,440.618,377.968,412.437,377.968z
			 M412.437,395.698c17.536,0,28.786,11.174,29.48,29.206h-62.537C381.02,408.216,395.134,395.698,412.437,395.698z"/>
		<path fill="#13110C" d="M533.909,377.968c-14.686,0-29.23,8.446-34.91,20.176v-7.248c0-11.229-8.701-11.797-10.444-11.797
			c-5.157,0-10.669,3.097-10.669,11.797v87.557c0,11.663,9.265,12.249,11.121,12.249s11.121-0.586,11.121-12.249v-46.937
			c0-20.424,11.574-34.688,28.143-34.688c16.052,0,23.855,10.532,23.855,32.2v49.424c0,11.663,9.265,12.249,11.121,12.249
			c1.855,0,11.121-0.586,11.121-12.249v-56.418C574.366,400.73,563.737,377.968,533.909,377.968z"/>
		<path fill="#13110C" d="M675.019,379.099c-5.143,0-8.869,2.996-11.087,8.897l-30.434,76.537l-30.207-76.537
			c-2.367-5.99-6.064-8.897-11.315-8.897c-6.134,0-11.12,4.785-11.12,10.669c0,1.455,0.161,3.344,1.395,6.292l34.98,82.588
			c4.163,9.964,11.024,12.053,16.042,12.053c5.009,0,11.87-2.089,16.052-12.048l35.201-83.047c1.205-2.915,1.388-5.054,1.388-6.067
			C685.913,383.588,681.227,379.099,675.019,379.099z"/>
		<path fill="#13110C" d="M739.701,377.968c-14.227,0-27.475,3.964-37.309,11.149c-3.332,2.3-4.955,5.169-4.955,8.775
			c0,4.968,3.793,8.861,8.643,8.861c2.104,0,4.447-0.835,6.603-2.343c8.451-5.633,16.394-8.262,24.988-8.262
			c16.445,0,25.886,8.367,25.886,22.952v2.418c-36.92,0.041-74.469,4.499-74.469,36.617c0,23.12,19.754,33.468,39.33,33.468
			c15.596,0,28.047-6.175,36.036-17.872v5.623c0,8.379,5.623,11.347,10.454,11.347c1.018,0,9.986-0.317,9.986-11.347v-58.897
			C784.895,393.85,767.998,377.968,739.701,377.968z M758.88,437.898h4.677v5.123c0,18.745-11.933,30.855-30.399,30.855
			c-5.009,0-21.372-1.167-21.372-16.191C711.785,439.948,738.664,437.898,758.88,437.898z"/>
		<path fill="#13110C" d="M842.822,399.309c9.738,0,10.228-7.572,10.228-9.089c0-4.504-2.688-9.318-10.228-9.318h-20.014v-20.244
			c0-9.044-5.867-12.251-10.89-12.251c-1.858,0-11.12,0.588-11.12,12.251v96.135c0,22.184,10.938,33.909,31.647,33.909
			c5.358,0,10.578-0.951,13.997-2.536c3.913-1.953,6.155-5.166,6.155-8.811c0-5.143-3.726-8.869-8.868-8.869
			c-0.994,0-2.406,0.245-3.962,0.691c-1.906,0.48-3.198,0.663-4.609,0.663c-8.423,0-12.351-5.498-12.351-17.31v-55.222H842.822z"/>
		<path fill="#13110C" d="M916.384,377.968c-33.64,0-58.052,23.847-58.052,56.703c0,15.995,5.916,30.572,16.643,41.05
			c10.654,10.391,25.362,16.114,41.409,16.114c33.228,0,58.288-24.575,58.288-57.164
			C974.672,401.815,950.149,377.968,916.384,377.968z M916.384,472.975c-23.067,0-35.139-19.27-35.139-38.304
			c0-26.157,18.218-38.067,35.139-38.067c16.927,0,35.139,11.91,35.139,38.067C951.522,460.989,933.311,472.975,916.384,472.975z"/>
	</g>
</g>
</svg>
