<?xml version="1.0" encoding="utf-8"?>
<!-- Generator: Adobe Illustrator 19.2.0, SVG Export Plug-In . SVG Version: 6.00 Build 0)  -->
<svg version="1.1" id="Layer_1" xmlns="http://www.w3.org/2000/svg" xmlns:xlink="http://www.w3.org/1999/xlink" x="0px" y="0px"
	 viewBox="0 0 907.1 311.8" enable-background="new 0 0 907.1 311.8" xml:space="preserve">
<g>
	<path fill="#027FAE" d="M791.9,157l-0.1-21.7c-4.2,0.2-16.9,1.9-22.5,8.6v-7.2h-23.6V209h23.6v-33.6c0-0.2,0-0.4,0-0.6
		C772.7,158.8,788,157.1,791.9,157"/>
	<path fill="#027FAE" d="M579.7,157.8c-2.9-2.8-6-4.2-8.6-5.5c-2.6-1.3-5.4-1.9-8.3-1.9c-2.2,0-4.3,0.4-6.2,1.3
		c-1.9,0.9-2.8,2.4-2.8,4.5c0,2,1,3.5,3.1,4.4c2.1,0.9,5.5,1.9,10.1,2.9c2.7,0.6,5.5,1.4,8.2,2.5c2.8,1.1,5.3,2.5,7.5,4.2
		c2.2,1.8,4,3.9,5.4,6.4c1.4,2.5,2,5.5,2,9.1c0,4.6-0.9,8.4-2.8,11.6c-1.8,3.2-4.3,5.7-7.2,7.7c-3,1.9-6.3,3.4-10,4.2
		c-3.7,0.9-7.4,1.3-11.1,1.3c-5.9,0-11.8-0.9-17.4-2.8c-5.7-1.9-10.4-4.7-14.2-8.4l11.7-14.7c2.1,2.3,6.5,4.8,9.6,6.4
		c3.1,1.6,6.4,2.3,9.9,2.3c1.9,0,3.9-0.5,5.8-1.4c1.9-0.9,2.8-2.6,2.8-4.9c0-2.2-1.2-3.9-3.5-5c-2.3-1.1-6-2.2-10.9-3.4
		c-2.5-0.6-5.1-1.4-7.6-2.3c-2.5-1-4.8-2.3-6.8-3.9c-2-1.7-3.6-3.7-4.9-6.1c-1.3-2.4-1.9-5.4-1.9-8.8c0-4.4,0.9-8.1,2.8-11.2
		c1.8-3.1,4.2-5.6,7.2-7.5c2.9-1.9,6.2-3.4,9.7-4.3c3.6-0.9,7.1-1.4,10.6-1.4c5.4,0,10.8,0.9,16,2.6c5.2,1.7,9.6,4.3,13.2,7.7
		L579.7,157.8z"/>
	<path fill="#027FAE" d="M718.3,163.5c-0.1-3.5-1.3-6.5-3.5-9c-2.4-2.7-5.9-4-10.6-4c-2.3,0-4.4,0.4-6.4,1.1c-1.9,0.7-3.6,1.7-5.1,3
		c-1.4,1.3-2.6,2.7-3.5,4.4c-0.8,1.5-1.2,3-1.4,4.6H718.3z M740.2,173.2v2.9c0,1,0,1.9-0.1,2.7h-52.1c0.2,2,0.8,3.9,1.8,5.5
		c1,1.6,2.3,3.1,3.9,4.3c1.6,1.2,3.4,2.1,5.3,2.8c2,0.7,4,1,6.1,1c3.8,0,6.9-0.7,9.5-2.1c2.6-1.4,4.7-3.2,6.4-5.4l16.5,10.4
		c-3.4,4.9-7.8,8.7-13.4,11.3c-5.5,2.6-12,4-19.3,4c-5.4,0-10.5-0.8-15.3-2.5c-4.8-1.7-9-4.1-12.6-7.4c-3.6-3.2-6.5-7.2-8.5-11.9
		c-2.1-4.7-3.1-10.1-3.1-16.2c0-5.9,1-11.2,3-16c2-4.8,4.8-8.8,8.2-12.1c3.5-3.3,7.6-5.9,12.3-7.7c4.7-1.8,9.8-2.7,15.3-2.7
		c5.3,0,10.2,0.9,14.6,2.7c4.4,1.8,8.2,4.4,11.4,7.7c3.2,3.4,5.7,7.5,7.4,12.3C739.3,161.6,740.2,167.1,740.2,173.2"/>
	<path fill="#027FAE" d="M454.8,156.3v-21.7h-20.3v-16.2c-0.5-9.3-4.9-16.3-22.9-16.3v84c0,3.7,0.5,7,1.3,10c0.8,3,2.2,5.6,4.1,7.7
		c1.9,2.2,4.4,3.8,7.5,5c3.1,1.1,7.8,1.7,12.4,1.7c7.1,0,12-1,18-3v-19.2c0,0-5.6,1.5-11.8,1.5c-3.2,0-5.4-0.8-6.7-2.4
		c-1.2-1.6-1.9-4-1.9-7.2v-23.9H454.8z"/>
	<path fill="#027FAE" d="M644.8,170.4l26.7-33.8h-28.4l-23.5,29.7v-47.5c-0.4-9.6-4.6-16.7-22.9-16.8V209h22.9v-34.5l27.1,34.5h28.6
		L644.8,170.4z"/>
	<path fill="#027FAE" d="M523.1,208.9v-47.8c0-20.6-16.3-28-30.8-28c-15.7,0-25.2,5-31.5,10.3l11.9,14.9c4-3.7,11.9-7.5,17.2-7.5
		c8.7,0,10.5,5,10.5,11.3v1.2h-7.8c-20.1,0-32.2,8.7-32.2,24.2c0,16.9,14.9,21.4,33,21.4H523.1z M500.5,193.9c-2.5,0-5.4,0-7.5,0
		c-5.9-0.1-9.5-2.4-9.5-7.5c0-5.1,3.6-8,10.8-8h6.2V193.9z"/>
	<path fill="#027FAE" d="M328.1,115.2c0,7.4,6.1,13.3,13.1,13.3c7.3,0,13.3-5.8,13.3-13.3c0-7.3-6-13.1-13.3-13.1
		C334.3,102.1,328.1,107.9,328.1,115.2"/>
	<path fill="#027FAE" d="M330.3,134.7h-1V209h23.8v-58.7C352.5,141.3,347.9,134.7,330.3,134.7"/>
	<path fill="#027FAE" d="M406.2,157l-0.1-21.7c-4.2,0.2-16.9,1.9-22.5,8.6v-7.2h-23.6V209h23.6v-33.6c0-0.2,0-0.4,0-0.6
		C387,158.8,402.2,157.1,406.2,157"/>
	<path fill="#027FAE" d="M785,198.1h-1.3v2.5h1.3c0.8,0,1.3-0.5,1.3-1.2C786.3,198.7,785.8,198.1,785,198.1 M786.3,205.1l-1.6-3.3
		h-1v3.3h-1.5v-8.2h3c1.5,0,2.6,1.2,2.6,2.5c0,1.2-0.7,1.9-1.6,2.2l1.8,3.5H786.3z M784.8,194.7c-3.3,0-5.9,2.7-5.9,6.2
		s2.6,6.2,5.9,6.2c3.3,0,5.9-2.7,5.9-6.2S788.1,194.7,784.8,194.7 M784.8,208.6c-4.1,0-7.4-3.4-7.4-7.6s3.3-7.6,7.4-7.6
		c4.1,0,7.4,3.4,7.4,7.6S788.8,208.6,784.8,208.6"/>
	<path fill="#027FAE" d="M262.7,167.1l10.6-30.6l10.6,30.6H262.7z M284.6,102.1h-21.5l-32.7,87h-13.1c-10.2,0-19.2-2.2-25.1-6.3
		c-6.2-4.2-9.2-10.1-9.2-18.3v-10h-10.5c-0.4,0-15.7,0-26.5-10.7c-5.4-5.4-8.9-12.7-10.3-21.8h73.7c13.4,0,18.3,6.5,21.4,12.4
		c2.6,4.9,3.5,9.3,3.5,9.3l9.2-24.5c0,0-7.8-17-34.1-17h-94.2v9.9c0,19.4,5.7,34.8,16.9,45.8c10.5,10.3,23.4,14.2,32,15.7
		c4.3,21.8,24.2,35.4,53.3,35.4h5.6h9.1h15.5l6.9-19.6l37.7,0l6.9,19.6h25.8L284.6,102.1z"/>
</g>
</svg>
