<?xml version="1.0" encoding="utf-8"?>
<!-- Generator: Adobe Illustrator 17.1.0, SVG Export Plug-In . SVG Version: 6.00 Build 0)  -->
<!DOCTYPE svg PUBLIC "-//W3C//DTD SVG 1.1//EN" "http://www.w3.org/Graphics/SVG/1.1/DTD/svg11.dtd">
<svg version="1.1" id="Layer_1" xmlns="http://www.w3.org/2000/svg" xmlns:xlink="http://www.w3.org/1999/xlink" x="0px" y="0px"
	 viewBox="65.023 225.577 382.123 61.298" enable-background="new 65.023 225.577 382.123 61.298" xml:space="preserve">
<g>
	<path fill="#027FAE" d="M446.977,256.621l-0.056-12.248c-2.371,0.113-9.539,1.072-12.7,4.854v-4.064H420.9v40.809h13.321v-18.965
		c0-0.113,0-0.226,0-0.339C436.14,257.637,444.776,256.677,446.977,256.621"/>
	<path fill="#027FAE" d="M327.204,257.072c-1.637-1.58-3.387-2.371-4.854-3.104c-1.467-0.734-3.048-1.072-4.685-1.072
		c-1.242,0-2.427,0.226-3.5,0.734c-1.072,0.508-1.58,1.355-1.58,2.54c0,1.129,0.564,1.976,1.75,2.484s3.104,1.072,5.701,1.637
		c1.524,0.339,3.104,0.79,4.628,1.411c1.58,0.621,2.992,1.411,4.233,2.371c1.242,1.016,2.258,2.201,3.048,3.612
		c0.79,1.411,1.129,3.104,1.129,5.136c0,2.596-0.508,4.741-1.58,6.547c-1.016,1.806-2.427,3.217-4.064,4.346
		c-1.693,1.072-3.556,1.919-5.644,2.371c-2.088,0.508-4.177,0.734-6.265,0.734c-3.33,0-6.66-0.508-9.821-1.58
		c-3.217-1.072-5.87-2.653-8.015-4.741l6.604-8.297c1.185,1.298,3.669,2.709,5.419,3.612c1.75,0.903,3.612,1.298,5.588,1.298
		c1.072,0,2.201-0.282,3.274-0.79c1.072-0.508,1.58-1.468,1.58-2.766c0-1.242-0.677-2.201-1.976-2.822
		c-1.298-0.621-3.387-1.242-6.152-1.919c-1.411-0.339-2.879-0.79-4.29-1.298c-1.411-0.564-2.709-1.298-3.838-2.201
		c-1.129-0.96-2.032-2.088-2.766-3.443c-0.734-1.355-1.072-3.048-1.072-4.967c0-2.484,0.508-4.572,1.58-6.322
		c1.016-1.75,2.371-3.161,4.064-4.233c1.637-1.072,3.5-1.919,5.475-2.427c2.032-0.508,4.007-0.79,5.983-0.79
		c3.048,0,6.096,0.508,9.031,1.468c2.935,0.96,5.419,2.427,7.451,4.346L327.204,257.072z"/>
	<path fill="#027FAE" d="M405.434,260.29c-0.056-1.976-0.734-3.669-1.976-5.08c-1.355-1.524-3.33-2.258-5.983-2.258
		c-1.298,0-2.484,0.226-3.612,0.621c-1.072,0.395-2.032,0.96-2.879,1.693c-0.79,0.734-1.468,1.524-1.976,2.484
		c-0.452,0.847-0.677,1.693-0.79,2.596h17.215V260.29z M417.796,265.765v1.637c0,0.564,0,1.072-0.056,1.524h-29.407
		c0.113,1.129,0.452,2.201,1.016,3.104c0.564,0.903,1.298,1.75,2.201,2.427s1.919,1.185,2.992,1.58
		c1.129,0.395,2.258,0.564,3.443,0.564c2.145,0,3.895-0.395,5.362-1.185c1.468-0.79,2.653-1.806,3.612-3.048l9.313,5.87
		c-1.919,2.766-4.403,4.911-7.563,6.378c-3.104,1.468-6.773,2.258-10.894,2.258c-3.048,0-5.927-0.452-8.636-1.411
		s-5.08-2.314-7.112-4.177c-2.032-1.806-3.669-4.064-4.798-6.717c-1.185-2.653-1.75-5.701-1.75-9.144
		c0-3.33,0.564-6.322,1.693-9.031s2.709-4.967,4.628-6.83c1.976-1.863,4.29-3.33,6.943-4.346c2.653-1.016,5.531-1.524,8.636-1.524
		c2.992,0,5.757,0.508,8.241,1.524c2.484,1.016,4.628,2.484,6.435,4.346c1.806,1.919,3.217,4.233,4.177,6.943
		C417.288,259.217,417.796,262.322,417.796,265.765"/>
	<path fill="#027FAE" d="M256.706,256.226v-12.248h-11.458v-9.144c-0.282-5.249-2.766-9.2-12.926-9.2v47.413
		c0,2.088,0.282,3.951,0.734,5.644s1.242,3.161,2.314,4.346c1.072,1.242,2.484,2.145,4.233,2.822c1.75,0.621,4.403,0.96,6.999,0.96
		c4.008,0,6.773-0.564,10.16-1.693v-10.837c0,0-3.161,0.847-6.66,0.847c-1.806,0-3.048-0.452-3.782-1.355
		c-0.677-0.903-1.072-2.258-1.072-4.064v-13.49C245.247,256.226,256.706,256.226,256.706,256.226z"/>
	<path fill="#027FAE" d="M363.948,264.184l15.07-19.078h-16.03l-13.264,16.764v-26.811c-0.226-5.419-2.596-9.426-12.926-9.483
		v60.395h12.926v-19.473l15.296,19.473h16.143L363.948,264.184z"/>
	<path fill="#027FAE" d="M295.257,285.915v-26.98c0-11.627-9.2-15.804-17.385-15.804c-8.862,0-14.224,2.822-17.78,5.814l6.717,8.41
		c2.258-2.088,6.717-4.233,9.708-4.233c4.911,0,5.927,2.822,5.927,6.378v0.677h-4.403c-11.345,0-18.175,4.911-18.175,13.659
		c0,9.539,8.41,12.079,18.626,12.079C278.493,285.915,295.257,285.915,295.257,285.915z M282.5,277.449c-1.411,0-3.048,0-4.233,0
		c-3.33-0.056-5.362-1.355-5.362-4.233s2.032-4.515,6.096-4.515h3.5V277.449z"/>
	<path fill="#027FAE" d="M185.191,233.027c0,4.177,3.443,7.507,7.394,7.507c4.12,0,7.507-3.274,7.507-7.507
		c0-4.12-3.387-7.394-7.507-7.394C188.691,225.633,185.191,228.907,185.191,233.027"/>
	<path fill="#027FAE" d="M186.433,244.034h-0.564v41.938h13.434v-33.132C198.964,247.759,196.367,244.034,186.433,244.034"/>
	<path fill="#027FAE" d="M229.274,256.621l-0.056-12.248c-2.371,0.113-9.539,1.072-12.7,4.854v-4.064h-13.321v40.809h13.321v-18.965
		c0-0.113,0-0.226,0-0.339C218.437,257.637,227.016,256.677,229.274,256.621"/>
	<path fill="#027FAE" d="M443.082,279.819h-0.734v1.411h0.734c0.452,0,0.734-0.282,0.734-0.677S443.534,279.819,443.082,279.819
		 M443.816,283.77l-0.903-1.863h-0.564v1.863h-0.847v-4.628h1.693c0.847,0,1.468,0.677,1.468,1.411c0,0.677-0.395,1.072-0.903,1.242
		l1.016,1.976H443.816z M442.969,277.9c-1.863,0-3.33,1.524-3.33,3.5s1.468,3.5,3.33,3.5c1.863,0,3.33-1.524,3.33-3.5
		S444.832,277.9,442.969,277.9 M442.969,285.746c-2.314,0-4.177-1.919-4.177-4.29s1.863-4.29,4.177-4.29
		c2.314,0,4.177,1.919,4.177,4.29S445.227,285.746,442.969,285.746"/>
	<path fill="#027FAE" d="M148.277,262.322l5.983-17.272l5.983,17.272H148.277z M160.639,225.633h-12.135l-18.457,49.106h-7.394
		c-5.757,0-10.837-1.242-14.167-3.556c-3.5-2.371-5.193-5.701-5.193-10.329v-5.644h-5.927c-0.226,0-8.862,0-14.958-6.039
		c-3.048-3.048-5.023-7.168-5.814-12.305h41.599c7.563,0,10.329,3.669,12.079,6.999c1.468,2.766,1.976,5.249,1.976,5.249
		l5.193-13.829c0,0-4.403-9.595-19.247-9.595h-53.17v5.588c0,10.95,3.217,19.642,9.539,25.851
		c5.927,5.814,13.208,8.015,18.062,8.862c2.427,12.305,13.659,19.981,30.084,19.981h3.161h5.136h8.749l3.895-11.063h21.279
		l3.895,11.063h14.562L160.639,225.633z"/>
</g>
</svg>
