<?xml version="1.0" encoding="UTF-8" standalone="no"?>
<svg width="283px" height="152px" viewBox="0 0 283 152" version="1.1" xmlns="http://www.w3.org/2000/svg" xmlns:xlink="http://www.w3.org/1999/xlink" xmlns:sketch="http://www.bohemiancoding.com/sketch/ns">
    <title>Slice 1</title>
    <description>Created with Sketch (http://www.bohemiancoding.com/sketch)</description>
    <defs>
        <linearGradient x1="39.1402254%" y1="-5.319883%" x2="72.4389417%" y2="164.290107%" id="linearGradient-1">
            <stop stop-color="#29ABE2" offset="0%"></stop>
            <stop stop-color="#41AFE3" offset="11.42%"></stop>
            <stop stop-color="#6ABAE8" offset="31.49%"></stop>
            <stop stop-color="#9FCEEF" offset="57.83%"></stop>
            <stop stop-color="#E2EEF9" offset="89.09%"></stop>
            <stop stop-color="#FFFFFF" offset="100%"></stop>
        </linearGradient>
        <linearGradient x1="34.8469945%" y1="65.1576318%" x2="151.729118%" y2="-51.5775072%" id="linearGradient-2">
            <stop stop-color="#29ABE2" offset="0%"></stop>
            <stop stop-color="#FFFFFF" offset="100%"></stop>
        </linearGradient>
        <linearGradient x1="85.7496486%" y1="55.9690671%" x2="-26.3782602%" y2="37.6487311%" id="linearGradient-3">
            <stop stop-color="#29ABE2" offset="0%"></stop>
            <stop stop-color="#FFFFFF" offset="100%"></stop>
        </linearGradient>
    </defs>
    <g id="Page-1" stroke="none" stroke-width="1" fill="none" fill-rule="evenodd" sketch:type="MSPage">
        <g id="dius" sketch:type="MSLayerGroup">
            <path d="M156.76,0.361 L130.691,0.361 L117.762,13.248 L117.762,39.361 L143.875,39.361 L156.797,26.437 L156.76,0.361 Z" id="Shape" fill="#5F6062" sketch:type="MSShapeGroup"></path>
            <path d="M131.46,1.855 L154.875,1.855 L143.426,13.302 L131.46,13.302 L131.46,1.855 Z" id="Shape" fill="#00B6F1" sketch:type="MSShapeGroup"></path>
            <path d="M130.856,2.338 L130.856,13.302 L119.822,13.302 L130.856,2.338 Z" id="Shape" fill="#00B6F1" sketch:type="MSShapeGroup"></path>
            <path d="M119.253,13.902 L130.856,13.902 L130.856,26.05 L119.253,37.652 L119.253,13.902 Z" id="Shape" fill="#00B6F1" sketch:type="MSShapeGroup"></path>
            <path d="M143.25,37.869 L119.891,37.869 L131.283,26.474 L143.25,26.474 L143.25,37.869 Z" id="Shape" fill="#00B6F1" sketch:type="MSShapeGroup"></path>
            <rect id="Rectangle" fill="#00B6F1" sketch:type="MSShapeGroup" x="131.5" y="14" width="11.789" height="11.973"></rect>
            <path d="M143.851,37.273 L143.851,26.474 L154.647,26.474 L143.851,37.273 Z" id="Shape" fill="#00B6F1" sketch:type="MSShapeGroup"></path>
            <path d="M155.248,25.875 L143.851,25.875 L143.851,13.724 L155.271,2.303 L155.31,25.812 L155.248,25.875 Z" id="Shape" fill="#00B6F1" sketch:type="MSShapeGroup"></path>
            <path d="M73.801,86.958 C73.801,95.304 70.366,103.534 63.496,111.649 C49.126,128.651 34.05,140.622 18.278,147.567 C13.984,149.438 10.585,150.686 8.086,151.313 L5.974,151.313 C4.102,151.387 2.503,150.764 1.175,149.438 C1.802,148.424 2.521,147.817 3.342,147.624 C4.158,147.425 5.037,147.253 5.973,147.097 C13.788,144.593 22.649,139.597 32.565,132.099 C41.152,125.62 48.77,118.712 55.41,111.365 C63.683,102.308 67.823,94.265 67.823,87.238 C67.823,84.117 66.967,81.15 65.249,78.34 C64.079,76.467 62.163,74.787 59.505,73.299 C57.244,71.973 54.977,70.684 52.713,69.434 C52.323,69.516 51.974,69.555 51.66,69.555 C50.409,69.555 48.851,69.278 46.971,68.731 C44.551,68.108 43.032,67.719 42.406,67.563 C39.36,67.094 34.399,66.858 27.531,66.858 L26.597,66.858 L26.004,67.329 C15.463,96.615 8.008,122.615 3.637,145.343 C2.699,145.181 1.977,144.866 1.468,144.402 C0.962,143.931 0.472,143.461 0.005,142.996 C-0.078,136.195 0.826,129.158 2.698,121.885 C4.566,114.848 7.23,105.662 10.66,94.324 C14.96,80.251 17.692,71.144 18.866,67 C16.831,67 14.255,67.482 11.131,68.443 C7.069,69.568 4.535,70.211 3.52,70.375 C2.734,69.678 2.345,68.98 2.345,68.281 C2.345,67.66 2.578,66.969 3.051,66.191 C6.013,64.103 11.792,62.355 20.385,60.964 C21.793,58.64 23.158,57.478 24.488,57.478 C25.968,57.478 27.334,58.57 28.58,60.757 C39.13,61.222 47.018,62.161 52.252,63.562 C60.996,65.978 67.281,70.197 71.112,76.197 C72.903,79.083 73.801,82.667 73.801,86.958" id="Shape" fill="#5F6062" sketch:type="MSShapeGroup"></path>
            <path d="M94.386,101.56 C94.386,105.113 93.803,109.374 92.63,114.333 C91.673,118.392 90.719,122.524 89.76,126.718 C89.653,129.384 89.282,132.943 88.646,137.39 C88.108,139.171 86.833,140.06 84.815,140.06 C84.174,140.06 83.589,139.937 83.055,139.677 L81.623,137.579 C82.258,130.591 82.843,123.604 83.377,116.612 C84.337,106.829 86.252,100.604 89.119,97.932 C89.544,97.684 90.073,97.555 90.719,97.555 C91.459,97.555 92.176,98.188 92.871,99.461 C93.56,100.73 94.064,101.429 94.386,101.56" id="Shape" fill="#5F6062" sketch:type="MSShapeGroup"></path>
            <path d="M100.199,80.001 L100.199,80.79 C98.842,82.769 96.852,83.761 94.25,83.761 C93.518,83.761 92.728,83.656 91.895,83.45 C89.492,81.888 88.294,79.954 88.294,77.659 C88.294,75.052 89.65,73.751 92.365,73.751 C94.243,73.751 96.648,74.843 99.574,77.036 C99.99,79.121 100.199,80.111 100.199,80.001" id="Shape" fill="#5F6062" sketch:type="MSShapeGroup"></path>
            <path d="M201.245,68.195 C201.245,68.509 200.738,70.224 199.72,73.355 C195.27,87.187 192.576,95.748 191.636,99.023 C188.748,109.582 187.307,118.293 187.307,125.168 C187.307,130.172 187.85,134.236 188.943,137.365 C188.476,138.146 187.962,138.535 187.423,138.535 C187.89,138.535 187.265,138.34 185.551,137.949 C182.812,134.508 181.447,129.816 181.447,123.869 C181.447,118.156 182.463,111.314 184.487,103.332 C186.291,96.682 188.086,89.996 189.883,83.266 L190.936,78.34 C178.597,92 164.112,105.897 147.476,120.024 C143.801,123.305 138.183,127.983 130.609,134.077 C129.989,134.389 129.01,134.938 127.681,135.714 C123.228,138.523 119.793,139.935 117.378,139.935 C113.082,139.935 110.148,137.705 108.591,133.253 C108.119,131.931 107.887,129.823 107.887,126.931 C107.887,122.802 109.218,115.699 111.872,105.63 C114.213,96.968 116.24,90.333 117.963,85.726 C120.93,77.617 124.093,71.642 127.447,67.814 C127.838,67.427 128.385,67.232 129.089,67.232 C129.401,67.232 130.142,67.349 131.311,67.582 C132.095,68.283 132.485,69.213 132.485,70.379 C132.485,70.613 132.448,70.924 132.369,71.313 C125.265,82.407 119.717,97.198 115.735,115.708 C115.263,117.741 114.678,120.704 113.977,124.606 C113.899,125.075 113.861,126.288 113.861,128.239 C113.861,130.977 114.527,132.887 115.853,133.979 C116.241,134.059 116.593,134.096 116.909,134.096 C119.253,134.096 121.902,133.123 124.871,131.174 C126.746,129.842 131.55,125.981 139.278,119.58 C150.129,110.525 161.415,100.226 173.132,88.676 C175.942,85.946 183.358,78.069 195.387,65.03 C196.012,64.801 196.596,64.684 197.142,64.684 C198.238,64.684 199.405,65.225 200.662,66.317 C201.048,66.947 201.245,67.57 201.245,68.195" id="Shape" fill="#5F6062" sketch:type="MSShapeGroup"></path>
            <path d="M282.541,62.06 C282.541,62.142 282.504,62.843 282.424,64.169 C278.907,67.442 276.645,69.081 275.63,69.081 C273.993,69.081 273.169,68.343 273.169,66.856 C273.169,66.077 273.441,65.376 273.993,64.749 C274.299,64.437 274.693,63.813 275.161,62.876 C272.585,61.548 269.618,60.884 266.258,60.884 C262.665,60.884 258.294,61.624 253.136,63.107 C246.498,65.064 239.118,67.908 230.998,71.656 C219.674,76.965 214.015,81.416 214.015,85.004 C214.015,86.486 215.183,87.779 217.523,88.861 C219.322,89.49 221.122,90.154 222.919,90.855 C224.713,91.562 227.446,92.652 231.118,94.132 C244,99.286 253.019,104.548 258.178,109.933 C260.676,112.513 261.928,115.716 261.928,119.538 C261.928,125.938 256.732,131.522 246.345,136.28 C237.672,140.259 229.793,142.251 222.683,142.251 C218.78,142.251 215.345,141.433 212.378,139.802 C211.9,138.482 211.673,137.355 211.673,136.421 C211.673,135.958 211.747,135.407 211.906,134.788 L214.719,132.804 C215.655,134.913 217.259,135.966 219.525,135.966 C223.113,135.966 226.743,135.618 230.414,134.913 C239.313,133.202 246.655,130.001 252.435,125.309 C254.859,123.356 256.064,121.014 256.064,118.286 C255.989,115.085 251.73,111.259 243.299,106.806 C241.973,106.103 236.267,103.488 226.192,98.958 C222.835,97.792 219.485,96.577 216.123,95.323 C212.137,93.61 209.485,91.425 208.156,88.77 C207.535,87.44 207.219,86.424 207.219,85.723 C207.219,82.756 208.86,79.709 212.136,76.586 C212.846,75.965 215.772,73.74 220.919,69.914 C221.629,69.369 224.712,67.805 230.177,65.226 C244.856,58.357 256.537,54.919 265.199,54.919 C269.965,54.919 274.65,55.698 279.257,57.259 C281.443,59.449 282.541,61.048 282.541,62.06" id="Shape" fill="#5F6062" sketch:type="MSShapeGroup"></path>
            <path d="M51.469,9.237 C48.897,10.291 44.874,12.082 42.654,13.322 L42.243,12.869 L42.012,8.787 C44.642,7.309 47.327,6.2 49.891,5.144 L51.469,9.237" id="Shape" fill="#00B6F1" sketch:type="MSShapeGroup"></path>
            <path d="M43.177,2.257 C43.262,2.252 43.344,2.249 43.427,2.249 L43.43,2.374 C43.18,2.308 43.324,2.39 43.177,2.257" id="Shape" fill="#5F6062" sketch:type="MSShapeGroup"></path>
            <path d="M42.701,2.891 C42.843,3.027 42.748,2.891 42.835,3.138 L42.708,3.139 C42.708,3.059 42.701,2.977 42.701,2.891" id="Shape" fill="#5F6062" sketch:type="MSShapeGroup"></path>
            <path d="M77.052,4.485 C77.238,4.572 77.103,4.47 77.254,4.677 L77.136,4.72 C77.106,4.644 77.081,4.564 77.052,4.485" id="Shape" fill="#5F6062" sketch:type="MSShapeGroup"></path>
            <path d="M78.992,33.787 L78.989,33.787 L78.984,33.794 L78.992,33.787 Z" id="Shape" fill="#5F6062" sketch:type="MSShapeGroup"></path>
            <path d="M79,34.15 C79.077,34.07 79.072,33.998 79.061,33.927 C79.061,33.927 79.066,33.927 79.066,33.925 C79.066,33.921 79.059,33.921 79.059,33.919 C79.059,33.909 79.059,33.901 79.057,33.894 L79.038,33.896 C79.028,33.859 78.995,33.843 78.961,33.822 L78.984,33.783 L78.976,33.799 L78.988,33.787 L78.983,33.775 L78.954,33.689 C78.939,33.64 78.909,33.56 78.852,33.484 C78.829,33.267 78.835,33.232 78.842,33.207 C78.85,33.158 78.85,33.078 78.838,32.93 C78.892,32.903 78.953,32.879 78.953,32.817 C78.953,32.815 78.946,32.815 78.946,32.811 L78.953,32.811 C78.946,32.649 78.945,32.485 78.936,32.313 L78.931,32.313 C78.929,32.254 78.872,32.235 78.825,32.206 L78.842,32.173 C78.788,32.148 78.736,32.122 78.684,32.097 C78.672,31.716 78.663,31.337 78.647,30.956 L78.642,30.956 C78.64,30.892 78.58,30.858 78.522,30.835 C78.579,30.812 78.642,30.784 78.642,30.718 C78.642,30.714 78.637,30.714 78.635,30.71 L78.642,30.71 C78.63,30.376 78.621,30.05 78.61,29.714 L78.603,29.714 C78.602,29.683 78.562,29.681 78.545,29.657 C78.562,29.63 78.607,29.63 78.607,29.596 C78.607,29.592 78.603,29.592 78.603,29.59 L78.607,29.59 C78.605,29.469 78.6,29.34 78.598,29.215 L78.59,29.215 C78.583,29.131 78.518,29.057 78.432,29.057 C78.43,29.057 78.43,29.063 78.428,29.063 L78.428,29.057 C78.4,29.061 78.371,29.061 78.343,29.061 C78.337,28.881 78.331,28.702 78.326,28.52 C78.354,28.52 78.381,28.518 78.411,28.518 L78.411,28.514 C78.499,28.51 78.569,28.444 78.569,28.354 C78.569,28.346 78.557,28.348 78.557,28.342 L78.569,28.34 C78.559,28.199 78.515,28.078 78.482,27.986 L78.464,27.947 C78.498,27.92 78.543,27.91 78.547,27.865 L78.555,27.865 C78.584,27.453 78.61,27.039 78.642,26.621 L78.633,26.621 C78.633,26.617 78.642,26.617 78.642,26.613 C78.642,26.57 78.595,26.568 78.572,26.539 C78.588,26.506 78.603,26.469 78.622,26.435 L78.581,26.414 C78.596,26.391 78.636,26.391 78.636,26.363 C78.636,26.293 78.57,26.265 78.512,26.242 C78.528,25.465 78.544,24.685 78.56,23.902 C78.596,23.586 78.921,22.877 78.759,22.259 C78.759,22.257 78.762,22.257 78.762,22.257 L78.757,22.255 C78.752,22.237 78.757,22.218 78.752,22.2 L78.717,22.214 C78.698,22.173 78.675,22.142 78.631,22.126 C78.627,22.044 78.626,21.96 78.622,21.882 L78.617,21.882 C78.617,21.851 78.578,21.849 78.56,21.825 C78.579,21.8 78.622,21.798 78.622,21.764 C78.622,21.76 78.614,21.76 78.614,21.756 L78.622,21.756 L78.617,21.629 L78.61,21.629 C78.607,21.6 78.569,21.596 78.552,21.572 C78.569,21.547 78.61,21.547 78.61,21.513 C78.61,21.509 78.603,21.509 78.603,21.507 L78.61,21.507 C78.61,21.384 78.603,21.259 78.602,21.132 C78.657,21.109 78.721,21.077 78.721,21.011 C78.721,21.007 78.716,21.007 78.716,21.005 L78.721,21.005 L78.716,20.886 L78.711,20.886 C78.709,20.818 78.65,20.786 78.593,20.763 C78.569,20.056 78.545,19.355 78.525,18.652 C78.52,18.429 78.511,18.211 78.508,17.988 L78.531,17.97 C78.595,17.913 78.613,17.794 78.602,17.677 C78.604,17.667 78.621,17.671 78.621,17.659 C78.621,17.653 78.609,17.653 78.609,17.647 C78.609,17.637 78.62,17.633 78.616,17.624 L78.593,17.63 C78.575,17.579 78.541,17.546 78.491,17.53 C78.482,17.241 78.47,16.954 78.466,16.665 L78.461,16.665 C78.461,16.626 78.417,16.622 78.394,16.597 C78.411,16.56 78.427,16.527 78.443,16.49 L78.408,16.474 C78.422,16.451 78.458,16.451 78.458,16.423 C78.458,16.355 78.397,16.329 78.343,16.304 L78.335,16.288 C78.385,16.267 78.434,16.239 78.439,16.186 L78.45,16.186 C78.45,16.182 78.446,16.182 78.448,16.178 C78.448,16.176 78.451,16.176 78.451,16.172 C78.451,16.166 78.443,16.168 78.443,16.164 C78.451,16.027 78.411,15.906 78.342,15.844 C78.327,15.83 78.325,15.838 78.312,15.828 C78.306,15.76 78.318,15.721 78.325,15.711 L78.331,15.699 L78.333,15.699 L78.337,15.697 L78.323,15.679 L78.316,15.665 C78.371,15.638 78.431,15.614 78.431,15.548 C78.421,15.251 78.414,14.962 78.406,14.675 L78.401,14.675 C78.399,14.613 78.339,14.591 78.289,14.566 C78.312,14.111 78.337,13.652 78.362,13.199 L78.355,13.199 C78.355,13.195 78.362,13.195 78.362,13.193 C78.362,13.168 78.328,13.168 78.319,13.148 L78.354,13.138 C78.167,12.554 78.072,11.88 78.046,11.079 L78.044,11.079 C78.042,11.05 78.002,11.046 77.983,11.02 C78.003,11 78.045,11 78.045,10.966 C78.045,10.962 78.04,10.962 78.04,10.962 L78.045,10.962 C78.033,10.585 78.023,10.214 78.013,9.839 C78.069,9.814 78.133,9.784 78.133,9.72 C78.133,9.718 78.131,9.718 78.131,9.718 L78.133,9.718 C78.131,9.671 78.13,9.628 78.128,9.586 C78.186,9.559 78.249,9.534 78.249,9.466 C78.249,9.447 78.222,9.45 78.216,9.435 L78.246,9.427 C78.195,9.222 78.148,9.019 78.102,8.816 L78.081,8.821 C78.064,8.771 78.028,8.743 77.98,8.722 C77.989,8.702 78.022,8.704 78.022,8.68 C78.022,8.671 78.009,8.673 78.009,8.665 L78.022,8.665 C78.005,8.448 78.026,8.413 78.044,8.296 C78.063,8.172 78.052,8.025 77.961,7.727 L77.933,7.738 C77.925,7.717 77.905,7.711 77.891,7.697 C77.896,7.677 77.925,7.679 77.925,7.66 C77.925,7.637 77.893,7.637 77.884,7.617 L77.921,7.603 C77.911,7.578 77.902,7.55 77.895,7.525 C77.918,7.515 77.947,7.505 77.972,7.497 L77.961,7.465 C78.019,7.442 78.08,7.412 78.08,7.344 C78.08,7.321 78.047,7.322 78.039,7.301 L78.073,7.289 C78.051,7.226 78.028,7.16 78.007,7.096 C78.073,7.073 78.137,7.05 78.204,7.027 L78.19,6.992 C78.248,6.967 78.311,6.935 78.311,6.872 C78.311,6.849 78.278,6.849 78.268,6.828 L78.305,6.816 L78.264,6.698 L78.229,6.71 C78.205,6.65 78.175,6.585 78.108,6.585 C78.102,6.585 78.103,6.597 78.098,6.597 L78.096,6.585 C78.006,6.59 77.962,6.59 77.943,6.59 L77.926,6.59 L77.889,6.59 C77.862,6.613 77.857,6.616 77.838,6.63 C77.8,6.536 77.758,6.422 77.736,6.364 L77.704,6.255 L77.7,6.229 L77.714,6.217 C77.749,6.192 77.829,6.137 77.927,6.056 L77.897,6.019 C77.932,5.989 77.986,5.978 77.986,5.926 C77.986,5.9 77.951,5.9 77.94,5.88 L77.974,5.866 C77.923,5.741 77.846,5.637 77.785,5.554 L77.759,5.522 C77.779,5.495 77.824,5.493 77.824,5.458 C77.824,5.435 77.792,5.436 77.782,5.417 L77.812,5.407 C77.787,5.324 77.761,5.244 77.731,5.167 L77.694,5.18 C77.671,5.12 77.645,5.056 77.577,5.056 C77.571,5.056 77.573,5.065 77.568,5.065 L77.565,5.06 C77.475,5.069 77.433,5.069 77.415,5.065 L77.396,5.065 L77.359,5.065 C77.333,5.085 77.329,5.088 77.312,5.1 C77.288,5.031 77.262,4.966 77.241,4.896 C77.271,4.879 77.303,4.879 77.319,4.832 C77.326,4.802 77.316,4.802 77.312,4.781 L77.316,4.781 C77.319,4.531 77.322,4.279 77.329,4.029 L77.322,4.029 C77.324,4.026 77.329,4.026 77.329,4.023 C77.329,3.952 77.263,3.914 77.197,3.894 L77.204,3.865 C77.039,3.824 76.914,3.723 76.762,3.673 L76.78,3.575 L76.76,3.571 C76.763,3.557 76.785,3.561 76.785,3.543 C76.785,3.469 76.717,3.425 76.646,3.407 L76.651,3.38 L76.586,3.368 C76.459,3.139 76.259,3.022 76.107,3.048 C75.952,3.055 75.86,3.063 75.701,2.978 C75.682,2.913 75.666,2.849 75.647,2.785 L75.617,2.795 C75.598,2.744 75.568,2.703 75.514,2.69 L75.517,2.669 C75.276,2.624 75.028,2.578 74.787,2.531 L74.782,2.558 C74.768,2.551 74.772,2.53 74.755,2.53 C74.699,2.53 74.681,2.589 74.653,2.633 C74.525,2.611 74.402,2.588 74.277,2.562 L74.272,2.589 C74.258,2.586 74.258,2.562 74.246,2.562 C74.163,2.562 74.11,2.629 74.097,2.71 C74.04,2.685 73.983,2.658 73.926,2.633 L73.908,2.67 C73.885,2.655 73.885,2.616 73.853,2.616 C73.829,2.616 73.829,2.653 73.805,2.665 C73.799,2.66 73.798,2.657 73.792,2.653 L73.813,2.612 C73.699,2.55 73.584,2.487 73.469,2.423 L73.448,2.46 C73.424,2.445 73.422,2.403 73.391,2.403 C73.353,2.403 73.35,2.448 73.323,2.47 C73.309,2.451 73.3,2.435 73.283,2.396 C73.249,2.309 73.125,2.113 72.898,2.126 L72.898,2.124 C72.895,2.124 72.898,2.126 72.895,2.126 L72.893,2.124 L72.891,2.129 C72.851,2.13 72.843,2.177 72.813,2.204 C72.787,2.177 72.756,2.144 72.703,2.1 C72.641,2.041 72.497,1.996 72.379,2.046 C72.275,2.083 72.184,2.174 72.077,2.289 C72.052,2.274 72.05,2.231 72.017,2.231 C72.005,2.231 72.007,2.252 71.994,2.255 L71.991,2.234 C71.764,2.276 71.537,2.314 71.309,2.353 C71.309,2.334 71.309,2.314 71.308,2.294 L71.3,2.294 C71.296,2.211 71.232,2.15 71.154,2.144 L71.154,2.134 C70.739,2.107 70.328,2.077 69.912,2.047 L69.912,2.06 C69.905,2.057 69.907,2.047 69.9,2.047 C69.866,2.047 69.866,2.087 69.839,2.106 C69.823,2.078 69.809,2.049 69.791,2.019 L69.753,2.04 C69.732,2.006 69.716,1.972 69.677,1.96 L69.683,1.935 C69.552,1.905 69.427,1.878 69.299,1.849 C69.289,1.768 69.229,1.699 69.144,1.699 C69.11,1.699 69.11,1.74 69.083,1.757 L69.064,1.719 C68.95,1.782 68.833,1.844 68.716,1.905 C68.704,1.895 68.701,1.882 68.688,1.875 L68.698,1.843 C68.61,1.822 68.522,1.795 68.435,1.767 L68.435,1.76 L68.431,1.76 C68.428,1.672 68.359,1.601 68.271,1.601 C68.252,1.601 68.252,1.631 68.234,1.638 L68.226,1.604 C68.055,1.671 67.971,1.765 67.909,1.833 C67.886,1.818 67.886,1.779 67.856,1.779 C67.854,1.779 67.854,1.782 67.851,1.782 L67.851,1.78 C67.8,1.78 67.753,1.783 67.705,1.785 C67.676,1.733 67.645,1.682 67.621,1.628 L67.581,1.65 C67.555,1.608 67.536,1.558 67.483,1.552 L67.485,1.54 C67.054,1.517 66.631,1.49 66.207,1.465 C66.178,1.411 66.147,1.356 66.121,1.3 L66.08,1.321 C66.054,1.274 66.031,1.212 65.972,1.212 C65.959,1.212 65.959,1.235 65.948,1.239 L65.942,1.217 C65.74,1.256 65.535,1.296 65.332,1.336 C65.302,1.293 65.289,1.233 65.229,1.233 C65.227,1.233 65.227,1.238 65.223,1.238 L65.223,1.235 C65.183,1.237 65.141,1.24 65.099,1.24 C65.076,1.192 65.05,1.148 64.998,1.138 L65,1.125 C64.995,1.125 64.992,1.128 64.988,1.128 C64.981,1.128 64.984,1.121 64.977,1.121 C64.97,1.121 64.972,1.133 64.963,1.134 C64.653,1.137 64.447,1.3 64.322,1.322 C64.292,1.282 64.279,1.226 64.225,1.226 C64.206,1.226 64.208,1.249 64.194,1.255 L64.187,1.228 C64.025,1.267 63.863,1.303 63.704,1.34 C63.673,1.297 63.657,1.239 63.603,1.239 C63.6,1.239 63.6,1.245 63.596,1.245 L63.596,1.24 C63.472,1.243 63.347,1.248 63.222,1.252 C63.196,1.195 63.166,1.132 63.102,1.132 C63.097,1.132 63.099,1.14 63.094,1.142 L63.094,1.132 C62.683,1.145 62.266,1.157 61.851,1.171 C61.826,1.115 61.796,1.051 61.731,1.051 C61.728,1.051 61.728,1.056 61.726,1.056 L61.726,1.051 C61.644,1.053 61.559,1.054 61.475,1.056 C61.449,1 61.421,0.938 61.356,0.938 C61.344,0.938 61.346,0.957 61.335,0.96 L61.331,0.942 C61.186,0.963 61.112,1.044 61.069,1.061 C61.037,1.078 61.01,1.086 60.95,1.083 L60.928,1.051 C60.869,0.974 60.74,0.939 60.616,0.964 C60.614,0.964 60.614,0.961 60.612,0.961 C60.611,0.961 60.612,0.964 60.609,0.964 C60.595,0.966 60.584,0.961 60.572,0.964 L60.579,0.994 C60.565,0.997 60.562,1.014 60.548,1.024 C60.534,1.012 60.531,0.99 60.515,0.985 L60.518,0.963 C60.508,0.962 60.503,0.966 60.495,0.965 C60.492,0.965 60.493,0.962 60.492,0.962 C60.488,0.962 60.488,0.965 60.488,0.965 C60.134,0.91 59.898,1.034 59.757,1.134 C59.625,1.217 59.543,1.256 59.372,1.248 C59.353,1.203 59.325,1.165 59.277,1.151 L59.28,1.13 C59.273,1.129 59.263,1.132 59.255,1.13 C59.253,1.13 59.253,1.125 59.25,1.125 C59.248,1.125 59.248,1.13 59.246,1.13 C59.16,1.117 59.077,1.135 59.011,1.175 C58.975,1.158 58.939,1.148 58.907,1.138 L58.901,1.162 C58.888,1.159 58.891,1.137 58.877,1.137 C58.873,1.137 58.873,1.145 58.87,1.145 L58.87,1.137 C58.622,1.145 58.372,1.152 58.126,1.162 C58.099,1.103 58.068,1.041 58.003,1.041 C57.998,1.041 58,1.047 57.995,1.049 L57.995,1.041 C57.74,1.089 57.651,1.182 57.502,1.179 C57.481,1.132 57.457,1.092 57.403,1.08 L57.407,1.058 C57.204,1.028 56.992,0.987 56.783,0.957 L56.78,0.977 C56.768,0.974 56.769,0.952 56.757,0.952 C56.688,0.952 56.653,1.017 56.629,1.08 C56.465,1.085 56.297,1.09 56.136,1.095 L56.136,1.1 C56.113,1.102 56.113,1.134 56.092,1.145 C56.053,1.104 56.014,1.062 55.962,1.014 C55.842,0.896 55.65,0.764 55.407,0.798 C55.4,0.797 55.402,0.788 55.396,0.788 C55.391,0.788 55.393,0.795 55.386,0.795 C55.376,0.798 55.367,0.79 55.356,0.792 C55.287,0.815 55.263,0.851 55.25,0.866 L55.238,0.889 C55.213,0.859 55.203,0.82 55.162,0.813 L55.164,0.796 C54.874,0.764 54.584,0.73 54.294,0.7 L54.291,0.715 C54.284,0.714 54.284,0.7 54.272,0.7 C54.181,0.7 54.109,0.767 54.109,0.862 L54.111,0.862 L54.109,0.863 C54.111,0.893 54.111,0.922 54.111,0.95 C53.875,0.956 53.638,0.963 53.406,0.973 L53.406,0.976 C53.342,0.979 53.313,1.038 53.292,1.095 C53.18,1.097 53.028,1.085 52.847,1.082 C52.826,1.018 52.787,0.951 52.712,0.951 C52.712,0.951 52.712,0.952 52.71,0.952 L52.71,0.952 C52.541,0.957 52.377,0.96 52.212,0.964 L52.212,0.969 C52.148,0.971 52.119,1.031 52.094,1.089 C52.071,1.084 52.033,1.089 52.017,1.081 L51.985,1.056 L51.978,1.046 L51.94,1.076 C51.91,1.036 51.895,0.979 51.841,0.979 C51.824,0.979 51.825,1.006 51.811,1.009 L51.803,0.98 C51.625,1.023 51.446,1.064 51.267,1.107 C51.193,1.038 51.068,0.986 50.863,1.018 C50.855,1.016 50.855,1.004 50.848,1.004 C50.841,1.004 50.843,1.014 50.838,1.014 C50.824,1.017 50.817,1.007 50.804,1.011 L50.811,1.041 C50.773,1.055 50.752,1.083 50.734,1.12 C50.405,1.093 50.074,1.066 49.746,1.039 L49.744,1.051 C49.737,1.049 49.739,1.039 49.732,1.039 C49.668,1.039 49.648,1.1 49.619,1.153 L49.581,1.134 C49.557,1.188 49.533,1.241 49.508,1.295 C49.253,1.301 48.996,1.31 48.738,1.318 C48.717,1.269 48.689,1.227 48.637,1.215 L48.639,1.195 C48.633,1.195 48.628,1.199 48.621,1.199 C48.618,1.199 48.62,1.193 48.616,1.193 C48.611,1.193 48.611,1.202 48.608,1.202 C48.301,1.209 48.026,1.378 47.748,1.347 C47.723,1.294 47.69,1.23 47.625,1.23 C47.62,1.23 47.62,1.237 47.617,1.237 L47.617,1.23 C47.313,1.238 47.025,1.277 46.74,1.297 C46.713,1.241 46.689,1.178 46.625,1.178 C46.625,1.178 46.625,1.181 46.622,1.181 L46.622,1.179 L46.497,1.182 L46.497,1.185 C46.422,1.188 46.377,1.251 46.362,1.324 C45.725,1.435 45.083,1.403 44.93,1.359 L44.923,1.388 C44.906,1.383 44.908,1.354 44.891,1.354 C44.823,1.354 44.791,1.419 44.767,1.481 L44.732,1.471 C44.705,1.567 44.676,1.661 44.651,1.76 C44.551,1.783 44.495,1.79 44.438,1.794 C44.362,1.794 44.247,1.791 44.04,1.817 C44.03,1.817 44.027,1.817 44.017,1.818 L44.02,1.839 C43.944,1.854 43.875,1.904 43.875,1.978 C43.875,1.981 43.881,1.981 43.881,1.985 L43.875,1.985 C43.876,2.033 43.878,2.077 43.88,2.12 C43.556,2.252 43.47,2.4 43.151,2.469 L43.159,2.497 C43.11,2.511 43.082,2.545 43.063,2.589 L43.031,2.581 C42.929,2.918 42.828,3.257 42.723,3.597 C42.682,3.598 42.64,3.6 42.597,3.602 L42.597,3.609 C42.516,3.612 42.455,3.678 42.448,3.757 C42.441,3.754 42.434,3.75 42.428,3.747 L42.411,3.786 C42.388,3.771 42.388,3.731 42.357,3.731 C42.265,3.731 42.195,3.803 42.195,3.9 C42.195,3.9 42.196,3.9 42.196,3.901 L42.195,3.901 L42.195,3.943 C42.112,4.007 42.032,4.073 41.983,4.112 C41.917,4.167 41.861,4.206 41.706,4.255 L41.717,4.285 C41.653,4.307 41.589,4.341 41.589,4.412 C41.589,4.435 41.623,4.435 41.629,4.456 L41.597,4.466 L41.622,4.566 L41.628,4.587 L41.638,4.627 C41.657,4.683 41.685,4.696 41.699,4.706 C41.696,4.713 41.692,4.735 41.692,4.736 C41.664,4.739 41.552,4.753 41.427,4.847 L41.456,4.885 C41.456,4.885 41.453,4.886 41.453,4.888 C41.417,4.871 41.382,4.853 41.348,4.84 L41.331,4.874 C41.307,4.86 41.307,4.819 41.279,4.819 C41.186,4.819 41.112,4.894 41.112,4.985 C41.112,4.988 41.119,4.988 41.119,4.992 L41.112,4.992 C41.124,5.363 41.132,5.735 41.146,6.107 L41.149,6.107 C41.152,6.197 41.224,6.27 41.315,6.27 C41.315,6.27 41.315,6.268 41.316,6.268 L41.316,6.27 C41.345,6.268 41.372,6.268 41.4,6.267 C41.4,6.295 41.4,6.322 41.401,6.351 L41.404,6.351 C41.407,6.435 41.477,6.508 41.568,6.508 C41.569,6.508 41.569,6.506 41.569,6.506 L41.569,6.508 L41.59,6.508 C41.587,6.523 41.581,6.538 41.576,6.551 L41.573,6.551 L41.573,6.554 C41.486,6.557 41.414,6.628 41.414,6.719 C41.414,6.719 41.417,6.719 41.417,6.721 L41.414,6.721 L41.417,6.846 L41.42,6.846 C41.423,6.914 41.485,6.951 41.545,6.973 C41.546,7.013 41.546,7.053 41.548,7.094 C41.491,7.117 41.424,7.148 41.424,7.215 C41.424,7.239 41.46,7.239 41.468,7.26 L41.436,7.27 C41.464,7.347 41.493,7.424 41.52,7.502 C41.49,7.532 41.436,7.539 41.436,7.586 C41.436,7.59 41.441,7.59 41.442,7.593 L41.44,7.593 C41.446,7.828 41.455,8.063 41.461,8.299 L41.375,8.299 L41.375,8.305 C41.289,8.309 41.22,8.373 41.22,8.46 C41.22,8.465 41.223,8.465 41.227,8.469 L41.22,8.469 C41.227,8.72 41.234,8.966 41.241,9.214 L41.244,9.214 C41.247,9.283 41.308,9.317 41.369,9.338 C41.314,9.363 41.25,9.391 41.25,9.455 C41.25,9.459 41.258,9.459 41.258,9.462 L41.25,9.462 C41.255,9.668 41.262,9.877 41.269,10.086 L41.274,10.086 C41.275,10.117 41.315,10.119 41.33,10.145 C41.315,10.168 41.273,10.168 41.273,10.202 C41.273,10.206 41.276,10.206 41.276,10.208 L41.273,10.208 C41.281,10.485 41.29,10.761 41.3,11.036 C41.271,11.038 41.243,11.038 41.214,11.038 L41.214,11.046 C41.128,11.052 41.053,11.114 41.053,11.204 C41.053,11.208 41.058,11.208 41.058,11.21 L41.053,11.21 C41.056,11.292 41.058,11.372 41.06,11.458 L41.065,11.458 C41.07,11.544 41.137,11.616 41.226,11.616 C41.229,11.616 41.229,11.612 41.231,11.612 L41.231,11.616 L41.253,11.616 C41.125,11.93 41.134,12.216 41.28,12.526 L41.257,12.526 L41.257,12.532 C41.172,12.54 41.098,12.61 41.098,12.694 C41.098,12.712 41.126,12.71 41.132,12.729 L41.105,12.733 C41.142,12.893 41.179,13.055 41.219,13.217 C41.179,13.248 41.122,13.264 41.122,13.317 C41.122,13.319 41.125,13.319 41.125,13.319 L41.122,13.319 C41.132,13.692 41.141,14.067 41.152,14.438 C41.171,15.096 41.093,15.45 41.182,16.012 C41.159,16.014 41.138,16.014 41.115,16.014 L41.115,16.02 C41.031,16.028 40.957,16.092 40.957,16.182 C40.957,16.194 40.979,16.194 40.982,16.205 L40.957,16.209 C41.006,16.441 41.112,17.301 41.026,17.781 C40.954,17.799 40.882,17.843 40.882,17.922 C40.882,17.924 40.889,17.924 40.89,17.928 L40.882,17.928 C40.892,18.133 40.897,18.342 40.904,18.551 L40.911,18.551 C40.914,18.617 40.974,18.651 41.035,18.672 C41.045,19.057 41.055,19.44 41.067,19.824 L41.002,19.849 C40.873,19.904 40.806,20.091 40.836,20.285 L40.836,20.285 C40.837,20.295 40.833,20.301 40.836,20.312 L40.858,20.308 C40.87,20.363 40.912,20.402 40.971,20.419 C40.968,20.448 40.961,20.472 40.948,20.499 C40.931,20.54 40.855,20.628 40.846,20.778 L40.849,20.778 C40.849,20.78 40.846,20.78 40.846,20.78 C40.846,20.844 40.91,20.864 40.961,20.891 L40.942,20.928 C41.004,20.957 41.063,20.985 41.122,21.012 C41.204,21.272 40.997,21.522 41.011,21.887 C41.011,21.889 41.008,21.889 41.008,21.893 C41.008,21.897 41.011,21.897 41.011,21.897 C41.011,21.907 41.008,21.913 41.009,21.922 L41.031,21.918 C41.043,21.957 41.078,21.973 41.108,21.996 C41.081,22.158 41.054,22.322 41.027,22.49 L41.049,22.492 C41.047,22.506 41.027,22.502 41.027,22.515 C41.027,22.591 41.092,22.636 41.165,22.654 C41.311,23.353 41.081,24.328 40.974,24.843 L41.004,24.851 C40.997,24.865 40.974,24.865 40.974,24.878 C40.974,24.899 41.008,24.899 41.017,24.921 L40.98,24.935 C41.01,25.011 41.039,25.089 41.065,25.171 C41.033,25.196 40.983,25.204 40.983,25.251 C40.983,25.259 40.996,25.257 40.996,25.267 L40.983,25.269 C41.037,25.843 41.094,26.423 41.151,26.999 C41.099,27.028 41.038,27.052 41.038,27.114 C41.038,27.118 41.043,27.118 41.043,27.12 L41.038,27.12 C41.04,27.206 41.043,27.3 41.046,27.39 C40.996,27.417 40.942,27.447 40.891,27.474 L40.911,27.511 C40.864,27.538 40.804,27.558 40.804,27.62 C40.804,27.657 40.851,27.661 40.871,27.686 L40.836,27.711 C40.888,27.785 40.94,27.857 40.993,27.934 C40.98,27.957 40.941,27.957 40.941,27.983 C40.941,27.995 40.96,27.995 40.963,28.006 L40.941,28.008 C40.988,28.338 41.034,28.666 41.081,28.996 C41.034,29.023 40.974,29.043 40.974,29.103 C40.974,29.105 40.979,29.105 40.979,29.105 L40.974,29.105 C40.981,29.275 40.986,29.439 40.991,29.607 C40.934,29.632 40.867,29.66 40.867,29.728 C40.867,29.73 40.872,29.73 40.872,29.732 L40.867,29.732 C40.879,30.06 40.89,30.392 40.899,30.724 L40.904,30.724 C40.905,30.775 40.957,30.783 40.989,30.812 C40.977,30.851 40.966,30.89 40.954,30.931 C40.909,30.933 40.866,30.935 40.822,30.935 L40.822,30.939 C40.738,30.945 40.663,31.013 40.663,31.101 C40.663,31.103 40.668,31.103 40.668,31.107 L40.66,31.107 C40.663,31.23 40.665,31.353 40.671,31.48 L40.674,31.48 C40.677,31.566 40.746,31.636 40.834,31.636 C40.868,31.636 40.866,31.595 40.893,31.579 L40.914,31.618 C40.922,31.614 40.931,31.608 40.939,31.606 C40.944,31.635 40.981,31.643 41.001,31.667 C40.978,31.737 40.96,31.829 40.951,31.927 C40.917,31.927 40.886,31.927 40.851,31.929 L40.851,31.933 C40.762,31.937 40.688,32.005 40.688,32.095 C40.688,32.099 40.694,32.099 40.694,32.103 L40.688,32.103 C40.696,32.304 40.703,32.513 40.708,32.718 L40.711,32.718 C40.714,32.802 40.781,32.864 40.864,32.87 C40.822,32.913 40.787,32.948 40.761,32.983 L40.724,33.096 L40.753,33.184 C40.674,33.194 40.603,33.256 40.603,33.338 C40.603,33.361 40.637,33.361 40.643,33.381 L40.613,33.393 C40.655,33.508 40.696,33.622 40.738,33.731 C40.715,34.213 40.691,34.692 40.671,35.167 C40.637,35.171 40.605,35.171 40.573,35.173 L40.573,35.181 C40.486,35.185 40.413,35.245 40.413,35.333 C40.413,35.353 40.441,35.351 40.446,35.366 L40.421,35.374 C40.466,35.579 40.512,35.786 40.561,35.989 L40.589,35.981 C40.594,35.997 40.612,36.001 40.623,36.014 C40.606,36.035 40.576,36.037 40.573,36.067 L40.561,36.065 C40.561,36.069 40.564,36.071 40.564,36.073 C40.564,36.075 40.561,36.075 40.561,36.077 C40.561,36.081 40.566,36.079 40.566,36.083 C40.559,36.229 40.591,36.362 40.688,36.431 C40.691,36.433 40.691,36.433 40.698,36.437 C40.705,36.689 40.713,36.943 40.719,37.197 L40.725,37.197 C40.728,37.254 40.784,37.277 40.831,37.304 L40.814,37.341 C40.949,37.403 41.089,37.466 41.228,37.529 C41.229,37.578 41.231,37.629 41.231,37.677 L41.236,37.677 C41.239,37.743 41.298,37.773 41.359,37.796 L41.349,37.829 C41.454,37.86 41.555,37.891 41.656,37.921 C41.729,38.114 41.819,38.232 41.913,38.282 L42.025,38.343 C42.058,38.37 42.099,38.407 42.154,38.484 L42.193,38.459 C42.223,38.496 42.236,38.553 42.288,38.553 C42.291,38.553 42.291,38.549 42.295,38.549 L42.295,38.553 C42.458,38.549 42.626,38.545 42.791,38.539 L42.791,38.535 C42.865,38.533 42.909,38.471 42.926,38.4 C42.956,38.398 42.986,38.394 43.017,38.388 C43.034,38.458 43.081,38.527 43.158,38.527 C43.179,38.527 43.175,38.498 43.192,38.492 L43.202,38.525 C43.322,38.488 43.443,38.455 43.563,38.421 C43.593,38.458 43.604,38.513 43.657,38.513 L43.657,38.511 L43.657,38.513 C43.823,38.509 43.991,38.505 44.153,38.497 L44.153,38.497 C44.19,38.495 44.19,38.454 44.217,38.435 C44.242,38.451 44.244,38.492 44.278,38.492 C44.279,38.492 44.279,38.488 44.281,38.488 L44.281,38.492 L44.403,38.492 L44.403,38.49 C44.47,38.488 44.504,38.426 44.528,38.363 C44.61,38.361 44.694,38.357 44.775,38.357 L44.775,38.351 C44.863,38.347 44.934,38.279 44.934,38.191 C44.934,38.189 44.929,38.189 44.927,38.185 L44.934,38.185 C44.934,38.142 44.933,38.101 44.931,38.058 C45.002,38.031 45.069,38.005 45.14,37.978 C45.251,37.996 45.703,38.289 46.128,38.189 C46.131,38.189 46.131,38.195 46.135,38.195 C46.139,38.195 46.138,38.185 46.143,38.185 C46.161,38.179 46.179,38.185 46.196,38.179 L46.182,38.144 C46.209,38.13 46.229,38.109 46.244,38.08 L46.283,38.098 C46.3,38.055 46.32,38.014 46.34,37.971 L46.34,38.024 L46.345,38.024 C46.348,38.112 46.414,38.18 46.502,38.18 C46.512,38.18 46.512,38.164 46.522,38.162 L46.524,38.18 C47.02,38.129 47.514,38.075 48.008,38.02 C48.037,38.071 48.057,38.131 48.117,38.131 C48.12,38.131 48.12,38.129 48.122,38.129 L48.122,38.131 C48.206,38.131 48.292,38.129 48.38,38.125 C48.4,38.17 48.423,38.209 48.472,38.221 L48.469,38.241 C48.477,38.241 48.481,38.237 48.488,38.237 C48.491,38.237 48.491,38.243 48.495,38.243 C48.502,38.243 48.5,38.233 48.505,38.233 C48.831,38.233 49.003,38.077 49.244,38.098 C49.27,38.155 49.299,38.217 49.364,38.217 C49.366,38.217 49.366,38.215 49.366,38.215 L49.366,38.217 C49.578,38.213 49.783,38.209 49.989,38.199 L49.989,38.195 C50.023,38.191 50.025,38.152 50.049,38.134 C50.064,38.144 50.066,38.163 50.08,38.167 L50.075,38.19 C50.239,38.231 50.41,38.26 50.576,38.297 L50.581,38.274 C50.597,38.278 50.595,38.305 50.61,38.305 C50.702,38.305 50.772,38.231 50.772,38.137 C50.772,38.137 50.77,38.137 50.77,38.135 L50.772,38.135 L50.772,38.114 C50.826,38.128 50.878,38.143 50.934,38.161 L50.943,38.13 C50.962,38.136 50.958,38.165 50.979,38.165 C51.025,38.165 51.032,38.114 51.062,38.083 L51.062,38.124 L51.067,38.124 C51.07,38.208 51.14,38.269 51.221,38.276 L51.221,38.284 C51.68,38.311 52.138,38.333 52.595,38.358 C52.616,38.422 52.654,38.489 52.729,38.489 C52.732,38.489 52.732,38.483 52.734,38.483 L52.734,38.489 L52.857,38.483 L52.857,38.481 C52.918,38.477 52.939,38.42 52.965,38.368 C52.997,38.374 53.052,38.374 53.063,38.38 L53.083,38.396 L53.087,38.398 L53.104,38.38 L53.121,38.37 C53.151,38.413 53.169,38.474 53.225,38.474 C53.249,38.474 53.249,38.439 53.27,38.431 L53.282,38.464 C53.359,38.435 53.436,38.407 53.516,38.38 C53.544,38.409 53.551,38.462 53.597,38.462 C53.6,38.462 53.6,38.454 53.607,38.454 L53.607,38.462 C53.686,38.458 53.771,38.458 53.853,38.454 C53.872,38.495 53.897,38.524 53.941,38.542 L53.932,38.569 C53.944,38.571 53.957,38.569 53.969,38.571 C53.972,38.571 53.972,38.579 53.978,38.579 C53.981,38.579 53.981,38.571 53.984,38.571 C54.241,38.622 54.56,38.575 54.859,38.52 C55.013,38.487 55.156,38.454 55.266,38.43 L55.367,38.41 C55.393,38.463 55.421,38.514 55.446,38.562 L55.486,38.541 C55.503,38.57 55.521,38.594 55.553,38.607 L55.543,38.642 C55.56,38.646 55.563,38.632 55.58,38.634 C55.587,38.634 55.585,38.648 55.594,38.648 C55.608,38.648 55.606,38.627 55.617,38.623 C55.748,38.623 55.846,38.6 55.899,38.541 C55.969,38.564 56.155,38.672 56.459,38.615 C56.461,38.615 56.461,38.621 56.464,38.621 C56.466,38.621 56.466,38.615 56.467,38.615 C56.485,38.613 56.491,38.623 56.51,38.617 L56.499,38.584 C56.541,38.568 56.568,38.539 56.585,38.496 C56.67,38.494 56.758,38.49 56.842,38.486 C56.868,38.543 56.892,38.607 56.96,38.607 C56.962,38.607 56.962,38.601 56.963,38.601 L56.963,38.607 C57.095,38.603 57.227,38.601 57.358,38.597 C57.385,38.648 57.416,38.699 57.443,38.753 L57.483,38.73 C57.51,38.777 57.529,38.837 57.587,38.837 C57.604,38.837 57.603,38.81 57.617,38.806 L57.624,38.833 C57.772,38.8 57.867,38.696 57.914,38.616 L57.935,38.577 C58.192,38.569 58.448,38.561 58.704,38.554 C58.728,38.613 58.759,38.675 58.826,38.675 C58.828,38.675 58.828,38.671 58.83,38.671 L58.83,38.675 C59.49,38.655 60.152,38.634 60.813,38.616 C61.069,38.692 61.427,38.813 61.808,38.833 L61.808,38.827 C61.81,38.827 61.81,38.833 61.811,38.833 C61.907,38.833 61.98,38.759 61.98,38.669 C61.98,38.667 61.973,38.667 61.973,38.665 L61.98,38.665 C61.977,38.636 61.977,38.61 61.977,38.583 C62.01,38.581 62.047,38.579 62.082,38.579 C62.111,38.632 62.139,38.681 62.166,38.731 L62.202,38.71 C62.231,38.755 62.25,38.815 62.31,38.815 C62.327,38.815 62.323,38.792 62.338,38.788 L62.343,38.813 C62.588,38.766 62.836,38.717 63.084,38.668 L63.078,38.645 C63.115,38.633 63.129,38.602 63.149,38.573 C63.271,38.6 63.392,38.628 63.512,38.655 L63.517,38.626 C63.534,38.632 63.531,38.657 63.549,38.657 C63.555,38.657 63.554,38.645 63.561,38.645 L63.571,38.655 C63.696,38.567 63.698,38.561 63.703,38.559 L63.703,38.555 C63.733,38.59 63.745,38.647 63.794,38.647 C63.797,38.647 63.797,38.641 63.801,38.641 L63.801,38.647 C63.845,38.647 63.885,38.645 63.925,38.645 C63.948,38.694 63.977,38.739 64.03,38.749 L64.03,38.763 C64.035,38.767 64.037,38.759 64.042,38.759 C64.045,38.759 64.044,38.767 64.047,38.767 C64.054,38.767 64.052,38.755 64.059,38.753 C64.257,38.767 64.371,38.593 64.393,38.55 L64.426,38.513 C64.455,38.564 64.476,38.628 64.541,38.628 C64.543,38.628 64.543,38.622 64.547,38.622 L64.547,38.628 C64.629,38.624 64.715,38.622 64.8,38.62 C64.826,38.675 64.852,38.739 64.919,38.739 C64.951,38.739 64.951,38.698 64.975,38.68 L64.996,38.717 C65.11,38.658 65.226,38.594 65.344,38.531 C65.37,38.552 65.374,38.601 65.411,38.601 C65.414,38.601 65.414,38.595 65.418,38.595 L65.418,38.601 C65.704,38.591 65.994,38.581 66.284,38.576 L66.284,38.568 C66.773,38.677 67.556,38.632 68.417,38.507 C68.473,38.568 68.524,38.589 68.596,38.614 L68.606,38.585 C68.625,38.591 68.623,38.626 68.645,38.626 C68.681,38.626 68.684,38.579 68.711,38.562 C68.734,38.578 68.735,38.621 68.77,38.621 C68.789,38.621 68.789,38.592 68.805,38.586 L68.814,38.615 C68.978,38.568 69.142,38.523 69.308,38.478 L69.298,38.445 C69.345,38.429 69.376,38.398 69.392,38.349 C69.612,38.312 69.945,38.431 70.127,38.447 C70.131,38.447 70.129,38.455 70.132,38.455 C70.134,38.455 70.134,38.451 70.136,38.451 C70.141,38.451 70.15,38.455 70.153,38.455 L70.151,38.435 C70.215,38.423 70.259,38.376 70.273,38.312 C70.647,38.265 71.016,38.214 71.389,38.169 L71.4,38.169 L71.437,38.161 L71.552,38.149 L71.676,38.147 L71.72,38.147 L71.737,38.147 L71.744,38.116 C71.761,38.124 71.761,38.149 71.777,38.149 C71.789,38.149 71.788,38.129 71.801,38.128 C71.819,38.142 71.822,38.153 71.852,38.167 C71.873,38.175 71.896,38.149 71.919,38.149 C71.921,38.153 71.919,38.153 71.922,38.155 L72.064,38.171 L72.142,38.12 L72.182,38.052 C72.328,38.015 72.472,37.978 72.621,37.941 C72.638,38.007 72.656,38.072 72.671,38.138 L72.698,38.132 C72.721,38.196 72.759,38.265 72.829,38.265 C72.847,38.265 72.847,38.238 72.86,38.232 L72.867,38.257 C72.995,38.232 73.055,38.236 73.12,38.247 C73.171,38.253 73.251,38.265 73.341,38.253 C73.342,38.253 73.342,38.257 73.344,38.257 C73.346,38.257 73.346,38.253 73.347,38.253 C73.364,38.251 73.368,38.257 73.383,38.255 L73.504,38.22 L73.498,38.195 C73.564,38.174 73.632,38.136 73.632,38.062 C73.632,38.058 73.625,38.058 73.625,38.056 C73.643,38.052 73.672,38.04 73.684,38.038 L73.722,38.042 C73.738,38.042 73.789,38.12 73.864,38.265 L73.903,38.242 C73.934,38.285 73.951,38.346 74.007,38.346 C74.026,38.346 74.024,38.319 74.041,38.313 L74.048,38.34 C74.132,38.319 74.217,38.295 74.301,38.276 C74.331,38.315 74.344,38.372 74.399,38.372 C74.426,38.372 74.423,38.337 74.445,38.327 L74.457,38.362 C74.77,38.243 75.084,38.126 75.396,38.005 C75.426,38.036 75.434,38.095 75.484,38.095 C75.512,38.095 75.512,38.054 75.536,38.042 L75.552,38.077 C75.73,37.993 75.766,37.831 75.793,37.78 L75.819,37.739 L75.837,37.737 C75.877,37.786 75.919,37.833 75.959,37.882 L75.995,37.849 C76.025,37.882 76.036,37.939 76.083,37.939 C76.108,37.939 76.106,37.902 76.127,37.894 L76.14,37.927 C76.223,37.886 76.248,37.835 76.274,37.784 C76.297,37.819 76.32,37.854 76.343,37.889 L76.38,37.866 C76.41,37.905 76.424,37.962 76.478,37.962 C76.503,37.962 76.501,37.927 76.522,37.919 L76.538,37.954 C76.729,37.876 76.826,37.866 76.945,37.751 C77.032,37.636 77.029,37.534 77.029,37.403 C77.113,37.348 77.197,37.294 77.284,37.237 L77.258,37.196 C77.268,37.19 77.273,37.182 77.281,37.176 L77.349,37.196 C77.456,37.237 77.652,37.237 77.788,37.098 L77.754,37.061 C77.786,37.03 77.841,37.02 77.841,36.971 C77.841,36.953 77.814,36.955 77.808,36.94 L77.834,36.934 L77.829,36.911 C77.841,36.897 77.857,36.897 77.871,36.874 L77.871,36.866 C77.962,36.866 78.036,36.792 78.036,36.7 C78.036,36.688 78.015,36.69 78.014,36.679 C78.129,36.663 78.252,36.63 78.334,36.497 L78.299,36.476 C78.316,36.453 78.361,36.451 78.361,36.415 C78.361,36.392 78.327,36.392 78.316,36.372 L78.35,36.36 C78.322,36.28 78.292,36.202 78.262,36.124 C78.269,36.118 78.276,36.114 78.283,36.106 L78.32,36.131 L78.395,36.01 L78.405,35.994 L78.435,35.986 C78.465,35.978 78.519,35.965 78.593,35.941 L78.584,35.91 C78.646,35.887 78.711,35.853 78.711,35.785 C78.711,35.783 78.706,35.783 78.706,35.779 L78.711,35.779 C78.709,35.707 78.708,35.64 78.704,35.57 C78.734,35.57 78.762,35.568 78.792,35.566 L78.792,35.56 C78.865,35.556 78.908,35.494 78.926,35.425 L78.949,35.429 C78.98,35.218 79.017,35.013 79.052,34.806 L79.029,34.804 C79.032,34.79 79.053,34.792 79.053,34.779 C79.053,34.717 78.991,34.691 78.941,34.664 L78.958,34.629 C78.911,34.608 78.86,34.584 78.812,34.561 C78.812,34.553 78.816,34.536 78.816,34.528 L78.816,34.522 L78.819,34.495 L78.799,34.487 C78.802,34.485 78.802,34.475 78.806,34.471 C78.809,34.461 78.826,34.461 78.826,34.45 C78.826,34.444 78.818,34.446 78.818,34.44 C78.856,34.376 78.892,34.315 78.909,34.19 C78.935,34.189 78.961,34.183 79,34.15 L79,34.15 Z M76.794,25.126 L76.785,25.126 C76.796,25.48 76.806,25.833 76.819,26.185 C76.741,26.199 76.67,26.251 76.67,26.337 C76.67,26.339 76.675,26.339 76.675,26.341 L76.67,26.341 C76.67,26.39 76.674,26.443 76.675,26.493 C76.598,26.505 76.528,26.555 76.528,26.641 C76.528,26.657 76.553,26.657 76.556,26.672 L76.535,26.676 C76.58,26.875 76.626,27.074 76.671,27.276 C76.615,27.301 76.554,27.331 76.554,27.397 C76.554,27.418 76.587,27.418 76.598,27.44 L76.561,27.452 C76.598,27.55 76.634,27.649 76.671,27.745 C76.624,27.772 76.566,27.79 76.566,27.849 C76.566,27.853 76.571,27.853 76.573,27.857 L76.566,27.857 C76.583,28.402 76.599,28.955 76.615,29.502 C76.569,29.502 76.524,29.504 76.476,29.506 L76.476,29.508 C76.409,29.512 76.373,29.572 76.353,29.637 L76.325,29.627 C76.278,29.775 76.233,29.93 76.187,30.082 L76.221,30.092 C76.212,30.113 76.181,30.112 76.181,30.133 C76.181,30.215 76.253,30.278 76.334,30.285 C76.341,30.451 76.346,30.619 76.353,30.785 C76.336,30.795 76.332,30.787 76.313,30.803 C76.229,30.877 76.201,31.02 76.223,31.178 C76.221,31.182 76.212,31.182 76.212,31.188 C76.212,31.188 76.219,31.188 76.219,31.192 C76.219,31.202 76.209,31.206 76.212,31.215 L76.235,31.211 C76.253,31.277 76.297,31.338 76.368,31.344 C76.383,31.848 76.397,32.35 76.415,32.852 C76.337,32.866 76.269,32.916 76.269,33 L76.271,33.002 L76.269,33.002 C76.271,33.106 76.274,33.207 76.278,33.305 C76.216,33.315 76.182,33.366 76.163,33.422 L76.136,33.416 C76.131,33.43 76.133,33.443 76.129,33.455 C76.025,33.926 76.18,34.353 76.273,34.656 C76.241,34.656 76.211,34.656 76.182,34.66 L76.182,34.664 C76.092,34.666 76.018,34.734 76.018,34.818 C76.018,34.826 76.031,34.824 76.031,34.83 L76.018,34.83 C76.025,35.002 76.032,35.174 76.037,35.348 L76,35.371 C75.969,35.33 75.956,35.273 75.898,35.273 C75.898,35.273 75.898,35.275 75.896,35.275 L75.896,35.273 L75.744,35.275 L75.744,35.281 C75.659,35.285 75.587,35.349 75.587,35.437 C75.587,35.439 75.592,35.439 75.592,35.443 L75.587,35.443 C75.588,35.554 75.592,35.666 75.594,35.777 C75.115,35.918 74.913,36.144 74.422,36.088 L74.422,36.082 L74.416,36.082 C74.413,36.01 74.35,35.963 74.279,35.945 L74.282,35.925 C74.272,35.925 74.265,35.927 74.259,35.925 L74.258,35.925 L74.253,35.925 C74.104,35.902 73.956,35.941 73.896,36.044 L73.881,36.071 C73.558,36.018 73.004,35.913 72.528,36.139 L72.545,36.176 C72.518,36.19 72.5,36.207 72.484,36.235 L72.451,36.221 C72.417,36.291 72.385,36.362 72.353,36.432 C72.032,36.444 71.711,36.457 71.391,36.465 C71.377,36.385 71.327,36.317 71.245,36.317 C71.242,36.317 71.242,36.323 71.24,36.323 L71.24,36.317 L71.087,36.319 L71.087,36.325 C71.009,36.329 70.948,36.393 70.94,36.477 C70.841,36.481 70.74,36.483 70.64,36.487 L70.64,36.491 C70.593,36.493 70.584,36.546 70.556,36.579 C70.509,36.556 70.459,36.536 70.412,36.511 L70.395,36.55 C70.37,36.536 70.37,36.493 70.337,36.493 C70.297,36.493 70.292,36.546 70.263,36.571 C70.237,36.55 70.233,36.505 70.196,36.505 L70.196,36.501 C70.196,36.501 70.196,36.501 70.192,36.501 L70.192,36.501 C70.19,36.501 70.192,36.501 70.19,36.501 C69.939,36.481 69.801,36.583 69.734,36.644 C69.701,36.611 69.656,36.562 69.56,36.441 L69.525,36.468 C69.495,36.431 69.483,36.372 69.429,36.372 C69.421,36.372 69.422,36.386 69.416,36.386 L69.416,36.376 L69.41,36.376 L69.409,36.376 L69.409,36.394 L69.409,36.376 L69.405,36.376 L69.386,36.376 L69.307,36.37 C69.244,36.37 69.168,36.366 69.095,36.372 C69.019,36.384 68.945,36.386 68.852,36.46 C68.808,36.497 68.773,36.583 68.78,36.646 C68.781,36.652 68.785,36.654 68.785,36.658 C68.4,36.623 67.948,36.607 67.433,36.74 L67.442,36.769 C67.433,36.771 67.432,36.781 67.425,36.785 C67.4,36.777 67.378,36.744 67.354,36.74 L67.35,36.763 C67.336,36.759 67.336,36.738 67.324,36.738 C67.32,36.738 67.32,36.744 67.317,36.744 L67.317,36.738 C67.215,36.742 67.115,36.744 67.01,36.748 C66.996,36.674 66.946,36.603 66.864,36.603 C66.863,36.603 66.863,36.609 66.861,36.609 L66.861,36.603 L66.709,36.607 L66.709,36.609 C66.629,36.609 66.568,36.677 66.56,36.761 C66.312,36.767 66.059,36.779 65.809,36.781 L65.809,36.785 C65.794,36.789 65.795,36.81 65.782,36.816 C65.748,36.802 65.715,36.796 65.684,36.793 L65.68,36.809 C65.67,36.807 65.672,36.786 65.66,36.786 C65.658,36.786 65.658,36.79 65.656,36.79 L65.656,36.786 C65.405,36.798 65.154,36.804 64.9,36.813 L64.9,36.821 C64.897,36.821 64.897,36.827 64.894,36.827 L64.892,36.813 C64.076,36.887 63.254,36.961 62.438,37.036 C62.401,36.966 62.365,36.897 62.326,36.833 L62.289,36.853 C62.261,36.808 62.242,36.746 62.184,36.746 C62.181,36.746 62.181,36.754 62.177,36.754 L62.177,36.746 L62.029,36.75 L62.029,36.754 C61.969,36.756 61.95,36.813 61.922,36.861 C61.823,36.832 61.724,36.8 61.626,36.773 L61.616,36.804 C61.598,36.798 61.598,36.765 61.577,36.765 C61.565,36.765 61.566,36.783 61.555,36.786 L61.552,36.766 C61.529,36.77 61.506,36.807 61.478,36.817 C61.468,36.811 61.468,36.796 61.455,36.794 L61.458,36.773 C61.451,36.773 61.441,36.775 61.438,36.773 C61.433,36.773 61.433,36.767 61.429,36.767 C61.426,36.767 61.426,36.773 61.422,36.773 C61.13,36.732 60.685,36.787 60.27,36.855 C60.061,36.884 59.862,36.919 59.716,36.943 C59.653,36.955 59.604,36.963 59.564,36.968 C59.527,36.902 59.491,36.833 59.452,36.767 L59.417,36.787 C59.389,36.74 59.37,36.68 59.313,36.68 C59.31,36.68 59.31,36.684 59.306,36.684 L59.306,36.68 C59.053,36.688 58.8,36.696 58.547,36.703 C58.533,36.627 58.482,36.558 58.401,36.558 C58.378,36.558 58.38,36.591 58.361,36.599 L58.349,36.566 C58.05,36.658 57.752,36.755 57.453,36.851 C57.416,36.749 57.378,36.648 57.341,36.55 L57.305,36.564 C57.281,36.505 57.254,36.443 57.187,36.443 C57.15,36.443 57.147,36.49 57.118,36.509 L57.091,36.472 C56.995,36.54 56.901,36.609 56.806,36.675 C56.789,36.663 56.785,36.642 56.769,36.638 L56.774,36.611 C56.612,36.576 56.453,36.541 56.291,36.506 L56.291,36.485 L56.287,36.485 C56.285,36.395 56.215,36.321 56.124,36.321 C56.116,36.321 56.116,36.339 56.109,36.341 L56.105,36.323 C55.65,36.384 55.197,36.444 54.745,36.503 C54.725,36.437 54.688,36.37 54.614,36.37 C54.614,36.37 54.614,36.374 54.612,36.374 L54.612,36.37 L54.462,36.374 L54.462,36.376 C54.42,36.378 54.415,36.427 54.387,36.452 C54.358,36.427 54.355,36.38 54.315,36.38 C54.311,36.38 54.311,36.384 54.309,36.384 L54.309,36.38 C54.189,36.386 54.074,36.388 53.956,36.39 C53.919,36.32 53.882,36.249 53.845,36.181 L53.808,36.202 C53.778,36.155 53.759,36.097 53.7,36.097 C53.67,36.097 53.667,36.138 53.643,36.154 L53.621,36.117 C53.576,36.142 53.53,36.166 53.485,36.189 C53.454,36.158 53.447,36.101 53.398,36.101 C53.397,36.101 53.397,36.107 53.393,36.107 L53.393,36.101 C53.14,36.107 52.889,36.117 52.635,36.128 L52.635,36.13 C52.618,36.13 52.62,36.157 52.604,36.165 L52.593,36.134 C52.474,36.191 52.483,36.239 52.467,36.255 L52.466,36.259 C52.442,36.198 52.407,36.134 52.34,36.134 C52.34,36.134 52.34,36.138 52.337,36.138 L52.337,36.13 C52.182,36.138 52.03,36.14 51.874,36.148 C51.861,36.07 51.81,36 51.733,36 C51.717,36 51.719,36.027 51.706,36.031 L51.699,36.002 C51.45,36.053 51.2,36.104 50.948,36.152 C50.924,36.09 50.893,36.027 50.825,36.027 C50.823,36.027 50.823,36.031 50.821,36.031 L50.821,36.027 C50.767,36.027 50.717,36.029 50.664,36.033 C50.65,35.955 50.599,35.885 50.519,35.885 C50.518,35.885 50.518,35.891 50.514,35.891 L50.514,35.885 C50.36,35.891 50.207,35.895 50.055,35.899 C50.043,35.838 49.998,35.801 49.938,35.782 L49.945,35.759 C49.931,35.753 49.924,35.759 49.911,35.755 L49.911,35.755 L49.909,35.755 C49.511,35.683 49.361,35.939 49.301,35.919 C49.002,35.888 48.705,35.855 48.408,35.819 L48.408,35.81 L48.401,35.81 C48.396,35.726 48.33,35.654 48.241,35.654 L48.241,35.654 L48.239,35.654 L48.086,35.658 L48.086,35.666 C48.024,35.668 47.999,35.723 47.973,35.777 C47.865,35.754 47.758,35.73 47.649,35.709 L47.648,35.686 L47.645,35.686 C47.642,35.596 47.573,35.528 47.485,35.528 C47.475,35.528 47.476,35.546 47.465,35.546 L47.46,35.528 C47.196,35.585 46.811,35.809 46.517,35.719 L46.474,35.617 C46.449,35.57 46.418,35.51 46.344,35.455 C46.288,35.412 46.208,35.418 46.133,35.426 C46.125,35.426 46.126,35.416 46.119,35.416 C46.114,35.416 46.114,35.424 46.109,35.424 C46.099,35.426 46.087,35.416 46.077,35.418 L46.085,35.447 C46.045,35.463 46.026,35.49 46.006,35.527 L45.97,35.509 C45.949,35.556 45.927,35.605 45.903,35.65 L45.883,35.634 L45.841,35.564 L45.818,35.519 C45.804,35.503 45.801,35.474 45.727,35.437 L45.713,35.472 C45.69,35.464 45.691,35.429 45.666,35.429 C45.663,35.429 45.663,35.431 45.661,35.431 L45.661,35.429 C45.46,35.433 45.254,35.439 45.052,35.445 C45.045,35.4 45.002,35.383 44.965,35.357 L44.985,35.32 C44.759,35.189 44.56,35.183 44.27,35.175 C44.27,35.169 44.267,35.157 44.263,35.152 L44.26,35.129 L44.25,35.086 C44.227,35.014 44.181,34.994 44.174,34.986 L44.149,34.965 L44.146,34.879 L44.138,34.879 C44.131,34.793 44.069,34.719 43.981,34.719 C43.951,34.719 43.951,34.762 43.927,34.778 L43.907,34.743 C43.863,34.766 43.821,34.79 43.778,34.813 L43.775,34.782 C43.782,34.651 43.634,34.499 43.435,34.456 C43.48,34.263 43.547,34.161 43.651,33.907 L43.616,33.891 C43.628,33.87 43.665,33.871 43.665,33.844 C43.665,33.75 43.588,33.678 43.499,33.678 C43.496,33.678 43.496,33.686 43.492,33.686 L43.492,33.678 C43.451,33.682 43.415,33.682 43.374,33.682 C43.404,33.237 43.435,32.795 43.465,32.35 L43.455,32.348 C43.455,32.342 43.465,32.342 43.465,32.336 C43.465,32.324 43.448,32.328 43.446,32.315 L43.465,32.313 C43.4,32.045 43.294,31.932 43.298,31.725 C43.36,31.713 43.397,31.67 43.414,31.614 L43.441,31.62 C43.442,31.612 43.439,31.599 43.441,31.589 C43.441,31.587 43.444,31.589 43.444,31.585 C43.444,31.583 43.441,31.585 43.441,31.581 C43.513,31.153 43.33,30.575 43.272,30.352 C43.336,30.331 43.404,30.295 43.404,30.223 C43.404,30.207 43.377,30.209 43.374,30.194 L43.397,30.188 C43.342,29.897 43.282,29.604 43.225,29.309 C43.215,29.061 43.208,28.809 43.202,28.557 C43.279,28.541 43.348,28.491 43.348,28.409 C43.348,28.391 43.321,28.391 43.314,28.376 L43.341,28.368 C43.302,28.218 43.258,28.069 43.216,27.921 C43.266,27.894 43.331,27.872 43.331,27.808 C43.331,27.806 43.326,27.806 43.326,27.802 L43.331,27.802 C43.313,27.249 43.298,26.693 43.28,26.14 C43.355,26.126 43.426,26.07 43.426,25.992 C43.426,25.988 43.42,25.988 43.42,25.984 L43.426,25.984 C43.421,25.785 43.414,25.584 43.409,25.38 L43.402,25.38 C43.399,25.304 43.338,25.259 43.267,25.243 C43.3,24.794 43.33,24.341 43.364,23.888 L43.352,23.888 C43.352,23.882 43.364,23.882 43.364,23.876 C43.364,23.79 43.292,23.731 43.207,23.72 C43.197,23.366 43.187,23.013 43.178,22.661 C43.254,22.643 43.319,22.595 43.319,22.516 C43.319,22.512 43.314,22.512 43.312,22.508 L43.319,22.508 C43.319,22.457 43.319,22.406 43.316,22.352 C43.393,22.34 43.465,22.291 43.465,22.207 C43.465,22.18 43.426,22.182 43.415,22.158 L43.452,22.142 C43.363,21.937 43.273,21.734 43.184,21.531 L43.245,21.502 C43.372,21.44 43.463,21.24 43.424,21.006 C43.424,21.004 43.427,21.004 43.427,21.004 C43.427,21.004 43.424,21.004 43.424,21.002 C43.424,20.99 43.431,20.982 43.427,20.969 L43.4,20.973 C43.38,20.907 43.341,20.848 43.272,20.842 C43.265,20.643 43.262,20.444 43.253,20.244 L43.248,20.244 C43.248,20.203 43.199,20.197 43.175,20.17 C43.199,20.141 43.251,20.137 43.251,20.096 C43.245,18.334 43.241,16.575 43.236,14.813 C43.285,14.811 43.331,14.811 43.378,14.811 L43.378,14.805 C43.467,14.801 43.539,14.735 43.539,14.647 C43.539,14.645 43.534,14.645 43.534,14.643 L43.539,14.643 C43.528,14.338 43.521,14.038 43.511,13.733 L43.5,13.733 C43.497,13.653 43.429,13.588 43.349,13.583 C43.426,13.571 43.494,13.519 43.497,13.44 L43.498,13.44 C43.51,12.889 43.635,12.249 43.746,11.807 L43.716,11.799 C43.721,11.781 43.75,11.783 43.75,11.764 C43.75,11.754 43.733,11.754 43.73,11.746 L43.75,11.742 C43.693,11.342 43.636,10.939 43.579,10.539 C43.644,10.516 43.71,10.478 43.71,10.406 C43.71,10.404 43.707,10.404 43.707,10.4 L43.71,10.4 C43.697,10.046 43.689,9.695 43.678,9.338 C43.754,9.324 43.822,9.276 43.822,9.193 C43.822,9.191 43.819,9.191 43.819,9.188 L43.822,9.188 C43.819,9.037 43.816,8.884 43.809,8.732 C43.89,8.719 43.957,8.668 43.957,8.586 C43.957,8.567 43.932,8.571 43.927,8.556 L43.954,8.549 C43.909,8.35 43.862,8.149 43.816,7.949 C43.87,7.926 43.93,7.899 43.932,7.831 L43.934,7.831 C43.951,6.826 43.971,5.976 43.988,4.986 C44.07,4.976 44.14,4.921 44.14,4.832 C44.14,4.832 44.138,4.832 44.138,4.83 L44.14,4.83 C44.14,4.771 44.137,4.709 44.135,4.647 C44.248,4.606 44.361,4.562 44.472,4.522 L44.459,4.49 C44.486,4.478 44.499,4.455 44.516,4.433 L44.553,4.455 C44.635,4.328 44.716,4.199 44.796,4.068 L44.861,4.066 L44.861,4.06 C44.946,4.054 45.019,3.99 45.019,3.9 C45.019,3.875 44.985,3.877 44.976,3.858 L45.01,3.845 C44.996,3.805 44.981,3.767 44.968,3.73 C44.983,3.737 44.98,3.76 44.998,3.76 C45.086,3.76 45.162,3.684 45.162,3.595 C45.162,3.592 45.159,3.592 45.159,3.59 L45.162,3.59 C45.162,3.557 45.161,3.527 45.159,3.495 C45.422,3.553 45.722,3.632 46.044,3.57 C46.047,3.571 46.046,3.575 46.049,3.575 C46.052,3.575 46.052,3.572 46.055,3.572 C46.067,3.569 46.079,3.575 46.092,3.572 L46.082,3.541 C46.143,3.521 46.197,3.486 46.202,3.42 C46.351,3.417 46.502,3.412 46.653,3.407 L46.653,3.402 C46.713,3.399 46.74,3.341 46.767,3.29 C46.932,3.429 47.142,3.543 47.381,3.543 C47.391,3.546 47.391,3.564 47.401,3.564 C47.408,3.564 47.406,3.55 47.415,3.55 C47.425,3.547 47.436,3.555 47.448,3.553 L47.44,3.523 C47.497,3.498 47.557,3.466 47.56,3.4 C47.939,3.395 48.289,3.304 48.592,3.336 L48.592,3.325 C48.601,3.325 48.599,3.338 48.61,3.338 C48.697,3.338 48.761,3.267 48.767,3.181 C48.966,3.176 49.166,3.173 49.364,3.166 L49.364,3.159 C49.449,3.156 49.522,3.092 49.522,3 C49.522,2.995 49.514,2.995 49.512,2.99 L49.522,2.99 L49.522,2.974 C49.909,2.863 50.122,2.903 50.4,2.86 L50.4,2.967 L50.407,2.967 C50.411,3.059 50.477,3.129 50.568,3.129 C50.589,3.129 50.586,3.099 50.605,3.092 L50.615,3.12 C50.913,3.023 51.212,2.929 51.511,2.835 C51.534,2.877 51.554,2.919 51.602,2.927 L51.6,2.944 C51.607,2.946 51.615,2.946 51.621,2.946 C52.144,3.001 52.73,3.03 52.981,3.194 L53.004,3.157 C53.031,3.176 53.031,3.219 53.065,3.219 C53.07,3.219 53.07,3.213 53.074,3.213 L53.074,3.22 L53.22,3.214 L53.22,3.211 C53.308,3.21 53.375,3.142 53.378,3.055 L53.378,3.062 C53.551,3.041 53.665,2.99 53.739,2.921 C53.746,2.916 53.74,2.914 53.746,2.909 C54.323,2.914 54.948,3.179 55.624,3.169 L55.625,3.169 L55.625,3.169 L55.629,3.169 L55.629,3.166 C55.669,3.163 55.674,3.116 55.703,3.092 C55.729,3.115 55.734,3.166 55.775,3.166 C55.778,3.166 55.778,3.158 55.782,3.158 L55.782,3.166 C55.986,3.159 56.185,3.153 56.389,3.146 C56.403,3.223 56.454,3.292 56.535,3.292 C56.537,3.292 56.537,3.287 56.538,3.287 L56.538,3.292 L56.692,3.287 L56.692,3.28 C56.771,3.277 56.832,3.213 56.839,3.132 C57.193,3.12 57.539,3.111 57.894,3.1 L57.894,3.096 C57.963,3.093 58.002,3.031 58.023,2.969 C58.531,3.039 59.039,3.109 59.547,3.177 L59.547,3.187 L59.551,3.187 C59.554,3.278 59.623,3.349 59.71,3.349 C59.722,3.349 59.722,3.329 59.732,3.327 L59.735,3.349 C60.038,3.291 60.339,3.241 60.639,3.19 C60.66,3.241 60.692,3.288 60.747,3.299 L60.745,3.316 C61.047,3.357 61.351,3.397 61.656,3.441 L61.658,3.42 C61.668,3.423 61.668,3.441 61.678,3.441 C61.696,3.441 61.696,3.412 61.712,3.407 L61.719,3.434 C61.742,3.431 61.756,3.397 61.78,3.387 C61.803,3.397 61.803,3.434 61.83,3.434 C61.834,3.434 61.834,3.431 61.836,3.431 L61.836,3.434 C61.936,3.434 62.036,3.431 62.14,3.426 C62.152,3.496 62.204,3.554 62.277,3.563 L62.277,3.573 C62.855,3.605 63.431,3.637 64.005,3.667 C64.043,3.738 64.082,3.808 64.119,3.878 L64.156,3.859 C64.186,3.906 64.205,3.967 64.266,3.967 C64.269,3.967 64.269,3.96 64.272,3.958 L64.272,3.967 C64.372,3.967 64.471,3.96 64.571,3.958 L64.571,3.952 C64.617,3.951 64.625,3.903 64.652,3.873 L64.687,3.905 L64.772,3.813 C64.8,3.861 64.817,3.92 64.879,3.92 L64.881,3.918 L64.881,3.92 C65.236,3.911 65.589,3.899 65.943,3.888 C65.955,3.966 66.01,4.036 66.091,4.036 C66.095,4.036 66.095,4.029 66.098,4.029 L66.098,4.036 C66.246,4.031 66.397,4.029 66.549,4.023 L66.549,4.018 C66.592,4.017 66.601,3.966 66.629,3.939 L66.664,3.972 L66.998,3.61 C67.025,3.61 67.056,3.609 67.083,3.609 C67.097,3.68 67.144,3.734 67.214,3.743 L67.214,3.757 C67.568,3.789 67.927,3.825 68.282,3.859 L68.282,3.862 L68.283,3.862 C68.287,3.949 68.354,4.02 68.446,4.02 C68.449,4.02 68.449,4.015 68.453,4.013 L68.453,4.02 C68.533,4.015 68.584,3.983 68.621,3.949 C68.641,3.986 68.66,4.021 68.679,4.057 L68.718,4.036 C68.725,4.048 68.733,4.053 68.741,4.061 L68.719,4.105 C68.733,4.113 68.78,4.12 68.807,4.127 C68.816,4.127 68.814,4.144 68.824,4.144 C68.833,4.144 68.831,4.134 68.838,4.134 C69.091,4.195 69.627,4.25 69.928,4.252 C69.954,4.309 69.984,4.372 70.049,4.372 C70.06,4.372 70.06,4.357 70.068,4.353 L70.07,4.372 C70.416,4.329 70.596,4.24 70.727,4.186 C70.839,4.146 70.94,4.129 71.132,4.144 C71.132,4.149 71.137,4.165 71.139,4.168 L71.143,4.191 L71.153,4.234 C71.178,4.305 71.223,4.328 71.227,4.338 L71.255,4.362 L71.257,4.439 L71.26,4.439 C71.264,4.484 71.315,4.496 71.347,4.523 L71.319,4.557 C71.385,4.615 71.497,4.699 71.645,4.604 C71.672,4.579 71.675,4.557 71.689,4.533 C71.7,4.563 71.712,4.595 71.723,4.628 L71.76,4.614 C71.78,4.659 71.806,4.697 71.855,4.71 L71.851,4.734 C71.858,4.734 71.865,4.729 71.872,4.729 C71.879,4.729 71.877,4.736 71.882,4.736 C71.889,4.736 71.888,4.726 71.894,4.722 C72.193,4.699 72.406,4.472 72.52,4.375 C72.545,4.436 72.576,4.5 72.645,4.5 C72.668,4.5 72.668,4.466 72.689,4.457 L72.703,4.489 C72.78,4.46 72.858,4.432 72.935,4.403 C72.939,4.477 72.942,4.554 72.944,4.63 L72.949,4.63 C72.952,4.715 73.019,4.788 73.107,4.788 C73.11,4.788 73.11,4.785 73.112,4.785 L73.112,4.788 L73.192,4.785 C73.382,5.001 73.522,5.112 73.698,5.032 L73.78,5.002 C73.791,4.999 73.849,5.015 73.909,5.037 C73.951,5.115 73.995,5.193 74.039,5.277 L74.076,5.255 C74.106,5.302 74.123,5.359 74.184,5.359 C74.185,5.359 74.185,5.356 74.187,5.356 L74.187,5.359 C74.305,5.357 74.423,5.352 74.538,5.349 C74.575,5.42 74.612,5.488 74.649,5.557 L74.69,5.537 C74.711,5.572 74.727,5.602 74.767,5.616 L74.764,5.639 L74.846,5.677 L74.867,5.711 C74.882,5.728 74.872,5.743 74.922,5.811 L74.997,5.838 L75.083,5.941 C75.088,6.072 75.093,6.204 75.097,6.337 L75.105,6.337 C75.105,6.384 75.156,6.396 75.189,6.423 L75.149,6.449 L75.182,6.423 L75.142,6.444 L75.153,6.498 C75.156,6.56 75.149,6.648 75.139,6.742 C75.142,6.889 75.128,7.031 75.193,7.178 C75.193,7.182 75.186,7.18 75.186,7.184 C75.186,7.192 75.201,7.19 75.203,7.199 C75.205,7.204 75.205,7.208 75.207,7.209 L75.189,7.212 C75.248,7.517 75.301,7.812 75.365,8.114 L75.388,8.108 C75.406,8.172 75.446,8.226 75.517,8.236 C75.521,8.385 75.527,8.538 75.534,8.685 L75.536,8.685 C75.536,8.707 75.564,8.706 75.573,8.725 L75.543,8.735 C75.757,9.337 75.605,9.671 75.587,10.493 L75.592,10.493 C75.592,10.497 75.587,10.497 75.587,10.499 C75.587,10.587 75.66,10.661 75.749,10.661 C75.772,10.661 75.77,10.63 75.791,10.62 L75.803,10.653 C75.875,10.632 75.914,10.616 75.934,10.614 L75.957,10.61 L76.002,10.598 C76.03,10.59 76.027,10.58 76.042,10.567 C76.051,10.838 76.061,11.108 76.067,11.378 C76.023,11.38 75.975,11.382 75.928,11.382 L75.928,11.386 C75.841,11.392 75.772,11.46 75.772,11.55 C75.772,11.552 75.777,11.552 75.777,11.554 L75.772,11.554 C75.774,11.654 75.777,11.757 75.779,11.857 L75.786,11.857 C75.791,11.943 75.854,12.015 75.94,12.015 C75.945,12.015 75.945,12.007 75.949,12.005 L75.949,12.015 C75.997,12.015 76.041,12.013 76.086,12.011 C76.088,12.054 76.09,12.099 76.091,12.144 C76.053,12.148 76.017,12.148 75.976,12.158 C75.906,12.178 75.847,12.172 75.757,12.275 L75.761,12.502 L75.882,12.6 L75.903,12.563 C75.926,12.581 75.929,12.624 75.96,12.624 C75.964,12.624 75.964,12.618 75.967,12.618 L75.967,12.624 C76.018,12.622 76.066,12.622 76.114,12.618 C76.186,13.47 76.26,14.325 76.335,15.175 L76.347,15.175 C76.357,15.257 76.416,15.327 76.498,15.327 C76.5,15.327 76.5,15.321 76.504,15.321 L76.504,15.327 C76.555,15.327 76.607,15.323 76.658,15.321 C76.709,15.675 76.758,16.024 76.807,16.38 C76.743,16.401 76.676,16.441 76.676,16.515 C76.676,16.519 76.682,16.519 76.682,16.519 L76.676,16.519 C76.685,16.867 76.697,17.22 76.708,17.574 L76.713,17.574 C76.715,17.59 76.735,17.588 76.74,17.601 L76.713,17.609 C76.734,17.683 76.775,17.707 76.793,17.722 L76.839,17.747 L76.842,17.747 C76.783,17.772 76.718,17.806 76.718,17.876 C76.718,17.878 76.722,17.878 76.722,17.88 L76.718,17.88 C76.718,17.929 76.722,17.982 76.722,18.032 C76.663,18.042 76.628,18.091 76.61,18.143 L76.581,18.137 C76.58,18.151 76.585,18.157 76.583,18.17 C76.583,18.174 76.578,18.174 76.578,18.176 C76.578,18.18 76.585,18.18 76.585,18.184 C76.493,18.895 77.006,19.163 76.936,19.68 C76.848,19.688 76.777,19.748 76.777,19.834 C76.777,19.842 76.793,19.84 76.795,19.85 L76.777,19.852 C76.85,20.573 76.92,21.288 76.986,22.002 C76.921,22.039 76.855,22.076 76.788,22.109 L76.809,22.146 C76.761,22.175 76.699,22.197 76.699,22.257 C76.699,22.284 76.736,22.282 76.748,22.306 L76.715,22.32 L76.716,22.322 L76.723,22.343 L76.751,22.411 C76.773,22.47 76.8,22.552 76.826,22.645 C76.863,22.77 76.882,22.903 76.884,23.006 C76.803,23.014 76.732,23.074 76.732,23.158 C76.732,23.16 76.74,23.16 76.74,23.166 L76.732,23.166 C76.735,23.418 76.746,23.674 76.755,23.926 C76.674,23.94 76.606,23.99 76.606,24.072 C76.606,24.072 76.607,24.072 76.607,24.076 L76.606,24.076 L76.611,24.222 L76.614,24.222 C76.616,24.257 76.655,24.257 76.672,24.281 L76.635,24.304 L76.74,24.402 C76.685,24.427 76.621,24.457 76.621,24.521 C76.621,24.523 76.628,24.523 76.628,24.527 L76.621,24.527 L76.625,24.679 L76.626,24.679 C76.628,24.767 76.698,24.841 76.79,24.841 C76.794,24.841 76.794,24.837 76.797,24.837 L76.797,24.841 L76.827,24.841 C76.848,24.898 76.871,24.96 76.892,25.019 C76.848,25.048 76.789,25.064 76.789,25.121 C76.786,25.123 76.792,25.123 76.794,25.126 L76.794,25.126 Z M78.395,36.005 L78.398,36.003 L78.4,36.005 L78.395,36.005 L78.395,36.005 Z" id="Shape" fill="#5F6062" sketch:type="MSShapeGroup"></path>
            <path d="M65.792,32.439 C63.652,33.509 61.477,34.738 59.271,34.849 C58.198,35.031 56.753,34.419 57.357,34.624 C57.753,33.978 58.808,33.188 59.739,32.604 C63.718,30.311 68.464,29.166 72.988,26.842 C74.071,26.225 75.316,25.76 76.435,24.59 C76.965,24.045 77.471,23.42 77.843,22.492 C78.281,21.607 78.15,19.791 77.012,18.816 C74.745,17.148 72.978,18.082 71.854,18.142 C70.609,18.376 69.599,18.615 68.222,18.943 C62.391,20.548 57.428,23.808 52.741,26.263 C51.275,27.048 49.392,27.775 47.863,28.152 C48.557,27.5 49.309,26.793 49.794,26.326 C53.94,22.846 58.242,20.215 63.643,18.785 C66.339,17.881 69.19,16.822 71.845,14.877 C73.066,13.703 74.378,13.109 75.219,10.301 C75.809,8.3 73.434,6.336 72.551,6.386 C71.437,6.031 70.443,6.099 69.502,6.211 C65.772,6.994 63.849,8.613 61.197,9.744 C60.89,9.896 60.603,10.041 60.308,10.189 C60.867,9.746 61.419,9.23 61.964,8.511 C62.276,8.107 62.589,7.532 62.772,6.866 C62.836,6.502 62.95,6.169 62.908,5.777 L62.86,5.2 L62.818,4.915 C62.543,4.422 63.421,5.92 62.196,3.791 L62.15,3.754 L62.05,3.68 C60.96,2.783 59.725,2.489 58.775,2.467 C54.895,2.395 52.303,4.243 49.891,5.141 C49.106,5.468 48.299,5.8 47.491,6.141 L49.315,10.132 C50.023,9.829 50.742,9.532 51.47,9.235 C53.673,8.325 55.625,7.304 57.293,6.98 C56.929,7.251 56.53,7.523 56.109,7.763 C54.024,8.962 51.233,10.181 48.825,11.648 C47.563,12.418 46.269,13.189 45.022,14.541 C44.422,15.225 43.743,16.068 43.497,17.422 C43.396,18.1 43.426,18.799 43.632,19.449 C43.912,20.869 46.327,21.693 46.537,21.424 C48.126,21.156 49.33,20.768 50.356,20.324 C49.567,20.883 48.794,21.457 48.082,22.066 C46.959,22.859 45.724,24.205 44.901,24.945 C44.456,25.357 43.828,25.881 43.212,26.619 C42.649,27.191 41.601,29.068 42.501,30.83 C42.774,31.67 43.791,32.275 44.618,32.631 C45.222,32.764 45.766,32.793 46.343,32.822 C47.222,32.742 48.099,32.631 48.825,32.422 C50.35,32.045 51.704,31.555 53.086,30.953 C58.518,28.392 62.691,25.389 67.721,23.637 C83.856,18.012 67.094,26.262 59.336,30.252 C58.237,31.018 57.197,31.754 56.233,32.908 C55.929,33.217 54.705,34.803 56.212,36.08 C57.262,36.642 57.902,36.492 58.61,36.527 C61.532,36.402 63.799,34.873 65.91,33.621 C69.972,30.726 74.978,30.223 79.865,28.988 C75.121,29.855 70.125,29.925 65.792,32.439 L65.792,32.439 Z M69.499,10.687 C69.726,10.572 69.988,10.531 70.248,10.517 C70.128,10.652 69.993,10.775 69.819,10.859 C68.24,12.359 65.793,13.398 63.348,14.265 C62.11,14.597 60.831,15.011 59.542,15.497 C62.984,13.716 66.533,11.906 69.499,10.687 L69.499,10.687 Z" id="Shape" fill="#00B6F1" sketch:type="MSShapeGroup"></path>
            <path d="M195.195,14.005 L209.106,1.118 L233.316,1.328 L233.519,26.496 L220.267,39.464 L195.195,39.669 L195.195,14.005 Z" id="Shape" fill="#FFFFFF" sketch:type="MSShapeGroup"></path>
            <path d="M220.74,14.347 L195.185,14.347 L209.096,1.014 L233.509,1.014 L220.74,14.347 Z" id="Shape" fill="url(#linearGradient-1)" sketch:type="MSShapeGroup"></path>
            <path d="M220.805,14.347 L195.25,14.347 L195.185,39.564 L220.805,39.511 L220.805,14.347 Z" id="Shape" fill="url(#linearGradient-2)" sketch:type="MSShapeGroup"></path>
            <path d="M233.306,1.223 L220.763,14.347 L220.703,39.564 L233.509,26.39 L233.306,1.223 Z" id="Shape" fill="url(#linearGradient-3)" sketch:type="MSShapeGroup"></path>
            <path d="M194.148,14.884 C194.148,14.113 194.616,13.044 195.182,12.519 L207.668,0.957 C208.238,0.434 209.341,0 210.116,0 L233.158,0 C233.932,0 234.567,0.636 234.567,1.408 L234.567,25.767 C234.567,26.538 234.108,27.609 233.543,28.142 L221.861,39.181 C221.301,39.714 220.202,40.148 219.429,40.148 L195.561,40.148 C194.788,40.148 194.148,39.515 194.148,38.738 L194.148,14.884 L194.148,14.884 Z M219.429,38.384 C219.757,38.384 220.414,38.12 220.657,37.898 L232.333,26.863 C232.541,26.662 232.806,26.056 232.806,25.767 L232.806,1.763 L210.117,1.763 C209.783,1.763 209.111,2.026 208.865,2.249 L196.378,13.81 C196.168,14.007 195.914,14.599 195.914,14.884 L195.914,38.384 L219.429,38.384 L219.429,38.384 Z" id="Shape" fill="#5F6062" sketch:type="MSShapeGroup"></path>
        </g>
    </g>
</svg>