<?xml version="1.0" encoding="utf-8"?>
<!-- Generator: Adobe Illustrator 16.0.0, SVG Export Plug-In . SVG Version: 6.00 Build 0)  -->
<!DOCTYPE svg PUBLIC "-//W3C//DTD SVG 1.1//EN" "http://www.w3.org/Graphics/SVG/1.1/DTD/svg11.dtd">
<svg version="1.1" id="Layer_1" xmlns="http://www.w3.org/2000/svg" xmlns:xlink="http://www.w3.org/1999/xlink" x="0px" y="0px"
	 width="336.39px" height="206.254px" viewBox="0 0 336.39 206.254" enable-background="new 0 0 336.39 206.254"
	 xml:space="preserve">
<g>
	<polygon fill="#5F6062" points="185.457,0.361 159.388,0.361 146.459,13.247 146.459,39.36 172.571,39.36 185.494,26.437 	"/>
	<polygon fill="#00B6F1" points="160.157,1.855 183.571,1.855 172.123,13.303 160.157,13.303 	"/>
	<polygon fill="#00B6F1" points="159.553,2.338 159.553,13.303 148.519,13.303 	"/>
	<polygon fill="#00B6F1" points="147.95,13.901 159.553,13.901 159.553,26.05 147.95,37.652 	"/>
	<polygon fill="#00B6F1" points="171.946,37.868 148.588,37.868 159.979,26.475 171.946,26.475 	"/>
	<rect x="160.157" y="13.901" fill="#00B6F1" width="11.789" height="11.974"/>
	<polygon fill="#00B6F1" points="172.548,37.273 172.548,26.475 183.344,26.475 	"/>
	<polygon fill="#00B6F1" points="183.944,25.875 172.548,25.875 172.548,13.724 183.968,2.303 184.007,25.812 	"/>
</g>
<g>
	<g>
		<path fill="#00B6F1" d="M1.28,184.609c-0.129-0.496-0.47-0.573-0.966-0.573H0v-1.621h0.811c1.306,0,1.906,0.236,2.219,1.518
			l3.185,12.662c0.236,0.938,0.392,1.956,0.392,1.956h0.052c0,0,0.234-1.018,0.498-1.956l4.044-14.101h1.804l3.679,14.101
			c0.263,0.938,0.418,1.956,0.418,1.956h0.054c0,0,0.182-1.018,0.418-1.956l3.183-12.662c0.315-1.281,0.916-1.518,2.221-1.518h0.808
			v1.621h-0.288c-0.52,0-0.833,0.077-0.964,0.573l-4.231,16.162h-2.166l-3.421-12.768c-0.313-1.176-0.6-2.718-0.6-2.718h-0.052
			c0,0-0.313,1.517-0.653,2.692l-3.758,12.793H5.484L1.28,184.609z"/>
		<path fill="#00B6F1" d="M26.419,184.532c0-0.367-0.208-0.575-0.573-0.575H24.75v-1.542h1.852c1.123,0,1.594,0.472,1.594,1.542
			v5.562c0,0.601-0.052,1.069-0.052,1.069h0.052c0.496-1.252,2.246-3.264,5.194-3.264c3.266,0,4.413,1.854,4.413,5.093v6.237
			c0,0.393,0.209,0.575,0.575,0.575h1.096v1.542H37.62c-1.122,0-1.592-0.471-1.592-1.592v-6.292c0-2.063-0.313-3.892-2.871-3.892
			c-2.219,0-4.153,1.54-4.753,3.732c-0.155,0.524-0.208,1.124-0.208,1.75v6.293h-1.776V184.532z"/>
		<path fill="#00B6F1" d="M47.539,187.324c3.63,0,5.509,2.795,5.509,6.06c0,0.312-0.052,0.887-0.052,0.887H42.917
			c0.054,3.316,2.377,5.221,5.093,5.221c2.4,0,3.942-1.617,3.942-1.617l0.86,1.33c0,0-1.904,1.88-4.881,1.88
			c-3.89,0-6.866-2.82-6.866-6.867C41.064,189.91,44.014,187.324,47.539,187.324z M51.22,192.86
			c-0.103-2.716-1.775-4.049-3.708-4.049c-2.166,0-4.073,1.412-4.514,4.049H51.22z"/>
		<path fill="#00B6F1" d="M56.598,189.753c0-0.365-0.209-0.575-0.573-0.575h-1.099v-1.54h1.827c1.096,0,1.592,0.444,1.592,1.49
			v0.887c0,0.547-0.05,0.992-0.05,0.992h0.05c0.628-1.986,2.088-3.499,4.153-3.499c0.365,0,0.705,0.078,0.705,0.078v1.75
			c0,0-0.313-0.054-0.655-0.054c-1.852,0-3.237,1.463-3.81,3.396c-0.262,0.834-0.367,1.723-0.367,2.56v5.534h-1.774V189.753z"/>
		<path fill="#00B6F1" d="M70.774,187.324c3.628,0,5.509,2.795,5.509,6.06c0,0.312-0.054,0.887-0.054,0.887H66.151
			c0.052,3.316,2.375,5.221,5.091,5.221c2.402,0,3.944-1.617,3.944-1.617l0.86,1.33c0,0-1.906,1.88-4.882,1.88
			c-3.889,0-6.867-2.82-6.867-6.867C64.298,189.91,67.248,187.324,70.774,187.324z M74.455,192.86
			c-0.104-2.716-1.775-4.049-3.708-4.049c-2.167,0-4.073,1.412-4.516,4.049H74.455z"/>
		<path fill="#00B6F1" d="M85.859,199.154h1.726v-15.118h-1.726v-1.621h5.248v1.621h-1.748v15.118h1.748v1.617h-5.248V199.154z"/>
		<path fill="#00B6F1" d="M99.305,187.324c3.185,0,4.281,2.454,4.281,2.454h0.055c0,0-0.055-0.442-0.055-0.992v-4.254
			c0-0.367-0.209-0.575-0.573-0.575h-1.097v-1.542h1.853c1.123,0,1.596,0.472,1.596,1.593v14.646c0,0.393,0.207,0.575,0.573,0.575
			h1.097v1.542h-1.828c-1.097,0-1.565-0.496-1.565-1.462c0-0.496,0.051-0.836,0.051-0.836h-0.051c0,0-1.072,2.61-4.518,2.61
			c-3.525,0-5.719-2.82-5.719-6.893C93.404,190.04,95.859,187.324,99.305,187.324z M103.641,194.191c0-2.663-1.36-5.274-4.177-5.274
			c-2.324,0-4.232,1.958-4.232,5.274c0,3.236,1.698,5.3,4.151,5.3C101.577,199.491,103.641,197.924,103.641,194.191z"/>
		<path fill="#00B6F1" d="M115.177,187.324c3.629,0,5.51,2.795,5.51,6.06c0,0.312-0.054,0.887-0.054,0.887h-10.076
			c0.05,3.316,2.375,5.221,5.09,5.221c2.403,0,3.942-1.617,3.942-1.617l0.862,1.33c0,0-1.906,1.88-4.882,1.88
			c-3.892,0-6.868-2.82-6.868-6.867C108.701,189.91,111.652,187.324,115.177,187.324z M118.859,192.86
			c-0.105-2.716-1.776-4.049-3.708-4.049c-2.17,0-4.072,1.412-4.518,4.049H118.859z"/>
		<path fill="#00B6F1" d="M131.048,192.678h0.732v-0.157c0-2.742-0.992-3.709-3.395-3.709c-0.653,0-2.559,0.185-2.559,1.151v0.836
			h-1.698v-1.255c0-1.828,3.134-2.22,4.282-2.22c4.151,0,5.144,2.22,5.144,5.039v6.291c0,0.393,0.21,0.575,0.575,0.575h1.097v1.542
			h-1.804c-1.121,0-1.565-0.496-1.565-1.567c0-0.574,0.027-0.967,0.027-0.967h-0.054c0.026,0-1.07,2.847-4.358,2.847
			c-2.193,0-4.466-1.279-4.466-3.889C123.007,192.834,128.778,192.678,131.048,192.678z M127.759,199.571
			c2.507,0,4.021-2.613,4.021-4.884v-0.601h-0.759c-2.062,0-6.188,0.054-6.188,3.004C124.833,198.317,125.8,199.571,127.759,199.571
			z"/>
		<path fill="#00B6F1" d="M137.549,197.559c0,0,1.462,1.986,4.046,1.986c1.464,0,2.77-0.706,2.77-2.092
			c0-2.871-7.365-2.35-7.365-6.578c0-2.375,2.038-3.551,4.675-3.551c1.331,0,3.994,0.524,3.994,2.375v1.125h-1.672v-0.629
			c0-0.963-1.408-1.329-2.271-1.329c-1.828,0-2.923,0.626-2.923,1.904c0,2.95,7.361,2.272,7.361,6.633
			c0,2.193-1.984,3.681-4.596,3.681c-3.419,0-5.038-2.297-5.038-2.297L137.549,197.559z"/>
		<path fill="#00B6F1" d="M154.671,199.154h0.341c0.471,0,0.758-0.079,0.938-0.575l6.008-16.164h1.957l6.005,16.164
			c0.185,0.496,0.443,0.575,0.939,0.575h0.315v1.617h-0.837c-1.306,0-1.696-0.263-2.167-1.515l-1.593-4.335h-7.285l-1.62,4.335
			c-0.469,1.252-0.834,1.515-2.139,1.515h-0.863V199.154z M166.082,193.33l-2.429-6.552c-0.312-0.863-0.704-2.379-0.704-2.379
			h-0.054c0,0-0.392,1.516-0.705,2.379l-2.4,6.552H166.082z"/>
		<path fill="#00B6F1" d="M173.781,189.753c0-0.365-0.208-0.575-0.576-0.575h-1.094v-1.54h1.828c1.095,0,1.592,0.444,1.592,1.49
			v0.887c0,0.547-0.054,0.992-0.054,0.992h0.054c0.625-1.986,2.087-3.499,4.15-3.499c0.366,0,0.705,0.078,0.705,0.078v1.75
			c0,0-0.313-0.054-0.651-0.054c-1.854,0-3.238,1.463-3.812,3.396c-0.264,0.834-0.367,1.723-0.367,2.56v5.534h-1.775V189.753z"/>
		<path fill="#00B6F1" d="M187.956,187.324c3.63,0,5.511,2.795,5.511,6.06c0,0.312-0.053,0.887-0.053,0.887h-10.08
			c0.054,3.316,2.378,5.221,5.093,5.221c2.403,0,3.942-1.617,3.942-1.617l0.861,1.33c0,0-1.904,1.88-4.884,1.88
			c-3.889,0-6.863-2.82-6.863-6.867C181.483,189.91,184.434,187.324,187.956,187.324z M191.638,192.86
			c-0.104-2.716-1.774-4.049-3.707-4.049c-2.168,0-4.072,1.412-4.519,4.049H191.638z"/>
		<path fill="#00B6F1" d="M204.636,184.036h-1.697v-1.621h10.497c1.121,0,1.592,0.472,1.592,1.593v1.828h-1.722v-1.227
			c0-0.391-0.211-0.573-0.576-0.573h-6.267v6.684h6.894v1.618h-6.894v6.241c0,0.391,0.21,0.575,0.576,0.575h6.446
			c0.367,0,0.576-0.185,0.576-0.575v-1.229h1.698v1.829c0,1.121-0.471,1.592-1.594,1.592h-7.937c-1.124,0-1.594-0.471-1.594-1.592
			V184.036z"/>
		<path fill="#00B6F1" d="M218.682,189.753c0-0.365-0.208-0.575-0.573-0.575h-1.097v-1.54h1.828c1.097,0,1.593,0.471,1.593,1.463
			v0.599c0,0.524-0.054,0.941-0.054,0.941h0.054c0.471-1.199,2.141-3.316,5.221-3.316c3.264,0,4.413,1.854,4.413,5.093v6.237
			c0,0.393,0.208,0.575,0.575,0.575h1.096v1.542h-1.854c-1.121,0-1.592-0.471-1.592-1.592v-6.292c0-2.063-0.314-3.892-2.848-3.892
			c-2.246,0-4.179,1.54-4.779,3.707c-0.155,0.55-0.207,1.149-0.207,1.775v6.293h-1.776V189.753z"/>
		<path fill="#00B6F1" d="M239.07,187.324c3.524,0,4.359,2.245,4.359,2.245h0.054c0,0,0-0.233,0-0.496
			c0-0.939,0.417-1.436,1.488-1.436h1.828v1.54h-1.072c-0.365,0-0.574,0.185-0.574,0.575v10.705c0,4.177-3.08,5.796-6.317,5.796
			c-1.488,0-3.004-0.391-4.283-1.044l0.678-1.488c0,0,1.619,0.913,3.552,0.913c2.559,0,4.597-1.201,4.597-4.126v-1.147
			c0-0.495,0.025-0.941,0.025-0.941h-0.052c-0.784,1.438-2.091,2.272-4.125,2.272c-3.526,0-5.851-2.794-5.851-6.735
			C233.377,190.015,235.545,187.324,239.07,187.324z M243.404,193.957c0-3.838-1.827-5.014-4.151-5.014
			c-2.56,0-4.047,1.855-4.047,4.986c0,3.133,1.697,5.171,4.281,5.171C241.577,199.101,243.404,197.821,243.404,193.957z"/>
		<path fill="#00B6F1" d="M249.799,189.753c0-0.365-0.209-0.575-0.573-0.575h-1.099v-1.54h1.854c1.123,0,1.592,0.471,1.592,1.595
			v9.422c0,0.393,0.211,0.575,0.575,0.575h1.098v1.542h-1.854c-1.125,0-1.594-0.471-1.594-1.592V189.753z M249.746,182.415h1.723
			v2.248h-1.723V182.415z"/>
		<path fill="#00B6F1" d="M256.221,189.753c0-0.365-0.209-0.575-0.576-0.575h-1.096v-1.54h1.828c1.097,0,1.593,0.471,1.593,1.463
			v0.599c0,0.524-0.054,0.941-0.054,0.941h0.054c0.471-1.199,2.142-3.316,5.221-3.316c3.265,0,4.413,1.854,4.413,5.093v6.237
			c0,0.393,0.209,0.575,0.575,0.575h1.096v1.542h-1.854c-1.121,0-1.593-0.471-1.593-1.592v-6.292c0-2.063-0.313-3.892-2.846-3.892
			c-2.246,0-4.178,1.54-4.778,3.707c-0.154,0.55-0.209,1.149-0.209,1.775v6.293h-1.774V189.753z"/>
		<path fill="#00B6F1" d="M277.34,187.324c3.627,0,5.509,2.795,5.509,6.06c0,0.312-0.054,0.887-0.054,0.887h-10.078
			c0.054,3.316,2.378,5.221,5.092,5.221c2.402,0,3.942-1.617,3.942-1.617l0.862,1.33c0,0-1.906,1.88-4.884,1.88
			c-3.89,0-6.865-2.82-6.865-6.867C270.864,189.91,273.814,187.324,277.34,187.324z M281.021,192.86
			c-0.104-2.716-1.775-4.049-3.708-4.049c-2.167,0-4.071,1.412-4.517,4.049H281.021z"/>
		<path fill="#00B6F1" d="M291.645,187.324c3.628,0,5.511,2.795,5.511,6.06c0,0.312-0.054,0.887-0.054,0.887h-10.079
			c0.054,3.316,2.378,5.221,5.093,5.221c2.403,0,3.942-1.617,3.942-1.617l0.861,1.33c0,0-1.904,1.88-4.883,1.88
			c-3.889,0-6.864-2.82-6.864-6.867C285.172,189.91,288.122,187.324,291.645,187.324z M295.327,192.86
			c-0.104-2.716-1.775-4.049-3.708-4.049c-2.167,0-4.072,1.412-4.518,4.049H295.327z"/>
		<path fill="#00B6F1" d="M300.701,189.753c0-0.365-0.209-0.575-0.576-0.575h-1.094v-1.54h1.828c1.095,0,1.591,0.444,1.591,1.49
			v0.887c0,0.547-0.053,0.992-0.053,0.992h0.053c0.626-1.986,2.088-3.499,4.151-3.499c0.366,0,0.705,0.078,0.705,0.078v1.75
			c0,0-0.313-0.054-0.651-0.054c-1.854,0-3.238,1.463-3.812,3.396c-0.264,0.834-0.367,1.723-0.367,2.56v5.534h-1.775V189.753z"/>
		<path fill="#00B6F1" d="M314.881,187.324c3.627,0,5.509,2.795,5.509,6.06c0,0.312-0.054,0.887-0.054,0.887h-10.079
			c0.052,3.316,2.377,5.221,5.092,5.221c2.403,0,3.941-1.617,3.941-1.617l0.862,1.33c0,0-1.904,1.88-4.882,1.88
			c-3.891,0-6.865-2.82-6.865-6.867C308.405,189.91,311.354,187.324,314.881,187.324z M318.56,192.86
			c-0.104-2.716-1.774-4.049-3.707-4.049c-2.167,0-4.072,1.412-4.519,4.049H318.56z"/>
		<path fill="#00B6F1" d="M328.66,187.324c3.188,0,4.283,2.454,4.283,2.454h0.051c0,0-0.051-0.442-0.051-0.992v-4.254
			c0-0.367-0.209-0.575-0.575-0.575h-1.097v-1.542h1.855c1.12,0,1.592,0.472,1.592,1.593v14.646c0,0.393,0.208,0.575,0.574,0.575
			h1.097v1.542h-1.828c-1.097,0-1.567-0.496-1.567-1.462c0-0.496,0.054-0.836,0.054-0.836h-0.054c0,0-1.071,2.61-4.518,2.61
			c-3.524,0-5.717-2.82-5.717-6.893C322.76,190.04,325.214,187.324,328.66,187.324z M332.994,194.191
			c0-2.663-1.357-5.274-4.177-5.274c-2.324,0-4.229,1.958-4.229,5.274c0,3.236,1.696,5.3,4.151,5.3
			C330.931,199.491,332.994,197.924,332.994,194.191z"/>
	</g>
</g>
<g>
	<path fill-rule="evenodd" clip-rule="evenodd" fill="#5F6062" d="M102.498,86.958c0,8.347-3.435,16.576-10.305,24.691
		c-14.37,17.003-29.446,28.973-45.218,35.918c-4.294,1.872-7.693,3.119-10.192,3.746c-0.469,0-1.173,0-2.112,0
		c-1.872,0.074-3.471-0.548-4.799-1.874c0.627-1.014,1.346-1.621,2.167-1.815c0.816-0.199,1.695-0.37,2.631-0.527
		c7.815-2.504,16.676-7.499,26.592-14.998c8.587-6.478,16.205-13.387,22.845-20.733c8.273-9.057,12.413-17.1,12.413-24.127
		c0-3.121-0.856-6.089-2.574-8.899c-1.17-1.873-3.086-3.553-5.744-5.04c-2.261-1.326-4.528-2.615-6.792-3.865
		c-0.39,0.082-0.739,0.12-1.053,0.12c-1.251,0-2.809-0.276-4.689-0.823c-2.42-0.623-3.939-1.012-4.565-1.169
		c-3.046-0.468-8.007-0.705-14.875-0.705h-0.934l-0.593,0.471c-10.542,29.287-17.998,55.287-22.369,78.017
		c-0.938-0.163-1.66-0.478-2.169-0.941c-0.506-0.471-0.996-0.941-1.463-1.407c-0.083-6.801,0.821-13.837,2.693-21.11
		c1.868-7.037,4.532-16.223,7.962-27.561c4.299-14.072,7.031-23.18,8.205-27.324c-2.035,0-4.611,0.482-7.735,1.443
		c-4.062,1.124-6.596,1.767-7.611,1.931c-0.786-0.697-1.175-1.394-1.175-2.094c0-0.62,0.233-1.312,0.706-2.09
		c2.962-2.087,8.741-3.835,17.334-5.227c1.408-2.324,2.773-3.486,4.103-3.486c1.48,0,2.846,1.092,4.092,3.279
		c10.55,0.466,18.438,1.404,23.672,2.806c8.744,2.415,15.029,6.634,18.86,12.634C101.6,79.084,102.498,82.667,102.498,86.958"/>
	<path fill-rule="evenodd" clip-rule="evenodd" fill="#5F6062" d="M123.083,101.56c0,3.553-0.583,7.815-1.756,12.773
		c-0.957,4.06-1.911,8.192-2.87,12.385c-0.107,2.666-0.478,6.225-1.114,10.673c-0.538,1.781-1.813,2.67-3.831,2.67
		c-0.641,0-1.226-0.123-1.76-0.383l-1.432-2.099c0.635-6.987,1.22-13.974,1.754-20.966c0.96-9.784,2.875-16.009,5.742-18.681
		c0.425-0.248,0.954-0.377,1.6-0.377c0.74,0,1.457,0.634,2.152,1.907C122.257,100.73,122.761,101.429,123.083,101.56"/>
	<path fill-rule="evenodd" clip-rule="evenodd" fill="#5F6062" d="M128.896,80.002v0.788c-1.357,1.979-3.347,2.971-5.949,2.971
		c-0.732,0-1.522-0.104-2.355-0.311c-2.403-1.562-3.601-3.496-3.601-5.791c0-2.606,1.356-3.908,4.071-3.908
		c1.878,0,4.283,1.093,7.209,3.285C128.687,79.121,128.896,80.11,128.896,80.002"/>
	<path fill-rule="evenodd" clip-rule="evenodd" fill="#5F6062" d="M229.941,68.194c0,0.315-0.507,2.03-1.525,5.161
		c-4.45,13.831-7.144,22.392-8.084,25.667c-2.888,10.559-4.329,19.271-4.329,26.145c0,5.005,0.543,9.069,1.636,12.198
		c-0.467,0.781-0.981,1.17-1.52,1.17c0.467,0-0.158-0.195-1.872-0.587c-2.739-3.44-4.104-8.132-4.104-14.08
		c0-5.712,1.016-12.554,3.04-20.537c1.804-6.649,3.599-13.336,5.396-20.066l1.053-4.926c-12.339,13.661-26.824,27.557-43.46,41.684
		c-3.675,3.281-9.293,7.96-16.867,14.053c-0.62,0.313-1.599,0.861-2.928,1.637c-4.453,2.809-7.888,4.221-10.303,4.221
		c-4.296,0-7.23-2.23-8.787-6.681c-0.472-1.322-0.704-3.431-0.704-6.322c0-4.129,1.331-11.232,3.985-21.301
		c2.341-8.663,4.368-15.297,6.091-19.905c2.967-8.108,6.13-14.083,9.484-17.911c0.391-0.388,0.938-0.583,1.642-0.583
		c0.312,0,1.053,0.117,2.222,0.351c0.784,0.7,1.174,1.631,1.174,2.797c0,0.234-0.037,0.545-0.116,0.934
		c-7.104,11.094-12.652,25.884-16.634,44.394c-0.472,2.033-1.057,4.996-1.758,8.899c-0.078,0.468-0.116,1.681-0.116,3.632
		c0,2.739,0.666,4.649,1.992,5.741c0.388,0.08,0.74,0.117,1.056,0.117c2.344,0,4.993-0.973,7.962-2.922
		c1.875-1.332,6.679-5.193,14.407-11.595c10.851-9.054,22.137-19.354,33.854-30.903c2.81-2.731,10.226-10.608,22.255-23.646
		c0.625-0.229,1.209-0.347,1.755-0.347c1.096,0,2.263,0.541,3.52,1.634C229.745,66.947,229.941,67.57,229.941,68.194"/>
	<path fill-rule="evenodd" clip-rule="evenodd" fill="#5F6062" d="M311.237,62.061c0,0.081-0.037,0.783-0.117,2.108
		c-3.517,3.274-5.779,4.912-6.794,4.912c-1.637,0-2.461-0.738-2.461-2.225c0-0.778,0.272-1.479,0.824-2.107
		c0.306-0.312,0.7-0.936,1.168-1.872c-2.576-1.329-5.543-1.993-8.903-1.993c-3.593,0-7.964,0.741-13.122,2.223
		c-6.638,1.957-14.018,4.802-22.138,8.549c-11.324,5.309-16.983,9.761-16.983,13.349c0,1.482,1.168,2.774,3.508,3.857
		c1.799,0.629,3.599,1.292,5.396,1.994c1.794,0.707,4.527,1.796,8.199,3.277c12.882,5.153,21.901,10.416,27.06,15.801
		c2.498,2.579,3.75,5.782,3.75,9.604c0,6.4-5.196,11.984-15.583,16.742c-8.673,3.979-16.552,5.972-23.662,5.972
		c-3.903,0-7.338-0.818-10.305-2.449c-0.478-1.321-0.705-2.448-0.705-3.381c0-0.464,0.074-1.014,0.233-1.633l2.813-1.984
		c0.936,2.108,2.54,3.161,4.806,3.161c3.588,0,7.218-0.347,10.889-1.053c8.899-1.711,16.241-4.911,22.021-9.603
		c2.424-1.953,3.629-4.295,3.629-7.023c-0.075-3.202-4.334-7.028-12.765-11.481c-1.326-0.702-7.032-3.318-17.107-7.847
		c-3.357-1.167-6.707-2.382-10.069-3.636c-3.986-1.712-6.638-3.898-7.967-6.553c-0.621-1.329-0.937-2.345-0.937-3.047
		c0-2.966,1.641-6.013,4.917-9.136c0.71-0.621,3.636-2.846,8.783-6.673c0.71-0.544,3.793-2.109,9.258-4.687
		c14.679-6.869,26.36-10.307,35.022-10.307c4.766,0,9.451,0.779,14.058,2.34C310.14,59.449,311.237,61.049,311.237,62.061"/>
</g>
<g>
	<path fill="#00B6F1" d="M80.166,9.237c-2.572,1.053-6.595,2.844-8.815,4.084l-0.411-0.452l-0.231-4.083
		c2.63-1.477,5.315-2.587,7.879-3.643L80.166,9.237"/>
	<path fill-rule="evenodd" clip-rule="evenodd" fill="#5F6062" d="M71.874,2.257c0.085-0.005,0.167-0.008,0.25-0.008l0.003,0.125
		C71.877,2.308,72.021,2.39,71.874,2.257"/>
	<path fill-rule="evenodd" clip-rule="evenodd" fill="#5F6062" d="M71.397,2.891c0.142,0.136,0.047,0,0.134,0.247l-0.127,0.001
		C71.404,3.059,71.397,2.977,71.397,2.891"/>
	<path fill-rule="evenodd" clip-rule="evenodd" fill="#5F6062" d="M105.749,4.485c0.186,0.087,0.051-0.015,0.202,0.192l-0.118,0.042
		C105.803,4.644,105.777,4.564,105.749,4.485"/>
	<g>
		<polygon fill="#5F6062" points="107.688,33.787 107.686,33.787 107.681,33.794 		"/>
		<path fill="#5F6062" d="M107.697,34.149c0.077-0.079,0.072-0.152,0.061-0.222c0,0,0.005,0,0.005-0.003
			c0-0.004-0.007-0.004-0.007-0.006c0-0.009,0-0.018-0.002-0.025l-0.019,0.003c-0.01-0.037-0.043-0.054-0.077-0.074l0.023-0.04
			l-0.008,0.017l0.012-0.012l-0.005-0.012l-0.029-0.086c-0.015-0.049-0.045-0.13-0.102-0.205c-0.023-0.217-0.017-0.252-0.01-0.278
			c0.008-0.048,0.008-0.129-0.004-0.277c0.054-0.026,0.115-0.05,0.115-0.113c0-0.002-0.007-0.002-0.007-0.005h0.007
			c-0.007-0.163-0.008-0.327-0.017-0.498h-0.005c-0.002-0.059-0.059-0.079-0.106-0.107l0.017-0.033
			c-0.054-0.025-0.106-0.051-0.158-0.076c-0.012-0.382-0.021-0.761-0.037-1.141h-0.005c-0.002-0.065-0.062-0.098-0.12-0.121
			c0.057-0.023,0.12-0.052,0.12-0.118c0-0.004-0.005-0.004-0.007-0.007h0.007c-0.012-0.334-0.021-0.661-0.032-0.996h-0.007
			c-0.001-0.031-0.041-0.033-0.058-0.057c0.017-0.027,0.062-0.027,0.062-0.061c0-0.004-0.004-0.004-0.004-0.007h0.004
			c-0.002-0.121-0.007-0.25-0.009-0.374h-0.009c-0.007-0.085-0.072-0.159-0.158-0.159c-0.002,0-0.002,0.007-0.004,0.007v-0.007
			c-0.028,0.004-0.057,0.004-0.085,0.004c-0.006-0.18-0.012-0.359-0.017-0.54c0.028,0,0.055-0.002,0.085-0.003v-0.004
			c0.088-0.003,0.158-0.07,0.158-0.16c0-0.007-0.012-0.005-0.012-0.012l0.012-0.002c-0.01-0.14-0.054-0.262-0.087-0.353l-0.018-0.04
			c0.034-0.027,0.079-0.037,0.083-0.082h0.008c0.029-0.411,0.055-0.826,0.087-1.244h-0.009c0-0.003,0.009-0.003,0.009-0.008
			c0-0.042-0.047-0.045-0.07-0.073c0.016-0.034,0.031-0.071,0.05-0.104l-0.041-0.021c0.015-0.023,0.055-0.023,0.055-0.052
			c0-0.07-0.066-0.097-0.124-0.12c0.016-0.777,0.032-1.558,0.048-2.34c0.036-0.317,0.361-1.025,0.199-1.643
			c0-0.002,0.003-0.002,0.003-0.002s-0.005-0.002-0.005-0.003c-0.005-0.018,0-0.036-0.005-0.054l-0.035,0.013
			c-0.019-0.04-0.042-0.072-0.086-0.088c-0.004-0.081-0.005-0.165-0.009-0.244h-0.005c0-0.031-0.039-0.032-0.057-0.056
			c0.019-0.025,0.062-0.027,0.062-0.061c0-0.004-0.008-0.004-0.008-0.009h0.008l-0.005-0.126h-0.007
			c-0.003-0.029-0.041-0.033-0.058-0.057c0.017-0.025,0.058-0.026,0.058-0.059c0-0.004-0.007-0.004-0.007-0.007h0.007
			c0-0.123-0.007-0.248-0.008-0.374c0.055-0.023,0.119-0.055,0.119-0.122c0-0.003-0.005-0.003-0.005-0.005h0.005l-0.005-0.119
			h-0.005c-0.002-0.068-0.061-0.101-0.118-0.124c-0.024-0.706-0.048-1.408-0.068-2.111c-0.005-0.222-0.014-0.441-0.017-0.663
			l0.023-0.019c0.064-0.056,0.082-0.176,0.071-0.292c0.002-0.011,0.019-0.007,0.019-0.019c0-0.005-0.012-0.005-0.012-0.011
			c0-0.01,0.011-0.015,0.007-0.024l-0.023,0.006c-0.018-0.05-0.052-0.084-0.102-0.099c-0.009-0.29-0.021-0.577-0.025-0.865h-0.005
			c0-0.039-0.044-0.043-0.067-0.069c0.017-0.036,0.033-0.069,0.049-0.106l-0.035-0.017c0.014-0.023,0.05-0.023,0.05-0.051
			c0-0.068-0.061-0.093-0.115-0.118l-0.008-0.016c0.05-0.021,0.099-0.049,0.104-0.103h0.011c0-0.003-0.004-0.003-0.002-0.008
			c0-0.002,0.003-0.002,0.003-0.005c0-0.006-0.008-0.004-0.008-0.009c0.008-0.137-0.032-0.258-0.101-0.319
			c-0.015-0.014-0.017-0.007-0.03-0.017c-0.006-0.067,0.006-0.106,0.013-0.116l0.006-0.012h0.002l0,0l0.004-0.002l-0.014-0.019
			l-0.007-0.014c0.055-0.026,0.115-0.05,0.115-0.116c-0.01-0.297-0.017-0.586-0.025-0.874h-0.005
			c-0.002-0.062-0.062-0.084-0.112-0.109c0.023-0.455,0.048-0.913,0.073-1.367h-0.007c0-0.003,0.007-0.003,0.007-0.006
			c0-0.024-0.034-0.024-0.043-0.044l0.035-0.011c-0.187-0.583-0.282-1.258-0.308-2.058h-0.002c-0.002-0.03-0.042-0.034-0.061-0.059
			C106.7,11,106.742,11,106.742,10.966c0-0.003-0.005-0.003-0.005-0.005h0.005c-0.012-0.377-0.022-0.748-0.032-1.123
			c0.056-0.025,0.12-0.054,0.12-0.119c0-0.002-0.002-0.002-0.002-0.002h0.002c-0.002-0.047-0.003-0.089-0.005-0.131
			c0.058-0.027,0.121-0.051,0.121-0.12c0-0.019-0.027-0.015-0.033-0.032l0.03-0.007c-0.051-0.206-0.098-0.409-0.144-0.612
			l-0.021,0.005c-0.017-0.05-0.053-0.078-0.101-0.099c0.009-0.02,0.042-0.018,0.042-0.042c0-0.008-0.013-0.006-0.013-0.015h0.013
			c-0.017-0.216,0.004-0.251,0.022-0.369c0.019-0.124,0.008-0.272-0.083-0.569l-0.028,0.01c-0.008-0.021-0.028-0.027-0.042-0.041
			c0.005-0.02,0.034-0.017,0.034-0.037c0-0.023-0.032-0.023-0.041-0.043l0.037-0.014c-0.01-0.025-0.019-0.052-0.026-0.077
			c0.023-0.01,0.052-0.021,0.077-0.029l-0.011-0.033c0.058-0.023,0.119-0.052,0.119-0.121c0-0.023-0.033-0.022-0.041-0.042
			l0.034-0.012c-0.022-0.064-0.045-0.129-0.066-0.194c0.066-0.023,0.13-0.045,0.197-0.069l-0.014-0.035
			c0.058-0.025,0.121-0.057,0.121-0.121c0-0.023-0.033-0.023-0.043-0.043l0.037-0.012l-0.041-0.119l-0.037,0.014
			c-0.024-0.06-0.054-0.125-0.121-0.125c-0.006,0-0.005,0.012-0.01,0.012l-0.002-0.012c-0.09,0.005-0.134,0.005-0.153,0.005h-0.017
			h-0.037c-0.027,0.023-0.032,0.027-0.051,0.041c-0.038-0.094-0.08-0.208-0.102-0.267l-0.032-0.109l-0.005-0.025l0.014-0.012
			c0.035-0.025,0.115-0.08,0.213-0.161l-0.03-0.037c0.035-0.03,0.089-0.041,0.089-0.093c0-0.026-0.035-0.026-0.046-0.046
			l0.034-0.014c-0.051-0.125-0.128-0.229-0.189-0.312l-0.026-0.032c0.02-0.027,0.065-0.029,0.065-0.064
			c0-0.023-0.032-0.022-0.042-0.041l0.03-0.01c-0.025-0.083-0.051-0.163-0.081-0.24l-0.037,0.013
			c-0.023-0.06-0.049-0.124-0.117-0.124c-0.006,0-0.004,0.009-0.009,0.009l-0.002-0.009c-0.09,0.009-0.132,0.009-0.15,0.005h-0.019
			h-0.037c-0.026,0.02-0.03,0.023-0.047,0.035c-0.024-0.069-0.05-0.134-0.071-0.204c0.03-0.017,0.062-0.017,0.078-0.064
			c0.007-0.03-0.003-0.03-0.007-0.051h0.004c0.003-0.25,0.006-0.502,0.013-0.752h-0.007c0.002-0.003,0.007-0.003,0.007-0.006
			c0-0.071-0.066-0.109-0.132-0.129l0.007-0.029c-0.165-0.041-0.29-0.142-0.442-0.192l0.018-0.098l-0.019-0.003
			c0.003-0.014,0.025-0.01,0.025-0.028c0-0.074-0.068-0.118-0.139-0.136l0.005-0.027l-0.065-0.012
			c-0.127-0.229-0.327-0.346-0.479-0.32c-0.155,0.007-0.247,0.015-0.406-0.07c-0.019-0.065-0.035-0.129-0.054-0.193l-0.03,0.01
			c-0.019-0.051-0.049-0.092-0.103-0.105l0.003-0.021c-0.241-0.045-0.489-0.091-0.73-0.138l-0.005,0.027
			c-0.014-0.007-0.01-0.028-0.027-0.028c-0.056,0-0.074,0.059-0.102,0.103c-0.128-0.022-0.251-0.045-0.376-0.071l-0.005,0.027
			c-0.014-0.003-0.014-0.027-0.026-0.027c-0.083,0-0.136,0.067-0.149,0.148c-0.057-0.025-0.114-0.052-0.171-0.077l-0.018,0.037
			c-0.023-0.015-0.023-0.054-0.055-0.054c-0.024,0-0.024,0.037-0.048,0.049c-0.006-0.005-0.007-0.008-0.013-0.012l0.021-0.041
			c-0.114-0.062-0.229-0.125-0.344-0.189l-0.021,0.037c-0.024-0.015-0.026-0.057-0.057-0.057c-0.038,0-0.041,0.045-0.068,0.067
			c-0.014-0.019-0.023-0.035-0.04-0.074c-0.034-0.087-0.158-0.283-0.385-0.27V2.124c-0.003,0,0,0.002-0.003,0.002l-0.002-0.002
			l-0.002,0.005c-0.04,0.001-0.048,0.048-0.078,0.075c-0.026-0.027-0.057-0.06-0.11-0.104c-0.062-0.059-0.206-0.104-0.324-0.054
			c-0.104,0.037-0.195,0.128-0.302,0.243c-0.025-0.015-0.027-0.058-0.06-0.058c-0.012,0-0.01,0.021-0.023,0.024l-0.003-0.021
			c-0.227,0.042-0.454,0.08-0.682,0.119c0-0.019,0-0.039-0.001-0.059h-0.009c-0.004-0.083-0.068-0.144-0.146-0.15v-0.01
			c-0.415-0.027-0.826-0.057-1.242-0.087L98.608,2.06c-0.007-0.003-0.005-0.013-0.012-0.013c-0.034,0-0.034,0.04-0.061,0.059
			c-0.016-0.028-0.03-0.057-0.048-0.087L98.45,2.04c-0.021-0.034-0.037-0.068-0.076-0.08l0.006-0.025
			c-0.131-0.03-0.256-0.057-0.384-0.086c-0.01-0.081-0.07-0.15-0.155-0.15c-0.034,0-0.034,0.041-0.061,0.058l-0.019-0.038
			c-0.114,0.063-0.231,0.125-0.348,0.186c-0.012-0.01-0.015-0.023-0.028-0.03l0.01-0.032c-0.088-0.021-0.176-0.048-0.263-0.076V1.76
			h-0.004c-0.003-0.088-0.072-0.159-0.16-0.159c-0.019,0-0.019,0.03-0.037,0.037l-0.008-0.034c-0.171,0.067-0.255,0.161-0.317,0.229
			c-0.023-0.015-0.023-0.054-0.053-0.054c-0.002,0-0.002,0.003-0.005,0.003V1.78c-0.051,0-0.098,0.003-0.146,0.005
			c-0.029-0.052-0.06-0.103-0.084-0.157l-0.04,0.022c-0.026-0.042-0.045-0.092-0.098-0.098l0.002-0.012
			c-0.431-0.023-0.854-0.05-1.278-0.075c-0.029-0.054-0.06-0.109-0.086-0.165l-0.041,0.021c-0.026-0.047-0.049-0.109-0.108-0.109
			c-0.013,0-0.013,0.023-0.024,0.027l-0.006-0.022c-0.202,0.039-0.407,0.079-0.61,0.119c-0.03-0.043-0.043-0.103-0.103-0.103
			c-0.002,0-0.002,0.005-0.006,0.005V1.235c-0.04,0.002-0.082,0.005-0.124,0.005c-0.023-0.048-0.049-0.092-0.101-0.102l0.001-0.013
			c-0.005,0-0.008,0.003-0.012,0.003c-0.007,0-0.004-0.007-0.011-0.007s-0.005,0.012-0.014,0.013
			c-0.31,0.003-0.516,0.166-0.641,0.188c-0.03-0.04-0.043-0.096-0.097-0.096c-0.019,0-0.017,0.023-0.031,0.029l-0.007-0.027
			c-0.162,0.039-0.324,0.075-0.483,0.112C92.37,1.297,92.354,1.24,92.301,1.24c-0.003,0-0.003,0.006-0.007,0.006V1.24
			c-0.124,0.003-0.249,0.008-0.374,0.012c-0.026-0.057-0.056-0.12-0.12-0.12c-0.005,0-0.003,0.008-0.008,0.01v-0.01
			c-0.411,0.013-0.828,0.025-1.243,0.039c-0.025-0.056-0.055-0.12-0.12-0.12c-0.003,0-0.003,0.005-0.005,0.005V1.051
			c-0.082,0.002-0.167,0.003-0.251,0.005C90.146,1,90.118,0.938,90.053,0.938c-0.012,0-0.01,0.019-0.021,0.022l-0.004-0.018
			c-0.145,0.021-0.219,0.102-0.262,0.119c-0.032,0.017-0.059,0.025-0.119,0.022l-0.022-0.032c-0.059-0.077-0.188-0.112-0.312-0.087
			c-0.002,0-0.002-0.003-0.004-0.003c-0.001,0,0,0.003-0.003,0.003c-0.014,0.002-0.025-0.003-0.037,0l0.007,0.03
			c-0.014,0.003-0.017,0.02-0.031,0.03c-0.014-0.012-0.017-0.034-0.033-0.039l0.003-0.022c-0.01-0.001-0.015,0.003-0.023,0.002
			c-0.003,0-0.002-0.003-0.003-0.003c-0.004,0-0.004,0.003-0.004,0.003c-0.354-0.055-0.59,0.069-0.731,0.169
			c-0.132,0.083-0.214,0.122-0.385,0.114c-0.019-0.045-0.047-0.083-0.095-0.097l0.004-0.022c-0.007-0.001-0.017,0.002-0.025,0
			c-0.002,0-0.002-0.005-0.005-0.005c-0.002,0-0.002,0.005-0.004,0.005c-0.086-0.013-0.169,0.005-0.235,0.045
			c-0.036-0.017-0.072-0.027-0.104-0.037l-0.006,0.024c-0.013-0.003-0.01-0.025-0.024-0.025c-0.004,0-0.004,0.008-0.007,0.008V1.137
			c-0.248,0.008-0.498,0.015-0.744,0.025c-0.027-0.059-0.058-0.121-0.123-0.121c-0.005,0-0.003,0.006-0.008,0.008V1.041
			c-0.255,0.048-0.344,0.141-0.493,0.138C86.178,1.132,86.153,1.091,86.1,1.08l0.004-0.022c-0.203-0.03-0.415-0.071-0.624-0.101
			l-0.003,0.021c-0.012-0.003-0.011-0.025-0.023-0.025c-0.069,0-0.104,0.065-0.128,0.128c-0.164,0.005-0.332,0.01-0.493,0.015V1.1
			c-0.023,0.002-0.023,0.034-0.044,0.045c-0.039-0.041-0.078-0.083-0.13-0.131c-0.12-0.118-0.312-0.25-0.555-0.216
			c-0.007-0.001-0.005-0.01-0.011-0.01c-0.005,0-0.003,0.007-0.01,0.007c-0.01,0.003-0.019-0.005-0.03-0.003
			c-0.069,0.023-0.093,0.059-0.106,0.074l-0.012,0.023c-0.025-0.03-0.035-0.069-0.076-0.076l0.002-0.017
			C83.57,0.764,83.28,0.73,82.99,0.7l-0.003,0.015C82.98,0.714,82.98,0.7,82.969,0.7c-0.091,0-0.163,0.067-0.163,0.162h0.002
			l-0.002,0.001c0.002,0.03,0.002,0.059,0.002,0.087c-0.236,0.006-0.473,0.013-0.705,0.023v0.003
			c-0.064,0.003-0.093,0.062-0.114,0.119c-0.112,0.002-0.264-0.01-0.445-0.013c-0.021-0.064-0.06-0.131-0.135-0.131
			c0,0,0,0.001-0.002,0.001V0.952c-0.169,0.005-0.333,0.008-0.498,0.012v0.005c-0.064,0.002-0.093,0.062-0.118,0.12
			c-0.023-0.005-0.061,0-0.077-0.008l-0.032-0.025l-0.007-0.01l-0.038,0.03c-0.03-0.04-0.045-0.097-0.099-0.097
			c-0.017,0-0.016,0.027-0.03,0.03L80.5,0.98c-0.178,0.043-0.357,0.084-0.536,0.127c-0.074-0.069-0.199-0.121-0.404-0.089
			c-0.008-0.002-0.008-0.014-0.015-0.014s-0.005,0.01-0.01,0.01c-0.014,0.003-0.021-0.007-0.034-0.003l0.007,0.03
			c-0.038,0.014-0.059,0.042-0.077,0.079c-0.329-0.027-0.66-0.054-0.988-0.081L78.44,1.053c-0.007-0.002-0.005-0.012-0.012-0.012
			c-0.064,0-0.084,0.061-0.113,0.114l-0.038-0.019c-0.024,0.054-0.048,0.107-0.073,0.161c-0.255,0.006-0.512,0.015-0.77,0.023
			c-0.021-0.049-0.049-0.091-0.101-0.103l0.002-0.02c-0.006,0-0.011,0.004-0.018,0.004c-0.003,0-0.001-0.006-0.005-0.006
			c-0.005,0-0.005,0.009-0.008,0.009c-0.307,0.007-0.582,0.176-0.86,0.145C76.42,1.294,76.387,1.23,76.322,1.23
			c-0.005,0-0.005,0.007-0.008,0.007V1.23c-0.304,0.008-0.592,0.047-0.877,0.067c-0.027-0.056-0.051-0.119-0.115-0.119
			c0,0,0,0.003-0.003,0.003V1.179l-0.125,0.003v0.003c-0.075,0.003-0.12,0.066-0.135,0.139c-0.637,0.111-1.279,0.079-1.432,0.035
			L73.62,1.388c-0.017-0.005-0.015-0.034-0.032-0.034c-0.068,0-0.1,0.065-0.124,0.127l-0.035-0.01
			c-0.027,0.096-0.056,0.19-0.081,0.289c-0.1,0.023-0.156,0.03-0.213,0.034c-0.076,0-0.191-0.003-0.398,0.023
			c-0.01,0-0.013,0-0.023,0.001l0.003,0.021c-0.076,0.015-0.145,0.065-0.145,0.139c0,0.003,0.006,0.003,0.006,0.007h-0.006
			c0.001,0.048,0.003,0.092,0.005,0.135c-0.324,0.132-0.41,0.28-0.729,0.349l0.008,0.028c-0.049,0.014-0.077,0.048-0.096,0.092
			l-0.032-0.008c-0.102,0.337-0.203,0.676-0.308,1.016c-0.042,0.001-0.084,0.003-0.127,0.005v0.007
			c-0.081,0.003-0.142,0.069-0.149,0.148c-0.007-0.003-0.014-0.007-0.02-0.01l-0.017,0.039c-0.023-0.015-0.023-0.055-0.054-0.055
			c-0.092,0-0.162,0.072-0.162,0.169c0,0,0.001,0,0.001,0.001h-0.001v0.042c-0.083,0.064-0.163,0.13-0.212,0.169
			c-0.066,0.055-0.122,0.094-0.277,0.143l0.011,0.03c-0.064,0.022-0.128,0.056-0.128,0.127c0,0.023,0.034,0.023,0.04,0.044
			l-0.032,0.01l0.025,0.1l0.006,0.021l0.01,0.04c0.019,0.056,0.047,0.069,0.061,0.079c-0.003,0.007-0.007,0.029-0.007,0.03
			c-0.028,0.003-0.14,0.017-0.265,0.111l0.029,0.038c0,0-0.003,0.001-0.003,0.003c-0.036-0.017-0.071-0.035-0.105-0.048
			l-0.017,0.034c-0.024-0.014-0.024-0.055-0.052-0.055c-0.093,0-0.167,0.075-0.167,0.166c0,0.003,0.007,0.003,0.007,0.007h-0.007
			c0.012,0.371,0.02,0.743,0.034,1.115h0.003c0.003,0.09,0.075,0.163,0.166,0.163c0,0,0-0.002,0.001-0.002v0.002
			c0.029-0.002,0.056-0.002,0.084-0.003c0,0.028,0,0.055,0.001,0.084h0.003c0.003,0.084,0.073,0.157,0.164,0.157
			c0.001,0,0.001-0.002,0.001-0.002v0.002c0.007,0,0.014,0,0.021,0c-0.003,0.015-0.009,0.03-0.014,0.043h-0.003v0.003
			c-0.087,0.003-0.159,0.074-0.159,0.166c0,0,0.003,0,0.003,0.002h-0.003l0.003,0.125h0.003c0.003,0.069,0.065,0.106,0.125,0.127
			c0.001,0.04,0.001,0.081,0.003,0.121c-0.057,0.023-0.124,0.054-0.124,0.121c0,0.024,0.036,0.024,0.044,0.044l-0.032,0.01
			c0.028,0.077,0.057,0.154,0.084,0.232c-0.03,0.03-0.084,0.037-0.084,0.084c0,0.003,0.005,0.003,0.006,0.006h-0.006
			c0.006,0.235,0.015,0.469,0.021,0.706h-0.086v0.007c-0.086,0.003-0.155,0.067-0.155,0.155c0,0.005,0.003,0.005,0.007,0.008h-0.007
			c0.007,0.251,0.014,0.498,0.021,0.746h0.003c0.003,0.069,0.064,0.103,0.125,0.124c-0.055,0.025-0.119,0.054-0.119,0.118
			c0,0.003,0.008,0.003,0.008,0.007h-0.008c0.005,0.206,0.012,0.415,0.019,0.624h0.005c0.001,0.031,0.041,0.033,0.056,0.058
			c-0.015,0.024-0.057,0.024-0.057,0.057c0,0.003,0.003,0.003,0.003,0.007h-0.003c0.008,0.277,0.017,0.552,0.027,0.828
			c-0.029,0.002-0.057,0.002-0.086,0.002v0.006c-0.086,0.007-0.161,0.069-0.161,0.159c0,0.003,0.005,0.003,0.005,0.005h-0.005
			c0.003,0.083,0.005,0.163,0.007,0.25h0.005c0.005,0.086,0.072,0.157,0.161,0.157c0.003,0,0.003-0.003,0.005-0.003v0.003
			c0.009,0,0.014,0,0.022,0c-0.128,0.315-0.119,0.601,0.027,0.912c-0.006,0-0.017,0-0.023,0v0.006
			c-0.085,0.007-0.159,0.078-0.159,0.162c0,0.017,0.028,0.015,0.034,0.034l-0.027,0.005c0.037,0.16,0.074,0.322,0.114,0.483
			c-0.04,0.031-0.097,0.047-0.097,0.101c0,0.001,0.003,0.001,0.003,0.001h-0.003c0.01,0.374,0.019,0.748,0.03,1.12
			c0.019,0.658-0.059,1.011,0.03,1.574c-0.023,0.001-0.044,0.001-0.067,0.001v0.007c-0.084,0.007-0.158,0.071-0.158,0.161
			c0,0.013,0.022,0.012,0.025,0.023l-0.025,0.005c0.049,0.232,0.155,1.091,0.069,1.572c-0.072,0.017-0.144,0.062-0.144,0.14
			c0,0.003,0.007,0.003,0.008,0.007h-0.008c0.01,0.204,0.015,0.413,0.022,0.623h0.007c0.003,0.065,0.063,0.099,0.124,0.121
			c0.01,0.385,0.02,0.768,0.032,1.152l-0.065,0.025c-0.129,0.055-0.196,0.241-0.166,0.435l0,0v0.001
			c0.001,0.009-0.003,0.016,0,0.026l0.022-0.003c0.012,0.055,0.054,0.094,0.113,0.11c-0.003,0.03-0.01,0.054-0.023,0.081
			c-0.017,0.04-0.093,0.129-0.102,0.278h0.003c0,0.002-0.003,0.002-0.003,0.002c0,0.064,0.064,0.085,0.115,0.111l-0.019,0.037
			c0.062,0.03,0.121,0.058,0.18,0.084c0.082,0.26-0.125,0.51-0.111,0.876c0,0.002-0.003,0.002-0.003,0.005
			c0,0.004,0.003,0.004,0.003,0.004c0,0.01-0.003,0.017-0.002,0.026l0.022-0.005c0.012,0.04,0.047,0.056,0.077,0.079
			c-0.027,0.162-0.054,0.325-0.081,0.493l0.022,0.003c-0.002,0.014-0.022,0.01-0.022,0.023c0,0.076,0.065,0.121,0.138,0.138
			c0.146,0.699-0.084,1.674-0.191,2.19l0.03,0.007c-0.007,0.014-0.03,0.014-0.03,0.028c0,0.021,0.034,0.021,0.043,0.042
			l-0.037,0.014c0.03,0.077,0.059,0.155,0.085,0.236c-0.032,0.026-0.082,0.033-0.082,0.08c0,0.009,0.013,0.007,0.013,0.016
			l-0.013,0.002c0.054,0.574,0.111,1.154,0.168,1.73c-0.052,0.03-0.113,0.054-0.113,0.115c0,0.004,0.005,0.004,0.005,0.007h-0.005
			c0.002,0.086,0.005,0.179,0.008,0.269c-0.05,0.028-0.104,0.057-0.155,0.085l0.02,0.037c-0.047,0.027-0.107,0.046-0.107,0.108
			c0,0.037,0.047,0.041,0.067,0.067l-0.035,0.025c0.052,0.074,0.104,0.146,0.157,0.222c-0.013,0.023-0.052,0.023-0.052,0.05
			c0,0.012,0.019,0.011,0.022,0.022l-0.022,0.003c0.047,0.33,0.093,0.657,0.14,0.987c-0.047,0.028-0.107,0.047-0.107,0.107
			c0,0.002,0.005,0.002,0.005,0.003h-0.005c0.007,0.169,0.012,0.334,0.017,0.501c-0.057,0.025-0.124,0.053-0.124,0.121
			c0,0.003,0.005,0.003,0.005,0.005h-0.005c0.012,0.328,0.023,0.66,0.032,0.992h0.005c0.001,0.05,0.053,0.059,0.085,0.087
			c-0.012,0.04-0.023,0.079-0.035,0.119c-0.045,0.002-0.088,0.004-0.132,0.004v0.005c-0.084,0.005-0.159,0.074-0.159,0.162
			c0,0.002,0.005,0.002,0.005,0.005h-0.005c0.003,0.123,0.005,0.246,0.011,0.373h0.003c0.003,0.086,0.072,0.157,0.16,0.157
			c0.034,0,0.032-0.041,0.059-0.058l0.021,0.04c0.008-0.005,0.017-0.01,0.025-0.013c0.005,0.03,0.042,0.037,0.062,0.061
			c-0.023,0.07-0.041,0.162-0.05,0.26c-0.034,0-0.065,0.001-0.1,0.003v0.004c-0.089,0.003-0.163,0.072-0.163,0.162
			c0,0.003,0.006,0.003,0.006,0.007h-0.006c0.008,0.201,0.015,0.411,0.02,0.616h0.003c0.003,0.083,0.07,0.146,0.153,0.152
			c-0.042,0.042-0.077,0.077-0.103,0.113l-0.037,0.112l0.029,0.088c-0.079,0.011-0.15,0.072-0.15,0.155
			c0,0.023,0.034,0.023,0.04,0.042l-0.03,0.013c0.042,0.114,0.083,0.229,0.125,0.337c-0.023,0.482-0.047,0.962-0.067,1.437
			c-0.034,0.004-0.066,0.004-0.098,0.005v0.009c-0.087,0.003-0.16,0.064-0.16,0.152c0,0.019,0.028,0.017,0.033,0.033l-0.025,0.007
			c0.045,0.206,0.091,0.412,0.14,0.615l0.028-0.008c0.005,0.017,0.023,0.02,0.034,0.034c-0.017,0.021-0.047,0.023-0.05,0.052
			l-0.012-0.001c0,0.003,0.003,0.005,0.003,0.008c0,0.002-0.003,0.002-0.003,0.004c0,0.003,0.005,0.001,0.005,0.005
			c-0.007,0.147,0.025,0.28,0.122,0.349c0.003,0.002,0.003,0.002,0.01,0.005c0.007,0.253,0.015,0.507,0.021,0.76h0.006
			c0.003,0.057,0.059,0.08,0.106,0.107l-0.017,0.038c0.135,0.062,0.275,0.124,0.414,0.188c0.001,0.049,0.003,0.099,0.003,0.147
			h0.005c0.003,0.067,0.062,0.096,0.123,0.119l-0.01,0.034c0.105,0.031,0.206,0.062,0.307,0.092c0.073,0.192,0.163,0.31,0.257,0.36
			l0.112,0.061c0.033,0.027,0.074,0.064,0.129,0.142l0.039-0.026c0.03,0.037,0.043,0.094,0.095,0.094
			c0.003,0,0.003-0.003,0.007-0.003v0.003c0.163-0.003,0.331-0.007,0.496-0.013v-0.004c0.074-0.003,0.118-0.065,0.135-0.135
			c0.03-0.003,0.06-0.007,0.091-0.013c0.017,0.07,0.064,0.139,0.141,0.139c0.021,0,0.017-0.028,0.034-0.035l0.01,0.034
			c0.12-0.037,0.241-0.071,0.361-0.104c0.03,0.037,0.041,0.093,0.094,0.093v-0.002v0.002c0.166-0.005,0.334-0.009,0.496-0.016l0,0
			c0.037-0.003,0.037-0.044,0.064-0.063c0.025,0.017,0.027,0.057,0.061,0.057c0.001,0,0.001-0.003,0.003-0.003v0.003h0.122v-0.001
			c0.067-0.002,0.101-0.064,0.125-0.127c0.082-0.003,0.166-0.006,0.247-0.006v-0.006c0.088-0.004,0.159-0.072,0.159-0.16
			c0-0.003-0.005-0.003-0.007-0.007h0.007c0-0.042-0.001-0.084-0.003-0.127c0.071-0.026,0.138-0.052,0.209-0.079
			c0.111,0.017,0.563,0.311,0.988,0.21c0.003,0,0.003,0.006,0.007,0.006s0.003-0.01,0.008-0.01c0.018-0.005,0.036,0,0.053-0.005
			l-0.014-0.035c0.027-0.014,0.047-0.035,0.062-0.065l0.039,0.018c0.017-0.042,0.037-0.084,0.057-0.126c0,0.017,0,0.035,0,0.052
			h0.005c0.003,0.088,0.069,0.157,0.157,0.157c0.01,0,0.01-0.016,0.02-0.019l0.002,0.019c0.496-0.052,0.99-0.106,1.484-0.161
			c0.029,0.051,0.049,0.112,0.109,0.112c0.003,0,0.003-0.003,0.005-0.003v0.003c0.084,0,0.17-0.003,0.258-0.007
			c0.02,0.046,0.043,0.084,0.092,0.096l-0.003,0.021c0.008,0,0.012-0.005,0.019-0.005c0.003,0.001,0.003,0.007,0.007,0.007
			c0.007,0,0.005-0.011,0.01-0.011c0.326,0,0.498-0.155,0.739-0.135c0.026,0.058,0.055,0.12,0.12,0.12
			c0.002,0,0.002-0.002,0.002-0.002v0.002c0.212-0.005,0.417-0.009,0.623-0.019v-0.004c0.034-0.003,0.036-0.043,0.06-0.061
			c0.015,0.011,0.017,0.029,0.031,0.034l-0.005,0.023c0.164,0.04,0.335,0.07,0.501,0.107l0.005-0.023
			c0.016,0.004,0.014,0.03,0.029,0.03c0.092,0,0.162-0.074,0.162-0.168c0,0-0.002,0-0.002-0.002h0.002c0-0.008,0-0.015,0-0.021
			c0.054,0.015,0.106,0.03,0.162,0.047l0.009-0.03c0.019,0.005,0.015,0.035,0.036,0.035c0.046,0,0.053-0.052,0.083-0.083
			c0,0.014,0,0.027,0,0.041h0.005c0.003,0.084,0.073,0.145,0.154,0.153v0.008c0.459,0.027,0.917,0.048,1.374,0.073
			c0.021,0.065,0.059,0.132,0.134,0.132c0.003,0,0.003-0.006,0.005-0.006v0.006l0.123-0.006v-0.003
			c0.061-0.003,0.082-0.061,0.108-0.112c0.032,0.005,0.087,0.005,0.098,0.012l0.02,0.015l0.004,0.002l0.017-0.017l0.017-0.011
			c0.03,0.044,0.048,0.104,0.104,0.104c0.024,0,0.024-0.035,0.045-0.044l0.012,0.034c0.077-0.029,0.154-0.058,0.234-0.084
			c0.028,0.028,0.035,0.082,0.081,0.082c0.003,0,0.003-0.009,0.01-0.009v0.009c0.079-0.005,0.164-0.005,0.246-0.009
			c0.019,0.041,0.044,0.071,0.088,0.088l-0.009,0.027c0.012,0.003,0.025,0,0.037,0.003c0.003,0,0.003,0.007,0.009,0.007
			c0.003,0,0.003-0.007,0.006-0.007c0.257,0.051,0.576,0.003,0.875-0.052c0.154-0.032,0.297-0.066,0.407-0.09l0.101-0.019
			c0.026,0.053,0.054,0.103,0.079,0.151l0.04-0.021c0.017,0.03,0.035,0.054,0.067,0.067l-0.01,0.034
			c0.017,0.004,0.02-0.01,0.037-0.008c0.007,0.001,0.005,0.015,0.014,0.015c0.014,0,0.012-0.021,0.023-0.025
			c0.131,0,0.229-0.024,0.282-0.083c0.07,0.023,0.256,0.132,0.56,0.075c0.002,0,0.002,0.006,0.005,0.006
			c0.002,0,0.002-0.006,0.003-0.006c0.018-0.003,0.024,0.008,0.043,0.002l-0.011-0.033c0.042-0.017,0.069-0.046,0.086-0.088
			c0.085-0.003,0.173-0.007,0.257-0.01c0.026,0.057,0.05,0.121,0.118,0.121c0.002,0,0.002-0.007,0.003-0.007v0.007
			c0.132-0.004,0.264-0.007,0.395-0.01c0.027,0.051,0.058,0.102,0.085,0.155l0.04-0.022c0.027,0.046,0.046,0.106,0.104,0.106
			c0.017,0,0.016-0.027,0.03-0.03l0.007,0.026c0.148-0.033,0.243-0.136,0.29-0.216l0.021-0.04c0.257-0.007,0.513-0.016,0.769-0.023
			c0.024,0.059,0.055,0.122,0.122,0.122c0.002,0,0.002-0.004,0.004-0.004v0.004c0.66-0.021,1.322-0.041,1.983-0.059
			c0.256,0.075,0.614,0.196,0.995,0.216v-0.005c0.002,0,0.002,0.005,0.003,0.005c0.096,0,0.169-0.073,0.169-0.164
			c0-0.002-0.007-0.002-0.007-0.004h0.007c-0.003-0.028-0.003-0.055-0.003-0.081c0.033-0.002,0.07-0.004,0.105-0.004
			c0.029,0.052,0.057,0.102,0.084,0.152l0.036-0.021c0.029,0.045,0.048,0.105,0.108,0.105c0.017,0,0.013-0.023,0.028-0.028
			l0.005,0.026c0.245-0.048,0.493-0.096,0.741-0.146l-0.006-0.023c0.037-0.011,0.051-0.042,0.071-0.072
			c0.122,0.027,0.243,0.055,0.363,0.082l0.005-0.028c0.017,0.005,0.014,0.031,0.032,0.031c0.006,0,0.005-0.013,0.012-0.013
			l0.01,0.01c0.125-0.088,0.127-0.094,0.132-0.095v-0.004c0.03,0.035,0.042,0.092,0.091,0.092c0.003,0,0.003-0.007,0.007-0.007
			v0.007c0.044,0,0.084-0.003,0.124-0.003c0.023,0.05,0.052,0.094,0.105,0.104v0.014c0.005,0.004,0.007-0.003,0.012-0.003
			c0.003,0,0.002,0.007,0.005,0.007c0.007,0,0.005-0.011,0.012-0.013c0.198,0.013,0.312-0.16,0.334-0.204l0.033-0.037
			c0.029,0.051,0.05,0.115,0.115,0.115c0.002,0,0.002-0.005,0.006-0.005v0.005c0.082-0.003,0.168-0.005,0.253-0.007
			c0.026,0.055,0.052,0.118,0.119,0.118c0.032,0,0.032-0.04,0.056-0.058l0.021,0.037c0.114-0.059,0.23-0.123,0.348-0.186
			c0.026,0.021,0.03,0.07,0.067,0.07c0.003,0,0.003-0.006,0.007-0.006v0.006c0.286-0.01,0.576-0.02,0.866-0.026v-0.007
			c0.489,0.108,1.272,0.064,2.133-0.061c0.056,0.061,0.107,0.082,0.179,0.107l0.01-0.03c0.019,0.007,0.017,0.041,0.039,0.041
			c0.036,0,0.039-0.046,0.066-0.064c0.023,0.017,0.024,0.06,0.059,0.06c0.019,0,0.019-0.029,0.035-0.036l0.009,0.03
			c0.164-0.047,0.328-0.093,0.494-0.138l-0.01-0.032c0.047-0.017,0.078-0.047,0.094-0.097c0.22-0.037,0.553,0.082,0.735,0.099
			c0.004,0,0.002,0.007,0.005,0.007c0.002,0,0.002-0.004,0.004-0.004c0.005,0,0.014,0.004,0.017,0.004l-0.002-0.019
			c0.064-0.012,0.108-0.059,0.122-0.124c0.374-0.047,0.743-0.097,1.116-0.143h0.011l0.037-0.007l0.115-0.012l0.124-0.003h0.044
			h0.017l0.007-0.03c0.017,0.007,0.017,0.033,0.033,0.033c0.012,0,0.011-0.021,0.024-0.021c0.018,0.013,0.021,0.025,0.051,0.038
			c0.021,0.009,0.044-0.017,0.067-0.017c0.002,0.004,0,0.004,0.003,0.005l0.142,0.016l0.078-0.051l0.04-0.068
			c0.146-0.037,0.29-0.073,0.439-0.11c0.017,0.065,0.035,0.131,0.05,0.197l0.027-0.007c0.023,0.065,0.061,0.133,0.131,0.133
			c0.018,0,0.018-0.026,0.031-0.032l0.007,0.024c0.128-0.025,0.188-0.021,0.253-0.009c0.051,0.005,0.131,0.017,0.221,0.005
			c0.001,0,0.001,0.004,0.003,0.004s0.002-0.004,0.003-0.004c0.017-0.002,0.021,0.005,0.036,0.002l0.121-0.035l-0.006-0.025
			c0.066-0.021,0.134-0.058,0.134-0.132c0-0.004-0.007-0.004-0.007-0.007c0.018-0.004,0.047-0.016,0.059-0.017l0.038,0.003
			c0.016,0,0.067,0.078,0.142,0.223l0.039-0.023c0.031,0.044,0.048,0.104,0.104,0.104c0.019,0,0.017-0.028,0.034-0.034l0.007,0.027
			c0.084-0.021,0.169-0.044,0.253-0.063c0.03,0.038,0.043,0.095,0.098,0.095c0.027,0,0.024-0.035,0.046-0.045l0.012,0.036
			c0.313-0.12,0.627-0.237,0.939-0.358c0.03,0.032,0.038,0.09,0.088,0.09c0.028,0,0.028-0.041,0.052-0.053l0.016,0.035
			c0.178-0.084,0.214-0.245,0.241-0.296l0.026-0.041l0.018-0.003c0.04,0.049,0.082,0.097,0.122,0.146l0.036-0.034
			c0.03,0.034,0.041,0.091,0.088,0.091c0.025,0,0.023-0.037,0.044-0.045l0.013,0.033c0.083-0.042,0.108-0.092,0.134-0.144
			c0.023,0.035,0.046,0.071,0.069,0.106l0.037-0.024c0.03,0.04,0.044,0.097,0.098,0.097c0.025,0,0.023-0.035,0.044-0.043
			l0.016,0.035c0.191-0.079,0.288-0.088,0.407-0.204c0.087-0.114,0.084-0.217,0.084-0.348c0.084-0.054,0.168-0.108,0.255-0.166
			l-0.026-0.04c0.01-0.007,0.015-0.014,0.023-0.021l0.068,0.021c0.107,0.04,0.303,0.04,0.439-0.099l-0.034-0.036
			c0.032-0.032,0.087-0.041,0.087-0.091c0-0.018-0.027-0.016-0.033-0.03l0.026-0.007l-0.005-0.023
			c0.012-0.014,0.028-0.014,0.042-0.036v-0.008c0.091,0,0.165-0.074,0.165-0.166c0-0.012-0.021-0.01-0.022-0.021
			c0.115-0.016,0.238-0.049,0.32-0.183l-0.035-0.021c0.017-0.023,0.062-0.025,0.062-0.06c0-0.024-0.034-0.023-0.045-0.043
			l0.034-0.012c-0.028-0.081-0.058-0.159-0.088-0.236c0.007-0.006,0.014-0.011,0.021-0.018l0.037,0.024l0.075-0.121l0.01-0.015
			l0.03-0.009c0.03-0.008,0.084-0.021,0.158-0.045l-0.009-0.03c0.062-0.023,0.127-0.058,0.127-0.125
			c0-0.003-0.005-0.003-0.005-0.006h0.005c-0.002-0.072-0.003-0.14-0.007-0.21c0.03,0,0.058-0.002,0.088-0.003v-0.007
			c0.073-0.004,0.116-0.065,0.134-0.134l0.023,0.003c0.031-0.21,0.068-0.416,0.103-0.622l-0.023-0.003
			c0.003-0.014,0.024-0.012,0.024-0.025c0-0.062-0.062-0.087-0.112-0.115l0.017-0.035c-0.047-0.021-0.098-0.044-0.146-0.067
			c0-0.009,0.004-0.026,0.004-0.033v-0.007l0.003-0.027l-0.02-0.007c0.003-0.003,0.003-0.013,0.007-0.017
			c0.003-0.01,0.02-0.01,0.02-0.021c0-0.006-0.008-0.005-0.008-0.01c0.038-0.064,0.074-0.125,0.091-0.25
			C107.632,34.189,107.658,34.183,107.697,34.149z M105.491,25.126h-0.009c0.011,0.354,0.021,0.707,0.034,1.059
			c-0.078,0.014-0.149,0.067-0.149,0.152c0,0.002,0.005,0.002,0.005,0.004h-0.005c0,0.05,0.004,0.103,0.005,0.152
			c-0.077,0.012-0.147,0.062-0.147,0.149c0,0.015,0.025,0.015,0.028,0.03l-0.021,0.005c0.045,0.199,0.091,0.397,0.136,0.6
			c-0.056,0.024-0.117,0.055-0.117,0.121c0,0.021,0.033,0.021,0.044,0.042l-0.037,0.013c0.037,0.098,0.073,0.196,0.11,0.292
			c-0.047,0.028-0.105,0.046-0.105,0.104c0,0.003,0.005,0.003,0.007,0.007h-0.007c0.017,0.546,0.033,1.099,0.049,1.646
			c-0.046,0-0.091,0.001-0.139,0.003v0.003c-0.067,0.004-0.103,0.064-0.123,0.128l-0.028-0.01c-0.047,0.148-0.092,0.304-0.138,0.456
			l0.034,0.01c-0.009,0.021-0.04,0.019-0.04,0.04c0,0.083,0.072,0.146,0.153,0.152c0.007,0.166,0.012,0.334,0.019,0.501
			c-0.017,0.01-0.021,0.002-0.04,0.017c-0.084,0.074-0.112,0.217-0.09,0.376c-0.002,0.004-0.011,0.004-0.011,0.01
			c0,0,0.007,0,0.007,0.004c0,0.01-0.01,0.014-0.007,0.023l0.023-0.005c0.018,0.067,0.062,0.127,0.133,0.134
			c0.015,0.504,0.029,1.005,0.047,1.507c-0.078,0.014-0.146,0.065-0.146,0.149l0.002,0.001h-0.002
			c0.002,0.104,0.005,0.205,0.009,0.304c-0.062,0.009-0.096,0.061-0.115,0.117l-0.027-0.007c-0.005,0.014-0.003,0.027-0.007,0.04
			c-0.104,0.47,0.051,0.897,0.144,1.201c-0.032,0-0.062,0-0.091,0.003v0.004c-0.09,0.003-0.164,0.071-0.164,0.155
			c0,0.007,0.013,0.005,0.013,0.012h-0.013c0.007,0.171,0.014,0.344,0.019,0.518l-0.035,0.022c-0.031-0.041-0.044-0.097-0.102-0.097
			c0,0,0,0.002-0.002,0.002v-0.002l-0.152,0.002v0.005c-0.085,0.004-0.157,0.069-0.157,0.156c0,0.002,0.005,0.002,0.005,0.006
			h-0.005c0.001,0.111,0.005,0.223,0.007,0.334c-0.479,0.142-0.681,0.367-1.172,0.311v-0.005h-0.006
			c-0.003-0.072-0.066-0.12-0.137-0.138l0.003-0.019c-0.01-0.001-0.017,0.002-0.023,0c-0.001,0-0.001-0.001-0.001-0.001
			c-0.002,0-0.002,0.001-0.005,0.001c-0.149-0.023-0.297,0.016-0.357,0.119l-0.015,0.026c-0.323-0.052-0.877-0.157-1.353,0.069
			l0.017,0.037c-0.027,0.014-0.045,0.03-0.061,0.059l-0.033-0.015c-0.034,0.071-0.066,0.142-0.098,0.212
			c-0.321,0.011-0.642,0.024-0.962,0.032c-0.014-0.079-0.064-0.147-0.146-0.147c-0.003,0-0.003,0.005-0.005,0.005v-0.005
			l-0.153,0.001v0.007c-0.078,0.004-0.139,0.067-0.147,0.151c-0.099,0.004-0.2,0.007-0.3,0.011v0.003
			c-0.047,0.003-0.056,0.055-0.084,0.088c-0.047-0.023-0.097-0.043-0.144-0.067l-0.017,0.039c-0.025-0.015-0.025-0.057-0.058-0.057
			c-0.04,0-0.045,0.052-0.074,0.078c-0.026-0.021-0.03-0.066-0.067-0.067v-0.004c0,0,0,0-0.004,0l0,0c-0.002,0,0,0-0.002,0
			c-0.251-0.02-0.389,0.082-0.456,0.143c-0.033-0.032-0.078-0.081-0.174-0.203l-0.035,0.027c-0.03-0.037-0.042-0.095-0.096-0.095
			c-0.008,0-0.007,0.014-0.013,0.014v-0.01h-0.006h-0.001v0.017l0,0v-0.017h-0.004h-0.019l-0.079-0.007
			c-0.063,0-0.139-0.003-0.212,0.003c-0.076,0.011-0.15,0.014-0.243,0.088c-0.044,0.037-0.079,0.122-0.072,0.186
			c0.001,0.005,0.005,0.007,0.005,0.011c-0.385-0.034-0.837-0.051-1.352,0.082l0.009,0.03c-0.009,0.002-0.01,0.012-0.017,0.015
			c-0.025-0.008-0.047-0.04-0.071-0.045l-0.004,0.023c-0.014-0.003-0.014-0.025-0.026-0.025c-0.004,0-0.004,0.007-0.007,0.007
			v-0.007c-0.102,0.004-0.202,0.007-0.307,0.011c-0.014-0.074-0.064-0.146-0.146-0.146c-0.001,0-0.001,0.006-0.003,0.006v-0.006
			l-0.152,0.004v0.002c-0.08,0.001-0.141,0.068-0.149,0.152c-0.248,0.007-0.501,0.018-0.751,0.021v0.003
			c-0.015,0.004-0.014,0.026-0.027,0.031c-0.034-0.014-0.067-0.02-0.098-0.023l-0.004,0.016c-0.01-0.002-0.008-0.023-0.02-0.023
			c-0.002,0-0.002,0.004-0.004,0.004v-0.004c-0.251,0.012-0.502,0.018-0.756,0.028v0.007c-0.003,0-0.003,0.007-0.006,0.007
			l-0.002-0.014c-0.816,0.074-1.638,0.147-2.454,0.222c-0.037-0.069-0.073-0.138-0.112-0.203l-0.037,0.02
			c-0.028-0.045-0.047-0.106-0.105-0.106c-0.003,0-0.003,0.007-0.007,0.007v-0.007l-0.148,0.004v0.003
			c-0.06,0.003-0.079,0.06-0.107,0.108c-0.099-0.03-0.198-0.061-0.296-0.088l-0.01,0.03c-0.018-0.006-0.018-0.039-0.039-0.039
			c-0.012,0-0.011,0.019-0.022,0.021l-0.003-0.02c-0.023,0.005-0.046,0.041-0.074,0.051c-0.01-0.005-0.01-0.021-0.023-0.023
			l0.003-0.021c-0.007,0-0.017,0.001-0.02,0c-0.005,0-0.005-0.007-0.009-0.007c-0.003,0-0.003,0.007-0.007,0.007
			c-0.292-0.041-0.737,0.013-1.152,0.081c-0.209,0.03-0.408,0.065-0.554,0.088c-0.063,0.013-0.112,0.02-0.152,0.026
			c-0.037-0.067-0.073-0.136-0.112-0.202l-0.035,0.02c-0.028-0.047-0.047-0.107-0.104-0.107c-0.003,0-0.003,0.005-0.007,0.005
			v-0.005c-0.253,0.009-0.506,0.017-0.759,0.023c-0.014-0.075-0.065-0.145-0.146-0.145c-0.023,0-0.021,0.034-0.04,0.041
			l-0.012-0.032c-0.299,0.091-0.597,0.188-0.896,0.285c-0.037-0.102-0.075-0.203-0.112-0.302l-0.036,0.015
			c-0.024-0.06-0.051-0.122-0.118-0.122c-0.037,0-0.04,0.048-0.069,0.067l-0.027-0.037c-0.096,0.068-0.19,0.136-0.285,0.203
			c-0.017-0.012-0.021-0.034-0.037-0.037l0.005-0.028c-0.162-0.034-0.321-0.069-0.483-0.105v-0.021h-0.004
			c-0.002-0.09-0.072-0.163-0.163-0.163c-0.008,0-0.008,0.017-0.015,0.019l-0.004-0.018c-0.455,0.061-0.908,0.121-1.36,0.181
			c-0.02-0.066-0.057-0.133-0.131-0.133c0,0,0,0.003-0.002,0.003v-0.003l-0.15,0.003v0.003c-0.042,0.002-0.047,0.051-0.075,0.076
			c-0.029-0.025-0.032-0.072-0.072-0.072c-0.004,0-0.004,0.003-0.006,0.003v-0.003c-0.12,0.005-0.235,0.007-0.353,0.01
			c-0.037-0.07-0.074-0.141-0.111-0.209l-0.037,0.021c-0.03-0.047-0.049-0.105-0.108-0.105c-0.03,0-0.033,0.04-0.057,0.057
			l-0.022-0.038c-0.045,0.025-0.091,0.049-0.136,0.073c-0.031-0.031-0.038-0.089-0.087-0.089c-0.001,0-0.001,0.007-0.005,0.007
			v-0.007c-0.253,0.007-0.504,0.017-0.758,0.027v0.003c-0.017,0-0.015,0.027-0.031,0.034l-0.011-0.03
			c-0.119,0.057-0.11,0.105-0.126,0.121l-0.001,0.003c-0.024-0.061-0.059-0.124-0.126-0.124c0,0,0,0.003-0.003,0.003v-0.003
			c-0.155,0.007-0.307,0.01-0.463,0.017C80.558,36.07,80.507,36,80.43,36c-0.016,0-0.014,0.026-0.027,0.031l-0.007-0.029
			c-0.249,0.051-0.499,0.102-0.751,0.15c-0.024-0.062-0.055-0.126-0.123-0.126c-0.002,0-0.002,0.005-0.004,0.005v-0.005
			c-0.054,0-0.104,0.003-0.157,0.007c-0.014-0.078-0.065-0.149-0.145-0.149c-0.001,0-0.001,0.006-0.005,0.006v-0.006
			c-0.154,0.006-0.307,0.011-0.459,0.014c-0.012-0.061-0.057-0.098-0.117-0.116l0.007-0.024c-0.014-0.006-0.021,0-0.034-0.004l0,0
			h-0.002c-0.398-0.071-0.548,0.185-0.608,0.165c-0.299-0.032-0.596-0.065-0.893-0.1v-0.008h-0.007
			c-0.005-0.085-0.071-0.157-0.16-0.157v0.001l-0.002-0.001l-0.153,0.005v0.007c-0.062,0.003-0.087,0.057-0.113,0.111
			c-0.108-0.023-0.215-0.046-0.324-0.068l-0.001-0.023H76.34c-0.003-0.089-0.072-0.157-0.16-0.157c-0.01,0-0.009,0.017-0.02,0.018
			l-0.005-0.018c-0.264,0.057-0.649,0.281-0.943,0.191l-0.043-0.103c-0.025-0.046-0.056-0.106-0.13-0.161
			c-0.056-0.043-0.136-0.037-0.211-0.03c-0.008,0-0.007-0.01-0.014-0.01c-0.005,0-0.005,0.009-0.01,0.009
			c-0.01,0.001-0.022-0.009-0.032-0.006l0.008,0.029c-0.04,0.015-0.059,0.043-0.079,0.08l-0.036-0.018
			c-0.021,0.046-0.043,0.095-0.067,0.14l-0.02-0.015l-0.042-0.071l-0.023-0.045c-0.014-0.016-0.017-0.045-0.091-0.082l-0.014,0.036
			c-0.023-0.009-0.022-0.044-0.047-0.044c-0.003,0-0.003,0.003-0.005,0.003v-0.003c-0.201,0.005-0.407,0.01-0.609,0.017
			c-0.007-0.045-0.05-0.062-0.087-0.088l0.02-0.038c-0.226-0.131-0.425-0.137-0.715-0.144c0-0.006-0.003-0.019-0.007-0.023
			l-0.003-0.024l-0.01-0.043c-0.023-0.071-0.069-0.091-0.076-0.1l-0.025-0.021l-0.003-0.085h-0.008
			c-0.007-0.086-0.069-0.16-0.157-0.16c-0.03,0-0.03,0.042-0.054,0.058l-0.02-0.035c-0.044,0.023-0.086,0.047-0.129,0.07
			l-0.003-0.03c0.007-0.132-0.141-0.283-0.34-0.327c0.045-0.192,0.112-0.294,0.216-0.549l-0.035-0.016
			c0.012-0.021,0.049-0.02,0.049-0.047c0-0.093-0.077-0.165-0.166-0.165c-0.003,0-0.003,0.007-0.007,0.007v-0.007
			c-0.041,0.004-0.077,0.004-0.118,0.004c0.03-0.445,0.061-0.888,0.091-1.333l-0.01-0.001c0-0.006,0.01-0.006,0.01-0.012
			c0-0.012-0.017-0.008-0.019-0.021l0.019-0.002c-0.065-0.268-0.171-0.381-0.167-0.588c0.062-0.012,0.099-0.056,0.116-0.111
			l0.027,0.005c0.001-0.008-0.002-0.021,0-0.031c0-0.002,0.003,0,0.003-0.004c0-0.002-0.003,0-0.003-0.003
			c0.072-0.429-0.111-1.006-0.169-1.229c0.064-0.022,0.132-0.058,0.132-0.129c0-0.017-0.027-0.015-0.03-0.03l0.023-0.005
			c-0.055-0.292-0.115-0.585-0.172-0.879c-0.01-0.249-0.017-0.501-0.023-0.752c0.077-0.017,0.146-0.067,0.146-0.149
			c0-0.018-0.027-0.017-0.034-0.033l0.027-0.007c-0.039-0.151-0.083-0.3-0.125-0.448c0.05-0.027,0.115-0.049,0.115-0.113
			c0-0.002-0.005-0.002-0.005-0.005h0.005c-0.018-0.554-0.033-1.109-0.051-1.663c0.075-0.014,0.146-0.07,0.146-0.148
			c0-0.004-0.006-0.004-0.006-0.007h0.006c-0.005-0.199-0.012-0.401-0.017-0.604h-0.007c-0.003-0.076-0.064-0.122-0.135-0.138
			c0.033-0.449,0.063-0.901,0.097-1.354l-0.012-0.001c0-0.005,0.012-0.005,0.012-0.012c0-0.086-0.072-0.145-0.157-0.155
			c-0.01-0.354-0.02-0.708-0.029-1.059c0.076-0.018,0.141-0.066,0.141-0.146c0-0.004-0.005-0.004-0.007-0.007h0.007
			c0-0.051,0-0.102-0.003-0.156c0.077-0.012,0.149-0.062,0.149-0.145c0-0.028-0.039-0.026-0.05-0.05l0.037-0.016
			c-0.089-0.204-0.179-0.408-0.268-0.611l0.061-0.028c0.127-0.063,0.218-0.263,0.179-0.496c0-0.002,0.003-0.002,0.003-0.002
			c0-0.001-0.003-0.001-0.003-0.003c0-0.012,0.007-0.019,0.003-0.032l-0.027,0.004c-0.02-0.067-0.059-0.126-0.128-0.132
			c-0.007-0.199-0.01-0.398-0.019-0.598h-0.005c0-0.04-0.049-0.047-0.073-0.073c0.024-0.029,0.076-0.034,0.076-0.074
			c-0.006-1.762-0.01-3.522-0.015-5.283c0.049-0.002,0.095-0.002,0.142-0.003v-0.006c0.089-0.004,0.161-0.069,0.161-0.157
			c0-0.003-0.005-0.003-0.005-0.005h0.005c-0.011-0.305-0.018-0.605-0.028-0.909h-0.006c-0.003-0.081-0.071-0.145-0.151-0.151
			c0.077-0.012,0.145-0.064,0.148-0.143h0.001c0.012-0.551,0.137-1.19,0.248-1.632l-0.03-0.008c0.005-0.017,0.034-0.015,0.034-0.036
			c0-0.01-0.017-0.008-0.02-0.017l0.02-0.003c-0.057-0.402-0.114-0.803-0.171-1.205c0.065-0.023,0.131-0.061,0.131-0.131
			c0-0.003-0.003-0.003-0.003-0.007h0.003c-0.013-0.353-0.021-0.705-0.032-1.062c0.076-0.013,0.144-0.062,0.144-0.144
			c0-0.002-0.003-0.002-0.003-0.005h0.003c-0.003-0.152-0.006-0.303-0.013-0.456c0.081-0.013,0.148-0.065,0.148-0.146
			c0-0.019-0.025-0.015-0.03-0.03l0.027-0.007c-0.045-0.199-0.092-0.4-0.138-0.6c0.054-0.023,0.114-0.05,0.116-0.118h0.002
			c0.017-1.005,0.037-1.855,0.054-2.846c0.082-0.01,0.152-0.065,0.152-0.154c0,0-0.002,0-0.002-0.002h0.002
			c0-0.059-0.003-0.121-0.005-0.183c0.113-0.041,0.226-0.085,0.337-0.125L73.156,4.49c0.027-0.012,0.04-0.035,0.057-0.057
			l0.037,0.022c0.082-0.127,0.163-0.256,0.243-0.387l0.065-0.002V4.06c0.085-0.006,0.158-0.07,0.158-0.16
			c0-0.025-0.034-0.023-0.043-0.042l0.034-0.013c-0.014-0.04-0.029-0.078-0.042-0.115c0.015,0.007,0.012,0.03,0.03,0.03
			c0.088,0,0.164-0.076,0.164-0.165c0-0.003-0.003-0.003-0.003-0.005h0.003c0-0.033-0.001-0.063-0.003-0.095
			c0.263,0.058,0.563,0.137,0.885,0.075c0.003,0.001,0.002,0.005,0.005,0.005s0.003-0.003,0.006-0.003
			c0.012-0.003,0.024,0.003,0.037,0l-0.01-0.031c0.061-0.02,0.115-0.055,0.12-0.121c0.149-0.003,0.3-0.008,0.451-0.013V3.402
			c0.06-0.003,0.087-0.061,0.114-0.112c0.165,0.139,0.375,0.253,0.614,0.253c0.01,0.003,0.01,0.021,0.02,0.021
			c0.007,0,0.005-0.014,0.014-0.014c0.01-0.003,0.021,0.005,0.033,0.003l-0.008-0.03c0.057-0.025,0.117-0.057,0.12-0.123
			c0.379-0.005,0.729-0.096,1.032-0.064V3.325c0.009,0,0.007,0.013,0.018,0.013c0.087,0,0.151-0.071,0.157-0.157
			c0.199-0.005,0.399-0.008,0.597-0.015V3.159C78.146,3.156,78.219,3.092,78.219,3c0-0.005-0.008-0.005-0.01-0.01h0.01V2.974
			c0.387-0.111,0.6-0.071,0.878-0.114c0,0.037,0,0.072,0,0.107h0.007c0.004,0.092,0.07,0.162,0.161,0.162
			c0.021,0,0.018-0.03,0.037-0.037l0.01,0.028c0.298-0.097,0.597-0.191,0.896-0.285c0.023,0.042,0.043,0.084,0.091,0.092
			l-0.002,0.017c0.007,0.002,0.015,0.002,0.021,0.002c0.523,0.055,1.109,0.084,1.36,0.248l0.023-0.037
			c0.027,0.019,0.027,0.062,0.061,0.062c0.005,0,0.005-0.006,0.009-0.006V3.22l0.146-0.006V3.211
			c0.088-0.001,0.155-0.069,0.158-0.156v0.007c0.173-0.021,0.287-0.072,0.361-0.141c0.007-0.005,0.001-0.007,0.007-0.012
			c0.577,0.005,1.202,0.27,1.878,0.26c0.001,0,0.001,0,0.001,0l0,0c0.002,0,0.004,0,0.004,0V3.166
			c0.04-0.003,0.045-0.05,0.074-0.074c0.026,0.023,0.031,0.074,0.072,0.074c0.003,0,0.003-0.008,0.007-0.008v0.008
			c0.204-0.007,0.403-0.013,0.607-0.02c0.014,0.077,0.065,0.146,0.146,0.146c0.002,0,0.002-0.005,0.003-0.005v0.005l0.154-0.005
			V3.28c0.079-0.003,0.14-0.067,0.147-0.148c0.354-0.012,0.7-0.021,1.055-0.032V3.096c0.069-0.003,0.108-0.065,0.129-0.127
			c0.508,0.07,1.016,0.14,1.524,0.208v0.01h0.004c0.003,0.091,0.072,0.162,0.159,0.162c0.012,0,0.012-0.02,0.022-0.022l0.003,0.022
			c0.303-0.058,0.604-0.108,0.904-0.159c0.021,0.051,0.053,0.098,0.108,0.109l-0.002,0.017c0.302,0.041,0.606,0.081,0.911,0.125
			l0.002-0.021c0.01,0.003,0.01,0.021,0.02,0.021c0.018,0,0.018-0.029,0.034-0.034l0.007,0.027c0.023-0.003,0.037-0.037,0.061-0.047
			c0.023,0.01,0.023,0.047,0.05,0.047c0.004,0,0.004-0.003,0.006-0.003v0.003c0.1,0,0.2-0.003,0.304-0.008
			c0.012,0.07,0.064,0.128,0.137,0.137v0.01c0.578,0.032,1.154,0.064,1.728,0.094c0.038,0.071,0.077,0.141,0.114,0.211l0.037-0.019
			c0.03,0.047,0.049,0.108,0.11,0.108c0.003,0,0.003-0.007,0.006-0.009v0.009c0.1,0,0.199-0.007,0.299-0.009V3.952
			c0.046-0.001,0.054-0.049,0.081-0.079l0.035,0.032l0.085-0.092c0.028,0.048,0.045,0.107,0.107,0.107l0.002-0.002V3.92
			c0.355-0.009,0.708-0.021,1.062-0.032c0.012,0.078,0.067,0.148,0.148,0.148c0.004,0,0.004-0.007,0.007-0.007v0.007
			c0.148-0.005,0.299-0.007,0.451-0.013V4.018c0.043-0.001,0.052-0.052,0.08-0.079l0.035,0.033l0.334-0.362
			c0.027,0,0.058-0.001,0.085-0.001c0.014,0.071,0.061,0.125,0.131,0.134v0.014c0.354,0.032,0.713,0.068,1.068,0.102v0.003h0.001
			c0.004,0.087,0.071,0.158,0.163,0.158c0.003,0,0.003-0.005,0.007-0.007V4.02c0.08-0.005,0.131-0.037,0.168-0.071
			c0.02,0.037,0.039,0.072,0.058,0.108l0.039-0.021c0.007,0.012,0.015,0.017,0.023,0.025l-0.022,0.044
			c0.014,0.008,0.061,0.015,0.088,0.022c0.009,0,0.007,0.017,0.017,0.017c0.009,0,0.007-0.01,0.014-0.01
			c0.253,0.061,0.789,0.116,1.09,0.118c0.026,0.057,0.056,0.12,0.121,0.12c0.011,0,0.011-0.015,0.019-0.019l0.002,0.019
			c0.346-0.043,0.526-0.132,0.657-0.186c0.112-0.04,0.213-0.057,0.405-0.042c0,0.005,0.005,0.021,0.007,0.024l0.004,0.023
			l0.01,0.043c0.025,0.071,0.07,0.094,0.074,0.104l0.028,0.024l0.002,0.077h0.003c0.004,0.045,0.055,0.057,0.087,0.084l-0.028,0.034
			c0.066,0.058,0.178,0.142,0.326,0.047c0.027-0.025,0.03-0.047,0.044-0.071c0.011,0.03,0.023,0.062,0.034,0.095l0.037-0.014
			c0.02,0.045,0.046,0.083,0.095,0.096l-0.004,0.024c0.007,0,0.014-0.005,0.021-0.005s0.005,0.007,0.01,0.007
			c0.007,0,0.006-0.01,0.012-0.014c0.299-0.023,0.512-0.25,0.626-0.347c0.025,0.061,0.056,0.125,0.125,0.125
			c0.023,0,0.023-0.034,0.044-0.043L101.4,4.49c0.077-0.029,0.155-0.057,0.232-0.086c0.004,0.074,0.007,0.151,0.009,0.227h0.005
			c0.003,0.085,0.07,0.158,0.158,0.158c0.003,0,0.003-0.003,0.005-0.003v0.003l0.08-0.003c0.19,0.216,0.33,0.327,0.506,0.247
			l0.082-0.03c0.011-0.003,0.069,0.013,0.129,0.035c0.042,0.078,0.086,0.156,0.13,0.24l0.037-0.022
			c0.03,0.047,0.047,0.104,0.108,0.104c0.001,0,0.001-0.003,0.003-0.003v0.003c0.118-0.002,0.236-0.007,0.351-0.01
			c0.037,0.071,0.074,0.139,0.111,0.208l0.041-0.02c0.021,0.035,0.037,0.065,0.077,0.079l-0.003,0.023l0.082,0.038l0.021,0.034
			c0.015,0.017,0.005,0.032,0.055,0.1l0.075,0.027l0.086,0.103c0.005,0.131,0.01,0.263,0.014,0.396h0.008
			c0,0.047,0.051,0.059,0.084,0.086l-0.04,0.026l0.033-0.026l-0.04,0.021l0.011,0.054c0.003,0.062-0.004,0.15-0.014,0.243
			c0.003,0.148-0.011,0.29,0.054,0.436c0,0.003-0.007,0.002-0.007,0.005c0,0.008,0.015,0.007,0.017,0.015
			c0.002,0.005,0.002,0.008,0.004,0.01l-0.018,0.003c0.059,0.305,0.112,0.6,0.176,0.901l0.023-0.005
			c0.018,0.064,0.058,0.118,0.129,0.127c0.004,0.149,0.01,0.301,0.017,0.449h0.002c0,0.022,0.028,0.02,0.037,0.04l-0.03,0.01
			c0.214,0.601,0.062,0.935,0.044,1.758h0.005c0,0.003-0.005,0.003-0.005,0.005c0,0.087,0.073,0.162,0.162,0.162
			c0.023,0,0.021-0.032,0.042-0.041l0.012,0.033c0.072-0.021,0.111-0.036,0.131-0.038l0.023-0.005l0.045-0.012
			c0.028-0.007,0.025-0.017,0.04-0.03c0.009,0.27,0.019,0.54,0.025,0.81c-0.044,0.001-0.092,0.003-0.139,0.003v0.005
			c-0.087,0.005-0.156,0.075-0.156,0.164c0,0.001,0.005,0.001,0.005,0.003h-0.005c0.002,0.099,0.005,0.203,0.007,0.303h0.007
			c0.005,0.086,0.068,0.159,0.154,0.159c0.005,0,0.005-0.008,0.009-0.01v0.01c0.048-0.001,0.092-0.003,0.137-0.005
			c0.002,0.044,0.004,0.089,0.005,0.133c-0.038,0.004-0.074,0.005-0.115,0.014c-0.07,0.021-0.129,0.014-0.219,0.118l0.004,0.227
			l0.121,0.098l0.021-0.037c0.023,0.017,0.026,0.061,0.057,0.061c0.004,0,0.004-0.007,0.007-0.007v0.007
			c0.051-0.002,0.099-0.003,0.147-0.007c0.072,0.852,0.146,1.708,0.221,2.558h0.012c0.01,0.081,0.069,0.151,0.151,0.151
			c0.002,0,0.002-0.005,0.006-0.005v0.005c0.051,0,0.103-0.004,0.154-0.005c0.051,0.353,0.1,0.703,0.149,1.058
			c-0.064,0.022-0.131,0.062-0.131,0.135c0,0.004,0.006,0.004,0.006,0.005h-0.006c0.009,0.348,0.021,0.701,0.032,1.055h0.005
			c0.002,0.016,0.022,0.014,0.027,0.027l-0.027,0.008c0.021,0.074,0.062,0.097,0.08,0.112l0.046,0.025l0.003,0.001
			c-0.059,0.025-0.124,0.058-0.124,0.128c0,0.002,0.004,0.002,0.004,0.005h-0.004c0,0.049,0.004,0.102,0.004,0.152
			c-0.059,0.01-0.094,0.058-0.112,0.111l-0.029-0.007c-0.001,0.014,0.004,0.02,0.002,0.033c0,0.004-0.005,0.004-0.005,0.007
			c0,0.004,0.007,0.004,0.007,0.007c-0.092,0.712,0.421,0.979,0.351,1.496c-0.088,0.009-0.159,0.069-0.159,0.154
			c0,0.009,0.016,0.007,0.018,0.017l-0.018,0.002c0.073,0.721,0.143,1.435,0.209,2.15c-0.065,0.037-0.131,0.074-0.198,0.107
			l0.021,0.036c-0.048,0.03-0.11,0.051-0.11,0.111c0,0.028,0.037,0.025,0.049,0.049l-0.033,0.014l0.001,0.003l0.007,0.021
			l0.028,0.069c0.022,0.059,0.049,0.14,0.075,0.234c0.037,0.125,0.056,0.258,0.058,0.361c-0.081,0.008-0.152,0.067-0.152,0.151
			c0,0.003,0.008,0.003,0.008,0.008h-0.008c0.003,0.252,0.014,0.508,0.023,0.761c-0.081,0.014-0.149,0.063-0.149,0.146
			c0,0,0.001,0,0.001,0.004h-0.001l0.005,0.147h0.003c0.002,0.035,0.041,0.035,0.058,0.059l-0.037,0.023l0.105,0.098
			c-0.055,0.024-0.119,0.054-0.119,0.118c0,0.003,0.007,0.003,0.007,0.007h-0.007l0.004,0.151h0.001
			c0.002,0.088,0.072,0.162,0.164,0.162c0.004,0,0.004-0.003,0.007-0.003v0.003h0.03c0.021,0.058,0.044,0.119,0.065,0.179
			c-0.044,0.029-0.103,0.044-0.103,0.102C105.482,25.122,105.489,25.122,105.491,25.126z M107.092,36.005l0.003-0.001l0.002,0.001
			H107.092z"/>
	</g>
	<path fill="#00B6F1" d="M94.488,32.438c-2.14,1.07-4.315,2.299-6.521,2.41c-1.073,0.183-2.518-0.429-1.914-0.225
		c0.396-0.646,1.451-1.436,2.382-2.019c3.979-2.294,8.725-3.438,13.249-5.763c1.083-0.616,2.328-1.082,3.447-2.252
		c0.53-0.545,1.036-1.169,1.408-2.097c0.438-0.886,0.307-2.702-0.831-3.676c-2.267-1.669-4.034-0.735-5.158-0.675
		c-1.245,0.234-2.255,0.473-3.632,0.801c-5.831,1.606-10.794,4.865-15.481,7.321c-1.466,0.784-3.349,1.512-4.878,1.888
		c0.694-0.651,1.446-1.358,1.931-1.826c4.146-3.479,8.448-6.11,13.849-7.541c2.696-0.904,5.547-1.962,8.202-3.908
		c1.221-1.173,2.533-1.768,3.374-4.577c0.59-2-1.785-3.964-2.668-3.914c-1.114-0.355-2.108-0.287-3.049-0.175
		c-3.73,0.783-5.653,2.402-8.305,3.532c-0.307,0.152-0.594,0.297-0.889,0.446c0.559-0.444,1.111-0.958,1.656-1.677
		c0.312-0.404,0.625-0.979,0.808-1.645c0.064-0.364,0.178-0.697,0.136-1.089l-0.048-0.577l-0.042-0.285
		c-0.275-0.493,0.603,1.005-0.622-1.124l-0.046-0.037l-0.1-0.074c-1.09-0.897-2.325-1.191-3.275-1.213
		c-3.88-0.072-6.472,1.776-8.884,2.674c-0.785,0.327-1.592,0.659-2.4,1l1.824,3.99c0.708-0.301,1.427-0.598,2.155-0.896
		c2.203-0.91,4.155-1.931,5.823-2.255c-0.364,0.272-0.763,0.543-1.184,0.783c-2.085,1.199-4.876,2.419-7.284,3.884
		c-1.262,0.771-2.556,1.542-3.803,2.893c-0.6,0.684-1.279,1.528-1.525,2.881c-0.101,0.679-0.071,1.377,0.135,2.028
		c0.28,1.42,2.695,2.243,2.905,1.974c1.589-0.267,2.793-0.655,3.819-1.1c-0.789,0.56-1.562,1.133-2.274,1.743
		c-1.123,0.793-2.358,2.138-3.181,2.878c-0.445,0.412-1.073,0.936-1.689,1.674c-0.563,0.573-1.611,2.449-0.711,4.211
		c0.273,0.84,1.29,1.446,2.117,1.801c0.604,0.133,1.148,0.162,1.725,0.192c0.879-0.081,1.756-0.192,2.482-0.401
		c1.525-0.377,2.879-0.866,4.261-1.468c5.432-2.561,9.605-5.564,14.635-7.317c16.135-5.624-0.627,2.626-8.385,6.616
		c-1.099,0.765-2.139,1.501-3.103,2.655c-0.304,0.31-1.528,1.896-0.021,3.173c1.05,0.562,1.69,0.412,2.398,0.446
		c2.922-0.125,5.189-1.654,7.3-2.905c4.062-2.895,9.068-3.398,13.955-4.633C103.817,29.855,98.822,29.926,94.488,32.438z
		 M98.195,10.687c0.227-0.115,0.489-0.156,0.749-0.169c-0.12,0.134-0.255,0.257-0.429,0.341c-1.579,1.501-4.026,2.541-6.471,3.408
		c-1.238,0.331-2.517,0.745-3.806,1.231C91.681,13.716,95.229,11.905,98.195,10.687z"/>
</g>
<polygon fill="#FFFFFF" points="223.892,14.006 237.803,1.118 262.013,1.328 262.216,26.495 248.964,39.465 223.892,39.669 "/>
<g>
	<defs>
		<filter id="Adobe_OpacityMaskFilter" filterUnits="userSpaceOnUse" x="223.882" y="1.014" width="38.324" height="13.333">
			<feFlood  style="flood-color:white;flood-opacity:1" result="back"/>
			<feBlend  in="SourceGraphic" in2="back" mode="normal"/>
		</filter>
	</defs>
	<mask maskUnits="userSpaceOnUse" x="223.882" y="1.014" width="38.324" height="13.333" id="SVGID_1_">
		<g filter="url(#Adobe_OpacityMaskFilter)">
			<defs>
				<filter id="Adobe_OpacityMaskFilter_1_" filterUnits="userSpaceOnUse" x="223.882" y="1.014" width="38.324" height="13.333">
					<feFlood  style="flood-color:white;flood-opacity:1" result="back"/>
					<feBlend  in="SourceGraphic" in2="back" mode="normal"/>
				</filter>
			</defs>
			<mask maskUnits="userSpaceOnUse" x="223.882" y="1.014" width="38.324" height="13.333" id="SVGID_1_">
				<g filter="url(#Adobe_OpacityMaskFilter_1_)">
				</g>
			</mask>
			<linearGradient id="SVGID_2_" gradientUnits="userSpaceOnUse" x1="238.8809" y1="0.3032" x2="251.6416" y2="22.9161">
				<stop  offset="0" style="stop-color:#FFFFFF"/>
				<stop  offset="0.0862" style="stop-color:#F4F4F4"/>
				<stop  offset="0.2377" style="stop-color:#D7D7D7"/>
				<stop  offset="0.4365" style="stop-color:#A7A7A7"/>
				<stop  offset="0.6752" style="stop-color:#656565"/>
				<stop  offset="0.9447" style="stop-color:#121212"/>
				<stop  offset="1" style="stop-color:#000000"/>
			</linearGradient>
			<polygon mask="url(#SVGID_1_)" fill="url(#SVGID_2_)" points="249.437,14.347 223.882,14.347 237.793,1.014 262.206,1.014 			"/>
		</g>
	</mask>
	<linearGradient id="SVGID_3_" gradientUnits="userSpaceOnUse" x1="238.8809" y1="0.3032" x2="251.6416" y2="22.9161">
		<stop  offset="0" style="stop-color:#29ABE2"/>
		<stop  offset="0.1142" style="stop-color:#41AFE3"/>
		<stop  offset="0.3149" style="stop-color:#6ABAE8"/>
		<stop  offset="0.5783" style="stop-color:#9FCEEF"/>
		<stop  offset="0.8909" style="stop-color:#E2EEF9"/>
		<stop  offset="1" style="stop-color:#FFFFFF"/>
	</linearGradient>
	<polygon fill="url(#SVGID_3_)" points="249.437,14.347 223.882,14.347 237.793,1.014 262.206,1.014 	"/>
	<defs>
		<filter id="Adobe_OpacityMaskFilter_2_" filterUnits="userSpaceOnUse" x="223.882" y="14.347" width="25.62" height="25.218">
			<feFlood  style="flood-color:white;flood-opacity:1" result="back"/>
			<feBlend  in="SourceGraphic" in2="back" mode="normal"/>
		</filter>
	</defs>
	<mask maskUnits="userSpaceOnUse" x="223.882" y="14.347" width="25.62" height="25.218" id="SVGID_4_">
		<g filter="url(#Adobe_OpacityMaskFilter_2_)">
			<defs>
				<filter id="Adobe_OpacityMaskFilter_3_" filterUnits="userSpaceOnUse" x="223.882" y="14.347" width="25.62" height="25.218">
					<feFlood  style="flood-color:white;flood-opacity:1" result="back"/>
					<feBlend  in="SourceGraphic" in2="back" mode="normal"/>
				</filter>
			</defs>
			<mask maskUnits="userSpaceOnUse" x="223.882" y="14.347" width="25.62" height="25.218" id="SVGID_4_">
				<g filter="url(#Adobe_OpacityMaskFilter_3_)">
				</g>
			</mask>
			<linearGradient id="SVGID_5_" gradientUnits="userSpaceOnUse" x1="232.8096" y1="30.7783" x2="262.7551" y2="1.3408">
				<stop  offset="0" style="stop-color:#FFFFFF"/>
				<stop  offset="1" style="stop-color:#000000"/>
			</linearGradient>
			<polygon mask="url(#SVGID_4_)" fill="url(#SVGID_5_)" points="249.502,14.347 223.947,14.347 223.882,39.564 249.502,39.511 			
				"/>
		</g>
	</mask>
	<linearGradient id="SVGID_6_" gradientUnits="userSpaceOnUse" x1="232.8096" y1="30.7783" x2="262.7551" y2="1.3408">
		<stop  offset="0" style="stop-color:#29ABE2"/>
		<stop  offset="1" style="stop-color:#FFFFFF"/>
	</linearGradient>
	<polygon fill="url(#SVGID_6_)" points="249.502,14.347 223.947,14.347 223.882,39.564 249.502,39.511 	"/>
	<defs>
		<filter id="Adobe_OpacityMaskFilter_4_" filterUnits="userSpaceOnUse" x="249.399" y="1.223" width="12.807" height="38.341">
			<feFlood  style="flood-color:white;flood-opacity:1" result="back"/>
			<feBlend  in="SourceGraphic" in2="back" mode="normal"/>
		</filter>
	</defs>
	<mask maskUnits="userSpaceOnUse" x="249.399" y="1.223" width="12.807" height="38.341" id="SVGID_7_">
		<g filter="url(#Adobe_OpacityMaskFilter_4_)">
			<defs>
				<filter id="Adobe_OpacityMaskFilter_5_" filterUnits="userSpaceOnUse" x="249.399" y="1.223" width="12.807" height="38.341">
					<feFlood  style="flood-color:white;flood-opacity:1" result="back"/>
					<feBlend  in="SourceGraphic" in2="back" mode="normal"/>
				</filter>
			</defs>
			<mask maskUnits="userSpaceOnUse" x="249.399" y="1.223" width="12.807" height="38.341" id="SVGID_7_">
				<g filter="url(#Adobe_OpacityMaskFilter_5_)">
				</g>
			</mask>
			<linearGradient id="SVGID_8_" gradientUnits="userSpaceOnUse" x1="260.3799" y1="22.6826" x2="246.02" y2="15.6579">
				<stop  offset="0" style="stop-color:#FFFFFF"/>
				<stop  offset="1" style="stop-color:#000000"/>
			</linearGradient>
			<polygon mask="url(#SVGID_7_)" fill="url(#SVGID_8_)" points="262.003,1.223 249.46,14.347 249.399,39.564 262.206,26.391 			"/>
		</g>
	</mask>
	<linearGradient id="SVGID_9_" gradientUnits="userSpaceOnUse" x1="260.3799" y1="22.6826" x2="246.02" y2="15.6579">
		<stop  offset="0" style="stop-color:#29ABE2"/>
		<stop  offset="1" style="stop-color:#FFFFFF"/>
	</linearGradient>
	<polygon fill="url(#SVGID_9_)" points="262.003,1.223 249.46,14.347 249.399,39.564 262.206,26.391 	"/>
	<path fill="#5F6062" d="M222.845,14.885c0-0.772,0.468-1.84,1.034-2.366l12.486-11.562C236.935,0.434,238.038,0,238.812,0h23.042
		c0.774,0,1.409,0.636,1.409,1.408v24.358c0,0.772-0.459,1.842-1.024,2.375l-11.682,11.039c-0.56,0.533-1.659,0.968-2.432,0.968
		h-23.868c-0.773,0-1.413-0.634-1.413-1.41V14.885z M248.126,38.385c0.328,0,0.985-0.264,1.228-0.486l11.676-11.035
		c0.208-0.202,0.473-0.807,0.473-1.097V1.763h-22.689c-0.334,0-1.006,0.263-1.252,0.486l-12.485,11.562
		c-0.21,0.196-0.464,0.789-0.464,1.074v23.5H248.126z"/>
</g>
</svg>
