<?xml version="1.1" encoding="UTF-8" standalone="no"?>
<svg width="284px" height="152px" xmlns="http://www.w3.org/2000/svg" version="1.1">
    <title></title>
    <description>Created with Sketch (http://www.bohemiancoding.com/sketch)</description>
    <defs>
        <linearGradient id="gradient-1" x1="41%" y1="-5%" x2="75%" y2="168%">
            <stop offset="0%" style="stop-color:rgb(37,153,218); stop-opacity:100"></stop>
            <stop offset="11%" style="stop-color:rgb(54,158,219); stop-opacity:100"></stop>
            <stop offset="31%" style="stop-color:rgb(89,171,226); stop-opacity:100"></stop>
            <stop offset="57%" style="stop-color:rgb(142,194,234); stop-opacity:100"></stop>
            <stop offset="89%" style="stop-color:rgb(219,233,247); stop-opacity:100"></stop>
            <stop offset="100%" style="stop-color:rgb(255,254,254); stop-opacity:100"></stop>
        </linearGradient>
        <linearGradient id="gradient-2" x1="39%" y1="67%" x2="159%" y2="-50%">
            <stop offset="0%" style="stop-color:rgb(37,153,218); stop-opacity:100"></stop>
            <stop offset="100%" style="stop-color:rgb(255,254,254); stop-opacity:100"></stop>
        </linearGradient>
        <linearGradient id="gradient-3" x1="94%" y1="57%" x2="-24%" y2="38%">
            <stop offset="0%" style="stop-color:rgb(37,153,218); stop-opacity:100"></stop>
            <stop offset="100%" style="stop-color:rgb(255,254,254); stop-opacity:100"></stop>
        </linearGradient>
    </defs>
    <g fill="none" id="Main Page">
        <path id="Shape" d="M158,1 L132,1 L119,14 L119,40 L145,40 L158,27" fill="rgb(76,77,79)"></path>
        <path id="Shape decoration" d="" fill="rgb(76,77,79)"></path>
        <path id="Shape" d="M133,2 L156,2 L145,14 L133,14" fill="rgb(20,166,237)"></path>
        <path id="Shape decoration" d="" fill="rgb(20,166,237)"></path>
        <path id="Shape" d="M132,3 L132,14 L121,14" fill="rgb(20,166,237)"></path>
        <path id="Shape decoration" d="" fill="rgb(20,166,237)"></path>
        <path id="Shape" d="M120,14 L132,14 L132,27 L120,38" fill="rgb(20,166,237)"></path>
        <path id="Shape decoration" d="" fill="rgb(20,166,237)"></path>
        <path id="Shape" d="M144,38 L121,38 L132,27 L144,27" fill="rgb(20,166,237)"></path>
        <path id="Shape decoration" d="" fill="rgb(20,166,237)"></path>
        <path id="Rectangle" d="M133,14 L133,25 L144,25 L144,14 L133,14" fill="rgb(20,166,237)"></path>
        <path id="Rectangle decoration" d="" fill="rgb(20,166,237)"></path>
        <path id="Shape" d="M145,38 L145,27 L156,27" fill="rgb(20,166,237)"></path>
        <path id="Shape decoration" d="" fill="rgb(20,166,237)"></path>
        <path id="Shape" d="M156,26 L145,26 L145,14 L156,3 L157,26" fill="rgb(20,166,237)"></path>
        <path id="Shape decoration" d="" fill="rgb(20,166,237)"></path>
        <path id="Shape" d="M75,87 C75,96 72,104 65,112 C50,129 35,141 19,148 C15,150 12,151 9,152 C9,152 8,152 7,152 C5,152 4,151 2,150 C3,149 4,148 5,148 C5,148 6,148 7,148 C15,145 24,140 34,133 C42,126 50,119 57,112 C65,103 69,95 69,88 C69,85 68,82 66,79 C65,77 63,75 61,74 C58,72 56,71 54,70 C54,70 53,70 53,70 C52,70 50,70 48,69 C46,69 44,68 44,68 C41,68 36,67 29,67 L28,67 L27,68 C17,97 9,123 5,146 C4,146 3,145 3,145 C2,144 2,144 1,143 C1,137 2,130 4,122 C6,115 8,106 12,95 C16,81 19,72 20,68 C18,68 15,68 12,69 C8,70 6,71 5,71 C4,70 4,69 4,69 C4,68 4,67 4,67 C7,65 13,63 22,61 C23,59 24,58 26,58 C27,58 29,59 30,61 C40,62 48,63 53,64 C62,66 68,71 72,77 C74,80 75,83 75,87" fill="rgb(76,77,79)"></path>
        <path id="Shape decoration" d="" fill="rgb(76,77,79)"></path>
        <path id="Shape" d="M96,102 C96,106 95,110 94,115 C93,119 92,123 91,127 C91,130 90,133 90,138 C89,140 88,141 86,141 C85,141 85,140 84,140 L83,138 C83,131 84,124 85,117 C86,107 87,101 90,98 C91,98 91,98 92,98 C93,98 93,99 94,100 C95,101 95,102 96,102" fill="rgb(76,77,79)"></path>
        <path id="Shape decoration" d="" fill="rgb(76,77,79)"></path>
        <path id="Shape" d="M101,81 L101,81 C100,83 98,84 95,84 C95,84 94,84 93,84 C91,82 89,80 89,78 C89,76 91,74 94,74 C95,74 98,75 101,78 C101,80 101,81 101,81" fill="rgb(76,77,79)"></path>
        <path id="Shape decoration" d="" fill="rgb(76,77,79)"></path>
        <path id="Shape" d="M202,69 C202,69 202,71 201,74 C196,88 194,96 193,100 C190,110 189,119 189,126 C189,131 189,135 190,138 C190,139 189,139 189,139 C189,139 188,139 187,138 C184,135 183,130 183,124 C183,119 184,112 186,104 C187,97 189,90 191,84 L192,79 C180,92 165,106 149,121 C145,124 139,128 132,135 C131,135 130,135 129,136 C124,139 121,140 119,140 C114,140 111,138 110,134 C109,132 109,130 109,127 C109,123 110,116 113,106 C115,97 117,91 119,86 C122,78 125,72 129,68 C129,68 130,68 130,68 C131,68 131,68 133,68 C133,69 134,70 134,71 C134,71 134,71 134,72 C126,83 121,98 117,116 C116,118 116,121 115,125 C115,126 115,127 115,129 C115,131 116,133 117,134 C117,135 118,135 118,135 C120,135 123,134 126,132 C128,130 133,126 140,120 C151,111 163,101 174,89 C177,86 185,79 197,66 C197,65 198,65 198,65 C199,65 201,66 202,67 C202,67 202,68 202,69" fill="rgb(76,77,79)"></path>
        <path id="Shape decoration" d="" fill="rgb(76,77,79)"></path>
        <path id="Shape" d="M284,63 C284,63 284,63 284,65 C280,68 278,70 277,70 C275,70 274,69 274,67 C274,67 275,66 275,65 C275,65 276,64 276,63 C274,62 271,61 267,61 C264,61 259,62 254,64 C248,66 240,68 232,72 C221,77 215,82 215,86 C215,87 216,88 219,89 C221,90 222,91 224,91 C226,92 229,93 232,95 C245,100 254,105 259,110 C262,113 263,116 263,120 C263,126 258,132 248,137 C239,141 231,143 224,143 C220,143 217,142 214,140 C213,139 213,138 213,137 C213,136 213,136 213,135 L216,133 C217,135 218,136 221,136 C224,136 228,136 232,135 C241,134 248,131 254,126 C256,124 257,122 257,119 C257,116 253,112 244,107 C243,107 237,104 227,99 C224,98 221,97 217,96 C213,94 211,92 209,89 C209,88 208,87 208,86 C208,83 210,80 213,77 C214,76 217,74 222,70 C223,70 226,68 231,66 C246,59 258,55 266,55 C271,55 276,56 280,58 C283,60 284,62 284,63" fill="rgb(76,77,79)"></path>
        <path id="Shape decoration" d="" fill="rgb(76,77,79)"></path>
        <path id="Shape" d="M53,10 C50,11 46,13 44,14 L43,13 L43,9 C46,8 49,7 51,6 L53,10" fill="rgb(20,166,237)"></path>
        <path id="Shape decoration" d="" fill="rgb(20,166,237)"></path>
        <path id="Shape" d="M44,3 C44,3 45,3 45,3 L45,3 C44,3 45,3 44,3" fill="rgb(76,77,79)"></path>
        <path id="Shape decoration" d="" fill="rgb(76,77,79)"></path>
        <path id="Shape" d="M44,3 C44,4 44,3 44,4 L44,4 C44,4 44,3 44,3" fill="rgb(76,77,79)"></path>
        <path id="Shape decoration" d="" fill="rgb(76,77,79)"></path>
        <path id="Shape" d="M78,5 C78,5 78,5 78,5 L78,5 C78,5 78,5 78,5" fill="rgb(76,77,79)"></path>
        <path id="Shape decoration" d="" fill="rgb(76,77,79)"></path>
        <path id="Shape" d="M80,34 L80,34 L80,34" fill="rgb(76,77,79)"></path>
        <path id="Shape decoration" d="" fill="rgb(76,77,79)"></path>
        <path id="Shape" d="M80,35 C80,35 80,34 80,34 C80,34 80,34 80,34 C80,34 80,34 80,34 C80,34 80,34 80,34 L80,34 C80,34 80,34 80,34 L80,34 L80,34 L80,34 L80,34 L80,34 C80,34 80,34 80,34 C80,34 80,34 80,34 C80,34 80,34 80,33 C80,33 80,33 80,33 C80,33 80,33 80,33 L80,33 C80,33 80,33 80,33 L80,33 C80,33 80,33 80,33 L80,33 C80,33 80,33 80,33 C80,32 80,32 80,31 L80,31 C80,31 80,31 80,31 C80,31 80,31 80,31 C80,31 80,31 80,31 L80,31 C80,31 80,31 80,30 L80,30 C80,30 80,30 80,30 C80,30 80,30 80,30 C80,30 80,30 80,30 L80,30 C80,30 80,30 80,30 L80,30 C80,30 80,30 80,30 C80,30 80,30 80,30 L80,30 C80,30 80,30 80,30 C80,29 80,29 80,29 C80,29 80,29 80,29 L80,29 C80,29 80,29 80,29 C80,29 80,29 80,29 L80,29 C80,29 80,29 80,28 L80,28 C80,28 80,28 80,28 L80,28 C80,28 80,28 80,27 L80,27 C80,27 80,27 80,27 C80,27 80,27 80,27 C80,27 80,27 80,27 L80,27 C80,27 80,27 80,27 C80,27 80,27 80,27 C80,26 80,25 80,24 C80,24 80,23 80,23 C80,23 80,23 80,23 C80,23 80,23 80,23 C79,22 80,22 79,22 L79,22 C79,22 79,22 79,22 C79,22 79,22 79,22 L79,22 C79,22 79,22 79,22 C79,22 79,22 79,22 C79,22 79,22 79,22 L79,22 L79,22 L79,22 C79,22 79,22 79,22 C79,22 79,22 79,22 C79,22 79,22 79,22 L79,22 C79,22 79,22 79,21 C79,21 79,21 79,21 C79,21 79,21 79,21 L79,21 L79,21 L79,21 C79,21 79,21 79,21 C79,20 79,20 79,19 C79,19 79,18 79,18 L79,18 C79,18 79,18 79,18 C79,18 79,18 79,18 C79,18 79,18 79,18 C79,18 79,18 79,18 L79,18 C79,18 79,18 79,18 C79,17 79,17 79,17 L79,17 C79,17 79,17 79,17 C79,17 79,17 79,17 L79,17 C79,17 79,17 79,17 C79,17 79,17 79,17 L79,17 C79,17 79,16 79,16 L79,16 C79,16 79,16 79,16 C79,16 79,16 79,16 C79,16 79,16 79,16 C79,16 79,16 79,16 C79,16 79,16 79,16 C79,16 79,16 79,16 L79,16 L79,16 L79,16 L79,16 L79,16 C79,16 79,16 79,16 C79,15 79,15 79,15 L79,15 C79,15 79,15 79,15 C79,14 79,14 79,13 L79,13 C79,13 79,13 79,13 C79,13 79,13 79,13 L79,13 C79,13 79,12 79,11 L79,11 C79,11 79,11 79,11 C79,12 79,12 79,11 C79,11 79,11 79,11 L79,11 C79,11 79,11 79,10 C79,10 79,10 79,10 C79,10 79,10 79,10 L79,10 C79,10 79,10 79,10 C79,10 79,10 79,10 C79,10 79,10 79,10 L79,10 C79,10 79,10 79,9 L79,9 C79,9 79,9 79,9 C79,9 79,9 79,9 C79,9 79,9 79,9 L79,9 C79,9 79,9 79,9 C79,9 79,9 79,8 L79,8 C79,8 79,8 79,8 C79,8 79,8 79,8 C79,8 79,8 79,8 L79,8 C79,8 79,8 79,8 C79,8 79,8 79,8 L79,8 C79,8 79,8 79,8 C79,8 79,8 79,8 L79,8 C79,8 79,8 79,8 C79,8 79,8 79,8 L79,7 C79,7 80,7 80,7 C80,7 79,7 79,7 L80,7 L79,7 L79,7 C79,7 79,7 79,7 C79,7 79,7 79,7 L79,7 C79,7 79,7 79,7 L79,7 L79,7 C79,7 79,7 79,7 C79,7 79,7 79,7 L79,7 L79,7 L79,7 C79,7 79,7 79,7 L79,7 C79,6 79,6 79,6 C79,6 79,6 79,6 L79,6 C79,6 79,6 79,6 L79,6 C79,6 79,6 79,6 C79,6 79,6 79,6 L79,6 C79,6 79,6 79,6 L79,6 C79,6 79,6 79,6 C79,6 79,6 79,6 L79,6 C79,6 79,6 79,6 L79,6 L79,6 C79,6 79,6 79,6 C78,6 78,5 78,5 C78,5 78,5 79,5 C79,5 79,5 79,5 L79,5 C79,5 79,5 79,5 L79,5 C79,5 79,5 79,5 C79,4 78,4 78,4 L78,4 C78,4 78,4 78,4 L78,4 L78,4 C78,4 78,4 78,4 C78,4 78,4 78,4 L78,4 L78,4 C78,4 77,4 77,4 C77,4 77,4 77,3 C77,3 77,3 77,3 L77,3 C77,3 77,3 77,3 L77,3 C76,3 76,3 76,3 L76,3 C76,3 76,3 76,3 C76,3 76,3 76,3 C76,3 76,3 75,3 L75,3 C75,3 75,3 75,3 C75,3 75,3 75,3 C75,3 75,3 75,3 L75,3 C75,3 75,3 75,3 C75,3 75,3 75,3 C75,3 75,3 75,3 L75,3 C75,3 75,3 75,3 L75,3 C75,3 75,3 75,3 C75,3 75,3 75,3 C75,3 74,3 74,3 C74,3 74,3 74,3 L74,3 C74,3 74,3 74,3 L74,3 L74,3 C74,3 74,3 74,3 C74,3 74,3 74,3 C74,3 74,2 74,3 C73,3 73,3 73,3 C73,3 73,3 73,3 C73,3 73,3 73,3 L73,3 C73,3 73,3 73,3 C73,3 73,3 73,3 L72,3 C72,3 72,3 72,3 L72,3 C72,3 72,3 71,3 L71,3 C71,3 71,3 71,3 C71,3 71,3 71,3 C71,3 71,3 71,3 L71,3 C71,3 71,2 71,2 L71,2 C71,2 71,2 70,2 C70,2 70,2 70,2 C70,2 70,2 70,2 L70,2 C70,2 70,2 70,2 C70,2 70,2 70,2 L70,2 C70,2 70,2 70,2 L70,2 L70,2 C70,2 70,2 69,2 C69,2 69,2 69,2 L69,2 C69,2 69,2 69,2 C69,2 69,2 69,2 C69,2 69,2 69,2 L69,2 C69,2 69,2 69,2 C69,2 69,2 69,2 L69,2 C69,2 69,2 69,2 L69,2 C68,2 68,2 67,2 C67,2 67,2 67,2 L67,2 C67,2 67,2 67,2 C67,2 67,2 67,2 L67,2 C67,2 67,2 67,2 C66,2 66,2 66,2 C66,2 66,2 66,2 L66,2 C66,2 66,2 66,2 C66,2 66,2 66,2 L66,2 C66,2 66,2 66,2 C66,2 66,2 66,2 C66,2 66,2 66,2 C66,2 65,2 65,2 C65,2 65,2 65,2 C65,2 65,2 65,2 L65,2 C65,2 64,2 64,2 C65,2 65,2 65,2 C65,2 65,2 65,2 L65,2 C65,2 65,2 64,2 C64,2 64,2 64,2 C64,2 64,2 64,2 L64,2 C64,2 63,2 63,2 C63,2 63,2 63,2 C63,2 63,2 63,2 L63,2 C63,2 63,2 63,2 C63,2 63,1 63,1 C63,1 63,1 63,1 L63,1 C62,1 62,2 62,2 C62,2 62,2 62,2 L62,2 C62,1 62,1 62,1 C62,1 62,1 62,1 C62,1 62,1 62,1 C62,1 62,1 62,1 L62,1 C62,1 62,2 62,2 C62,2 62,1 62,1 L62,1 C62,1 62,1 62,1 C62,1 62,1 62,1 C62,1 62,1 62,1 C61,1 61,2 61,2 C61,2 61,2 61,2 C61,2 61,2 60,2 L60,2 C60,2 60,2 60,2 C60,2 60,2 60,2 C60,2 60,2 60,2 C60,2 60,2 60,2 C60,2 60,2 60,2 L60,2 C60,2 60,2 60,2 C60,2 60,2 60,2 L60,2 C60,2 60,2 59,2 C59,2 59,2 59,2 C59,2 59,2 59,2 L59,2 C59,2 59,2 59,2 C59,2 59,2 59,2 L59,2 C58,2 58,1 58,1 L58,1 C58,1 58,1 58,1 C58,1 58,2 58,2 C58,2 57,2 57,2 L57,2 C57,2 57,2 57,2 C57,2 57,2 57,2 C57,1 57,1 57,1 C57,1 57,1 57,1 C57,1 57,1 57,1 C57,1 57,1 57,1 C56,1 56,1 56,1 L56,1 C56,1 56,1 56,1 L56,1 C56,1 56,1 55,1 L55,1 C55,1 55,1 55,1 C55,1 55,1 55,1 L55,1 L55,1 C55,1 55,1 55,1 C55,1 55,1 55,1 L55,1 C55,1 55,2 54,2 C54,2 54,2 54,2 C54,2 54,1 54,1 C54,1 54,1 54,1 L54,1 C54,1 54,1 53,1 L53,1 C53,1 53,2 53,2 C53,2 53,2 53,2 L53,2 L53,2 L53,2 C53,2 53,1 53,1 C53,1 53,2 53,2 L53,1 C53,2 53,2 52,2 C52,2 52,1 52,2 C52,2 52,2 52,2 C52,2 52,2 52,2 C51,2 51,1 51,1 L51,2 C51,2 51,2 51,2 C51,2 51,2 50,2 L51,2 C51,2 51,2 51,2 C51,2 51,2 51,2 L51,2 C51,2 51,2 51,2 C50,2 50,2 50,2 C50,2 50,2 50,2 L50,2 C50,2 50,2 50,2 C50,2 50,2 50,2 C50,2 50,2 50,2 C49,2 49,2 49,2 C49,2 49,2 49,2 C49,2 49,2 49,2 L49,2 C49,2 48,2 48,2 C48,2 48,2 48,2 C48,2 48,2 48,2 L48,2 L48,2 L48,2 C48,2 48,2 48,2 C47,2 46,2 46,2 L46,2 C46,2 46,2 46,2 C46,2 46,2 46,2 L46,2 C46,2 46,2 46,2 C46,2 46,2 46,2 C46,2 45,2 45,2 C45,2 45,2 45,2 L45,2 C45,2 45,2 45,2 C45,2 45,2 45,2 L45,2 C45,3 45,3 45,3 C45,3 45,3 44,3 L44,3 C44,3 44,3 44,3 L44,3 C44,3 44,4 44,4 C44,4 44,4 44,4 L44,4 C44,4 44,4 44,4 C44,4 44,4 44,4 L44,4 C44,4 44,4 44,4 C43,4 43,4 43,4 C43,4 43,4 43,4 L43,4 L43,4 C43,5 43,5 43,5 C43,5 43,5 43,5 L43,5 C43,5 43,5 43,5 C43,5 43,5 43,5 L43,5 L43,5 L43,5 L43,5 C43,5 43,5 43,5 C43,5 43,5 43,5 C43,5 43,5 43,5 L43,5 C43,5 43,5 43,5 C43,5 43,5 43,5 L43,5 C43,5 43,5 42,5 C42,5 42,5 42,5 C42,5 42,5 42,5 L42,5 C42,6 42,6 42,7 L42,7 C42,7 42,7 43,7 C43,7 43,7 43,7 L43,7 C43,7 43,7 43,7 C43,7 43,7 43,7 L43,7 C43,7 43,7 43,7 C43,7 43,7 43,7 L43,7 C43,7 43,7 43,7 C43,7 43,7 43,7 L43,7 L43,7 C43,7 43,7 43,7 C43,7 43,7 43,7 L43,7 L43,7 L43,7 C43,7 43,7 43,7 C43,8 43,8 43,8 C43,8 43,8 43,8 C43,8 43,8 43,8 L43,8 C43,8 43,8 43,8 C43,8 43,8 43,8 C43,8 43,8 43,8 L43,8 C43,8 43,9 43,9 L43,9 L43,9 C42,9 42,9 42,9 C42,9 42,9 42,9 L42,9 C42,9 42,9 42,10 L42,10 C42,10 43,10 43,10 C43,10 42,10 42,10 C42,10 42,10 42,10 L42,10 C42,10 42,10 42,11 L42,11 C42,11 43,11 43,11 C43,11 42,11 42,11 C42,11 42,11 42,11 L42,11 C42,11 42,11 42,12 C42,12 42,12 42,12 L42,12 C42,12 42,12 42,12 C42,12 42,12 42,12 L42,12 C42,12 42,12 42,12 L42,12 C42,12 42,12 42,12 C42,12 42,12 42,12 L42,12 C42,12 42,12 42,12 C42,12 42,13 42,13 C42,13 42,13 42,13 L42,13 C42,13 42,13 42,13 C42,13 42,13 42,13 L42,13 C42,13 42,14 42,14 C42,14 42,14 42,14 C42,14 42,14 42,14 L42,14 C42,14 42,15 42,15 C42,16 42,16 42,17 C42,17 42,17 42,17 L42,17 C42,17 42,17 42,17 C42,17 42,17 42,17 L42,17 C42,17 42,18 42,18 C42,18 42,18 42,18 C42,18 42,18 42,18 L42,18 C42,19 42,19 42,19 L42,19 C42,19 42,19 42,19 C42,20 42,20 42,20 L42,20 C42,20 42,21 42,21 L42,21 L42,21 C42,21 42,21 42,21 L42,21 C42,21 42,21 42,21 C42,21 42,21 42,21 C42,21 42,21 42,21 L42,21 C42,21 42,21 42,21 C42,21 42,21 42,21 L42,21 C42,21 42,21 42,22 C42,22 42,22 42,22 C42,22 42,22 42,22 C42,22 42,22 42,22 C42,22 42,22 42,22 L42,22 C42,22 42,22 42,22 C42,23 42,23 42,23 L42,23 C42,23 42,23 42,23 C42,23 42,23 42,23 C43,24 42,25 42,25 L42,25 C42,25 42,25 42,25 C42,25 42,25 42,25 L42,25 C42,26 42,26 42,26 C42,26 42,26 42,26 C42,26 42,26 42,26 L42,26 C42,26 42,27 42,28 C42,28 42,28 42,28 C42,28 42,28 42,28 L42,28 C42,28 42,28 42,28 C42,28 42,28 42,28 L42,28 C42,28 42,28 42,28 C42,28 42,28 42,28 L42,28 C42,28 42,28 42,28 C42,28 42,28 42,28 C42,28 42,28 42,29 L42,29 C42,29 42,29 42,29 C42,30 42,30 42,30 C42,30 42,30 42,30 L42,30 C42,30 42,30 42,30 C42,30 42,30 42,30 C42,30 42,30 42,30 L42,30 C42,31 42,31 42,31 L42,31 C42,31 42,31 42,31 C42,31 42,31 42,31 C42,31 42,31 42,31 L42,31 C42,31 42,32 42,32 C42,32 42,32 42,32 L42,32 C42,32 42,32 42,32 L42,32 C42,32 42,32 42,32 C42,32 42,32 42,32 L42,32 C42,32 42,32 42,32 C42,32 42,32 42,32 C42,32 42,32 42,32 C42,32 42,32 42,32 L42,32 C42,32 42,33 42,33 C42,33 42,33 42,33 L42,33 C42,33 42,33 42,33 L42,33 C42,33 42,33 42,33 C42,33 42,33 42,33 L42,34 L42,34 C42,34 42,34 42,34 C42,34 42,34 42,34 L42,34 C42,34 42,34 42,34 C42,35 42,35 42,36 C42,36 42,36 42,36 L42,36 C42,36 42,36 42,36 C42,36 42,36 42,36 L42,36 C42,36 42,36 42,36 L42,36 C42,36 42,37 42,37 C42,37 42,37 42,37 L42,37 C42,37 42,37 42,37 C42,37 42,37 42,37 C42,37 42,37 42,37 C42,37 42,37 42,37 C42,37 42,37 42,37 C42,37 42,37 42,38 L42,38 C42,38 42,38 42,38 L42,38 C42,38 42,38 42,38 C42,38 42,38 42,38 L42,38 C42,38 42,38 43,38 L43,38 C43,38 43,38 43,38 C43,39 43,39 43,39 L43,39 C43,39 43,39 43,39 L43,39 C43,39 43,39 43,39 C43,39 43,39 43,39 L43,39 C44,39 44,39 44,39 L44,39 C44,39 44,39 44,39 C44,39 44,39 44,39 C44,39 44,39 44,39 C44,39 44,39 44,39 L44,39 C45,39 45,39 45,39 C45,39 45,39 45,39 L45,39 L45,39 C45,39 45,39 45,39 L45,39 C45,39 45,39 45,39 C45,39 45,39 45,39 C45,39 45,39 45,39 L45,39 L46,39 L46,39 C46,39 46,39 46,39 C46,39 46,39 46,39 L46,39 C46,39 46,39 46,39 C46,39 46,39 46,39 L46,39 C46,39 46,39 46,39 C46,39 46,39 46,38 C46,38 47,39 47,39 C47,39 47,39 47,39 C47,39 47,39 47,39 C47,38 47,39 47,38 L47,38 C47,38 47,38 47,38 L47,38 C47,38 47,38 47,38 C47,38 47,38 47,38 L47,38 C47,38 47,38 47,38 C47,38 47,38 47,38 L47,38 C47,38 48,38 48,38 C48,38 48,38 48,38 C48,38 48,38 48,38 L48,38 C49,38 49,38 49,38 C49,38 49,39 49,39 L49,39 C49,39 49,39 49,39 C49,39 49,39 49,39 C49,39 49,39 49,39 C49,39 49,38 50,38 C50,38 50,39 50,39 C50,39 50,39 50,39 L50,39 C50,39 50,39 50,39 L50,39 C50,39 50,38 50,38 C50,38 50,38 50,38 L50,39 C51,39 51,39 51,39 L51,39 C51,39 51,39 51,39 C51,39 51,39 51,38 C51,38 51,38 51,38 L51,38 C51,38 51,38 51,38 C51,38 51,38 51,38 L51,38 C51,38 51,38 51,38 C51,38 51,38 51,38 C51,38 51,38 51,38 L51,38 C51,39 51,39 52,39 L52,39 C52,39 52,39 53,39 C53,39 53,39 53,39 C53,39 53,39 53,39 L53,39 L53,39 L53,39 C53,39 53,39 53,39 C53,39 53,39 53,39 L53,39 L53,39 L53,39 L53,39 C54,39 54,39 54,39 C54,39 54,39 54,39 L54,39 C54,39 54,39 54,39 C54,39 54,39 54,39 C54,39 54,39 54,39 L54,39 C54,39 54,39 54,39 C54,39 54,39 54,39 L54,39 C54,39 54,39 54,39 C54,39 54,39 54,39 C54,39 54,39 54,39 C55,39 55,39 55,39 C55,39 56,39 56,39 L56,39 C56,39 56,39 56,39 L56,39 C56,39 56,39 56,39 L56,39 C56,39 56,39 56,39 C56,39 56,39 56,39 C56,39 56,39 56,39 C56,39 56,39 56,39 C56,39 57,39 57,39 C57,39 57,39 57,39 C57,39 57,39 57,39 C57,39 57,39 57,39 L57,39 C57,39 57,39 57,39 C57,39 57,39 57,39 C57,39 57,39 57,39 C57,39 57,39 57,39 L57,39 C57,39 58,39 58,39 C58,39 58,39 58,39 L58,39 C58,39 58,39 58,39 C58,39 58,39 58,39 L58,39 C58,39 58,39 58,39 L58,39 C59,39 59,39 59,39 C59,39 59,39 59,39 C59,39 59,39 59,39 L59,39 C60,39 61,39 61,39 C61,39 62,39 62,39 L62,39 C62,39 62,39 62,39 C62,39 62,39 62,39 C62,39 62,39 62,39 L62,39 C62,39 62,39 62,39 C62,39 62,39 62,39 C62,39 62,39 63,39 L63,39 C63,39 63,39 63,39 C63,39 63,39 63,39 L63,39 C63,39 63,39 63,39 L63,39 C63,39 63,39 64,39 C64,39 64,39 64,39 L64,39 C64,39 64,39 64,39 C64,39 64,39 64,39 L64,39 C64,39 64,39 64,39 L64,39 C64,39 64,39 64,39 C64,39 64,39 64,39 L64,39 C64,39 64,39 64,39 C64,39 64,39 64,39 L64,39 C64,39 64,39 64,39 C64,39 64,39 64,39 C64,39 64,39 64,39 C65,39 65,39 65,39 L65,39 C65,39 65,39 65,39 C65,39 65,39 65,39 L65,39 C65,39 65,39 65,39 C65,39 65,39 65,39 C65,39 65,39 65,39 L65,39 C65,39 66,39 66,39 C66,39 66,39 66,39 C66,39 66,39 66,39 L66,39 C66,39 66,39 67,39 L67,39 C67,39 68,39 69,39 C69,39 69,39 69,39 L69,39 C69,39 69,39 69,39 C69,39 69,39 69,39 C69,39 69,39 69,39 C69,39 69,39 69,39 L69,39 C69,39 69,39 70,39 L70,39 C70,39 70,39 70,39 C70,39 70,39 70,39 C70,39 70,39 70,39 C70,39 70,39 70,39 C70,39 71,39 71,39 L71,39 C71,39 71,39 71,39 C71,39 71,39 72,38 L72,38 L72,38 L72,38 L72,38 L72,38 L72,38 L72,38 C72,38 72,38 72,38 C72,38 72,38 72,38 C72,38 72,38 72,38 C72,38 72,38 72,38 C72,38 72,38 72,38 L72,38 L72,38 L73,38 C73,38 73,38 73,38 C73,38 73,38 73,38 L73,38 C73,39 73,39 73,39 C73,39 73,39 73,39 L73,39 C73,39 73,39 73,39 C74,39 74,39 74,39 C74,39 74,39 74,39 C74,39 74,39 74,39 C74,38 74,39 74,39 L74,38 L74,38 C74,38 74,38 74,38 C74,38 74,38 74,38 C74,38 74,38 74,38 L74,38 C74,38 74,38 74,39 L74,38 C74,39 74,39 74,39 C74,39 74,39 74,39 L74,39 C74,39 74,39 74,39 C74,39 74,39 75,39 C75,39 75,39 75,39 L75,39 C75,38 75,38 76,38 C76,38 76,38 76,38 C76,38 76,38 76,38 L76,38 C76,38 76,38 76,38 L76,38 L76,38 C76,38 76,38 76,38 L76,38 C76,38 76,38 76,38 C76,38 76,38 76,38 L76,38 C76,38 76,38 76,38 C76,38 76,38 76,38 L77,38 C77,38 77,38 77,38 C77,38 77,38 77,38 L77,38 C77,38 77,38 77,38 C77,38 77,38 77,38 C77,38 77,38 77,37 L77,37 C77,37 77,37 77,37 L78,37 C78,37 78,37 78,37 L78,37 C78,37 78,37 78,37 C78,37 78,37 78,37 L78,37 L78,37 C78,37 78,37 78,37 L78,37 C78,37 78,37 78,37 C78,37 78,37 78,37 C78,37 78,37 78,37 L78,37 C78,37 79,37 79,37 C79,37 78,37 78,37 L79,37 C78,37 78,36 78,36 C78,36 78,36 78,36 L78,36 L79,36 L79,36 L79,36 C79,36 79,36 79,36 L79,36 C79,36 79,36 79,36 C79,36 79,36 79,36 L79,36 C79,36 79,36 79,36 C79,36 79,36 79,36 L79,36 C79,36 79,36 79,36 L79,36 C79,35 79,35 79,35 L79,35 C79,35 79,35 79,35 C79,35 79,35 79,35 L79,35 C79,35 79,35 79,35 C79,35 79,35 79,35 L79,35 L79,35 L79,35 C79,35 79,35 79,35 C79,35 79,35 79,35 C79,35 79,35 79,35 C79,35 79,35 79,34 C80,35 80,35 80,35 C80,35 80,35 80,35 L80,35 M78,26 L78,26 C78,26 78,26 78,27 C78,27 78,27 78,27 C78,27 78,27 78,27 L78,27 C78,27 78,27 78,27 C78,27 78,27 78,27 C78,27 78,27 78,27 L78,27 C78,27 78,28 78,28 C78,28 78,28 78,28 C78,28 78,28 78,28 L78,28 C78,28 78,28 78,28 C78,28 78,28 78,28 C78,28 78,28 78,28 L78,28 C78,29 78,29 78,30 C78,30 78,30 78,30 L78,30 C78,30 78,30 78,30 L78,30 C77,30 77,30 77,31 L77,31 C77,31 77,31 77,31 C77,31 77,31 78,31 C78,31 78,31 78,31 C78,31 78,31 78,31 C77,31 77,32 77,32 C77,32 77,32 77,32 C77,32 77,32 77,32 C77,32 77,32 77,32 L77,32 C77,32 77,32 78,32 C78,32 78,33 78,33 C78,33 77,33 77,33 L77,34 L77,34 C77,34 77,34 77,34 C77,34 77,34 77,34 L77,34 C77,34 77,34 77,34 C77,34 77,35 77,35 C77,35 77,35 77,35 L77,35 C77,35 77,35 77,35 C77,35 77,35 77,35 L77,35 C77,36 77,36 77,36 L77,36 C77,36 77,36 77,36 C77,36 77,36 77,36 L77,36 L77,36 L77,36 C77,36 77,36 77,36 C77,36 77,36 77,36 L77,36 C77,36 77,36 77,36 C76,36 76,37 76,37 L76,37 L76,37 C76,37 76,36 75,36 L75,36 C75,36 75,36 75,36 C75,36 75,36 75,36 C75,36 75,36 75,36 C75,36 75,36 75,37 L75,37 C75,37 74,36 74,37 L74,37 C74,37 74,37 74,37 L74,37 C74,37 74,37 74,37 C73,37 73,37 73,37 C73,37 73,37 72,37 C72,37 72,37 72,37 L72,37 L72,37 L72,37 C72,37 72,37 72,37 C72,37 72,37 72,37 L72,37 C72,37 72,37 72,37 C72,37 72,37 72,37 L72,37 C72,37 72,37 72,37 C71,37 71,37 71,37 C71,37 71,37 71,37 L71,37 C71,37 71,37 71,37 L71,37 C71,37 71,37 71,37 C71,37 71,37 71,37 C71,37 71,37 71,37 L71,37 C71,37 71,37 71,37 C71,37 71,37 71,37 L71,37 L71,37 L71,37 L71,37 L71,37 L71,37 L71,37 L71,37 C70,37 70,37 70,37 C70,37 70,37 70,37 C70,37 70,37 70,37 C70,37 70,37 70,37 C70,37 69,37 69,37 L69,37 C69,37 69,37 69,37 C69,37 69,37 69,37 L69,37 C69,37 69,37 69,37 C69,37 69,37 69,37 L69,37 C68,37 68,37 68,37 C68,37 68,37 68,37 C68,37 68,37 68,37 L68,37 L68,37 L68,37 C68,37 68,37 68,37 C68,37 67,37 67,37 L67,37 C67,37 67,37 67,37 C67,37 67,37 67,37 L67,37 C67,37 67,37 67,37 C67,37 67,37 67,37 L67,37 C67,37 66,37 66,37 L66,37 C66,37 66,37 66,37 L66,37 C65,37 64,37 64,38 C64,37 64,37 64,37 L63,37 C63,37 63,37 63,37 C63,37 63,37 63,37 L63,37 L63,37 L63,37 C63,37 63,37 63,37 C63,37 63,37 63,37 L63,37 C63,37 63,37 63,37 C63,37 63,37 63,37 L63,37 C63,37 63,37 63,37 C63,37 63,37 63,37 L63,37 C63,37 63,37 63,37 C63,37 63,37 63,37 C63,37 63,37 63,37 C62,37 62,37 61,37 C61,37 61,37 61,37 C61,37 61,37 61,37 C61,37 61,37 61,37 L61,37 C61,37 61,37 61,37 C61,37 61,37 61,37 L61,37 C60,37 60,37 60,37 C60,37 60,37 60,37 C60,37 60,37 60,37 L60,37 C59,37 59,37 59,37 C59,37 59,37 59,37 L59,37 C58,37 58,37 58,37 C58,37 58,37 58,37 L58,37 C58,37 58,37 58,37 C58,37 58,37 58,37 L58,37 C58,37 58,37 57,37 L57,37 L57,37 C57,37 57,37 57,37 C57,37 57,37 57,37 L57,37 C57,37 56,37 56,37 C56,37 56,37 56,37 C56,37 56,37 56,37 L56,37 L56,37 L56,37 C56,37 56,37 56,37 C56,37 56,37 56,37 C56,37 56,37 56,37 L56,37 C55,37 55,37 55,37 C55,37 55,37 55,37 L55,37 C55,37 55,37 55,37 C55,37 55,37 55,37 L55,37 C55,37 55,37 55,37 C55,37 55,37 55,37 C55,37 55,37 55,37 L55,37 C54,37 54,37 54,37 L54,37 C54,37 54,37 54,37 L54,37 C54,37 54,37 54,37 L54,37 C54,37 54,37 54,37 C54,37 54,37 54,37 L54,37 C53,37 53,37 53,37 C53,37 53,37 53,37 C53,37 53,37 53,37 L53,37 C53,37 52,37 52,37 C52,37 52,37 52,37 C52,37 52,37 52,37 L52,37 C52,37 52,37 52,37 C52,36 52,36 52,36 C52,36 52,36 52,36 L52,36 C52,36 51,36 51,36 C51,36 51,36 51,36 L51,36 C51,36 51,36 51,36 L51,36 L51,36 C51,36 51,36 50,36 C50,36 50,36 50,36 L50,36 L50,36 C50,36 50,36 49,36 L49,36 L49,36 L49,36 L49,36 C49,36 49,36 49,36 C49,36 49,36 49,36 L49,36 L49,36 C49,36 49,36 49,36 C49,36 49,36 49,36 L49,36 C48,36 48,36 48,36 L48,36 C48,36 48,36 48,36 C47,36 47,36 47,36 C47,36 47,36 47,36 C47,36 47,36 47,36 C47,36 47,36 47,36 L47,36 C47,36 47,36 47,36 L47,36 C47,36 47,36 47,36 L47,36 L47,36 L47,36 C47,36 47,36 47,36 L47,36 C47,36 47,36 47,36 C47,36 47,36 47,36 L47,36 C47,36 46,36 46,36 C46,36 46,36 46,36 L46,36 C46,36 46,36 45,36 C45,36 45,36 45,36 L45,36 L45,36 C45,36 45,35 45,35 L45,35 L45,35 L45,35 C45,35 45,35 45,35 C45,35 45,35 45,35 L45,35 C45,35 45,35 45,35 L45,35 C45,35 45,35 45,35 C45,35 45,35 45,34 L45,34 C45,34 45,34 45,34 C45,34 45,34 45,34 C45,34 45,34 45,34 L45,34 C45,34 45,34 45,34 C45,34 45,33 45,33 L45,33 C45,33 45,33 45,33 C45,33 45,33 45,33 L45,33 C45,33 44,32 44,32 C45,32 45,32 45,32 L45,32 C45,32 45,32 45,32 C45,32 45,32 45,32 C45,32 45,32 45,32 C45,32 45,31 44,31 C45,31 45,31 45,31 C45,31 45,31 45,31 L45,31 C45,30 44,30 44,30 C44,30 44,29 44,29 C44,29 45,29 45,29 C45,29 45,29 45,29 L45,29 C44,29 44,29 44,28 C44,28 45,28 45,28 C45,28 45,28 45,28 L45,28 C45,28 44,27 44,27 C45,27 45,27 45,26 C45,26 45,26 45,26 L45,26 C45,26 45,26 45,26 L45,26 C45,26 45,26 44,26 C44,25 45,25 45,24 L45,24 C45,24 45,24 45,24 C45,24 44,24 44,24 C44,24 44,24 44,23 C44,23 45,23 45,23 C45,23 45,23 45,23 L45,23 C45,23 45,23 45,23 C45,23 45,23 45,23 C45,23 45,23 45,23 L45,23 C45,22 44,22 44,22 L44,22 C45,22 45,22 45,22 C45,22 45,22 45,22 C45,22 45,22 45,22 C45,21 45,21 45,21 L45,21 C45,21 45,21 44,21 C44,21 44,21 44,21 L44,21 C44,21 44,21 44,21 C44,21 44,21 44,21 C44,19 44,17 44,15 C44,15 45,15 45,15 L45,15 C45,15 45,15 45,15 C45,15 45,15 45,15 L45,15 C45,15 45,15 45,14 L45,14 C45,14 45,14 45,14 C45,14 45,14 45,14 L45,14 C45,13 45,13 45,12 L45,12 C45,12 45,12 45,12 C45,12 45,12 45,12 L45,12 C45,12 45,11 45,11 C45,11 45,11 45,11 C45,11 45,11 45,11 L45,11 C45,11 45,10 45,10 C45,10 45,10 45,10 C45,10 45,10 45,10 L45,10 C45,10 45,9 45,9 C45,9 45,9 45,9 C45,9 45,9 45,9 L45,9 C45,9 45,9 45,8 C45,8 45,8 45,8 L45,8 C45,7 45,6 45,5 C45,5 45,5 45,5 C45,5 45,5 45,5 L45,5 C45,5 45,5 45,5 C45,5 46,5 46,5 L46,5 C46,5 46,5 46,5 L46,5 C46,5 46,5 46,5 L46,5 L46,5 C46,5 46,4 46,4 C46,4 46,4 46,4 L46,4 C46,4 46,4 46,4 C46,4 46,4 46,4 C46,4 46,4 46,4 C46,4 46,4 46,4 L46,4 C46,4 46,4 46,4 C47,4 47,4 47,4 C47,4 47,4 47,4 C47,4 47,4 47,4 C47,3 47,4 47,4 L47,3 C47,3 47,3 47,3 C47,3 47,3 47,3 L47,4 C47,4 47,4 47,4 C47,4 48,4 48,4 C48,4 48,4 48,4 C48,4 48,4 48,4 C48,4 48,4 48,4 L48,4 C48,4 48,4 48,4 C48,4 49,4 49,4 L49,4 C49,4 49,4 49,4 C49,4 49,4 49,4 C49,4 50,4 50,4 L50,4 C51,4 51,4 51,4 C51,3 51,3 51,3 L51,3 L51,3 C51,3 51,3 52,3 C52,3 52,3 52,3 L52,3 C52,4 52,4 52,4 C52,4 52,4 52,4 L52,4 C52,4 52,3 53,3 C53,3 53,3 53,3 L53,3 C53,3 53,3 53,3 C53,4 54,4 54,4 L54,4 C54,4 54,4 54,4 C54,4 54,4 54,4 L54,4 L54,4 L54,4 C55,4 55,4 55,4 L55,4 C55,4 55,3 55,3 C55,3 55,3 55,3 C56,3 56,4 57,4 C57,4 57,4 57,4 L57,4 C57,4 57,4 57,4 L57,4 C57,4 57,4 57,4 C57,4 57,4 57,4 C57,4 57,4 57,4 L57,4 C57,4 57,4 58,4 C58,4 58,4 58,4 C58,4 58,4 58,4 L58,4 L58,4 L58,4 C58,4 58,4 58,4 C58,4 59,4 59,4 L59,4 C59,4 59,4 59,3 C60,4 60,4 61,4 L61,4 L61,4 C61,4 61,4 61,4 C61,4 61,4 61,4 L61,4 C61,4 62,4 62,4 C62,4 62,4 62,4 L62,4 C62,4 63,4 63,4 L63,4 C63,4 63,4 63,4 C63,4 63,4 63,4 L63,4 C63,4 63,4 63,4 C63,4 63,4 63,4 C63,4 63,4 63,4 L63,4 C63,4 63,4 63,4 C63,4 63,4 63,4 L63,4 C64,4 65,4 65,4 C65,4 65,4 65,4 L65,4 C65,4 65,4 65,4 C65,4 65,4 65,4 L65,4 C66,4 66,4 66,4 L66,4 C66,4 66,4 66,4 L66,4 L66,4 C66,4 66,4 66,4 L66,4 L66,4 C66,4 67,4 67,4 C67,4 67,5 67,5 C67,5 67,5 67,5 L67,5 C67,5 68,5 68,5 L68,5 C68,5 68,4 68,4 L68,4 L68,4 C68,4 68,4 68,4 C68,4 68,4 68,4 L68,4 C69,4 69,4 69,4 L69,4 L69,4 C69,4 70,5 70,5 C70,5 70,5 70,5 L70,5 C70,5 70,4 70,4 C70,4 70,5 70,5 L70,5 C70,5 70,5 70,5 L70,5 C70,5 70,5 70,5 C70,5 70,5 70,5 C70,5 70,5 70,5 C70,5 71,5 71,5 C71,5 71,5 71,5 C71,5 71,5 71,5 L71,5 C72,5 72,5 72,5 C72,5 72,5 72,5 C72,5 72,5 72,5 L72,5 L72,5 C72,5 72,5 72,5 L72,5 L72,5 L72,5 C72,5 73,5 73,5 L73,5 C73,5 73,5 73,5 C73,5 73,5 73,5 C73,5 73,5 73,5 L73,5 C73,5 73,5 73,5 L73,5 C73,5 73,5 73,5 C73,5 73,5 73,5 C73,5 73,4 73,4 C73,4 73,4 73,4 C73,4 73,4 73,4 C73,4 73,4 73,4 L74,5 C74,5 74,5 74,5 C74,5 74,5 74,5 L74,5 C74,5 74,5 74,5 C74,5 74,5 74,5 L74,5 L74,5 C75,6 75,6 75,6 L75,6 C75,5 75,6 75,6 C75,6 75,6 75,6 L75,6 C75,6 75,6 75,6 C75,6 75,6 75,6 L75,6 C76,6 76,6 76,6 C76,6 76,6 76,6 L76,6 C76,6 76,6 76,6 L76,6 L76,6 L76,6 C76,6 76,6 76,6 L76,6 L76,6 C76,7 76,7 76,7 L76,7 C76,7 76,7 76,7 L76,7 L76,7 L76,7 L76,7 C76,7 76,7 76,7 C76,7 76,8 76,8 C76,8 76,8 76,8 C76,8 76,8 76,8 C76,8 76,8 76,8 L76,8 C76,8 76,8 77,9 L77,9 C77,9 77,9 77,9 C77,9 77,9 77,9 L77,9 C77,9 77,9 77,9 L77,9 C77,10 77,10 77,11 L77,11 C77,11 77,11 77,11 C77,11 77,11 77,11 C77,11 77,11 77,11 L77,11 C77,11 77,11 77,11 L77,11 L77,11 C77,11 77,11 77,11 C77,11 77,12 77,12 C77,12 77,12 77,12 L77,12 C77,12 77,12 77,12 C77,12 77,12 77,12 L77,12 C77,12 77,12 77,12 L77,12 C77,12 77,13 77,13 C77,13 77,13 77,13 L77,13 C77,13 77,13 77,13 C77,13 77,13 77,13 C77,13 77,13 77,13 C77,13 77,13 77,13 L77,13 L77,13 L77,13 C77,13 77,13 77,13 C77,13 77,13 77,13 L77,13 C77,13 77,13 77,13 C77,14 77,15 78,16 L78,16 C78,16 78,16 78,16 C78,16 78,16 78,16 L78,16 C78,16 78,16 78,16 C78,16 78,17 78,17 C78,17 78,17 78,17 C78,17 78,17 78,17 L78,17 C78,17 78,18 78,18 L78,18 C78,18 78,18 78,18 L78,18 C78,18 78,18 78,18 L78,18 L78,18 C78,18 78,18 78,18 C78,18 78,18 78,18 L78,18 C78,18 78,18 78,19 C78,19 78,19 78,19 L78,19 C78,19 78,19 78,19 C78,19 78,19 78,19 C78,19 78,19 78,19 C78,19 78,20 78,20 C78,20 78,20 78,20 C78,20 78,20 78,20 L78,20 C78,21 78,22 78,22 C78,23 78,23 78,23 L78,23 C78,23 78,23 78,23 C78,23 78,23 78,23 L78,23 L78,23 L78,23 L78,23 C78,23 78,23 78,23 C78,23 78,23 78,24 C78,24 78,24 78,24 C78,24 78,24 78,24 L78,24 C78,24 78,24 78,24 C78,24 78,24 78,25 C78,25 78,25 78,25 L78,25 L78,25 L78,25 C78,25 78,25 78,25 L78,25 L78,25 C78,25 78,25 78,25 C78,25 78,25 78,25 L78,25 L78,25 L78,25 C78,25 78,25 78,25 C78,25 78,25 78,25 L78,25 L78,25 C78,25 78,25 78,26 C78,26 78,26 78,26 C78,26 78,26 78,26 C78,26 78,26 78,26 L78,26 M80,37 L80,37 L80,37 L80,37" fill="rgb(76,77,79)"></path>
        <path id="Shape decoration" d="" fill="rgb(76,77,79)"></path>
        <path id="Shape" d="M67,33 C65,34 63,35 60,35 C59,36 58,35 59,35 C59,34 60,34 61,33 C65,31 70,30 74,27 C75,27 77,26 78,25 C78,25 79,24 79,23 C79,22 79,20 78,19 C76,18 74,19 73,19 C72,19 71,19 69,19 C64,21 59,24 54,27 C52,28 51,28 49,29 C50,28 51,27 51,27 C55,23 59,21 65,19 C68,18 70,17 73,15 C74,14 76,14 76,11 C77,9 75,7 74,7 C73,7 72,7 71,7 C67,7 65,9 62,10 C62,10 62,11 62,11 C62,10 63,10 63,9 C63,9 64,8 64,7 C64,7 64,7 64,6 L64,6 L64,5 C64,5 65,6 63,4 L63,4 L63,4 C62,3 61,3 60,3 C56,3 53,5 51,6 C50,6 49,6 49,7 L51,11 C51,10 52,10 53,10 C55,9 57,8 58,7 C58,8 58,8 57,8 C55,9 52,11 50,12 C49,13 47,14 46,15 C46,16 45,17 45,18 C45,19 45,19 45,20 C45,21 48,22 48,22 C49,22 51,21 52,21 C51,21 50,22 49,23 C48,23 47,25 46,25 C46,26 45,26 44,27 C44,28 43,30 44,31 C44,32 45,33 46,33 C46,33 47,33 48,33 C48,33 49,33 50,33 C52,33 53,32 54,31 C60,29 64,26 69,24 C85,19 68,27 61,31 C59,32 58,32 57,33 C57,34 56,35 57,37 C58,37 59,37 60,37 C63,37 65,35 67,34 C71,31 76,31 81,29 C76,30 71,30 67,33 C67,33 71,30 67,33 L67,33 M71,11 C71,11 71,11 71,11 C71,11 71,11 71,11 C69,13 67,14 65,15 C63,15 62,16 61,16 C64,14 68,12 71,11 C71,11 68,12 71,11 L71,11" fill="rgb(20,166,237)"></path>
        <path id="Shape decoration" d="" fill="rgb(20,166,237)"></path>
        <path id="Shape" d="M196,15 L210,2 L235,2 L235,27 L221,40 L196,40" fill="rgb(255,254,254)"></path>
        <path id="Shape decoration" d="" fill="rgb(255,254,254)"></path>
        <path id="Shape" d="M222,15 L196,15 L210,2 L235,2" style="fill:url(#gradient-1)" fill="none"></path>
        <path id="Shape decoration" d="" style="fill:url(#gradient-1)" fill="none"></path>
        <path id="Shape" d="M222,15 L196,15 L196,40 L222,40" style="fill:url(#gradient-2)" fill="none"></path>
        <path id="Shape decoration" d="" style="fill:url(#gradient-2)" fill="none"></path>
        <path id="Shape" d="M235,2 L222,15 L222,40 L235,27" style="fill:url(#gradient-3)" fill="none"></path>
        <path id="Shape decoration" d="" style="fill:url(#gradient-3)" fill="none"></path>
        <path id="Shape" d="M195,15 C195,15 196,14 196,13 L209,1 C209,1 211,1 211,1 L234,1 C235,1 236,1 236,2 L236,26 C236,27 235,28 235,29 L223,40 C222,40 221,41 221,41 L197,41 C196,41 195,40 195,39 L195,15 L195,15 M221,39 C221,39 222,39 222,38 L234,27 C234,27 234,27 234,26 L234,2 L211,2 C211,2 210,3 210,3 L198,14 C197,15 197,15 197,15 L197,39 L221,39 L221,39" fill="rgb(76,77,79)"></path>
        <path id="Shape decoration" d="" fill="rgb(76,77,79)"></path>
    </g>
</svg>