<?xml version="1.0" encoding="utf-8"?>
<!-- Generator: Adobe Illustrator 16.0.0, SVG Export Plug-In . SVG Version: 6.00 Build 0)  -->
<!DOCTYPE svg PUBLIC "-//W3C//DTD SVG 1.1//EN" "http://www.w3.org/Graphics/SVG/1.1/DTD/svg11.dtd">
<svg version="1.1" id="Flippa" xmlns="http://www.w3.org/2000/svg" xmlns:xlink="http://www.w3.org/1999/xlink" x="0px" y="0px"
	 width="518.79px" height="126.524px" viewBox="0 0 518.79 126.524" enable-background="new 0 0 518.79 126.524"
	 xml:space="preserve">
<path display="none" fill="#004270" d="M511.754,12.931c3.911,0,7.035,3.163,7.035,7.131c0,4.008-3.124,7.151-7.035,7.151
	c-3.829,0-6.935-3.143-6.935-7.151C504.82,16.094,507.925,12.931,511.754,12.931z M511.754,26.153c3.342,0,5.897-2.652,5.897-6.09
	c0-3.399-2.556-6.071-5.897-6.071c-3.261,0-5.775,2.672-5.775,6.071C505.979,23.5,508.494,26.153,511.754,26.153z M509.439,17.155
	h-0.709v-0.923h3.438c1.355,0,2.3,0.904,2.3,2.279c0,1.139-0.728,1.846-1.436,2.023v0.039c0,0,0.217,0.079,0.395,0.413l0.883,1.769
	c0.118,0.236,0.336,0.255,0.531,0.255h0.196v0.884h-0.569c-0.571,0-0.827-0.059-1.101-0.59l-1.062-2.082
	c-0.196-0.374-0.373-0.433-0.706-0.433h-1.06v3.104h-1.101V17.155z M511.972,19.925c0.824,0,1.355-0.531,1.355-1.415
	c0-0.865-0.531-1.356-1.355-1.356h-1.433v2.771H511.972z"/>
<path fill="#004270" d="M489.562,54.16h2.226v-0.555c0-10.15-4.031-13.902-13.07-13.902c-3.196,0-9.453,0.833-9.453,4.727v3.753
	h-16.401v-7.509c0-13.208,18.627-14.597,25.994-14.597c23.637,0,30.59,12.375,30.59,28.223v26.419c0,1.948,1.109,3.059,3.059,3.059
	h5.562v14.877h-15.852c-6.534,0-9.036-3.615-9.036-7.787c0-1.809,0.137-3.059,0.137-3.059h-0.276c0,0-5.424,12.512-21.412,12.512
	c-12.65,0-24.19-7.924-24.19-22.104C447.438,55.969,478.024,54.16,489.562,54.16z M475.94,86.555
	c9.455,0,16.128-10.006,16.128-18.632v-1.666h-3.062c-9.173,0-23.772,1.253-23.772,11.122
	C465.233,82.111,468.71,86.555,475.94,86.555z"/>
<path fill="#004270" d="M373.789,45.818c0-2.085-1.107-3.057-3.062-3.057h-5.56V27.746h15.71c6.536,0,8.899,2.919,8.899,6.811
	c0,1.669,0,2.78,0,2.78h0.278c0,0,5.978-11.26,22.523-11.26c19.188,0,31.562,15.155,31.562,37.122
	c0,22.526-13.905,37.121-32.532,37.121c-14.046,0-20.303-9.313-20.303-9.313h-0.28c0,0,0.28,2.503,0.28,6.118v29.337h-17.517V45.818
	z M408.405,85.446c9.735,0,17.938-7.924,17.938-21.97c0-13.486-7.233-22.244-17.659-22.244c-9.176,0-17.796,6.674-17.796,22.384
	C390.888,74.6,396.729,85.446,408.405,85.446z"/>
<path fill="#004270" d="M294.742,45.88c0-2.086-1.108-3.057-3.062-3.057h-5.56V27.808h15.71c6.535,0,8.899,2.919,8.899,6.811
	c0,1.669,0,2.781,0,2.781h0.278c0,0,5.978-11.26,22.523-11.26c19.188,0,31.562,15.155,31.562,37.122
	c0,22.527-13.905,37.121-32.534,37.121c-14.044,0-20.302-9.312-20.302-9.312h-0.279c0,0,0.279,2.502,0.279,6.117v29.338h-17.516
	V45.88z M329.357,85.508c9.735,0,17.938-7.924,17.938-21.971c0-13.486-7.233-22.244-17.658-22.244
	c-9.177,0-17.795,6.674-17.795,22.384C311.842,74.663,317.682,85.508,329.357,85.508z"/>
<path fill="#004270" d="M259.887,45.88c0-2.086-1.109-3.057-3.059-3.057h-5.56V27.808h16.822c6.537,0,9.32,2.919,9.32,9.455V80.78
	c0,1.949,1.108,3.059,3.054,3.059h5.562v14.877h-16.823c-6.53,0-9.316-2.778-9.316-9.455V45.88z M260.723,0h15.295v16.266h-15.295V0
	z"/>
<path fill="#004270" d="M225.043,18.074c0-2.086-1.114-3.059-3.06-3.059h-5.562V0h16.823c6.537,0,9.456,2.918,9.456,9.456V80.78
	c0,1.949,1.111,3.059,3.06,3.059h5.42v14.877h-16.682c-6.674,0-9.455-2.778-9.455-9.455V18.074z"/>
<path fill="#004270" d="M152.664,15.433h-9.038V0h56.309c6.674,0,9.454,2.918,9.454,9.456v15.014h-16.408v-5.978
	c0-1.947-1.111-3.059-3.059-3.059h-19.047v27.946h31.561v15.434h-31.561v39.902h-18.212V15.433z"/>
<path fill="#70BA76" d="M118.243,78.341c10.963-10.957,10.966-28.785,0.004-39.747L97.723,18.071
	C86.757,7.109,68.905,7.121,57.945,18.084L35.817,40.21l12.828,12.832l22.116-22.135c4.147-4.146,10.032-4.119,14.138-0.011
	l20.523,20.523c4.095,4.095,4.155,9.984,0.018,14.118L72.267,98.715H97.87L118.243,78.341z"/>
<path fill="#004270" d="M54.199,0H28.598L8.223,20.375C-2.739,31.333-2.742,49.16,8.22,60.12l20.533,20.531
	C39.719,91.615,57.57,91.605,68.53,80.638l22.129-22.125L77.832,45.681L55.714,67.816c-4.146,4.147-10.031,4.119-14.138,0.013
	L21.044,47.294c-4.095-4.094-4.155-9.984-0.016-14.118L54.199,0z"/>
<g>
</g>
<g>
</g>
<g>
</g>
<g>
</g>
<g>
</g>
<g>
</g>
</svg>
