<?xml version="1.0" encoding="utf-8"?>
<!-- Generator: Adobe Illustrator 15.0.2, SVG Export Plug-In . SVG Version: 6.00 Build 0)  -->
<!DOCTYPE svg PUBLIC "-//W3C//DTD SVG 1.1//EN" "http://www.w3.org/Graphics/SVG/1.1/DTD/svg11.dtd">
<svg version="1.1" id="Layer_1" xmlns="http://www.w3.org/2000/svg" xmlns:xlink="http://www.w3.org/1999/xlink" x="0px" y="0px"
	 width="280.63px" height="68.032px" viewBox="0 0 280.63 68.032" enable-background="new 0 0 280.63 68.032" xml:space="preserve">
<path fill="#4D4D4F" d="M28.214,38.702c0,2.201-0.231,4.247-0.693,6.139c-0.462,1.893-1.277,3.553-2.442,4.982
	c-1.167,1.431-2.729,2.553-4.686,3.366c-1.958,0.813-4.412,1.222-7.359,1.222c-1.497,0-2.871-0.123-4.125-0.363
	c-1.254-0.242-2.388-0.551-3.399-0.924c-1.013-0.374-1.893-0.77-2.64-1.188c-0.749-0.418-1.343-0.825-1.782-1.222l2.508-5.082
	c0.924,0.66,2.122,1.354,3.597,2.08c1.474,0.726,3.311,1.088,5.511,1.088c3.168,0,5.478-0.802,6.93-2.408
	c1.452-1.605,2.178-4.367,2.178-8.283V7.682h6.402V38.702z"/>
<path fill="#4D4D4F" d="M65.815,36.26c0,2.729-0.396,5.191-1.188,7.392s-1.904,4.093-3.333,5.677
	c-1.431,1.584-3.135,2.805-5.115,3.662c-1.98,0.858-4.136,1.287-6.468,1.287c-2.333,0-4.488-0.429-6.468-1.287
	c-1.98-0.857-3.686-2.078-5.115-3.662c-1.431-1.584-2.541-3.477-3.333-5.677s-1.188-4.663-1.188-7.392
	c0-2.684,0.396-5.137,1.188-7.359c0.792-2.221,1.902-4.125,3.333-5.709c1.429-1.584,3.135-2.805,5.115-3.663
	s4.135-1.287,6.468-1.287c2.332,0,4.488,0.429,6.468,1.287s3.685,2.079,5.115,3.663c1.429,1.584,2.541,3.488,3.333,5.709
	C65.419,31.123,65.815,33.577,65.815,36.26z M59.413,36.26c0-3.872-0.869-6.94-2.607-9.208c-1.739-2.266-4.104-3.399-7.095-3.399
	c-2.993,0-5.357,1.133-7.095,3.399c-1.739,2.267-2.607,5.336-2.607,9.208c0,3.872,0.868,6.941,2.607,9.207
	c1.738,2.266,4.103,3.398,7.095,3.398c2.991,0,5.356-1.133,7.095-3.398C58.543,43.202,59.413,40.132,59.413,36.26z"/>
<path fill="#4D4D4F" d="M77.958,20.618c0.748-0.484,1.881-0.99,3.399-1.518c1.518-0.528,3.267-0.792,5.247-0.792
	c2.464,0,4.653,0.44,6.567,1.32c1.914,0.881,3.531,2.112,4.851,3.696s2.32,3.477,3.003,5.676c0.682,2.201,1.023,4.62,1.023,7.26
	c0,2.771-0.407,5.27-1.221,7.49c-0.815,2.223-1.97,4.104-3.465,5.644c-1.496,1.54-3.3,2.729-5.412,3.563
	c-2.112,0.836-4.488,1.254-7.128,1.254c-2.861,0-5.391-0.197-7.59-0.594c-2.201-0.396-4.004-0.792-5.412-1.188V3.26l6.138-1.056
	V20.618z M77.958,48.074c0.616,0.177,1.485,0.341,2.607,0.495s2.519,0.23,4.191,0.23c3.3,0,5.94-1.088,7.92-3.267
	c1.98-2.178,2.97-5.269,2.97-9.272c0-1.76-0.176-3.41-0.528-4.95c-0.353-1.54-0.924-2.871-1.716-3.993s-1.815-2.001-3.069-2.64
	c-1.254-0.637-2.762-0.957-4.521-0.957c-1.673,0-3.212,0.287-4.62,0.858c-1.409,0.572-2.486,1.166-3.234,1.782V48.074z"/>
<path fill="#F78E1E" d="M130.823,34.28c0.704,0.881,1.595,2.035,2.673,3.465c1.078,1.431,2.188,3.015,3.333,4.752
	c1.144,1.739,2.277,3.555,3.398,5.445c1.122,1.893,2.079,3.719,2.872,5.479h-6.997c-0.881-1.672-1.838-3.367-2.871-5.082
	c-1.034-1.717-2.079-3.355-3.135-4.918c-1.056-1.561-2.102-3.023-3.135-4.389c-1.034-1.363-1.97-2.551-2.805-3.564
	c-0.572,0.045-1.155,0.066-1.749,0.066c-0.594,0-1.199,0-1.815,0h-5.742V53.42h-6.402V8.342c1.804-0.439,3.817-0.736,6.039-0.891
	c2.222-0.153,4.257-0.231,6.105-0.231c6.424,0,11.319,1.211,14.685,3.63c3.366,2.42,5.049,6.028,5.049,10.824
	c0,3.036-0.804,5.633-2.409,7.788C136.312,31.618,133.947,33.224,130.823,34.28z M121.122,12.83c-2.729,0-4.818,0.066-6.27,0.198
	v17.226h4.554c2.2,0,4.18-0.109,5.94-0.33c1.76-0.22,3.245-0.637,4.455-1.254c1.21-0.616,2.145-1.485,2.805-2.607
	s0.99-2.607,0.99-4.455c0-1.716-0.33-3.146-0.99-4.29c-0.66-1.144-1.551-2.046-2.673-2.706c-1.122-0.66-2.442-1.122-3.96-1.386
	C124.455,12.962,122.837,12.83,121.122,12.83z"/>
<path fill="#F78E1E" d="M145.014,36.326c0-3.036,0.438-5.686,1.319-7.953c0.88-2.266,2.046-4.147,3.497-5.643
	c1.453-1.496,3.125-2.617,5.018-3.366c1.891-0.748,3.828-1.122,5.807-1.122c4.621,0,8.162,1.442,10.627,4.323
	c2.463,2.882,3.695,7.271,3.695,13.167c0,0.265,0,0.605,0,1.022c0,0.42-0.021,0.804-0.066,1.156h-23.496
	c0.266,3.563,1.299,6.27,3.104,8.117c1.803,1.848,4.619,2.771,8.447,2.771c2.156,0,3.971-0.186,5.445-0.561
	c1.473-0.373,2.584-0.736,3.332-1.089l0.859,5.147c-0.75,0.396-2.059,0.815-3.928,1.254c-1.871,0.439-3.992,0.66-6.369,0.66
	c-2.992,0-5.576-0.451-7.754-1.353c-2.18-0.901-3.973-2.146-5.38-3.729c-1.409-1.584-2.453-3.465-3.135-5.643
	C145.354,41.309,145.014,38.922,145.014,36.326z M168.575,32.96c0.045-2.772-0.648-5.049-2.078-6.831s-3.398-2.673-5.906-2.673
	c-1.41,0-2.652,0.275-3.73,0.825c-1.078,0.551-1.99,1.266-2.738,2.145c-0.748,0.881-1.332,1.893-1.75,3.036
	c-0.418,1.145-0.691,2.31-0.824,3.498H168.575z"/>
<path fill="#F78E1E" d="M190.95,18.242c2.463,0,4.543,0.32,6.236,0.957c1.693,0.639,3.059,1.541,4.092,2.706
	c1.033,1.167,1.771,2.552,2.211,4.158c0.439,1.606,0.66,3.377,0.66,5.313v21.45c-0.527,0.089-1.266,0.21-2.211,0.363
	c-0.947,0.155-2.014,0.297-3.201,0.429c-1.188,0.133-2.475,0.253-3.861,0.363c-1.385,0.109-2.762,0.165-4.125,0.165
	c-1.936,0-3.719-0.198-5.346-0.595c-1.629-0.396-3.035-1.022-4.225-1.881c-1.188-0.857-2.111-1.99-2.771-3.398
	s-0.99-3.102-0.99-5.082c0-1.891,0.385-3.52,1.156-4.884c0.77-1.364,1.814-2.464,3.135-3.3c1.32-0.835,2.859-1.452,4.619-1.848
	s3.607-0.594,5.545-0.594c0.615,0,1.254,0.033,1.914,0.099c0.66,0.066,1.287,0.154,1.881,0.264c0.594,0.11,1.109,0.209,1.551,0.297
	c0.439,0.088,0.748,0.154,0.924,0.198v-1.716c0-1.012-0.111-2.013-0.33-3.003c-0.221-0.99-0.617-1.87-1.188-2.64
	c-0.572-0.77-1.354-1.386-2.344-1.848s-2.277-0.693-3.861-0.693c-2.023,0-3.795,0.143-5.312,0.429
	c-1.518,0.287-2.65,0.584-3.398,0.891l-0.727-5.082c0.793-0.352,2.111-0.693,3.961-1.023
	C186.792,18.407,188.793,18.242,190.95,18.242z M191.477,48.999c1.451,0,2.738-0.033,3.861-0.1c1.121-0.066,2.057-0.187,2.805-0.363
	V38.306c-0.439-0.22-1.154-0.407-2.145-0.562c-0.99-0.153-2.189-0.23-3.598-0.23c-0.924,0-1.904,0.066-2.938,0.197
	c-1.033,0.133-1.979,0.408-2.838,0.826c-0.857,0.418-1.572,0.989-2.145,1.715c-0.572,0.727-0.857,1.684-0.857,2.871
	c0,2.201,0.703,3.729,2.111,4.588C187.143,48.569,189.057,48.999,191.477,48.999z"/>
<path fill="#F78E1E" d="M233.848,3.26l6.137-1.056V52.43c-1.408,0.396-3.211,0.791-5.412,1.188c-2.199,0.396-4.73,0.594-7.59,0.594
	c-2.639,0-5.016-0.418-7.127-1.254c-2.113-0.835-3.918-2.023-5.412-3.563c-1.496-1.54-2.652-3.421-3.465-5.644
	c-0.814-2.221-1.221-4.719-1.221-7.49c0-2.64,0.34-5.06,1.021-7.26c0.682-2.2,1.684-4.092,3.004-5.676s2.938-2.815,4.852-3.696
	c1.914-0.88,4.102-1.32,6.566-1.32c1.98,0,3.729,0.264,5.246,0.792c1.52,0.528,2.65,1.034,3.4,1.518V3.26z M233.848,26.36
	c-0.75-0.616-1.826-1.209-3.234-1.782c-1.408-0.571-2.949-0.858-4.621-0.858c-1.76,0-3.266,0.32-4.52,0.957
	c-1.254,0.639-2.277,1.518-3.07,2.64c-0.791,1.122-1.363,2.454-1.715,3.993c-0.354,1.541-0.529,3.19-0.529,4.95
	c0,4.004,0.99,7.095,2.971,9.272c1.98,2.179,4.621,3.267,7.92,3.267c1.672,0,3.068-0.076,4.191-0.23
	c1.121-0.154,1.99-0.318,2.607-0.495V26.36z"/>
<path fill="#F78E1E" d="M244.2,59.822c0.482,0.22,1.109,0.43,1.881,0.627c0.77,0.198,1.527,0.297,2.277,0.297
	c2.418,0,4.311-0.539,5.676-1.617c1.363-1.078,2.596-2.827,3.695-5.247c-2.771-5.279-5.357-10.878-7.754-16.797
	c-2.4-5.917-4.391-11.913-5.975-17.984h6.602c0.482,1.98,1.066,4.115,1.748,6.402c0.682,2.288,1.441,4.643,2.277,7.062
	c0.836,2.42,1.738,4.841,2.705,7.26c0.969,2.421,1.98,4.752,3.037,6.996c1.672-4.62,3.123-9.196,4.355-13.728
	c1.232-4.531,2.398-9.195,3.498-13.992h6.336c-1.584,6.468-3.344,12.683-5.279,18.645c-1.938,5.963-4.027,11.54-6.27,16.731
	c-0.881,1.979-1.795,3.685-2.74,5.115c-0.947,1.429-1.99,2.606-3.135,3.531c-1.145,0.924-2.432,1.605-3.861,2.045
	s-3.047,0.66-4.852,0.66c-0.484,0-0.988-0.033-1.518-0.1c-0.527-0.064-1.045-0.154-1.551-0.264s-0.969-0.23-1.385-0.363
	c-0.42-0.131-0.717-0.242-0.893-0.33L244.2,59.822z"/>
<path fill="#4D4D4F" d="M279.047,49.856c0,1.188-0.396,2.223-1.189,3.102c-0.791,0.88-1.869,1.32-3.232,1.32
	c-1.365,0-2.443-0.44-3.234-1.32c-0.793-0.879-1.188-1.914-1.188-3.102s0.395-2.221,1.188-3.102c0.791-0.881,1.869-1.32,3.234-1.32
	c1.363,0,2.441,0.439,3.232,1.32C278.651,47.635,279.047,48.668,279.047,49.856z"/>
</svg>
