<?xml version="1.0" encoding="utf-8"?>
<!-- Generator: Adobe Illustrator 17.1.0, SVG Export Plug-In . SVG Version: 6.00 Build 0)  -->
<!DOCTYPE svg PUBLIC "-//W3C//DTD SVG 1.1//EN" "http://www.w3.org/Graphics/SVG/1.1/DTD/svg11.dtd">
<svg version="1.1" id="Layer_1" xmlns="http://www.w3.org/2000/svg" xmlns:xlink="http://www.w3.org/1999/xlink" x="0px" y="0px"
	 viewBox="0 0 132.284 25.637" enable-background="new 0 0 132.284 25.637" xml:space="preserve">
<path id="path22" fill="#383635" d="M1.143,24.496h130V1.143h-130V24.496z M132.284,25.637H0V0h132.284V25.637z"/>
<g id="g32" transform="translate(368.8527,272.6136)">
	<path id="path34" fill="#383635" d="M-359.438-255.278v-0.632l1.308-0.073v-8.465c0-0.231-0.043-0.504-0.388-0.519l-1.351-0.057
		v-0.632h4.557v0.632l-1.395,0.072v8.539c0,0.375,0.187,0.475,0.503,0.504c0.431,0.043,0.761,0.056,1.079,0.056
		c2.141,0,2.788-0.847,3.32-3.363l0.475,0.043l-0.144,3.665c0,0.144-0.115,0.231-0.244,0.231H-359.438z"/>
</g>
<g id="g36" transform="translate(383.1256,276.4409)">
	<path id="path38" fill="#383635" d="M-354.681-264.209c0-2.876-0.835-4.801-2.875-4.801c-2.041,0-2.847,1.925-2.847,4.801
		c0,2.875,0.805,4.787,2.847,4.787C-355.515-259.422-354.681-261.334-354.681-264.209 M-362.085-264.209
		c0-2.961,2.041-5.377,4.543-5.377c2.487,0,4.543,2.429,4.543,5.377c0,2.961-2.041,5.361-4.543,5.361
		C-360.043-258.847-362.085-261.247-362.085-264.209"/>
</g>
<g id="g40" transform="translate(392.5256,276.4409)">
	<path id="path42" fill="#383635" d="M-351.547-264.209c0-2.876-0.835-4.801-2.875-4.801c-2.041,0-2.847,1.925-2.847,4.801
		c0,2.875,0.805,4.787,2.847,4.787C-352.382-259.422-351.547-261.334-351.547-264.209 M-358.951-264.209
		c0-2.961,2.041-5.377,4.543-5.377c2.487,0,4.543,2.429,4.543,5.377c0,2.961-2.041,5.361-4.543,5.361
		C-356.91-258.847-358.951-261.247-358.951-264.209"/>
</g>
<g id="g44" transform="translate(400.9871,272.6136)">
	<path id="path46" fill="#383635" d="M-348.727-255.278v-0.632c0.964-0.015,1.337-0.044,1.337-0.288c0-0.1-0.057-0.216-0.159-0.373
		l-2.529-3.997c-0.676,0.776-1.28,1.452-1.509,1.725v2.387c0,0.373,0.187,0.473,0.503,0.488l1.221,0.059v0.632h-4.456v-0.632
		l1.308-0.073v-8.465c0-0.231-0.043-0.504-0.388-0.519l-1.365-0.057v-0.632h4.471v0.632l-1.293,0.072v5.16
		c0.647-0.747,3.551-4.068,3.752-4.297l0.013-0.015c0.059-0.072,0.201-0.259,0.201-0.46c0-0.388-0.963-0.46-1.567-0.46v-0.632h4.341
		v0.632c-0.891,0-1.351,0.159-2.529,1.423c-0.331,0.345-1.007,1.108-1.725,1.927c0.331,0.547,3.119,4.888,3.364,5.233
		c0.259,0.373,0.647,0.488,1.768,0.532v0.632H-348.727z"/>
</g>
<g id="g48" transform="translate(409.9228,278.4465)">
	<path id="path50" fill="#383635" d="M-345.748-268.888l-1.539,3.953h3.105L-345.748-268.888z M-344.095-261.111v-0.676l0.545-0.029
		c0.173-0.015,0.375-0.1,0.375-0.329c0-0.073-0.015-0.173-0.059-0.288l-0.647-1.797h-3.623l-0.388,0.963
		c-0.072,0.188-0.115,0.373-0.115,0.576c0,0.503,0.676,0.905,1.783,0.905v0.676h-3.795v-0.676c0.704-0.015,0.977-0.617,1.251-1.337
		l3.305-8.524h0.949l3.665,9.315c0.144,0.373,0.489,0.547,1.381,0.547v0.676H-344.095z"/>
</g>
<g id="g52" transform="translate(421.3388,272.6136)">
	<path id="path54" fill="#383635" d="M-341.943-255.278v-0.676l1.193-0.057v-4.24h-3.824v3.751c0,0.375,0.187,0.489,0.503,0.504
		l1.093,0.043v0.676h-4.873v-0.676l1.179-0.057v-8.437c0-0.317-0.173-0.476-0.447-0.489l-1.12-0.043v-0.676h4.844v0.676
		l-1.179,0.056v3.883h3.824v-3.407c0-0.231-0.087-0.476-0.432-0.489l-1.149-0.043v-0.676h4.844v0.676l-1.164,0.056v8.424
		c0,0.375,0.187,0.489,0.503,0.504l1.079,0.043v0.676H-341.943z"/>
</g>
<g id="g56" transform="translate(427.6216,272.6136)">
	<path id="path58" fill="#383635" d="M-339.849-255.278v-0.676l1.295-0.057v-8.437c0-0.231-0.072-0.476-0.417-0.489l-1.308-0.043
		v-0.676h8.797l0.532,3.565l-0.589,0.071c-0.704-2.443-1.955-3.076-3.608-3.076c-0.373,0-0.82,0.029-1.28,0.043v4.083h0.101
		c1.552,0,1.897-0.876,2.128-2.113h0.575v5.061h-0.575c-0.116-1.424-0.791-2.287-2.028-2.301h-0.201v3.911
		c0,0.375,0.187,0.475,0.504,0.504c0.431,0.043,0.661,0.043,0.977,0.043c1.811,0,2.673-0.791,3.464-3.307l0.532,0.043l-0.144,3.623
		c0,0.144-0.115,0.231-0.244,0.231H-339.849z"/>
</g>
<g id="g60" transform="translate(439.8902,278.4465)">
	<path id="path62" fill="#383635" d="M-335.759-268.888l-1.537,3.953h3.104L-335.759-268.888z M-334.106-261.111v-0.676l0.545-0.029
		c0.173-0.015,0.375-0.1,0.375-0.329c0-0.073-0.015-0.173-0.057-0.288l-0.647-1.797h-3.624l-0.388,0.963
		c-0.071,0.188-0.115,0.373-0.115,0.576c0,0.503,0.676,0.905,1.783,0.905v0.676h-3.795v-0.676c0.704-0.015,0.977-0.617,1.251-1.337
		l3.307-8.524h0.948l3.667,9.315c0.143,0.373,0.488,0.547,1.379,0.547v0.676H-334.106z"/>
</g>
<g id="g64" transform="translate(452.5344,276.614)">
	<path id="path66" fill="#383635" d="M-331.545-264.613c0-2.673-0.82-4.413-2.961-4.413c-0.388,0-1.265,0.029-1.265,0.029v8.567
		c0,0.375,0.188,0.475,0.504,0.504c0.259,0.028,0.401,0.028,0.661,0.028C-332.393-259.898-331.545-261.45-331.545-264.613
		 M-339.221-259.279v-0.676l1.308-0.057v-8.437c0-0.231-0.072-0.475-0.416-0.489l-1.28-0.043v-0.676h5.319
		c3.148,0,5.06,1.912,5.06,5.075c0,3.809-2.171,5.304-4.787,5.304H-339.221z"/>
</g>
</svg>
