<?xml version="1.0" encoding="iso-8859-1"?>
<!-- Generator: Adobe Illustrator 17.1.0, SVG Export Plug-In . SVG Version: 6.00 Build 0)  -->
<!DOCTYPE svg PUBLIC "-//W3C//DTD SVG 1.1//EN" "http://www.w3.org/Graphics/SVG/1.1/DTD/svg11.dtd">
<svg version="1.1" id="Layer_1" xmlns="http://www.w3.org/2000/svg" xmlns:xlink="http://www.w3.org/1999/xlink" x="0px" y="0px"
	 viewBox="0 0 603.315 98.076" style="enable-background:new 0 0 603.315 98.076;" xml:space="preserve">
<g>
	<g>
		<path d="M175.044,30.097v9.232h0.379c2.309-3.838,5.305-6.641,8.977-8.39c3.681-1.756,7.439-2.637,11.291-2.637
			c4.877,0,8.866,0.668,11.996,2.003c3.12,1.315,5.574,3.157,7.376,5.508c1.792,2.35,3.052,5.213,3.783,8.584
			c0.72,3.391,1.086,7.13,1.086,11.229v40.789h-18.22V58.956c0-5.474-0.854-9.553-2.561-12.243
			c-1.709-2.688-4.745-4.047-9.105-4.047c-4.958,0-8.555,1.483-10.778,4.422c-2.218,2.963-3.328,7.816-3.328,14.565v34.762h-18.214
			V30.097H175.044z"/>
		<path d="M230.147,19.838V4.829h18.22v15.009H230.147z M248.367,30.097v66.317h-18.22V30.097H248.367z"/>
		<path d="M275.896,30.097v9.232h0.384c2.314-3.838,5.305-6.641,8.983-8.39c3.676-1.756,7.435-2.637,11.287-2.637
			c4.875,0,8.872,0.668,11.993,2.003c3.122,1.315,5.578,3.157,7.372,5.508c1.8,2.35,3.062,5.213,3.784,8.584
			c0.731,3.391,1.094,7.13,1.094,11.229v40.789h-18.211V58.956c0-5.474-0.864-9.553-2.572-12.243
			c-1.709-2.688-4.743-4.047-9.104-4.047c-4.958,0-8.555,1.483-10.771,4.422c-2.233,2.963-3.337,7.816-3.337,14.565v34.762h-18.214
			V30.097H275.896z"/>
		<path d="M350.563,80.504c2.738,2.658,6.666,3.979,11.796,3.979c3.679,0,6.845-0.913,9.494-2.751
			c2.65-1.834,4.273-3.791,4.878-5.846h16.032c-2.565,7.963-6.497,13.65-11.802,17.068c-5.307,3.418-11.72,5.121-19.241,5.121
			c-5.217,0-9.916-0.828-14.108-2.491c-4.191-1.668-7.744-4.038-10.648-7.122c-2.904-3.07-5.154-6.762-6.735-11.029
			c-1.582-4.271-2.369-8.979-2.369-14.112c0-4.96,0.805-9.577,2.436-13.857c1.627-4.274,3.931-7.972,6.924-11.097
			c2.997-3.11,6.569-5.573,10.712-7.369c4.145-1.794,8.737-2.696,13.789-2.696c5.645,0,10.562,1.096,14.754,3.273
			c4.19,2.179,7.631,5.111,10.33,8.797c2.686,3.664,4.63,7.857,5.829,12.558c1.194,4.699,1.634,9.624,1.285,14.753H346.07
			C346.331,73.588,347.827,77.861,350.563,80.504z M371.151,45.625c-2.183-2.396-5.497-3.593-9.943-3.593
			c-2.911,0-5.32,0.495-7.245,1.469c-1.919,0.997-3.465,2.212-4.621,3.66c-1.153,1.462-1.964,2.996-2.437,4.618
			c-0.468,1.63-0.741,3.07-0.835,4.361h29.634C374.85,51.526,373.326,48.021,371.151,45.625z"/>
		<path d="M393.909,42.28V30.097h10.9v-5.133c0-5.9,1.843-10.734,5.512-14.494c3.676-3.756,9.244-5.641,16.682-5.641
			c1.626,0,3.244,0.066,4.875,0.195c1.619,0.132,3.202,0.24,4.741,0.312v13.604c-2.143-0.26-4.354-0.393-6.665-0.393
			c-2.479,0-4.263,0.589-5.327,1.742c-1.07,1.154-1.597,3.099-1.597,5.843v3.964h12.572V42.28h-12.572v54.134h-18.221V42.28H393.909
			z"/>
		<path d="M437.309,48.891c1.622-4.32,3.932-8,6.924-11.029c2.996-3.045,6.591-5.388,10.781-7.056
			c4.185-1.662,8.896-2.504,14.099-2.504c5.229,0,9.95,0.842,14.182,2.504c4.233,1.668,7.845,4.011,10.834,7.056
			c2.994,3.029,5.307,6.709,6.932,11.029c1.629,4.317,2.438,9.123,2.438,14.431c0,5.303-0.809,10.089-2.438,14.367
			c-1.625,4.284-3.938,7.937-6.932,10.968c-2.989,3.038-6.601,5.367-10.834,6.992c-4.231,1.62-8.953,2.428-14.182,2.428
			c-5.202,0-9.914-0.808-14.099-2.428c-4.19-1.625-7.785-3.954-10.781-6.992c-2.992-3.031-5.302-6.684-6.924-10.968
			c-1.631-4.278-2.442-9.064-2.442-14.367C434.866,58.014,435.678,53.208,437.309,48.891z M453.86,71.088
			c0.513,2.516,1.386,4.791,2.63,6.801c1.233,2.01,2.882,3.605,4.932,4.807c2.06,1.188,4.621,1.788,7.69,1.788
			c3.087,0,5.672-0.601,7.772-1.788c2.09-1.201,3.758-2.797,5.002-4.807c1.233-2.01,2.115-4.285,2.625-6.801
			c0.521-2.531,0.777-5.113,0.777-7.767c0-2.642-0.257-5.261-0.777-7.821c-0.51-2.571-1.392-4.827-2.625-6.803
			c-1.244-1.965-2.912-3.574-5.002-4.808c-2.101-1.243-4.685-1.862-7.772-1.862c-3.069,0-5.631,0.619-7.69,1.862
			c-2.05,1.233-3.698,2.843-4.932,4.808c-1.244,1.976-2.117,4.231-2.63,6.803c-0.515,2.561-0.768,5.18-0.768,7.821
			C453.093,65.975,453.346,68.557,453.86,71.088z"/>
		<path d="M528.776,4.829v91.585h-18.214V4.829H528.776z"/>
		<path d="M585.737,87.947c-2.136,3.6-4.937,6.184-8.398,7.764c-3.462,1.578-7.386,2.365-11.735,2.365
			c-4.96,0-9.32-0.961-13.083-2.877c-3.764-1.93-6.86-4.535-9.302-7.838c-2.44-3.283-4.283-7.07-5.513-11.342
			c-1.246-4.268-1.857-8.727-1.857-13.332c0-4.459,0.611-8.751,1.857-12.896c1.229-4.141,3.072-7.805,5.513-10.968
			c2.441-3.165,5.499-5.717,9.169-7.633c3.675-1.929,7.959-2.889,12.835-2.889c3.934,0,7.672,0.842,11.22,2.504
			c3.545,1.668,6.351,4.126,8.402,7.382h0.249V4.829h18.222v91.585h-17.318v-8.467H585.737z M584.97,55.171
			c-0.51-2.522-1.394-4.745-2.629-6.668c-1.246-1.923-2.844-3.479-4.811-4.675c-1.965-1.201-4.453-1.801-7.438-1.801
			c-2.991,0-5.517,0.6-7.564,1.801c-2.058,1.195-3.703,2.769-4.942,4.746c-1.241,1.957-2.137,4.213-2.694,6.732
			c-0.559,2.522-0.829,5.152-0.829,7.881c0,2.57,0.289,5.141,0.892,7.703c0.599,2.566,1.557,4.861,2.885,6.857
			c1.327,2.009,3.002,3.637,5.006,4.881c2.012,1.248,4.428,1.854,7.247,1.854c2.984,0,5.491-0.601,7.503-1.788
			c2.01-1.201,3.614-2.797,4.814-4.807c1.191-2.01,2.05-4.301,2.56-6.867c0.517-2.566,0.768-5.216,0.768-7.961
			C585.737,60.332,585.486,57.699,584.97,55.171z"/>
	</g>
	<g>
		<rect x="0" y="90.734" width="64.253" height="5.672"/>
		<rect x="69.923" y="90.734" width="64.253" height="5.672"/>
		<rect x="69.923" y="79.393" width="64.253" height="5.672"/>
		<rect x="69.923" y="68.051" width="64.253" height="5.672"/>
		<rect x="69.923" y="56.709" width="64.253" height="5.672"/>
		<rect x="69.923" y="45.367" width="64.253" height="5.672"/>
		<rect x="69.923" y="34.024" width="64.253" height="5.673"/>
		<rect x="69.923" y="22.683" width="64.253" height="5.674"/>
		<rect x="69.923" y="11.342" width="64.253" height="5.673"/>
		<rect x="69.923" y="0" width="64.253" height="5.671"/>
	</g>
</g>
</svg>
