<svg xmlns="http://www.w3.org/2000/svg" viewBox="0 0 709.65 142.38">
  <defs>
    <style>.cls-1{fill:#21231e;}</style>
  </defs>
  <title>Oneflare</title>
  <path class="cls-1" d="M213.09,45H213a48.69,48.69,0,0,0-33,12.48V50.64c0-3-1.92-5.64-4.93-5.64h-3.49A5.71,5.71,0,0,0,166,50.64v90.27c0,3,2.56,5.09,5.58,5.09h3.49a5.32,5.32,0,0,0,5.47-5.28V92.13C182.06,71.85,194,60,213.13,59.55c8.54,0,15.35,2.33,19.87,6.87s7,11.24,7,19.83v54.64a4.85,4.85,0,0,0,5.08,5.09h3.49a5.13,5.13,0,0,0,5.42-5.09V86.26c0-12.59-3.74-23.11-10.86-30.26S225.64,45,213.09,45Z" transform="translate(-10.02 -4)"/>
  <path class="cls-1" d="M315.94,45.17c-28.37,0-49,21.25-49,50.52s20.59,50.69,49,50.69c15.33,0,29-5.65,38.4-15.9a5.43,5.43,0,0,0-.15-7.59l-2.43-2.35a5.9,5.9,0,0,0-4-1.54h0a5.29,5.29,0,0,0-3.93,1.74C337.3,128,327.41,132,315.94,132c-9.29,0-17.44-3.11-23.58-8.8C286.46,117.7,282.8,110,281.74,101h76.1a5.41,5.41,0,0,0,5.47-5.39C363.31,65.86,343.84,45.17,315.94,45.17ZM348.13,87H282.39a32.82,32.82,0,0,1,33.56-27.33,32.22,32.22,0,0,1,21.52,7.62C342.87,72,346.55,79,348.13,87Z" transform="translate(-10.02 -4)"/>
  <rect class="cls-1" x="432.98" y="2" width="15" height="140" rx="5.47" ry="5.47"/>
  <path class="cls-1" d="M545,54.7c-6.62-6.24-16.06-9.53-27.31-9.53-12.88,0-24.67,4.6-37.1,14.47a5.48,5.48,0,0,0-1,7.55L481.73,70a5.6,5.6,0,0,0,3.75,2.14h0.05A5.65,5.65,0,0,0,489.47,71c10-7.89,18.74-11.41,28.22-11.41,7.64,0,13.52,1.78,17.37,5.29S541,73.69,541,80.67V86H512.81c-24.05,0-39,11.09-39,28.79,0,18.24,14.64,31.54,34.8,31.54,12.9,0,24.1-3.73,32.54-10.86l0.05,5.28a5.32,5.32,0,0,0,5.47,5.26h3.5a5.29,5.29,0,0,0,3.87-1.41,5.2,5.2,0,0,0,1.6-3.8L555.3,80.58C555.2,69.87,551.64,60.95,545,54.7Zm-4,57.22C541,126.84,523.66,132,508.8,132c-6.28,0-11.5-1.64-15.11-4.66a15.3,15.3,0,0,1-5.44-12.28c0-12.4,15.39-14.1,24.56-14.1h28.11Z" transform="translate(-10.02 -4)"/>
  <path class="cls-1" d="M616.73,45.18A43.28,43.28,0,0,0,588,56.39V50.64A5.52,5.52,0,0,0,582.65,45h-3.49A5.36,5.36,0,0,0,574,50.64v90.27a4.9,4.9,0,0,0,5.15,5.09h3.49a5.32,5.32,0,0,0,5.47-5.28v-49c0.69-10,3.62-17.89,8.71-23.48s12.12-8.47,20.69-8.68A5.61,5.61,0,0,0,623,54.13V50.64a5.8,5.8,0,0,0-1.85-3.94A5.15,5.15,0,0,0,616.73,45.18Z" transform="translate(-10.02 -4)"/>
  <path class="cls-1" d="M672.3,45.17c-28.36,0-48.95,21.25-48.95,50.52s20.59,50.69,48.95,50.69c15.33,0,29-5.65,38.4-15.9a5.43,5.43,0,0,0-.15-7.59l-2.43-2.35a5.9,5.9,0,0,0-4-1.54h0a5.29,5.29,0,0,0-3.93,1.74C693.66,128,683.77,132,672.3,132c-9.29,0-17.44-3.11-23.57-8.8-5.91-5.48-9.57-13.19-10.62-22.19h76.1a5.41,5.41,0,0,0,5.47-5.39C719.67,65.86,700.19,45.17,672.3,45.17ZM704.49,87H638.74A32.82,32.82,0,0,1,672.3,59.67a32.22,32.22,0,0,1,21.52,7.62C699.23,72,702.91,79,704.49,87Z" transform="translate(-10.02 -4)"/>
  <path class="cls-1" d="M427.65,7.4a34,34,0,0,0-14-3.4H413.6a29.1,29.1,0,0,0-20.74,8.64C386.44,19,383,28.21,383,37.9V45h-6.31c-3,0-4.69,2.56-4.69,5.64v3.49c0,3,1.65,5.87,4.69,5.87H383v80.91a4.8,4.8,0,0,0,5,5.09h3.49c3.07,0,5.46-2,5.46-5.09V60h23.87c3.1,0,5.13-2.88,5.13-5.87V50.64c0-3-2.08-5.64-5.13-5.64H397V37.9c0-6,2-11.3,5.72-14.93a14.69,14.69,0,0,1,10.66-4.35A20.75,20.75,0,0,1,421,20.36a5.72,5.72,0,0,0,7-2.09l1.85-2.79A5.54,5.54,0,0,0,427.65,7.4Z" transform="translate(-10.02 -4)"/>
  <path class="cls-1" d="M147,51.57a70.31,70.31,0,0,0-13.13-22.28l-1-1a5.43,5.43,0,0,0-7.65-.52L122.87,30a5.43,5.43,0,0,0-.52,7.65l0.82,1A56.4,56.4,0,1,1,29.5,52a40.77,40.77,0,0,0,2.27,10A41.15,41.15,0,1,0,56.52,9.37a70.61,70.61,0,0,0-5.69,130.35A70.61,70.61,0,0,0,147,51.57ZM61.38,22.73A26.81,26.81,0,1,1,45.14,57.18,26.84,26.84,0,0,1,61.38,22.73Z" transform="translate(-10.02 -4)"/>
</svg>