<svg xmlns="http://www.w3.org/2000/svg" viewBox="0 0 3407.01 1097.57"><title>oneflare__RGB__HIRES__BLACK_OUTLINED</title><rect width="3407.01" height="1097.57" style="fill:#42bf8d"/><path d="M771.91,442.14a303.09,303.09,0,0,0-56.6-96l-4.2-4.25a23.41,23.41,0,0,0-33-2.24l-10.29,9.46a23.41,23.41,0,0,0-2.24,33l3.54,4.35a243.1,243.1,0,1,1-403.79,57.71,175.72,175.72,0,0,0,9.81,43.16c33.36,91.66,135.49,138.93,227.66,105.38,91.66-33.36,139.08-135.07,105.72-226.72S473.45,226.87,381.8,260.23A304.37,304.37,0,1,0,771.91,442.14ZM402.77,317.84a115.58,115.58,0,0,1,79.06,217.21c-60.4,22-127.28-8.85-149.08-68.74S342.36,339.83,402.77,317.84Z" style="fill:#fff"/><path d="M1183.49,463.92c30.44,30.54,46.52,75.37,46.52,129.19V826.65A23.38,23.38,0,0,1,1206.63,850H1191.7c-12.89,0-23.7-10.46-23.7-23.36V593.12c0-36.75-9.63-65.23-28.94-84.66s-47.43-29.27-83.92-29.27c-82,1.93-132.77,52.73-139.32,139.4l0,208.06A23.4,23.4,0,0,1,892.48,850H877.57A23.54,23.54,0,0,1,854,826.65V440.87C854,428,864.67,417,877.57,417h14.91c12.89,0,23.53,11,23.53,23.86v29.27C950,436.67,998,419,1054.72,417h.24C1108.61,417,1153,433.38,1183.49,463.92Z" style="fill:#fff"/><path d="M1494.54,417.48c-121.23,0-209.22,90.81-209.22,215.92,0,125.52,88,216.62,209.22,216.62,65.51,0,123.8-24.14,164.13-68a23.22,23.22,0,0,0-.62-32.42l-10.39-10.56a25.92,25.92,0,0,0-17-7.09h-.19c-6.38,1-12.5,3.2-16.8,8-27.81,31.09-70.1,48.31-119.09,48.31-39.71,0-74.55-12.71-100.76-37-25.24-23.43-40.89-56.23-45.41-94.23H1673.6A23.5,23.5,0,0,0,1697,633.51C1697,506.38,1613.74,417.48,1494.54,417.48ZM1351.13,595c7.1-34,23.62-62.92,48-83.28,25.47-21.32,58.48-32.56,95.46-32.56,36,0,67.84,11.08,92,32.1,23.12,20.14,38.82,48.75,45.58,83.75Z" style="fill:#fff"/><rect x="2039" y="250" width="62" height="600" rx="23.38" ry="23.38" style="fill:#fff"/><path d="M2798.69,424a24.1,24.1,0,0,1,7.31,16.83V455.8a23.72,23.72,0,0,1-23.08,23.38c-36.62.92-66.41,13.43-88,37.2s-34.26,57.72-37.2,100.55l.06,209.7A23.4,23.4,0,0,1,2634.35,850h-14.93A23.42,23.42,0,0,1,2596,826.65V440.87c0-12.89,10.52-23.86,23.42-23.86h14.93c12.89,0,23.65,11,23.65,23.86v24.6c31-30.14,73.18-46.67,122.4-47.94C2784.13,416.88,2791.31,417,2798.69,424Z" style="fill:#fff"/><path d="M3017.51,417.48c-121.22,0-209.2,90.81-209.2,215.92,0,125.52,88,216.62,209.2,216.62,65.51,0,123.8-24.14,164.13-68a23.22,23.22,0,0,0-.62-32.42l-10.39-10.56a25.91,25.91,0,0,0-17-7.09h-.19c-6.38,1-12.5,3.2-16.8,8-27.81,31.09-70.1,48.31-119.09,48.31-39.7,0-74.53-12.71-100.74-37-25.24-23.43-40.89-56.23-45.4-94.23h325.21A23.5,23.5,0,0,0,3220,633.51C3220,506.38,3136.7,417.48,3017.51,417.48ZM2874.09,595c7.1-34,23.62-62.92,48-83.28,25.47-21.32,58.48-32.56,95.46-32.56,36,0,67.84,11.08,92,32.1,23.12,20.14,38.82,48.75,45.58,83.75Z" style="fill:#fff"/><path d="M1984.59,271.17a23.47,23.47,0,0,1-3,19.41l-7.92,11.93a24.44,24.44,0,0,1-30.07,8.95A88.67,88.67,0,0,0,1911,304c-17.75,0-33.07,6.27-45.53,18.58-15.75,15.51-24.42,38.17-24.42,63.82V417h102c13,0,24,10.93,24,23.86V455.8c0,12.8-10.78,23.21-24,23.21H1841V826.65a23.13,23.13,0,0,1-23.4,23.36h-14.93A23.54,23.54,0,0,1,1779,826.65V479h-24.84A22.94,22.94,0,0,1,1731,455.8V440.87c0-13.16,10.39-23.86,23.16-23.86H1779V386.42c0-41.39,15.74-80.65,43.2-107.72A126.6,126.6,0,0,1,1911.88,242h.36a157.63,157.63,0,0,1,59.68,14.33A23.31,23.31,0,0,1,1984.59,271.17Z" style="fill:#fff"/><path d="M2517.45,569c-.42-45.79-15.63-84.11-44-110.81s-68.65-40.74-116.71-40.74c-55.06,0-105.44,19.65-158.55,61.83a23.42,23.42,0,0,0-4.17,32.28l9,12.06a23.93,23.93,0,0,0,16,9.13l.22,0a24.13,24.13,0,0,0,16.86-4.87c42.89-33.71,80.09-48.75,120.62-48.75,32.64,0,57.62,7.6,74,22.59S2455,539.38,2456,569.23V593H2335.89c-102.8,0-166.66,46.91-166.66,122.54,0,78,62.55,134.53,148.74,134.53,55.12,0,103-16.08,139.08-46.56l.21,23.3A23.35,23.35,0,0,0,2480.63,850h14.95a23.31,23.31,0,0,0,23.36-23.46ZM2318.73,788.49c-26.82,0-49.14-6.88-64.56-19.78-15.22-12.74-23.26-30.93-23.26-53,0-53,65.77-60.72,105-60.72H2456l.44,46.44C2430.85,761.71,2388.34,788.49,2318.73,788.49Z" style="fill:#fff"/></svg>