<?xml version="1.0" encoding="utf-8"?>
<!-- Generator: Adobe Illustrator 17.1.0, SVG Export Plug-In . SVG Version: 6.00 Build 0)  -->
<!DOCTYPE svg PUBLIC "-//W3C//DTD SVG 1.1//EN" "http://www.w3.org/Graphics/SVG/1.1/DTD/svg11.dtd">
<svg version="1.1" id="Artwork_x5F_01" xmlns="http://www.w3.org/2000/svg" xmlns:xlink="http://www.w3.org/1999/xlink" x="0px"
	 y="0px" viewBox="0 0 223.815 56.695" enable-background="new 0 0 223.815 56.695" xml:space="preserve">
<g>
	<path fill="#E4002B" d="M0,28.191C-0.087,43.851,12.54,56.61,28.196,56.694c15.658,0.086,28.416-12.541,28.497-28.198
		C56.777,12.84,44.156,0.084,28.499,0c-0.053,0-0.104,0-0.158,0C12.755,0,0.083,12.592,0,28.191"/>
	<path fill="#FFFFFF" d="M46.934,24.455l0.001-0.001L30.096,7.679c-0.437-0.469-1.059-0.761-1.748-0.761h-0.003
		c-0.689,0-1.312,0.293-1.747,0.761L9.757,24.453l0.001,0.001c-0.65,0.657-1.052,1.559-1.052,2.556c0,2.003,1.621,3.633,3.624,3.639
		l2.317-0.004c0,0-0.004,12.734-0.004,12.764c0,1.312,1.058,2.375,2.364,2.387h22.676c1.308-0.012,2.364-1.074,2.364-2.387
		c0-0.029-0.005-12.764-0.005-12.764l2.319,0.004c2.003-0.006,3.624-1.636,3.624-3.639C47.987,26.014,47.585,25.112,46.934,24.455
		 M37.597,26.27v15.083H19.093V26.27l-4.868-0.002l14.123-14.052l14.12,14.052L37.597,26.27z"/>
	<path fill="#333F48" d="M84.455,41.3h-4.296c-0.387,0-0.526-0.352-0.703-0.705l-5.069-9.398h-0.492
		c-0.916,0-2.324-0.106-3.133-0.141v9.539c0,0.389-0.281,0.705-0.671,0.705h-3.52c-0.386,0-0.702-0.316-0.702-0.705V16.376
		c0-0.703,0.421-0.949,1.125-1.054c1.831-0.285,4.33-0.46,6.9-0.46c5.421,0,10.139,1.936,10.139,7.957v0.316
		c0,3.73-1.868,6.054-4.752,7.182l5.525,10.277c0.07,0.105,0.07,0.211,0.07,0.281C84.876,41.124,84.736,41.3,84.455,41.3z
		 M79.173,22.819c0-2.641-1.761-3.767-5.279-3.767c-0.741,0-2.5,0.07-3.133,0.14v7.92c0.562,0.035,2.535,0.105,3.133,0.105
		c3.625,0,5.279-0.984,5.279-4.082V22.819z"/>
	<path fill="#333F48" d="M101.738,41.089c-1.127,0.176-2.5,0.492-6.688,0.492c-4.575,0-8.132-1.232-8.132-7.217V22.08
		c0-5.984,3.557-7.218,8.132-7.218c4.188,0,5.562,0.317,6.688,0.494c0.527,0.07,0.703,0.246,0.703,0.739v2.253
		c0,0.387-0.316,0.704-0.703,0.704h-7.183c-2.04,0-2.78,0.704-2.78,3.027v3.802h9.54c0.387,0,0.703,0.316,0.703,0.704v2.534
		c0,0.385-0.316,0.703-0.703,0.703h-9.54v4.541c0,2.324,0.74,3.027,2.78,3.027h7.183c0.387,0,0.703,0.316,0.703,0.705v2.252
		C102.441,40.841,102.265,41.019,101.738,41.089z"/>
	<path fill="#333F48" d="M124.934,41.3h-3.731c-0.317,0-0.599-0.281-0.668-0.6l-1.62-6.688h-8.098l-1.62,6.688
		c-0.068,0.318-0.351,0.6-0.667,0.6h-3.731c-0.352,0-0.633-0.246-0.633-0.6c0-0.035,0.035-0.105,0.035-0.176l5.773-22.07
		c0.843-3.274,3.378-3.592,4.893-3.592c1.513,0,4.048,0.317,4.892,3.592l5.773,22.07c0,0.07,0.035,0.141,0.035,0.176
		C125.567,41.054,125.285,41.3,124.934,41.3z M115.429,19.544c-0.106-0.421-0.212-0.562-0.562-0.562
		c-0.352,0-0.457,0.142-0.563,0.562l-2.534,10.455h6.194L115.429,19.544z"/>
	<path fill="#333F48" d="M164.31,25.142c-1.9,0-3.379,0.492-4.857,1.267v14.15c0,0.389-0.316,0.74-0.705,0.74h-3.237
		c-0.387,0-0.703-0.352-0.703-0.74v-18.41c0-0.386,0.316-0.702,0.703-0.702h3.061c0.387,0,0.705,0.316,0.705,0.702v0.74
		c1.725-1.338,3.624-1.691,5.033-1.691c0.386,0,0.705,0.318,0.705,0.705v2.535C165.015,24.825,164.696,25.142,164.31,25.142z"/>
	<path fill="#333F48" d="M174.291,41.581c-5.523,0-8.411-3.732-8.411-8.766v-2.852c0-5.033,2.888-8.766,8.411-8.766
		c5.529,0,8.414,3.732,8.414,8.766v2.852C182.706,37.849,179.821,41.581,174.291,41.581z M178.059,29.964
		c0-2.887-1.301-4.752-3.768-4.752c-2.461,0-3.766,1.865-3.766,4.752v2.852c0,2.887,1.305,4.752,3.766,4.752
		c2.467,0,3.768-1.865,3.768-4.752V29.964z"/>
	<path fill="#333F48" d="M200.584,41.3h-3.238c-0.387,0-0.702-0.316-0.702-0.705v-0.809c-1.833,1.197-3.275,1.76-5.528,1.76
		c-1.76,0-3.309-0.457-4.33-1.478c-1.303-1.303-1.76-3.484-1.76-6.406V22.184c0-0.387,0.316-0.737,0.703-0.737h3.238
		c0.389,0,0.705,0.351,0.705,0.737v11.477c0,1.76,0.141,2.781,0.81,3.379c0.494,0.422,1.092,0.633,2.183,0.633
		c1.304,0,2.992-0.879,3.98-1.408v-14.08c0-0.387,0.315-0.737,0.702-0.737h3.238c0.387,0,0.705,0.351,0.705,0.737v18.41
		C201.29,40.983,200.971,41.3,200.584,41.3z"/>
	<path fill="#333F48" d="M212.129,41.581c-0.844,0-2.076-0.07-3.378-0.246v6.23c0,0.389-0.317,0.703-0.706,0.703h-3.237
		c-0.387,0-0.704-0.314-0.704-0.703V23.064c0-0.528,0.141-0.739,0.949-0.95c2.185-0.562,4.824-0.916,7.076-0.916
		c5.668,0,8.414,3.346,8.414,8.836v2.711C220.543,38.237,217.797,41.581,212.129,41.581z M215.898,30.034
		c0-2.887-0.741-5.033-3.769-5.033c-1.268,0-2.71,0.107-3.378,0.246v12.285c0.985,0.141,2.534,0.246,3.378,0.246
		c3.027,0,3.769-2.146,3.769-5.033V30.034z"/>
	<path fill="#333F48" d="M150.704,40.987c-1.76,0.351-4.046,0.6-7.669,0.6c-3.8,0-9.429-2.5-9.429-10.801V25.72
		c0-8.336,5.349-10.834,9.534-10.834c3.377,0,6.401,0.422,7.563,0.634c0.456,0.104,0.668,0.28,0.668,0.737v2.357
		c0,0.493-0.141,0.739-0.703,0.739c-0.035,0-0.07,0-0.107,0c-1.618-0.142-4.045-0.282-7.422-0.282c-2.357,0-4.608,1.653-4.608,6.648
		v5.066c0,4.994,2.427,6.613,4.503,6.613c1.301,0,2.393-0.037,3.482-0.105v-8.97c0-0.387,0.282-0.704,0.669-0.704h3.482
		c0.388,0,0.703,0.317,0.703,0.704v11.819C151.372,40.601,151.16,40.882,150.704,40.987z"/>
	<path fill="#333F48" d="M150.704,40.987c-1.76,0.351-4.046,0.6-7.669,0.6c-3.8,0-9.429-2.5-9.429-10.801V25.72
		c0-8.336,5.349-10.834,9.534-10.834c3.377,0,6.401,0.422,7.563,0.634c0.456,0.104,0.668,0.28,0.668,0.737v2.357
		c0,0.493-0.141,0.739-0.703,0.739c-0.035,0-0.07,0-0.107,0c-1.618-0.142-4.045-0.282-7.422-0.282c-2.357,0-4.608,1.653-4.608,6.648
		v5.066c0,4.994,2.427,6.613,4.503,6.613c1.301,0,2.393-0.037,3.482-0.105v-8.97c0-0.387,0.282-0.704,0.669-0.704h3.482
		c0.388,0,0.703,0.317,0.703,0.704v11.819C151.372,40.601,151.16,40.882,150.704,40.987z"/>
	<path fill="#333F48" d="M221.618,20.318c-1.26,0-2.199-0.985-2.199-2.233c0-1.248,0.939-2.24,2.199-2.24
		c1.262,0,2.197,0.985,2.197,2.235C223.815,19.327,222.879,20.318,221.618,20.318z M221.618,16.233
		c-1.076,0-1.791,0.785-1.791,1.851c0,1.064,0.715,1.845,1.791,1.845c1.078,0,1.789-0.785,1.789-1.85
		C223.407,17.013,222.696,16.233,221.618,16.233z M222.11,19.21l-0.387-0.859h-0.459v0.859h-0.406v-2.332h0.857
		c0.443,0,0.828,0.256,0.828,0.73c0,0.305-0.135,0.548-0.422,0.677l0.436,0.925H222.11z M221.715,17.257h-0.457v0.719h0.457
		c0.242,0,0.4-0.111,0.4-0.367C222.116,17.372,221.934,17.257,221.715,17.257z"/>
</g>
</svg>
