<?xml version="1.0" encoding="utf-8"?>
<!-- Generator: Adobe Illustrator 16.0.0, SVG Export Plug-In . SVG Version: 6.00 Build 0)  -->
<!DOCTYPE svg PUBLIC "-//W3C//DTD SVG 1.1//EN" "http://www.w3.org/Graphics/SVG/1.1/DTD/svg11.dtd">
<svg version="1.1" id="Artwork_x5F_01" xmlns="http://www.w3.org/2000/svg" xmlns:xlink="http://www.w3.org/1999/xlink" x="0px"
	 y="0px" width="327.763px" height="56.698px" viewBox="0 0 327.763 56.698" enable-background="new 0 0 327.763 56.698"
	 xml:space="preserve">
<g>
	<g>
		<g>
			<path d="M75.235,15.57c-1.904,0-3.383,0.502-4.859,1.264v14.138c0,0.386-0.314,0.733-0.704,0.733h-3.235
				c-0.382,0-0.703-0.348-0.703-0.733V12.592c0-0.396,0.321-0.716,0.703-0.716H69.5c0.381,0,0.703,0.32,0.703,0.716v0.726
				c1.714-1.33,3.615-1.687,5.031-1.687c0.377,0,0.703,0.319,0.703,0.703v2.535C75.938,15.258,75.612,15.57,75.235,15.57z
				 M92.874,23.417H81.418v0.099c0,2.041,0.844,4.464,4.216,4.464c2.564,0,4.99-0.208,6.463-0.352c0.044,0,0.079,0,0.11,0
				c0.354,0,0.634,0.188,0.634,0.533v2.313c0,0.561-0.104,0.814-0.744,0.916c-2.275,0.417-3.657,0.604-6.815,0.604
				c-3.516,0-8.514-1.901-8.514-8.832v-2.598c0-5.49,3.062-8.934,8.444-8.934c5.412,0,8.374,3.697,8.374,8.934v1.967
				C93.586,23.095,93.374,23.417,92.874,23.417z M88.905,19.959c0-2.736-1.518-4.318-3.692-4.318c-2.178,0-3.761,1.542-3.761,4.318
				v0.154h7.453V19.959z M109.726,31.705h-3.001c-0.377,0-0.703-0.313-0.703-0.697v-0.565c-1.611,0.979-3.265,1.553-4.955,1.553
				c-2.907,0-6.081-1.132-6.081-5.879v-0.138c0-4.005,2.46-6.086,8.583-6.086h2.212v-1.541c0-2.279-1.021-2.849-3.09-2.849
				c-2.252,0-4.572,0.139-5.734,0.282c-0.074,0-0.14,0-0.178,0c-0.354,0-0.628-0.113-0.628-0.604v-2.249
				c0-0.389,0.208-0.628,0.666-0.735c1.406-0.283,3.439-0.565,5.874-0.565c4.991,0,7.73,2.218,7.73,6.72v12.656
				C110.421,31.391,110.1,31.705,109.726,31.705z M105.781,22.992h-2.212c-3.201,0-3.9,1.019-3.9,2.986v0.138
				c0,1.729,0.771,2.182,2.525,2.182c1.263,0,2.565-0.421,3.587-0.986V22.992z M116.844,31.705h-3.265
				c-0.391,0-0.707-0.348-0.707-0.733V5.659c0-0.391,0.316-0.697,0.707-0.697h3.265c0.386,0,0.668,0.307,0.668,0.697v25.312
				C117.512,31.357,117.229,31.705,116.844,31.705z M135.756,23.417h-11.468v0.099c0,2.041,0.842,4.464,4.221,4.464
				c2.564,0,4.986-0.208,6.468-0.352c0.029,0,0.073,0,0.104,0c0.347,0,0.634,0.188,0.634,0.533v2.313
				c0,0.561-0.104,0.814-0.738,0.916c-2.284,0.417-3.659,0.604-6.824,0.604c-3.507,0-8.504-1.901-8.504-8.832v-2.598
				c0-5.49,3.058-8.934,8.427-8.934c5.42,0,8.378,3.697,8.378,8.934v1.967C136.453,23.095,136.236,23.417,135.756,23.417z
				 M131.773,19.959c0-2.736-1.504-4.318-3.698-4.318c-2.175,0-3.75,1.542-3.75,4.318v0.154h7.448V19.959z M145.25,31.995
				c-1.381,0-4.331-0.187-6.302-0.705c-0.424-0.108-0.668-0.398-0.668-0.814v-2.104c0-0.286,0.244-0.556,0.594-0.556
				c0.074,0,0.112,0,0.143,0c1.692,0.198,4.853,0.376,5.906,0.376c2.188,0,2.5-0.736,2.5-1.684c0-0.668-0.421-1.087-1.545-1.801
				l-4.815-2.952c-1.729-1.05-2.964-2.81-2.964-4.848c0-3.515,2.225-5.276,6.692-5.276c2.844,0,4.464,0.319,6.255,0.703
				c0.414,0.11,0.628,0.39,0.628,0.811v2.036c0,0.428-0.214,0.671-0.554,0.671c-0.074,0-0.112,0-0.144,0
				c-0.99-0.14-3.807-0.425-5.812-0.425c-1.686,0-2.416,0.392-2.416,1.48c0,0.565,0.526,0.914,1.401,1.443l4.608,2.812
				c2.952,1.792,3.372,3.544,3.372,5.345C152.131,29.561,149.85,31.995,145.25,31.995z M164.788,31.745
				c-0.835,0.145-1.619,0.25-2.388,0.25c-3.974,0-5.586-0.886-5.586-5.59v-11.04l-3.311-0.495c-0.385-0.067-0.694-0.319-0.694-0.706
				v-1.571c0-0.396,0.31-0.716,0.694-0.716h3.311V7.224c0-0.387,0.312-0.63,0.699-0.701l3.265-0.559c0.047,0,0.113,0,0.145,0
				c0.315,0,0.567,0.173,0.567,0.524v5.388h3.162c0.379,0,0.705,0.32,0.705,0.716v2.066c0,0.386-0.326,0.706-0.705,0.706h-3.162
				v11.04c0,1.757,0.1,1.967,1.369,1.967h1.863c0.457,0,0.736,0.175,0.736,0.526v2.211C165.458,31.463,165.256,31.67,164.788,31.745
				z M181.348,31.705h-2.984c-0.391,0-0.703-0.313-0.703-0.697v-0.565c-1.623,0.979-3.271,1.553-4.961,1.553
				c-2.918,0-6.078-1.132-6.078-5.879v-0.138c0-4.005,2.457-6.086,8.572-6.086h2.223v-1.541c0-2.279-1.02-2.849-3.102-2.849
				c-2.246,0-4.564,0.139-5.721,0.282c-0.084,0-0.146,0-0.182,0c-0.354,0-0.637-0.113-0.637-0.604v-2.249
				c0-0.389,0.215-0.628,0.672-0.735c1.404-0.283,3.443-0.565,5.867-0.565c5,0,7.74,2.218,7.74,6.72v12.656
				C182.055,31.391,181.739,31.705,181.348,31.705z M177.417,22.992h-2.223c-3.197,0-3.895,1.019-3.895,2.986v0.138
				c0,1.729,0.77,2.182,2.533,2.182c1.264,0,2.564-0.421,3.584-0.986V22.992z M194.604,31.745c-0.848,0.145-1.615,0.25-2.391,0.25
				c-3.971,0-5.594-0.886-5.594-5.59v-11.04l-3.301-0.495c-0.385-0.067-0.705-0.319-0.705-0.706v-1.571
				c0-0.396,0.32-0.716,0.705-0.716h3.301V7.224c0-0.387,0.32-0.63,0.709-0.701l3.271-0.559c0.029,0,0.105,0,0.137,0
				c0.309,0,0.561,0.173,0.561,0.524v5.388h3.162c0.389,0,0.705,0.32,0.705,0.716v2.066c0,0.386-0.316,0.706-0.705,0.706h-3.162
				v11.04c0,1.757,0.107,1.967,1.371,1.967h1.859c0.465,0,0.75,0.175,0.75,0.526v2.211C195.278,31.463,195.055,31.67,194.604,31.745
				z M212.598,23.417h-11.457v0.099c0,2.041,0.85,4.464,4.219,4.464c2.574,0,4.99-0.208,6.471-0.352c0.037,0,0.068,0,0.109,0
				c0.346,0,0.633,0.188,0.633,0.533v2.313c0,0.561-0.107,0.814-0.742,0.916c-2.285,0.417-3.656,0.604-6.816,0.604
				c-3.518,0-8.512-1.901-8.512-8.832v-2.598c0-5.49,3.057-8.934,8.443-8.934c5.404,0,8.359,3.697,8.359,8.934v1.967
				C213.305,23.095,213.098,23.417,212.598,23.417z M208.629,19.959c0-2.736-1.516-4.318-3.684-4.318
				c-2.18,0-3.766,1.542-3.766,4.318v0.154h7.449V19.959z M218.508,31.705h-3.125c-0.393,0-0.703-0.313-0.703-0.697v-3.973
				c0-0.383,0.311-0.668,0.703-0.668h3.125c0.389,0,0.701,0.285,0.701,0.668v3.973C219.209,31.391,218.897,31.705,218.508,31.705z
				 M232.995,31.533c-0.816,0.212-2.398,0.462-4.533,0.462c-4.572,0-8.016-2.814-8.016-8.543v-3.275
				c0-5.727,3.443-8.545,8.016-8.545c2.135,0,3.717,0.245,4.533,0.457c0.6,0.144,0.734,0.356,0.734,0.919v2.285
				c0,0.349-0.275,0.526-0.635,0.526c-0.031,0-0.066,0-0.1,0c-1.404-0.178-2.246-0.249-4.533-0.249
				c-1.656,0-3.383,0.948-3.383,4.606v3.275c0,3.65,1.727,4.605,3.383,4.605c2.287,0,3.129-0.077,4.533-0.241c0.033,0,0.068,0,0.1,0
				c0.359,0,0.635,0.164,0.635,0.515v2.285C233.729,31.181,233.594,31.391,232.995,31.533z M243.823,31.995
				c-5.514,0-8.4-3.738-8.4-8.761v-2.847c0-5.022,2.887-8.756,8.4-8.756c5.521,0,8.393,3.733,8.393,8.756v2.847
				C252.215,28.256,249.344,31.995,243.823,31.995z M247.586,20.387c0-2.879-1.305-4.746-3.764-4.746
				c-2.465,0-3.762,1.867-3.762,4.746v2.847c0,2.882,1.297,4.746,3.762,4.746c2.459,0,3.764-1.864,3.764-4.746V20.387z
				 M278.775,31.705h-3.238c-0.383,0-0.705-0.348-0.705-0.733V19.023c0-2.709-0.564-3.414-2.533-3.414c-0.664,0-2,0.21-3.268,0.873
				c0.105,0.778,0.141,1.655,0.141,2.541v11.948c0,0.386-0.312,0.733-0.703,0.733h-3.234c-0.387,0-0.701-0.348-0.701-0.733V19.023
				c0-2.709-0.463-3.414-2.43-3.414c-0.738,0-1.795,0.384-3.234,1.16v14.202c0,0.386-0.316,0.733-0.705,0.733h-3.232
				c-0.391,0-0.701-0.348-0.701-0.733V12.592c0-0.396,0.311-0.716,0.701-0.716h3.064c0.381,0,0.697,0.32,0.697,0.716v0.726
				c1.479-0.946,2.955-1.687,5.031-1.687c2.006,0,3.305,0.601,4.115,1.582c1.787-0.981,3.369-1.582,5.793-1.582
				c4.775,0,5.842,3.275,5.842,7.392v11.948C279.474,31.357,279.158,31.705,278.775,31.705z M285.306,31.705h-3.127
				c-0.389,0-0.707-0.313-0.707-0.697v-3.973c0-0.383,0.318-0.668,0.707-0.668h3.127c0.383,0,0.709,0.285,0.709,0.668v3.973
				C286.015,31.391,285.689,31.705,285.306,31.705z M302.402,31.705h-2.996c-0.387,0-0.695-0.313-0.695-0.697v-0.565
				c-1.619,0.979-3.271,1.553-4.961,1.553c-2.92,0-6.082-1.132-6.082-5.879v-0.138c0-4.005,2.461-6.086,8.584-6.086h2.207v-1.541
				c0-2.279-1.01-2.849-3.092-2.849c-2.26,0-4.57,0.139-5.736,0.282c-0.062,0-0.135,0-0.168,0c-0.352,0-0.635-0.113-0.635-0.604
				v-2.249c0-0.389,0.213-0.628,0.668-0.735c1.41-0.283,3.447-0.565,5.871-0.565c4.988,0,7.738,2.218,7.738,6.72v12.656
				C303.105,31.391,302.785,31.705,302.402,31.705z M298.458,22.992h-2.207c-3.203,0-3.91,1.019-3.91,2.986v0.138
				c0,1.729,0.766,2.182,2.527,2.182c1.277,0,2.58-0.421,3.59-0.986V22.992z M320.955,31.705h-3.24
				c-0.381,0-0.695-0.313-0.695-0.697v-0.812c-1.83,1.196-3.277,1.758-5.521,1.758c-1.76,0-3.307-0.453-4.33-1.478
				c-1.301-1.295-1.754-3.479-1.754-6.391V12.621c0-0.389,0.314-0.744,0.701-0.744h3.234c0.389,0,0.705,0.355,0.705,0.744v11.464
				c0,1.756,0.141,2.767,0.809,3.371c0.49,0.421,1.094,0.63,2.184,0.63c1.299,0,2.984-0.868,3.973-1.4V12.621
				c0-0.389,0.314-0.744,0.695-0.744h3.24c0.389,0,0.703,0.355,0.703,0.744v18.387C321.658,31.391,321.343,31.705,320.955,31.705z"
				/>
		</g>
		<g>
			<g>
				<g>
					<path fill="#C8102E" d="M56.699,28.502C56.791,12.84,44.156,0.079,28.5,0C12.837-0.089,0.083,12.542,0,28.198
						c-0.084,15.662,12.54,28.414,28.198,28.5c0.052,0,0.107,0,0.16,0C43.943,56.698,56.613,44.106,56.699,28.502"/>
				</g>
			</g>
		</g>
		<g opacity="0.7">
			<g>
				<g>
					<linearGradient id="SVGID_1_" gradientUnits="userSpaceOnUse" x1="8.3042" y1="8.3003" x2="48.3994" y2="48.3955">
						<stop  offset="0" style="stop-color:#FFFFFF"/>
						<stop  offset="1" style="stop-color:#000000"/>
					</linearGradient>
					<path fill="url(#SVGID_1_)" d="M56.701,28.502C56.791,12.84,44.158,0.079,28.5,0C12.839-0.089,0.085,12.542,0.001,28.198
						c-0.084,15.662,12.541,28.414,28.197,28.5c0.053,0,0.107,0,0.16,0C43.945,56.698,56.615,44.106,56.701,28.502"/>
				</g>
			</g>
		</g>
		<g>
			<g>
				<g>
					<g>
						<path fill="#FFFFFF" d="M46.887,24.393v-0.004L30.085,7.665c-0.423-0.477-1.05-0.764-1.742-0.764l0,0
							c-0.684,0-1.306,0.287-1.743,0.764L9.796,24.389v0.004c-0.646,0.656-1.043,1.557-1.043,2.553c0,2,1.615,3.625,3.624,3.625
							h2.298c0,0,0,12.703,0,12.732c0,1.305,1.051,2.363,2.366,2.371h22.606c1.314-0.008,2.361-1.066,2.361-2.371
							c0-0.029-0.007-12.732-0.007-12.732h2.316c1.996,0,3.629-1.625,3.629-3.625C47.947,25.95,47.531,25.049,46.887,24.393
							 M14.274,26.202L28.357,12.19l14.085,14.012l-4.852,0.006V41.25H19.117V26.208L14.274,26.202z"/>
					</g>
				</g>
			</g>
		</g>
	</g>
	<g>
		<g>
			<g>
				<g>
					<path fill="#666666" d="M72.933,49.511l-0.859-2.498h-4.587l-0.845,2.498h-1.344l3.731-10.549h1.542L74.3,49.511H72.933z
						 M69.762,40.28l-1.854,5.478h3.731L69.762,40.28z M80.124,49.511l-0.105-1.152c-0.383,0.87-1.352,1.329-2.232,1.329
						c-1.703,0-2.572-1.033-2.572-2.766v-4.948h1.262v4.768c0,1.129,0.422,1.801,1.605,1.801c0.506,0,0.922-0.228,1.248-0.573
						c0.486-0.484,0.627-1.308,0.627-2.075v-3.92h1.27v7.537H80.124z M88.468,48.851c-0.574,0.597-1.467,0.849-2.453,0.849
						c-0.941,0-1.801-0.22-2.438-0.849c-0.459-0.44-0.729-1.084-0.729-1.721h1.27c0.01,0.524,0.252,0.902,0.602,1.176
						c0.34,0.256,0.889,0.336,1.355,0.336c0.531,0,0.996-0.08,1.387-0.413c0.201-0.16,0.369-0.476,0.369-0.817
						c0-0.565-0.402-0.97-1.176-1.071c-0.324-0.045-1.172-0.149-1.697-0.224c-1.131-0.181-1.84-0.881-1.84-2.032
						c0-0.574,0.281-1.123,0.619-1.463c0.494-0.511,1.279-0.837,2.213-0.837c1,0,1.898,0.315,2.398,0.951
						c0.328,0.407,0.539,0.832,0.539,1.441H87.62c-0.018-0.383-0.213-0.74-0.43-0.932c-0.307-0.284-0.725-0.403-1.24-0.403
						c-0.295,0-0.521,0-0.877,0.146c-0.471,0.196-0.754,0.601-0.754,1.021c0,0.617,0.391,0.887,1.01,0.972
						c0.416,0.064,1.012,0.12,1.812,0.255c1.078,0.184,1.922,0.955,1.922,2.084C89.063,47.969,88.831,48.484,88.468,48.851z
						 M93.339,49.613c-1.621,0-2.068-1.033-2.068-2.04v-4.507h-1.463v-1.092h1.463v-1.92l1.268-0.293v2.213h2.229v1.092h-2.229
						v4.357c0,0.736,0.303,1.029,1,1.029c0.543,0,1.301-0.138,1.301-0.138v1.09C94.501,49.494,94.038,49.613,93.339,49.613z
						 M99.741,43.164c-0.594,0-1.09,0.258-1.432,0.588c-0.619,0.577-0.682,1.623-0.682,2.41v3.35h-1.25v-7.537h1.115l0.096,1.327
						c0.395-0.918,1.301-1.367,2.254-1.367c0.193,0,0.4,0.012,0.592,0.04v1.243C100.212,43.168,99.962,43.164,99.741,43.164z
						 M106.747,49.613c-0.666,0-1.09-0.505-1.09-1.145h-0.029c-0.428,0.761-1.365,1.231-2.422,1.231
						c-1.732,0-2.586-1.157-2.586-2.318c0-0.97,0.619-2.233,2.666-2.351l2.299-0.135v-0.557c0-0.364-0.045-0.829-0.385-1.139
						c-0.26-0.239-0.627-0.392-1.242-0.392c-0.676,0-1.117,0.2-1.363,0.453c-0.238,0.229-0.373,0.532-0.373,0.905h-1.238
						c0.021-0.689,0.273-1.179,0.664-1.578c0.5-0.537,1.395-0.805,2.311-0.805c1.463,0,2.291,0.624,2.656,1.445
						c0.146,0.338,0.221,0.724,0.221,1.158v3.645c0,0.403,0.162,0.51,0.416,0.51c0.137,0,0.322-0.05,0.322-0.05v0.939
						C107.306,49.567,107.058,49.613,106.747,49.613z M105.585,45.873l-2.021,0.116c-0.76,0.059-1.652,0.404-1.652,1.359
						c0,0.673,0.42,1.294,1.488,1.294c0.58,0,1.143-0.189,1.541-0.609c0.445-0.46,0.645-1.084,0.645-1.708V45.873z M110.528,49.6
						c-1.107,0-1.58-0.66-1.58-1.847v-8.985h1.266v8.907c0,0.504,0.164,0.777,0.688,0.777c0.408,0,0.52-0.017,0.52-0.017v1.075
						C111.421,49.511,111.134,49.6,110.528,49.6z M112.79,40.26v-1.492h1.477v1.492H112.79z M112.874,49.511v-7.537h1.301v7.537
						H112.874z M121.972,49.613c-0.672,0-1.088-0.505-1.088-1.145h-0.029c-0.434,0.761-1.373,1.231-2.426,1.231
						c-1.725,0-2.588-1.157-2.588-2.318c0-0.97,0.623-2.233,2.676-2.351l2.295-0.135v-0.557c0-0.364-0.049-0.829-0.391-1.139
						c-0.248-0.239-0.623-0.392-1.232-0.392c-0.686,0-1.119,0.2-1.367,0.453c-0.24,0.229-0.371,0.532-0.371,0.905h-1.234
						c0.008-0.689,0.262-1.179,0.652-1.578c0.504-0.537,1.396-0.805,2.32-0.805c1.451,0,2.295,0.624,2.656,1.445
						c0.137,0.338,0.215,0.724,0.215,1.158v3.645c0,0.403,0.164,0.51,0.422,0.51c0.125,0,0.314-0.05,0.314-0.05v0.939
						C122.532,49.567,122.284,49.613,121.972,49.613z M120.812,45.873l-2.029,0.116c-0.76,0.059-1.648,0.404-1.648,1.359
						c0,0.673,0.414,1.294,1.494,1.294c0.572,0,1.137-0.189,1.545-0.609c0.443-0.46,0.639-1.084,0.639-1.708V45.873z M123.45,43.1
						l-0.389-0.713c0.771-0.335,0.945-0.775,0.945-1.629h-0.922v-1.74h1.816v1.74C124.901,41.86,124.532,42.647,123.45,43.1z
						 M130.364,48.851c-0.578,0.597-1.477,0.849-2.457,0.849c-0.938,0-1.805-0.22-2.445-0.849c-0.453-0.44-0.725-1.084-0.725-1.721
						h1.264c0.016,0.524,0.252,0.902,0.613,1.176c0.338,0.256,0.877,0.336,1.355,0.336c0.523,0,0.998-0.08,1.373-0.413
						c0.221-0.16,0.385-0.476,0.385-0.817c0-0.565-0.416-0.97-1.178-1.071c-0.332-0.045-1.174-0.149-1.695-0.224
						c-1.133-0.181-1.846-0.881-1.846-2.032c0-0.574,0.277-1.123,0.623-1.463c0.492-0.511,1.275-0.837,2.219-0.837
						c0.994,0,1.887,0.315,2.395,0.951c0.324,0.407,0.533,0.832,0.533,1.441h-1.264c-0.012-0.383-0.207-0.74-0.436-0.932
						c-0.305-0.284-0.721-0.403-1.229-0.403c-0.301,0-0.521,0-0.881,0.146c-0.479,0.196-0.762,0.601-0.762,1.021
						c0,0.617,0.387,0.887,1.01,0.972c0.42,0.064,1.016,0.12,1.82,0.255c1.074,0.184,1.92,0.955,1.92,2.084
						C130.958,47.969,130.716,48.484,130.364,48.851z M142.831,49.511l-5.182-8.486v8.486h-1.273V38.962h1.482l5.18,8.506v-8.506
						h1.281v10.549H142.831z M151.716,48.826c-0.543,0.532-1.324,0.874-2.268,0.874c-0.963,0-1.732-0.342-2.291-0.874
						c-0.811-0.805-1.068-1.892-1.068-3.081c0-1.188,0.258-2.274,1.068-3.079c0.559-0.539,1.328-0.881,2.291-0.881
						c0.943,0,1.725,0.342,2.268,0.881c0.822,0.805,1.068,1.892,1.068,3.079C152.784,46.934,152.538,48.021,151.716,48.826z
						 M150.8,43.406c-0.322-0.306-0.771-0.543-1.352-0.543c-0.605,0-1.043,0.237-1.365,0.543c-0.535,0.548-0.695,1.456-0.695,2.339
						c0,0.875,0.16,1.79,0.695,2.333c0.322,0.313,0.76,0.537,1.365,0.537c0.58,0,1.029-0.224,1.352-0.537
						c0.527-0.543,0.697-1.458,0.697-2.333C151.497,44.862,151.327,43.954,150.8,43.406z M153.646,49.511v-1.773h1.764v1.773
						H153.646z M158.595,49.511v-8.904l-2.457,1.802v-1.411l2.529-1.832h1.219v10.346H158.595z M172.526,48.958
						c-0.482,0.459-1.18,0.762-2.055,0.762c-0.824,0-1.791-0.392-2.191-1.077v4.095h-1.258V41.994h1.109l0.084,0.983
						c0.434-0.764,1.406-1.175,2.256-1.175c0.924,0,1.635,0.309,2.119,0.819c0.715,0.728,1.09,1.873,1.09,3.123
						C173.68,47.04,173.29,48.229,172.526,48.958z M170.258,42.863c-0.545,0-0.926,0.237-1.221,0.506
						c-0.629,0.556-0.828,1.453-0.828,2.389c0,0.935,0.199,1.842,0.828,2.402c0.295,0.264,0.676,0.482,1.221,0.482
						c1.684,0,2.131-1.496,2.131-2.885C172.389,44.374,171.942,42.863,170.258,42.863z M178.858,43.164
						c-0.598,0-1.088,0.258-1.42,0.588c-0.615,0.577-0.691,1.623-0.691,2.41v3.35H175.5v-7.537h1.113l0.102,1.327
						c0.385-0.918,1.293-1.367,2.256-1.367c0.189,0,0.398,0.012,0.584,0.04v1.243C179.338,43.168,179.081,43.164,178.858,43.164z
						 M185.78,48.826c-0.549,0.532-1.318,0.874-2.273,0.874c-0.957,0-1.729-0.342-2.275-0.874c-0.818-0.805-1.066-1.892-1.066-3.081
						c0-1.188,0.248-2.274,1.066-3.079c0.547-0.539,1.318-0.881,2.275-0.881c0.955,0,1.725,0.342,2.273,0.881
						c0.818,0.805,1.064,1.892,1.064,3.079C186.844,46.934,186.598,48.021,185.78,48.826z M184.858,43.406
						c-0.312-0.306-0.762-0.543-1.352-0.543c-0.592,0-1.043,0.237-1.363,0.543c-0.521,0.548-0.695,1.456-0.695,2.339
						c0,0.875,0.174,1.79,0.695,2.333c0.32,0.313,0.771,0.537,1.363,0.537c0.59,0,1.039-0.224,1.352-0.537
						c0.533-0.543,0.695-1.458,0.695-2.333C185.553,44.862,185.391,43.954,184.858,43.406z M194.063,48.958
						c-0.484,0.459-1.184,0.762-2.066,0.762c-0.814,0-1.789-0.392-2.184-1.077v4.095h-1.266V41.994h1.111l0.096,0.983
						c0.434-0.764,1.396-1.175,2.242-1.175c0.924,0,1.645,0.309,2.127,0.819c0.719,0.728,1.09,1.873,1.09,3.123
						C195.213,47.04,194.831,48.229,194.063,48.958z M191.784,42.863c-0.543,0-0.916,0.237-1.213,0.506
						c-0.623,0.556-0.83,1.453-0.83,2.389c0,0.935,0.207,1.842,0.83,2.402c0.297,0.264,0.67,0.482,1.213,0.482
						c1.695,0,2.141-1.496,2.141-2.885C193.924,44.374,193.479,42.863,191.784,42.863z M203.235,46.162h-5.324
						c0,0.685,0.27,1.434,0.721,1.887c0.348,0.343,0.805,0.531,1.389,0.531c0.592,0,1.092-0.156,1.4-0.491
						c0.203-0.207,0.34-0.413,0.443-0.809h1.238c-0.107,0.741-0.551,1.438-1.16,1.854c-0.529,0.36-1.209,0.566-1.922,0.566
						c-1.053,0-1.916-0.448-2.498-1.125c-0.627-0.737-0.939-1.729-0.939-2.807c0-0.906,0.164-1.71,0.584-2.399
						c0.537-0.912,1.529-1.584,2.836-1.584c0.969,0,1.748,0.379,2.293,0.967c0.613,0.67,0.969,1.637,0.957,2.649L203.235,46.162z
						 M201.493,43.54c-0.307-0.41-0.818-0.687-1.49-0.687c-1.371,0-2.035,1.122-2.07,2.218h4.02
						C201.952,44.506,201.793,43.941,201.493,43.54z M208.208,43.164c-0.598,0-1.084,0.258-1.426,0.588
						c-0.613,0.577-0.688,1.623-0.688,2.41v3.35h-1.248v-7.537h1.113l0.111,1.327c0.381-0.918,1.289-1.367,2.236-1.367
						c0.195,0,0.404,0.012,0.605,0.04v1.243C208.682,43.168,208.428,43.164,208.208,43.164z M212.858,49.613
						c-1.611,0-2.066-1.033-2.066-2.04v-4.507h-1.457v-1.092h1.457v-1.92l1.273-0.293v2.213h2.229v1.092h-2.229v4.357
						c0,0.736,0.311,1.029,1.012,1.029c0.537,0,1.289-0.138,1.289-0.138v1.09C214.024,49.494,213.565,49.613,212.858,49.613z
						 M218.293,51.054c-0.359,0.971-0.9,1.604-2.037,1.604c-0.623,0-1.049-0.117-1.148-0.146v-1.094c0,0,0.406,0.114,0.902,0.114
						c0.535,0,0.914-0.198,1.121-0.758l0.482-1.264l-3.004-7.537h1.426l2.219,5.947l2.113-5.947h1.322L218.293,51.054z
						 M231.17,48.851c-0.568,0.597-1.461,0.849-2.439,0.849c-0.936,0-1.807-0.22-2.439-0.849c-0.467-0.44-0.732-1.084-0.732-1.721
						h1.264c0.014,0.524,0.256,0.902,0.611,1.176c0.348,0.256,0.879,0.336,1.35,0.336c0.523,0,0.996-0.08,1.383-0.413
						c0.219-0.16,0.375-0.476,0.375-0.817c0-0.565-0.406-0.97-1.17-1.071c-0.328-0.045-1.176-0.149-1.699-0.224
						c-1.129-0.181-1.848-0.881-1.848-2.032c0-0.574,0.291-1.123,0.621-1.463c0.5-0.511,1.285-0.837,2.229-0.837
						c0.984,0,1.883,0.315,2.383,0.951c0.332,0.407,0.537,0.832,0.537,1.441h-1.266c-0.006-0.383-0.197-0.74-0.428-0.932
						c-0.309-0.284-0.727-0.403-1.227-0.403c-0.303,0-0.525,0-0.879,0.146c-0.482,0.196-0.764,0.601-0.764,1.021
						c0,0.617,0.385,0.887,1.012,0.972c0.418,0.064,1.014,0.12,1.811,0.255c1.074,0.184,1.928,0.955,1.928,2.084
						C231.782,47.969,231.538,48.484,231.17,48.851z M233.588,40.26v-1.492h1.477v1.492H233.588z M233.684,49.511v-7.537h1.295
						v7.537H233.684z M239.782,49.613c-1.615,0-2.068-1.033-2.068-2.04v-4.507h-1.451v-1.092h1.451v-1.92l1.271-0.293v2.213h2.229
						v1.092h-2.229v4.357c0,0.736,0.309,1.029,1.004,1.029c0.543,0,1.303-0.138,1.303-0.138v1.09
						C240.94,49.494,240.485,49.613,239.782,49.613z M248.848,46.162h-5.322c0,0.685,0.262,1.434,0.721,1.887
						c0.344,0.343,0.807,0.531,1.381,0.531c0.604,0,1.09-0.156,1.404-0.491c0.205-0.207,0.34-0.413,0.445-0.809h1.242
						c-0.109,0.741-0.564,1.438-1.17,1.854c-0.529,0.36-1.201,0.566-1.922,0.566c-1.055,0-1.906-0.448-2.486-1.125
						c-0.635-0.737-0.943-1.729-0.943-2.807c0-0.906,0.162-1.71,0.576-2.399c0.535-0.912,1.537-1.584,2.846-1.584
						c0.963,0,1.74,0.379,2.285,0.967c0.609,0.67,0.969,1.637,0.963,2.649L248.848,46.162z M247.1,43.54
						c-0.309-0.41-0.811-0.687-1.48-0.687c-1.373,0-2.041,1.122-2.072,2.218h4.02C247.567,44.506,247.405,43.941,247.1,43.54z
						 M250.465,39.127v2.354h-0.451v-2.354h-0.852v-0.366h2.15v0.366H250.465z M254.155,41.482v-2.267h-0.014l-0.891,2.267h-0.281
						l-0.889-2.267h-0.014v2.267h-0.455v-2.721h0.697l0.812,2.063l0.801-2.063h0.687v2.721H254.155z"/>
				</g>
			</g>
		</g>
	</g>
</g>
<g>
	<g>
		<polygon points="323.62,7.492 323.62,9.846 323.168,9.846 323.168,7.492 322.317,7.492 322.317,7.125 324.467,7.125 
			324.467,7.492 		"/>
		<polygon points="327.309,9.846 327.309,7.58 327.295,7.58 326.405,9.846 326.124,9.846 325.235,7.58 325.221,7.58 325.221,9.846 
			324.766,9.846 324.766,7.125 325.463,7.125 326.276,9.189 327.077,7.125 327.763,7.125 327.763,9.846 		"/>
	</g>
</g>
</svg>
