<svg id="Layer_1" data-name="Layer 1" xmlns="http://www.w3.org/2000/svg" viewBox="0 0 538.73 117.73"><defs><style>.cls-1{fill:#c3271b;}.cls-2{fill:#414042;}</style></defs><title>reinteractive_logo_positive_CMYK</title><path class="cls-1" d="M151.58,257.56h11.6V269c3.16-7.57,9-12.75,17.92-12.36v12.27h-0.67c-10.16,0-17.25,6.61-17.25,20v19.26h-11.6v-50.6Z" transform="translate(-151.58 -238.77)"/><path class="cls-1" d="M181.86,283v-0.19c0-14.47,10.25-26.35,24.72-26.35,16.1,0,24.25,12.65,24.25,27.22,0,1.05-.1,2.11-0.19,3.26H193.46c1.25,8.24,7.09,12.84,14.57,12.84,5.65,0,9.68-2.11,13.7-6l6.8,6c-4.79,5.75-11.4,9.49-20.7,9.49-14.66,0-26-10.64-26-26.26m37.47-3.74c-0.77-7.47-5.17-13.32-12.84-13.32-7.09,0-12.08,5.46-13.13,13.32h26Z" transform="translate(-151.58 -238.77)"/><path class="cls-2" d="M262.36,257.56H274v7.76c3.26-4.7,8-8.82,15.81-8.82,11.4,0,18,7.67,18,19.36v32.29h-11.6V279.41c0-7.86-3.93-12.36-10.83-12.36-6.71,0-11.4,4.7-11.4,12.55v28.56h-11.6v-50.6Z" transform="translate(-151.58 -238.77)"/><path class="cls-2" d="M319.38,294.16V267.52H313v-10h6.42v-13.9H331v13.9h13.61v10H331v24.82c0,4.5,2.3,6.33,6.23,6.33a15.6,15.6,0,0,0,7.19-1.72v9.49A20.06,20.06,0,0,1,333.95,309c-8.53,0-14.57-3.74-14.57-14.85" transform="translate(-151.58 -238.77)"/><path class="cls-2" d="M347.36,283v-0.19c0-14.47,10.26-26.35,24.73-26.35,16.1,0,24.24,12.65,24.24,27.22,0,1.05-.09,2.11-0.19,3.26H359c1.25,8.24,7.09,12.84,14.57,12.84,5.65,0,9.68-2.11,13.7-6l6.8,6c-4.79,5.75-11.4,9.49-20.7,9.49-14.66,0-26-10.64-26-26.26m37.47-3.74C384.07,271.84,379.66,266,372,266c-7.09,0-12.08,5.46-13.13,13.32h26Z" transform="translate(-151.58 -238.77)"/><path class="cls-2" d="M403.24,257.56h11.6V269c3.16-7.57,9-12.75,17.92-12.36v12.27h-0.67c-10.16,0-17.25,6.61-17.25,20v19.26h-11.6v-50.6Z" transform="translate(-151.58 -238.77)"/><path class="cls-2" d="M432.27,293.59V293.4c0-10.92,8.53-16.29,20.89-16.29a42.31,42.31,0,0,1,13.61,2.11V278c0-7.19-4.41-11-12.56-11a35.23,35.23,0,0,0-14.47,3.16l-3.07-9.1a43.17,43.17,0,0,1,19.07-4.12c7.57,0,13.22,2,16.77,5.65,3.74,3.64,5.46,9,5.46,15.62v30H466.68v-6.32c-3.45,4.12-8.72,7.38-16.48,7.38-9.49,0-17.92-5.46-17.92-15.62M467,289.95V286.5a32.15,32.15,0,0,0-11.5-2c-7.47,0-11.88,3.16-11.88,8.43v0.19c0,4.89,4.31,7.67,9.87,7.67,7.67,0,13.51-4.41,13.51-10.83" transform="translate(-151.58 -238.77)"/><path class="cls-2" d="M484.31,283.14V283a26.12,26.12,0,0,1,26.35-26.45c9.49,0,15.43,3.55,20.22,8.72L523.6,273c-3.55-3.74-7.28-6.33-13-6.33-8.43,0-14.66,7.28-14.66,16.1V283c0,9,6.23,16.19,15.14,16.19,5.46,0,9.49-2.49,13.13-6.23l7,6.9c-5,5.56-10.83,9.49-20.7,9.49a25.83,25.83,0,0,1-26.16-26.16" transform="translate(-151.58 -238.77)"/><path class="cls-2" d="M539.41,294.16V267.52H533v-10h6.42v-13.9H551v13.9h13.61v10H551v24.82c0,4.5,2.3,6.33,6.23,6.33a15.6,15.6,0,0,0,7.19-1.72v9.49A20.05,20.05,0,0,1,554,309c-8.53,0-14.57-3.74-14.57-14.85" transform="translate(-151.58 -238.77)"/><path class="cls-2" d="M571.81,238.77h12.46v11H571.81v-11Zm0.48,18.78h11.6v50.6h-11.6v-50.6Z" transform="translate(-151.58 -238.77)"/><path class="cls-2" d="M239.41,238.77h12.46v11H239.41v-11Zm0.48,18.78h11.6v50.6h-11.6v-50.6Z" transform="translate(-151.58 -238.77)"/><polygon class="cls-2" points="437.86 18.78 450.32 18.78 463.93 55.97 477.63 18.78 489.8 18.78 469.1 69.77 458.66 69.77 437.86 18.78"/><path class="cls-2" d="M640.81,283v-0.19c0-14.47,10.25-26.35,24.72-26.35,16.1,0,24.25,12.65,24.25,27.22,0,1.05-.09,2.11-0.19,3.26H652.4c1.25,8.24,7.09,12.84,14.57,12.84,5.65,0,9.68-2.11,13.7-6l6.8,6c-4.79,5.75-11.4,9.49-20.7,9.49-14.66,0-26-10.64-26-26.26m37.47-3.74c-0.77-7.47-5.18-13.32-12.84-13.32-7.09,0-12.07,5.46-13.13,13.32h26Z" transform="translate(-151.58 -238.77)"/><path class="cls-2" d="M253,356.51a12.78,12.78,0,0,1-5.11-1,12.52,12.52,0,0,1-6.75-6.87,13.17,13.17,0,0,1-1-5.07v-0.07a13.25,13.25,0,0,1,1-5.05,12.66,12.66,0,0,1,6.81-6.94,13.1,13.1,0,0,1,5.25-1,15.92,15.92,0,0,1,3.15.29,12.8,12.8,0,0,1,2.61.81,12.22,12.22,0,0,1,2.19,1.24,17.14,17.14,0,0,1,1.91,1.58l-2.84,3.27a14.18,14.18,0,0,0-3.2-2.27,8.33,8.33,0,0,0-3.85-.86,7.88,7.88,0,0,0-3.33.7,8.24,8.24,0,0,0-2.64,1.91,8.56,8.56,0,0,0-1.73,2.82,9.67,9.67,0,0,0-.61,3.45v0.07a9.82,9.82,0,0,0,.61,3.47,8.71,8.71,0,0,0,1.73,2.86,8.12,8.12,0,0,0,2.64,1.92,7.89,7.89,0,0,0,3.33.7,8.3,8.3,0,0,0,4-.88,15.56,15.56,0,0,0,3.27-2.39l2.84,2.88a16.18,16.18,0,0,1-2,1.85,13.44,13.44,0,0,1-2.28,1.4,11.52,11.52,0,0,1-2.68.9A15.74,15.74,0,0,1,253,356.51Z" transform="translate(-151.58 -238.77)"/><path class="cls-2" d="M279.81,356.51a13.46,13.46,0,0,1-5.32-1,12.61,12.61,0,0,1-4.14-2.79,12.77,12.77,0,0,1-2.7-4.12,13,13,0,0,1-1-5v-0.07a13,13,0,0,1,1-5,12.69,12.69,0,0,1,2.73-4.14,13.12,13.12,0,0,1,9.49-3.87,13.46,13.46,0,0,1,5.32,1,12.65,12.65,0,0,1,4.14,2.79,12.79,12.79,0,0,1,2.7,4.12,13,13,0,0,1,1,5v0.07a13,13,0,0,1-1,5,12.68,12.68,0,0,1-2.73,4.14A13.12,13.12,0,0,1,279.81,356.51Zm0.07-4.06a8.25,8.25,0,0,0,3.42-.7,8.1,8.1,0,0,0,2.67-1.91A8.82,8.82,0,0,0,287.7,347a9.47,9.47,0,0,0,.63-3.45v-0.07a9.61,9.61,0,0,0-.63-3.47,8.64,8.64,0,0,0-1.75-2.84,8.51,8.51,0,0,0-2.7-1.92,8.32,8.32,0,0,0-9.53,1.89A8.83,8.83,0,0,0,272,340a9.47,9.47,0,0,0-.63,3.45v0.07A9.62,9.62,0,0,0,272,347a8.61,8.61,0,0,0,1.75,2.84,8.47,8.47,0,0,0,2.7,1.92A8.16,8.16,0,0,0,279.88,352.44Z" transform="translate(-151.58 -238.77)"/><path class="cls-2" d="M298.36,330.9h4.09l13.46,17.41V330.9h4.39v25.17h-3.7l-13.85-17.91v17.91h-4.39V330.9Z" transform="translate(-151.58 -238.77)"/><path class="cls-2" d="M326.77,330.9h18.7v4H331.16v6.94h12.69v4H331.16v10.25h-4.39V330.9Z" transform="translate(-151.58 -238.77)"/><path class="cls-2" d="M350.62,330.9H355v25.17h-4.39V330.9Z" transform="translate(-151.58 -238.77)"/><path class="cls-2" d="M361.76,330.9h9.39a14.9,14.9,0,0,1,5.41,1,12.79,12.79,0,0,1,4.24,2.64,11.77,11.77,0,0,1,2.75,4,12.51,12.51,0,0,1,1,4.95v0.07a12.64,12.64,0,0,1-1,5,11.73,11.73,0,0,1-2.75,4,13,13,0,0,1-4.24,2.66,14.64,14.64,0,0,1-5.41,1h-9.39V330.9Zm9.35,21.18a9.82,9.82,0,0,0,3.6-.63,7.87,7.87,0,0,0,2.75-1.77,8,8,0,0,0,1.76-2.71,9.11,9.11,0,0,0,.63-3.41v-0.07a9.25,9.25,0,0,0-.63-3.43,8,8,0,0,0-1.76-2.73,8.08,8.08,0,0,0-2.75-1.79,9.57,9.57,0,0,0-3.6-.65h-5v17.19h5Z" transform="translate(-151.58 -238.77)"/><path class="cls-2" d="M389.89,330.9h18.63v4H394.27v6.47H406.9v4H394.27v6.72h14.42v4H389.89V330.9Z" transform="translate(-151.58 -238.77)"/><path class="cls-2" d="M414,330.9h4.09l13.46,17.41V330.9h4.39v25.17h-3.7l-13.85-17.91v17.91H414V330.9Z" transform="translate(-151.58 -238.77)"/><path class="cls-2" d="M448.58,335h-8v-4.1H461V335h-8v21.07h-4.46V335Z" transform="translate(-151.58 -238.77)"/><path class="cls-2" d="M485.33,356.43a15.9,15.9,0,0,1-5.57-1,15.22,15.22,0,0,1-4.93-3l2.66-3.17a15.45,15.45,0,0,0,3.7,2.43,10.2,10.2,0,0,0,4.24.84,5.48,5.48,0,0,0,3.25-.86,2.7,2.7,0,0,0,1.21-2.3v-0.07a2.92,2.92,0,0,0-.23-1.21,2.62,2.62,0,0,0-.87-1,6.82,6.82,0,0,0-1.73-.86,24.66,24.66,0,0,0-2.87-.79,28.09,28.09,0,0,1-3.59-1.06,9.72,9.72,0,0,1-2.63-1.44,5.54,5.54,0,0,1-1.62-2.07,7,7,0,0,1-.56-2.95v-0.07a6.78,6.78,0,0,1,2.41-5.27,8.27,8.27,0,0,1,2.7-1.49,10.61,10.61,0,0,1,3.45-.54,14.41,14.41,0,0,1,5,.81,14.8,14.8,0,0,1,4.15,2.36L491.12,337a15.48,15.48,0,0,0-3.42-1.92,9.27,9.27,0,0,0-3.42-.67,4.72,4.72,0,0,0-3,.86,2.62,2.62,0,0,0-1.08,2.12v0.07a3.06,3.06,0,0,0,.25,1.28,2.48,2.48,0,0,0,.92,1,7.81,7.81,0,0,0,1.84.84q1.17,0.4,3,.83a28.35,28.35,0,0,1,3.51,1.12,8.78,8.78,0,0,1,2.54,1.49,5.9,5.9,0,0,1,1.53,2,6.59,6.59,0,0,1,.52,2.71v0.07a7.35,7.35,0,0,1-.66,3.16,6.79,6.79,0,0,1-1.84,2.37,8.11,8.11,0,0,1-2.83,1.47A12.43,12.43,0,0,1,485.33,356.43Z" transform="translate(-151.58 -238.77)"/><path class="cls-2" d="M511.51,356.51a13.45,13.45,0,0,1-5.32-1,12.61,12.61,0,0,1-4.14-2.79,12.76,12.76,0,0,1-2.7-4.12,13,13,0,0,1-1-5v-0.07a13,13,0,0,1,1-5,12.69,12.69,0,0,1,2.73-4.14,13.11,13.11,0,0,1,9.49-3.87,13.46,13.46,0,0,1,5.32,1,12.53,12.53,0,0,1,6.83,6.9,13,13,0,0,1,1,5v0.07a13,13,0,0,1-1,5,12.68,12.68,0,0,1-2.73,4.14A13.12,13.12,0,0,1,511.51,356.51Zm0.07-4.06a8.24,8.24,0,0,0,3.42-.7,8.1,8.1,0,0,0,2.67-1.91,8.81,8.81,0,0,0,1.74-2.82,9.47,9.47,0,0,0,.63-3.45v-0.07a9.61,9.61,0,0,0-.63-3.47,8.63,8.63,0,0,0-1.75-2.84,8.5,8.5,0,0,0-2.7-1.92,8.32,8.32,0,0,0-9.53,1.89,8.82,8.82,0,0,0-1.74,2.82,9.45,9.45,0,0,0-.63,3.45v0.07a9.6,9.6,0,0,0,.63,3.47,8.63,8.63,0,0,0,1.75,2.84,8.47,8.47,0,0,0,2.7,1.92A8.17,8.17,0,0,0,511.58,352.44Z" transform="translate(-151.58 -238.77)"/><path class="cls-2" d="M530.07,330.9h18.7v4H534.45v6.94h12.69v4H534.45v10.25h-4.39V330.9Z" transform="translate(-151.58 -238.77)"/><path class="cls-2" d="M559.84,335h-8v-4.1h20.43V335h-8v21.07h-4.46V335Z" transform="translate(-151.58 -238.77)"/><path class="cls-2" d="M575,330.9h4.78l6,18.67L592,330.83h3.74l6.19,18.74,6-18.67h4.64l-8.77,25.35H600l-6.19-18.09-6.18,18.09h-3.81Z" transform="translate(-151.58 -238.77)"/><path class="cls-2" d="M626,330.72h4.1l11.08,25.35h-4.67L634,350h-11.9l-2.59,6.08h-4.53Zm6.33,15.36L628,336l-4.32,10.07h8.67Z" transform="translate(-151.58 -238.77)"/><path class="cls-2" d="M645.5,330.9h11.22a12.3,12.3,0,0,1,4.21.67,8.46,8.46,0,0,1,3.06,1.85,7.3,7.3,0,0,1,1.55,2.41,8.17,8.17,0,0,1,.54,3v0.07a8.14,8.14,0,0,1-.45,2.79,7.3,7.3,0,0,1-1.24,2.19,7.46,7.46,0,0,1-1.89,1.62,9.36,9.36,0,0,1-2.43,1l6.8,9.53h-5.21l-6.21-8.77h-5.55v8.77H645.5V330.9Zm10.88,12.48a5.85,5.85,0,0,0,3.79-1.14,3.76,3.76,0,0,0,1.41-3.09v-0.07a3.72,3.72,0,0,0-1.37-3.12,6.16,6.16,0,0,0-3.86-1.07h-6.46v8.49h6.49Z" transform="translate(-151.58 -238.77)"/><path class="cls-2" d="M671.5,330.9h18.63v4H675.89v6.47h12.62v4H675.89v6.72h14.42v4H671.5V330.9Z" transform="translate(-151.58 -238.77)"/></svg>