<?xml version="1.0" encoding="utf-8"?>
<!-- Generator: Adobe Illustrator 15.0.2, SVG Export Plug-In . SVG Version: 6.00 Build 0)  -->
<!DOCTYPE svg PUBLIC "-//W3C//DTD SVG 1.0//EN" "http://www.w3.org/TR/2001/REC-SVG-20010904/DTD/svg10.dtd">
<svg version="1.0" id="Layer_1" xmlns="http://www.w3.org/2000/svg" xmlns:xlink="http://www.w3.org/1999/xlink" x="0px" y="0px"
	 width="425.197px" height="85.04px" viewBox="0 0 425.197 85.04" enable-background="new 0 0 425.197 85.04" xml:space="preserve">
<path fill="#010101" d="M87.603,54.972c2.347,1.391,6.345,2.955,10.169,2.955c5.477,0,8.084-2.693,8.084-6.258
	c0-3.65-2.173-5.562-7.735-7.649c-7.649-2.781-11.213-6.866-11.213-11.907c0-6.781,5.563-12.343,14.516-12.343
	c4.259,0,7.997,1.13,10.257,2.607l-1.825,5.563c-1.652-1.042-4.693-2.521-8.605-2.521c-4.52,0-6.953,2.607-6.953,5.736
	c0,3.478,2.433,5.042,7.909,7.215c7.214,2.694,11.039,6.345,11.039,12.603c0,7.476-5.824,12.69-15.645,12.69
	c-4.607,0-8.866-1.217-11.822-2.956L87.603,54.972z"/>
<path fill="#010101" d="M152.617,52.625c0,3.65,0.173,7.215,0.608,10.084h-6.867l-0.608-5.303h-0.261
	c-2.347,3.302-6.867,6.258-12.864,6.258c-8.518,0-12.864-5.997-12.864-12.082c0-10.169,9.04-15.732,25.294-15.646v-0.869
	c0-3.39-0.956-9.735-9.562-9.648c-3.998,0-8.083,1.13-11.039,3.129l-1.738-5.128c3.477-2.173,8.605-3.651,13.908-3.651
	c12.864,0,15.993,8.779,15.993,17.124V52.625z M145.229,41.238c-8.344-0.173-17.818,1.304-17.818,9.476c0,5.041,3.303,7.3,7.127,7.3
	c5.562,0,9.126-3.478,10.343-7.04c0.261-0.869,0.348-1.739,0.348-2.434V41.238z"/>
<path fill="#010101" d="M200.16,51.148c0,4.432,0.086,8.257,0.348,11.561h-6.78l-0.435-6.868h-0.174
	c-1.912,3.391-6.432,7.823-13.907,7.823c-6.605,0-14.516-3.738-14.516-18.427V20.639h7.649v23.206
	c0,7.997,2.521,13.474,9.389,13.474c5.127,0,8.691-3.563,10.083-7.04c0.434-1.044,0.695-2.435,0.695-3.911V20.639h7.649V51.148z"/>
<path fill="#010101" d="M242.833,61.229c-1.998,0.957-6.432,2.435-12.082,2.435c-12.69,0-20.947-8.604-20.947-21.469
	c0-12.952,8.866-22.426,22.6-22.426c4.52,0,8.518,1.13,10.604,2.26l-1.739,5.824c-1.824-0.956-4.693-1.999-8.865-1.999
	c-9.648,0-14.864,7.214-14.864,15.906c0,9.734,6.259,15.731,14.603,15.731c4.348,0,7.215-1.042,9.389-1.998L242.833,61.229z"/>
<path fill="#010101" d="M255.522,43.063c0.173,10.345,6.692,14.604,14.429,14.604c5.476,0,8.866-0.956,11.647-2.174l1.391,5.476
	c-2.694,1.218-7.388,2.695-14.081,2.695c-12.951,0-20.688-8.604-20.688-21.296c0-12.69,7.475-22.599,19.731-22.599
	c13.821,0,17.384,11.995,17.384,19.731c0,1.565-0.086,2.695-0.26,3.563H255.522z M277.947,37.588
	c0.088-4.781-1.999-12.343-10.604-12.343c-7.823,0-11.127,7.04-11.734,12.343H277.947z"/>
<path fill="#ED2224" stroke="#ED2224" stroke-miterlimit="10" d="M294.169,20.396h5.525v37.729h18.079v4.584h-23.604V20.396z"/>
<path fill="#ED2224" stroke="#ED2224" stroke-miterlimit="10" d="M330.703,49.399l-4.395,13.31h-5.65l14.439-42.313h6.529
	l14.438,42.313h-5.839l-4.52-13.31H330.703z M344.639,45.13l-4.206-12.179c-0.941-2.762-1.568-5.273-2.197-7.721h-0.125
	c-0.629,2.448-1.256,5.084-2.135,7.658l-4.143,12.242H344.639z"/>
<path fill="#ED2224" stroke="#ED2224" stroke-miterlimit="10" d="M362.277,21.024c2.385-0.565,6.215-0.942,9.981-0.942
	c5.462,0,8.978,0.942,11.552,3.076c2.195,1.632,3.577,4.144,3.577,7.471c0,4.144-2.763,7.721-7.156,9.291v0.189
	c4.019,0.942,8.726,4.269,8.726,10.546c0,3.642-1.443,6.466-3.641,8.476c-2.889,2.7-7.659,3.953-14.564,3.953
	c-3.766,0-6.654-0.249-8.475-0.502V21.024z M367.738,38.35h4.96c5.712,0,9.103-3.076,9.103-7.156c0-4.897-3.703-6.906-9.229-6.906
	c-2.511,0-3.955,0.189-4.834,0.377V38.35z M367.738,58.564c1.131,0.188,2.637,0.251,4.583,0.251c5.649,0,10.86-2.071,10.86-8.224
	c0-5.712-4.959-8.161-10.923-8.161h-4.521V58.564z"/>
<path fill="#ED2224" stroke="#ED2224" stroke-miterlimit="10" d="M395.607,56.054c2.449,1.568,5.965,2.762,9.73,2.762
	c5.588,0,8.853-2.949,8.853-7.219c0-3.894-2.261-6.215-7.974-8.35c-6.904-2.511-11.174-6.152-11.174-12.053
	c0-6.592,5.462-11.488,13.686-11.488c4.27,0,7.471,1.004,9.291,2.071l-1.506,4.458c-1.319-0.816-4.145-2.009-7.973-2.009
	c-5.775,0-7.974,3.453-7.974,6.34c0,3.956,2.573,5.901,8.413,8.162c7.155,2.762,10.734,6.214,10.734,12.429
	c0,6.53-4.771,12.242-14.752,12.242c-4.082,0-8.537-1.256-10.799-2.762L395.607,56.054z"/>
<g>
	<g>
		<g>
			<path fill="#010101" d="M77.266,83.936H0.601L0.567,0.567H77.28L77.266,83.936z M7.388,77.263h62.998L70.383,7.302H7.385
				L7.388,77.263L7.388,77.263z"/>
		</g>
	</g>
	<path fill="#F6EB16" d="M70.503,7.299L7.258,7.291l-0.021,40.26H18.17c9,0.168,8.16,6.285,8.95,11.857
		c0.805,5.666,6.224,8.442,10.769,8.442c5.95,0,10.661-5.103,10.661-11.186c0-4.688-2.15-8.063-11.406-12.009
		c-10.495-4.442-13.138-10.694-13.138-16.78c0-9.953,7.603-16.615,16.445-16.615c4.629,0,9.677,1.478,13.094,5.332
		c2.767,3.121,3.764,6.259,3.654,10.141c-0.049,1.702-0.249,3.88,3.199,3.928l10.105,0.023V7.299z"/>
	<path fill="#ED2224" d="M70.583,36.327l-9.533-0.041c0,0-10.085,0.785-9.516-6.949c0.273-3.725-0.825-6.569-1.599-7.765
		c-2.01-3.107-5.363-4.659-9.41-4.659c-5.951,0-10.324,4.958-10.324,10.14c0,4.523,2.197,9.573,11.532,13.193
		c8.101,3.126,13.135,8.566,13.135,16.133c0,7.977-6.057,17.282-16.965,17.282c-5.619,0-10.703-1.337-14.599-6.914
		c-1.98-2.829-2.74-6.485-2.878-10.141c-0.104-2.801-0.847-3.426-2.773-3.426L7.26,53.216l0.006,24.238h63.288V36.67L70.583,36.327z
		"/>
	<path fill="#010101" d="M69.99,36.716 M70.778,36.739l-9.274,0c-0.065,0.004-0.495-0.006-0.848-0.006l0,0
		c-1.11-0.003-3.406-0.114-5.497-1.024l0,0c-2.088-0.889-4.011-2.732-3.995-5.939l0,0c0-0.212,0.009-0.429,0.025-0.651l0,0
		c0.029-0.417,0.043-0.813,0.043-1.189l0,0c-0.002-2.898-0.826-4.651-1.464-5.645l0,0c-2.521-3.879-5.64-5.001-9.38-4.959
		c-2.884,0.033-5.426,1.402-7.127,3.25l0,0c-1.698,1.847-2.691,4.321-2.689,6.772l0,0c0.002,2.173,0.545,4.378,2.212,6.513l0,0
		c1.668,2.133,4.493,4.207,9.102,5.993l0,0c8.222,3.151,13.241,8.877,13.228,16.692l0,0c0,4.108-1.448,8.455-4.311,11.8l0,0
		c-2.859,3.344-7.163,5.663-12.763,5.659l0,0c-0.033,0-0.065,0-0.098,0l0,0c-5.652,0-10.961-1.432-14.932-7.138l0,0
		c-2.061-2.944-2.65-6.184-2.788-9.875l0,0c-0.048-1.349-0.314-2.235-0.706-2.738l0,0c-0.391-0.494-0.899-0.72-1.765-0.729h-0.136
		H7.156v-6.508l11.563,0.01c2.165,0.036,3.586,0.514,4.886,1.254l0,0c1.302,0.74,2.149,1.801,2.688,3.002l0,0
		c1.074,2.407,1.041,5.361,1.436,8.098l0,0c0.384,2.679,1.837,4.651,3.761,5.988l0,0c1.923,1.336,4.322,2.007,6.489,2.004l0,0
		c2.822-0.001,5.347-1.207,7.18-3.147l0,0c1.832-1.939,2.957-4.608,2.957-7.514l0,0c-0.008-2.269-0.5-4.107-2.102-5.936l0,0
		c-1.606-1.828-4.392-3.634-8.984-5.591l0,0c-5.312-2.248-8.691-4.979-10.733-7.959l0,0c-2.043-2.98-2.727-6.187-2.725-9.303l0,0
		c-0.002-5.111,1.959-9.411,5.066-12.417l0,0c3.106-3.006,7.351-4.723,11.903-4.723l0,0c4.731-0.002,9.674,1.478,13.215,5.471l0,0
		c2.723,3.065,3.89,6.491,3.884,10.264l0,0c0,0.18-0.001,0.359-0.006,0.544l0,0c-0.007,0.186-0.011,0.374-0.011,0.558l0,0
		c-0.002,0.735,0.092,1.363,0.43,1.773l0,0c0.33,0.408,0.985,0.766,2.435,0.791h0.549l9.775,0.003v6.552H70.778z"/>
</g>
</svg>
