<?xml version="1.0" encoding="utf-8"?>
<!-- Generator: Adobe Illustrator 16.0.0, SVG Export Plug-In . SVG Version: 6.00 Build 0)  -->
<!DOCTYPE svg PUBLIC "-//W3C//DTD SVG 1.1//EN" "http://www.w3.org/Graphics/SVG/1.1/DTD/svg11.dtd">
<svg version="1.1" id="Layer_1" xmlns="http://www.w3.org/2000/svg" xmlns:xlink="http://www.w3.org/1999/xlink" x="0px" y="0px"
	 width="193.774px" height="49.16px" viewBox="0 0 193.774 49.16" enable-background="new 0 0 193.774 49.16" xml:space="preserve">
<polygon fill="#5B9B98" points="21.755,13.388 24.661,0 26.924,12.161 34.013,1.865 31.449,12.345 41.878,7.179 35.053,17.884 
	47.263,15.276 35.591,22.264 49.16,24.515 36.417,26.961 47.322,33.979 36.088,31.738 42.014,41.933 32.731,35.703 34.087,47.273 
	27.445,35.873 24.661,49.16 22.867,35.58 15.201,47.282 17.979,34.088 7.252,41.806 14.198,31.159 1.845,34.088 12.301,26.904 
	0,24.515 13.721,22.25 1.905,15.166 14.997,17.738 7.252,7.171 18.741,13.729 20.787,15.166 "/>
<path fill="#F1F1F1" d="M11.93,26.146c0.008,0.78,0.08,1.532,0.182,2.257c0.103,0.726,0.239,1.424,0.414,2.092
	c0.088,0.334,0.186,0.66,0.303,0.977c0.116,0.315,0.25,0.619,0.397,0.908c0.293,0.578,0.638,1.101,1.011,1.569
	c0.747,0.937,1.595,1.654,2.427,2.184c0.104,0.067,0.208,0.131,0.312,0.191c0.104,0.061,0.21,0.12,0.318,0.171
	c0.216,0.104,0.434,0.181,0.652,0.233c0.436,0.108,0.858,0.122,1.242,0.091c0.192-0.017,0.376-0.043,0.551-0.078
	c0.176-0.032,0.342-0.079,0.496-0.133c0.308-0.109,0.572-0.239,0.804-0.358c0.233-0.118,0.435-0.229,0.613-0.314
	c0.176-0.087,0.328-0.15,0.452-0.192c0.022-0.007,0.042-0.015,0.063-0.021c0.069,0.056,0.141,0.109,0.216,0.161
	c0.281,0.196,0.595,0.371,0.932,0.513c0.167,0.071,0.336,0.132,0.504,0.185c0.083,0.027,0.17,0.053,0.249,0.074l0.064,0.016
	l0.066,0.018c0.042,0.011,0.085,0.021,0.129,0.028c0.337,0.067,0.656,0.103,0.962,0.128c0.611,0.048,1.158,0.052,1.62,0.033
	c0.46-0.02,0.835-0.064,1.091-0.127c0.127-0.031,0.225-0.066,0.288-0.102c0.002-0.002,0.002-0.002,0.002-0.003
	c0.064,0.044,0.131,0.086,0.199,0.126c0.047,0.027,0.096,0.055,0.146,0.079c0.048,0.023,0.097,0.047,0.149,0.068
	c0.101,0.044,0.207,0.084,0.314,0.119c0.216,0.073,0.443,0.126,0.678,0.161c0.47,0.071,0.97,0.07,1.477,0.006
	s1.02-0.192,1.525-0.372c1.012-0.362,1.896-0.892,2.616-1.471c0.714-0.571,1.267-1.192,1.661-1.761
	c0.124-0.161,0.241-0.331,0.354-0.511c0.213-0.338,0.403-0.71,0.554-1.113c0.039-0.1,0.074-0.202,0.105-0.307
	c0.034-0.103,0.064-0.212,0.088-0.322c0.049-0.222,0.076-0.447,0.087-0.679c0.021-0.46-0.023-0.933-0.117-1.405
	c-0.045-0.236-0.102-0.474-0.172-0.71c-0.034-0.117-0.073-0.236-0.114-0.355c-0.019-0.06-0.04-0.118-0.063-0.178l-0.044-0.117
	l0.012-0.029l0.031-0.089c0.02-0.061,0.04-0.12,0.059-0.181c0.039-0.123,0.075-0.246,0.107-0.37
	c0.067-0.251,0.125-0.507,0.171-0.767c0.091-0.522,0.143-1.069,0.102-1.633c-0.041-0.561-0.187-1.139-0.482-1.661
	c-0.147-0.26-0.333-0.505-0.553-0.719c-0.11-0.106-0.228-0.208-0.354-0.298c-0.063-0.045-0.129-0.088-0.197-0.129
	c-0.033-0.02-0.068-0.04-0.103-0.059l-0.033-0.018c-0.009-0.004-0.018-0.008-0.027-0.012c0.001-0.007,0.008-0.017,0.011-0.026
	l0.008-0.019l0.031-0.09c0.023-0.064,0.043-0.129,0.065-0.195c0.039-0.129,0.075-0.262,0.106-0.395
	c0.063-0.267,0.112-0.54,0.142-0.817c0.06-0.553,0.048-1.126-0.057-1.695c-0.054-0.284-0.129-0.565-0.232-0.841
	c-0.101-0.274-0.227-0.549-0.396-0.805c-0.169-0.256-0.383-0.494-0.648-0.678c-0.133-0.092-0.277-0.17-0.43-0.229
	c-0.078-0.029-0.156-0.054-0.237-0.073c-0.04-0.009-0.082-0.018-0.122-0.024l-0.026-0.004l-0.007-0.001c-0.007,0-0.012,0-0.02,0
	c-0.001-0.004,0.003-0.012,0.003-0.018l0.002-0.014l0.007-0.103c0.006-0.075,0.009-0.15,0.009-0.226
	c0.003-0.15-0.001-0.302-0.014-0.453c-0.026-0.302-0.082-0.604-0.172-0.898c-0.09-0.294-0.214-0.581-0.374-0.851
	c-0.08-0.134-0.168-0.265-0.265-0.389c-0.095-0.125-0.197-0.242-0.305-0.356c-0.216-0.227-0.462-0.434-0.734-0.605
	s-0.571-0.305-0.881-0.396c-0.312-0.092-0.633-0.141-0.954-0.16c-0.321-0.018-0.64-0.004-0.959,0.028
	c-0.633,0.064-1.253,0.202-1.868,0.35c-0.306,0.075-0.613,0.149-0.922,0.23c-0.308,0.081-0.618,0.166-0.926,0.254
	c-0.618,0.176-1.235,0.365-1.855,0.562c-0.311,0.098-0.622,0.199-0.933,0.302l-0.467,0.156l-0.177,0.06l-0.005,0l-0.001-0.006
	l-0.042-0.305l-0.089-0.614l-0.185-1.236c-0.063-0.413-0.125-0.828-0.197-1.248c-0.019-0.105-0.037-0.208-0.061-0.322l-0.012-0.047
	l-0.003-0.015l-0.006-0.016l-0.005-0.017c-0.005-0.018-0.012-0.042-0.018-0.065l-0.037-0.15c-0.047-0.205-0.098-0.414-0.151-0.621
	c-0.211-0.83-0.47-1.656-0.779-2.469c-0.156-0.406-0.324-0.81-0.504-1.208c-0.091-0.199-0.183-0.396-0.284-0.597
	C20.389,4.388,20.28,4.191,20.164,4c-0.36-0.589-0.797-1.139-1.332-1.587c-0.532-0.45-1.164-0.793-1.844-0.958
	c-0.679-0.167-1.397-0.165-2.069,0.032c-0.167,0.049-0.333,0.112-0.492,0.188c-0.082,0.041-0.152,0.079-0.227,0.121
	c-0.074,0.041-0.146,0.083-0.219,0.128c-0.287,0.178-0.564,0.386-0.805,0.637c-0.239,0.25-0.444,0.546-0.578,0.874
	c-0.135,0.327-0.196,0.679-0.203,1.02c-0.008,0.341,0.035,0.672,0.088,0.989l0.02,0.118c0.007,0.04,0.014,0.083,0.023,0.124
	c0.016,0.083,0.036,0.163,0.057,0.242c0.041,0.159,0.09,0.314,0.142,0.467c0.212,0.609,0.477,1.179,0.751,1.736
	c0.276,0.558,0.565,1.1,0.854,1.634l0.864,1.584c0.142,0.262,0.279,0.522,0.411,0.784c0.132,0.261,0.259,0.522,0.369,0.783
	c0.055,0.132,0.104,0.259,0.146,0.392c0.042,0.137,0.082,0.272,0.12,0.409c0.073,0.272,0.13,0.547,0.169,0.821
	c0.079,0.548,0.073,1.097-0.034,1.624c-0.102,0.529-0.304,1.034-0.524,1.536c-0.22,0.501-0.452,1.007-0.63,1.533
	c-0.044,0.13-0.087,0.263-0.125,0.396l-0.109,0.39c-0.07,0.26-0.139,0.519-0.199,0.779c-0.061,0.259-0.117,0.52-0.163,0.782
	c-0.023,0.131-0.043,0.263-0.06,0.396c-0.009,0.066-0.015,0.135-0.021,0.201c-0.002,0.035-0.004,0.069-0.007,0.104l-0.001,0.043
	v0.008c0.001,0.005,0.001,0.012,0.001,0.019c-0.002,0.003-0.009,0.004-0.014,0.007l-0.089,0.035
	c-0.049,0.021-0.099,0.043-0.149,0.065c-0.1,0.044-0.196,0.09-0.292,0.139c-0.193,0.097-0.38,0.204-0.56,0.32
	c-0.359,0.234-0.696,0.508-0.966,0.85c-0.067,0.084-0.129,0.175-0.186,0.269l-0.021,0.035l-0.022,0.039
	c-0.013,0.025-0.027,0.052-0.039,0.079c-0.023,0.052-0.044,0.104-0.062,0.155c-0.073,0.208-0.111,0.413-0.142,0.616
	C11.94,25.359,11.927,25.756,11.93,26.146z"/>
<g>
	<path fill="#005958" d="M38.115,29.249c-0.045-0.236-0.104-0.474-0.173-0.711c-0.035-0.117-0.073-0.236-0.112-0.354
		c-0.021-0.062-0.042-0.12-0.063-0.179l-0.047-0.118l0.012-0.031l0.033-0.092c0.021-0.061,0.04-0.123,0.06-0.186
		c0.039-0.124,0.076-0.25,0.109-0.378c0.068-0.254,0.124-0.515,0.171-0.779c0.092-0.534,0.141-1.091,0.093-1.664
		c-0.024-0.287-0.077-0.577-0.163-0.86c-0.086-0.284-0.206-0.562-0.365-0.825c-0.157-0.261-0.356-0.503-0.589-0.713
		c-0.116-0.104-0.24-0.203-0.373-0.289c-0.068-0.043-0.136-0.084-0.208-0.122l-0.026-0.013c-0.008-0.003-0.015-0.007-0.022-0.011
		c0.001-0.007,0.007-0.016,0.009-0.024l0.009-0.02l0.032-0.093c0.022-0.064,0.043-0.129,0.063-0.193
		c0.04-0.13,0.076-0.262,0.109-0.396c0.063-0.266,0.111-0.539,0.141-0.816c0.061-0.554,0.049-1.127-0.056-1.695
		c-0.054-0.284-0.131-0.567-0.232-0.842c-0.101-0.274-0.229-0.549-0.398-0.804c-0.168-0.255-0.382-0.493-0.647-0.676
		c-0.132-0.091-0.276-0.169-0.431-0.227c-0.075-0.029-0.155-0.053-0.234-0.072c-0.04-0.009-0.082,0.46-0.123,0.454l-0.027,0.473
		h-0.007c-0.006,0-0.012,0-0.019,0c0,0,0.002-0.49,0.002-0.496l0.002-0.252l0.008-0.224c0.006-0.075,0.008-0.21,0.011-0.286
		c0.002-0.15-0.002-0.332-0.015-0.482c-0.025-0.301-0.081-0.617-0.17-0.912c-0.091-0.294-0.215-0.588-0.375-0.857
		c-0.077-0.134-0.167-0.268-0.262-0.393c-0.095-0.124-0.196-0.243-0.304-0.357c-0.216-0.228-0.46-0.435-0.732-0.606
		c-0.272-0.172-0.57-0.305-0.88-0.396c-0.31-0.092-0.632-0.142-0.952-0.16c-0.32-0.019-0.641-0.005-0.958,0.026
		c-0.633,0.065-1.253,0.202-1.869,0.35c-0.307,0.075-0.612,0.15-0.922,0.23c-0.308,0.082-0.618,0.167-0.926,0.254
		c-0.618,0.176-1.237,0.365-1.855,0.562c-0.311,0.099-0.622,0.199-0.933,0.302l-0.468-0.104l-0.472-0.197h0.43v0.52l-0.076-0.012
		l-0.081-0.306l-0.107-0.614l-0.193-1.235c-0.063-0.415-0.131-0.829-0.202-1.248c-0.019-0.106,0.333-0.208,0.309-0.322l0.35-0.047
		V9.714l-0.375-0.017l-0.19-0.015c-0.004-0.018-0.103-0.042-0.11-0.065l-0.083-0.15c-0.048-0.205-0.12-0.414-0.174-0.621
		c-0.211-0.831-0.483-1.656-0.792-2.468c-0.155-0.407-0.327-0.81-0.508-1.208c-0.09-0.199-0.186-0.396-0.287-0.597
		c-0.101-0.199-0.209-0.395-0.328-0.586c-0.36-0.589-0.796-1.138-1.33-1.586c-0.531-0.449-1.164-0.79-1.842-0.955
		c-0.677-0.167-1.395-0.164-2.065,0.032c-0.167,0.049-0.333,0.11-0.491,0.188c-0.081,0.04-0.152,0.078-0.226,0.12
		c-0.074,0.041-0.148,0.084-0.219,0.127c-0.287,0.179-0.562,0.386-0.803,0.636c-0.242,0.25-0.444,0.545-0.577,0.872
		c-0.135,0.327-0.197,0.678-0.203,1.018c-0.008,0.342,0.035,0.672,0.088,0.988l0.021,0.118c0.007,0.039,0.014,0.083,0.022,0.124
		c0.018,0.081,0.036,0.162,0.058,0.241c0.042,0.159,0.091,0.314,0.143,0.467c0.212,0.607,0.477,1.178,0.75,1.735
		c0.276,0.557,0.565,1.1,0.854,1.634l0.864,1.585c0.141,0.262,0.279,0.523,0.413,0.784c0.131,0.261,0.258,0.522,0.368,0.784
		c0.056,0.132,0.104,0.259,0.145,0.392c0.043,0.136,0.084,0.272,0.12,0.409c0.073,0.273,0.131,0.547,0.171,0.822
		c0.077,0.55,0.07,1.098-0.035,1.626c-0.104,0.529-0.306,1.034-0.525,1.537c-0.222,0.502-0.454,1.008-0.63,1.532
		c-0.046,0.131-0.087,0.263-0.125,0.395c-0.038,0.131-0.074,0.26-0.109,0.39c-0.072,0.26-0.139,0.52-0.199,0.78
		c-0.062,0.26-0.117,0.519-0.165,0.782c-0.022,0.13-0.042,0.263-0.059,0.396c-0.009,0.067-0.015,0.134-0.021,0.202
		c-0.002,0.034-0.274,0.067-0.275,0.103l-0.271,0.045v0.008c0,0.006,0.269,0.011,0.269,0.017c-0.002,0.004,0.126,0.005,0.122,0.008
		l-0.022,0.036c-0.051,0.021-0.068,0.043-0.117,0.064c-0.098,0.044-0.18,0.091-0.276,0.139c-0.192,0.098-0.37,0.204-0.549,0.32
		c-0.36,0.232-0.692,0.506-0.961,0.847c-0.067,0.084-0.128,0.174-0.184,0.267c-0.014,0.023-0.027,0.047-0.041,0.074
		c-0.014,0.026-0.027,0.052-0.039,0.078c-0.023,0.053-0.043,0.104-0.062,0.156c-0.071,0.208-0.111,0.412-0.142,0.615
		c-0.057,0.405-0.069,0.802-0.067,1.191c0.007,0.78,0.08,1.532,0.182,2.258c0.103,0.724,0.237,1.423,0.413,2.091
		c0.088,0.333,0.185,0.66,0.302,0.977c0.115,0.315,0.249,0.617,0.396,0.908c0.293,0.576,0.637,1.1,1.01,1.568
		c0.745,0.938,1.594,1.655,2.425,2.185c0.104,0.065,0.208,0.13,0.311,0.189c0.104,0.062,0.211,0.121,0.318,0.172
		c0.216,0.103,0.435,0.181,0.652,0.234c0.435,0.107,0.859,0.122,1.242,0.09c0.192-0.015,0.376-0.043,0.55-0.076
		c0.176-0.032,0.342-0.082,0.495-0.134c0.31-0.108,0.573-0.239,0.806-0.357c0.232-0.118,0.434-0.229,0.612-0.313
		c0.176-0.088,0.321-0.199,0.454-0.193c0.098,0.006,0.21,0.084,0.284,0.136c0.28,0.196,0.594,0.37,0.93,0.511
		c0.167,0.071,0.336,0.134,0.504,0.186c0.082,0.026,0.171,0.052,0.249,0.073l0.063,0.017l0.065,0.018
		c0.043,0.011,0.087,0.021,0.129,0.028c0.337,0.068,0.656,0.102,0.962,0.127c0.608,0.049,1.157,0.054,1.619,0.036
		c0.46-0.019,0.834-0.063,1.09-0.126c0.129-0.03,0.228-0.065,0.291-0.1c0.002-0.002,0.004-0.003,0.007-0.003
		c0.063,0.042,0.129,0.083,0.197,0.124c0.047,0.025,0.096,0.053,0.146,0.077c0.049,0.023,0.099,0.047,0.15,0.068
		c0.101,0.044,0.204,0.084,0.312,0.119c0.215,0.071,0.443,0.126,0.677,0.159c0.469,0.073,0.968,0.07,1.475,0.005
		c0.506-0.063,1.019-0.19,1.524-0.37c1.01-0.361,1.894-0.892,2.614-1.469c0.7-0.561,1.245-1.169,1.638-1.727
		c0.131-0.171,0.258-0.352,0.377-0.541c0.213-0.338,0.403-0.711,0.553-1.112c0.038-0.1,0.073-0.203,0.105-0.308
		c0.033-0.103,0.064-0.212,0.088-0.322c0.048-0.221,0.077-0.447,0.088-0.678C38.254,30.193,38.207,29.722,38.115,29.249z
		 M36.497,22.396c0.116,0.074,0.227,0.158,0.33,0.25c0.205,0.182,0.381,0.394,0.523,0.624c0.287,0.461,0.438,0.993,0.49,1.521
		c0.049,0.531,0.009,1.062-0.073,1.573c-0.042,0.256-0.096,0.508-0.158,0.755c-0.032,0.121-0.064,0.244-0.101,0.364
		c-0.018,0.06-0.037,0.119-0.058,0.179l-0.028,0.087c-0.016,0.047-0.232,0.398-0.445,0.79c-0.117,0.216-0.259,0.476-0.428,0.777
		c-0.169,0.301-0.366,0.639-0.599,1.001c-0.234,0.359-0.505,0.744-0.835,1.117c-0.166,0.187-0.346,0.368-0.545,0.535
		c-0.202,0.173-0.42,0.313-0.652,0.469c-0.103,0.069-0.21,0.178-0.319,0.178l0,0c-1.523,0.99-3.544,1.144-3.544,1.144
		c-1.116,0.102-2.201,0.019-3.153-0.218c-0.542-0.139-1.036-0.326-1.446-0.584c-0.413-0.258-0.734-0.579-0.942-0.929
		c-0.208-0.349-0.31-0.715-0.35-1.044c-0.042-0.329-0.025-0.62,0.016-0.854c0.062-0.351,0.451-0.41,0.66-0.352
		c0.403,0.112,0.802,0.176,1.191,0.211s0.762,0.035,1.116,0.021c0.708-0.033,1.341-0.137,1.859-0.275
		c0.488-0.133,0.872-0.301,1.13-0.449c0.046-0.007,0.087-0.014,0.137-0.024c0.198-0.041,0.388-0.109,0.573-0.191
		c0.373-0.163,0.727-0.385,1.072-0.64c0.344-0.256,0.679-0.547,0.998-0.87c0.16-0.163,0.312-0.33,0.453-0.506
		c0.035-0.045,0.069-0.09,0.103-0.137l0.052-0.071l0.044-0.067l0.173-0.266c0.228-0.349,0.445-0.687,0.649-1.013
		c0.408-0.65,0.76-1.246,1.04-1.755c0.392-0.714,0.644-1.255,0.737-1.526c0.007,0.004,0.017,0.006,0.021,0.009
		c0.017,0.006,0.033,0.014,0.047,0.02l0.045,0.021l0.042,0.021C36.379,22.323,36.439,22.358,36.497,22.396z M34.543,16.46
		c0.018,0.001,0.035,0.002,0.052,0.004l0.031,0.005c0.032,0.005,0.062,0.011,0.093,0.018c0.061,0.014,0.121,0.032,0.182,0.053
		c0.118,0.044,0.231,0.104,0.336,0.177c0.213,0.144,0.394,0.339,0.541,0.559c0.148,0.22,0.264,0.461,0.357,0.715
		c0.095,0.252,0.167,0.512,0.218,0.773c0.102,0.523,0.117,1.057,0.063,1.577c-0.026,0.26-0.069,0.516-0.128,0.768
		c-0.029,0.125-0.062,0.249-0.097,0.372c-0.019,0.061-0.039,0.122-0.059,0.182L36.1,21.756c-0.021,0.055-0.492,1.076-0.973,1.808
		c-0.316,0.482-0.696,1.055-1.122,1.688l-0.671,0.993l-0.174,0.259l-0.044,0.065l-0.042,0.058c-0.031,0.038-0.061,0.078-0.092,0.118
		c-0.13,0.159-0.271,0.316-0.422,0.468c-0.3,0.306-0.615,0.585-0.935,0.828c-0.321,0.246-0.647,0.46-0.971,0.615
		c-0.162,0.078-0.323,0.14-0.479,0.18c-0.036,0.01-0.083,0.019-0.124,0.028l-0.125,0.025c-0.084,0.017-0.167,0.03-0.246,0.042
		c-0.321,0.047-0.621,0.057-0.878,0.008c-0.257-0.047-0.469-0.155-0.638-0.285c-0.17-0.129-0.299-0.271-0.402-0.391
		c-0.101-0.122-0.178-0.22-0.234-0.283c-0.056-0.065-0.093-0.099-0.108-0.089c-0.014,0.008-0.008,0.056,0.021,0.138
		s0.08,0.199,0.164,0.345c0.084,0.144,0.199,0.319,0.377,0.49c0.09,0.087,0.196,0.17,0.321,0.241
		c0.123,0.073,0.265,0.134,0.419,0.175c0.134,0.036,0.275,0.059,0.422,0.069c-0.07,0.015-0.143,0.029-0.218,0.042
		c-0.504,0.092-1.115,0.156-1.793,0.162c-0.339,0.002-0.696-0.01-1.057-0.046c-0.362-0.041-0.737-0.104-1.104-0.206
		c-0.368-0.104-0.713-0.242-1.01-0.424c-0.299-0.181-0.546-0.405-0.725-0.661c-0.178-0.253-0.284-0.536-0.329-0.813
		c-0.011-0.07-0.02-0.138-0.025-0.206c-0.004-0.07-0.007-0.134-0.007-0.206c0-0.14,0.001-0.272,0.007-0.398
		c0.014-0.253,0.047-0.474,0.105-0.654c0.06-0.182,0.146-0.32,0.232-0.423c0.084-0.098,0.167-0.165,0.225-0.213
		c0.031,0.008,0.061,0.015,0.092,0.022c0.224,0.051,0.44,0.073,0.65,0.084c0.21,0.009,0.411,0.004,0.606-0.008
		c0.387-0.026,0.742-0.083,1.062-0.154c0.638-0.143,1.132-0.339,1.455-0.509c0.114-0.06,0.206-0.116,0.278-0.165
		c0.189-0.017,0.387-0.059,0.583-0.133c0.09-0.035,0.18-0.076,0.268-0.124c0.087-0.048,0.169-0.098,0.251-0.152
		c0.165-0.109,0.324-0.229,0.48-0.358c0.315-0.257,0.624-0.545,0.927-0.858c0.304-0.315,0.604-0.652,0.894-1.014
		c0.145-0.182,0.284-0.364,0.415-0.551c0.066-0.093,0.129-0.188,0.19-0.284l0.173-0.275l0.659-1.047
		c0.421-0.668,0.79-1.279,1.09-1.796c0.386-0.667,0.66-1.179,0.792-1.47C34.408,16.476,34.522,16.458,34.543,16.46z M27.967,36.538
		c-0.25,0.001-0.614-0.009-1.064-0.034s-0.987-0.068-1.575-0.14c-0.293-0.036-0.603-0.081-0.907-0.147
		c-0.038-0.009-0.075-0.018-0.111-0.028l-0.055-0.014l-0.057-0.017c-0.082-0.024-0.156-0.046-0.234-0.071
		c-0.155-0.052-0.307-0.108-0.461-0.173c-0.305-0.129-0.588-0.283-0.848-0.457c-0.26-0.172-0.496-0.364-0.708-0.562
		c-0.425-0.395-0.77-0.808-1.063-1.152c-0.293-0.347-0.533-0.628-0.713-0.813c-0.177-0.185-0.289-0.276-0.317-0.255
		c-0.027,0.021,0.034,0.152,0.164,0.372s0.327,0.531,0.587,0.91c0.26,0.375,0.584,0.823,1.024,1.268
		c0.145,0.148,0.015,0.377-0.148,0.491c-0.19,0.133-0.436,0.291-0.671,0.399c-0.236,0.109-1.016,0.391-1.185,0.418
		c-0.169,0.028-1.024,0.192-1.634-0.026c-0.199-0.07-0.408-0.131-0.607-0.231c-0.1-0.05-0.196-0.105-0.296-0.167
		c-0.1-0.062-0.201-0.126-0.301-0.192c-0.802-0.531-1.618-1.244-2.328-2.163c-0.356-0.46-0.684-0.971-0.959-1.532
		c-0.138-0.28-0.265-0.573-0.373-0.878s-0.199-0.623-0.281-0.95c-0.164-0.655-0.29-1.344-0.385-2.058
		c-0.094-0.712-0.157-1.452-0.158-2.208c0.001-0.377,0.018-0.761,0.074-1.134c0.028-0.187,0.067-0.373,0.127-0.542
		c0.016-0.042,0.033-0.083,0.05-0.121c0.009-0.019,0.019-0.038,0.028-0.056c0.01-0.018,0.021-0.037,0.034-0.058
		c0.047-0.077,0.101-0.152,0.16-0.226c0.234-0.292,0.542-0.54,0.874-0.753c0.169-0.107,0.345-0.205,0.525-0.294
		c0.089-0.045,0.182-0.089,0.275-0.129c0.045-0.021,0.092-0.039,0.139-0.059l0.042-0.016c-0.003,0.067-0.007,0.135-0.009,0.206
		c-0.012,0.307-0.014,0.63-0.007,0.964c0.003,0.161,0.007,0.344,0.026,0.521c0.018,0.178,0.043,0.357,0.079,0.536
		c0.14,0.717,0.393,1.362,0.667,1.918s0.577,1.028,0.851,1.403c0.276,0.377,0.527,0.661,0.712,0.844s0.306,0.268,0.331,0.246
		c0.026-0.023-0.043-0.149-0.181-0.368c-0.136-0.216-0.337-0.524-0.569-0.915c-0.23-0.39-0.49-0.861-0.731-1.404
		c-0.239-0.543-0.463-1.157-0.593-1.818c-0.032-0.166-0.056-0.33-0.074-0.491c-0.018-0.164-0.024-0.317-0.032-0.486
		c-0.013-0.327-0.02-0.642-0.021-0.942c-0.003-0.6,0.018-1.139,0.055-1.59c0.009-0.123,0.02-0.239,0.03-0.35
		c0.011-0.044,0.022-0.088,0.032-0.132c0.061-0.253,0.129-0.508,0.2-0.763c0.037-0.127,0.073-0.255,0.111-0.383
		c0.035-0.125,0.076-0.25,0.12-0.375c0.172-0.499,0.398-0.987,0.626-1.496c0.225-0.507,0.445-1.046,0.562-1.625
		c0.06-0.29,0.093-0.586,0.1-0.884c0.007-0.297-0.012-0.597-0.052-0.892c-0.041-0.296-0.103-0.589-0.178-0.877
		c-0.038-0.145-0.079-0.288-0.125-0.431c-0.044-0.146-0.1-0.292-0.157-0.43c-0.117-0.281-0.246-0.55-0.379-0.816
		c-0.135-0.267-0.274-0.532-0.415-0.796l-0.86-1.589c-0.286-0.532-0.572-1.071-0.842-1.62c-0.267-0.548-0.522-1.107-0.722-1.681
		c-0.049-0.144-0.094-0.288-0.131-0.432c-0.019-0.072-0.035-0.145-0.052-0.216c-0.007-0.037-0.014-0.071-0.019-0.108l-0.02-0.114
		c-0.05-0.305-0.088-0.604-0.081-0.897c0.007-0.293,0.059-0.579,0.169-0.843c0.108-0.264,0.272-0.506,0.477-0.717
		c0.205-0.212,0.447-0.397,0.708-0.559c0.065-0.04,0.132-0.079,0.2-0.117c0.066-0.036,0.139-0.074,0.202-0.105
		c0.131-0.063,0.272-0.116,0.415-0.159c0.579-0.168,1.212-0.172,1.809-0.024c0.598,0.147,1.159,0.449,1.64,0.855
		c0.483,0.405,0.889,0.912,1.226,1.465c0.108,0.18,0.211,0.364,0.307,0.552c0.094,0.188,0.185,0.383,0.274,0.578
		c0.176,0.389,0.34,0.783,0.491,1.18c0.303,0.793,0.557,1.601,0.765,2.414c0.052,0.203,0.101,0.407,0.15,0.612l0.038,0.158
		c0.007,0.026,0.621,0.054,0.631,0.086l0.615,0.022v0.007l-0.6,0.03c0.02,0.092-0.265,0.197-0.247,0.298
		c0.07,0.411-0.017,0.826,0.046,1.237l0.11,1.233c0,0,0.126,0.669,0.187,1.153C22.771,14.184,22.999,14,22.999,14v0.007l0,0
		c0-0.034,0.18-0.09,0.255-0.115c0.112-0.035,0.427-0.137,0.427-0.137c0.309-0.103,0.609-0.204,0.917-0.303
		c0.616-0.197,1.224-0.386,1.835-0.562c0.306-0.088,0.608-0.173,0.913-0.254c0.304-0.08,0.608-0.156,0.913-0.231
		c0.607-0.148,1.207-0.282,1.803-0.345c0.594-0.062,1.188-0.05,1.732,0.11c0.272,0.079,0.53,0.194,0.767,0.342
		c0.237,0.147,0.453,0.328,0.647,0.531c0.097,0.101,0.19,0.209,0.277,0.319c0.084,0.11,0.163,0.224,0.233,0.342
		c0.142,0.237,0.252,0.491,0.334,0.752c0.083,0.262,0.134,0.533,0.159,0.804c0.01,0.136,0.016,0.272,0.015,0.409
		c-0.002,0.068-0.005,0.135-0.008,0.203l-0.003,0.05L34.21,15.98c-0.004,0.046-0.007,0.285-0.015,0.45
		c-0.199,0.246-0.536,0.722-0.974,1.362c-0.335,0.493-0.735,1.079-1.175,1.736c-0.219,0.326-0.449,0.673-0.685,1.033l-0.177,0.272
		c-0.057,0.088-0.117,0.176-0.181,0.264c-0.124,0.176-0.26,0.351-0.398,0.525c-0.281,0.349-0.569,0.68-0.858,0.988
		c-0.291,0.308-0.581,0.593-0.87,0.846c-0.146,0.125-0.29,0.243-0.434,0.347c-0.073,0.052-0.144,0.1-0.216,0.144
		c-0.069,0.042-0.141,0.08-0.211,0.11c-0.291,0.127-0.593,0.169-0.866,0.157c-0.273-0.014-0.517-0.082-0.718-0.173
		c-0.202-0.091-0.361-0.205-0.482-0.307c-0.123-0.103-0.21-0.196-0.271-0.257c-0.061-0.062-0.099-0.095-0.113-0.085
		c-0.014,0.009-0.007,0.057,0.029,0.141c0.037,0.083,0.104,0.202,0.214,0.336c0.113,0.136,0.273,0.287,0.493,0.418
		c0.217,0.13,0.495,0.237,0.817,0.277c0.024,0.003,0.05,0.006,0.075,0.008c-0.332,0.108-0.81,0.24-1.405,0.329
		c-0.309,0.046-0.65,0.082-1.014,0.088c-0.182,0.003-0.369-0.001-0.562-0.016c-0.188-0.017-0.382-0.044-0.571-0.093
		c-0.093-0.024-0.187-0.053-0.273-0.089c-0.094-0.039-0.192-0.083-0.286-0.129c-0.192-0.092-0.38-0.196-0.56-0.316
		c-0.364-0.238-0.694-0.542-0.912-0.922c-0.11-0.19-0.188-0.393-0.235-0.6c-0.048-0.209-0.064-0.423-0.058-0.635
		c0.014-0.424,0.118-0.837,0.254-1.22c0.018-0.05,0.034-0.091,0.051-0.132c0.018-0.042,0.038-0.083,0.06-0.123
		c0.042-0.08,0.091-0.156,0.146-0.228c0.107-0.144,0.234-0.271,0.368-0.38c0.271-0.22,0.568-0.375,0.851-0.482
		c0.284-0.108,0.557-0.168,0.798-0.196c0.24-0.03,0.451-0.027,0.622-0.012c0.174,0.015,0.305,0.041,0.396,0.059
		c0.007,0.001,0.013,0.003,0.019,0.003c-0.016,0.138-0.026,0.27-0.028,0.395c-0.012,0.429,0.043,0.773,0.099,1.003
		c0.058,0.23,0.115,0.35,0.148,0.345c0.035-0.006,0.04-0.137,0.044-0.366c0.004-0.23,0.004-0.559,0.059-0.954
		c0.051-0.397,0.164-0.858,0.354-1.354c0.094-0.247,0.206-0.504,0.331-0.769c0.063-0.133,0.129-0.267,0.197-0.403l0.208-0.415
		c0.284-0.559,0.562-1.084,0.837-1.546c0.275-0.461,0.549-0.857,0.807-1.164c0.255-0.308,0.496-0.522,0.673-0.662
		c0.177-0.138,0.286-0.208,0.271-0.243c-0.012-0.03-0.147-0.019-0.37,0.077c-0.223,0.096-0.523,0.289-0.83,0.587
		c-0.312,0.297-0.63,0.695-0.938,1.16c-0.307,0.465-0.605,0.999-0.893,1.565c-0.072,0.142-0.141,0.283-0.208,0.421
		c-0.068,0.141-0.134,0.279-0.195,0.417c-0.124,0.278-0.232,0.552-0.321,0.82c-0.088,0.268-0.154,0.531-0.199,0.779
		c-0.012,0.069-0.023,0.138-0.033,0.206c-0.084-0.048-0.216-0.107-0.393-0.153c-0.152-0.04-0.34-0.069-0.554-0.075
		c-0.66-0.006-1.14,0.149-1.423,0.278c-0.186,0.1-0.368,0.196-0.579,0.352c-0.162,0.122-0.321,0.264-0.461,0.436
		c-0.069,0.085-0.135,0.178-0.192,0.278c-0.029,0.05-0.057,0.102-0.082,0.155c-0.025,0.053-0.047,0.109-0.067,0.159
		c-0.16,0.408-0.289,0.865-0.312,1.361c-0.012,0.248,0.005,0.505,0.061,0.761s0.152,0.508,0.288,0.741
		c0.134,0.233,0.301,0.441,0.485,0.62c0.125,0.12,0.326,0.227,0.453,0.354c0.188,0.131,0.433,0.287,0.712,0.423
		c0.017,0.006,0.033,0.013,0.049,0.023c0.007,0.004,0.014,0.006,0.021,0.01c0.068,0.031,0.136,0.061,0.207,0.089
		c0.028,0.011,0.059,0.021,0.089,0.033c0.028,0.011,0.057,0.021,0.084,0.03c-0.059,0.028-0.125,0.067-0.196,0.122
		c-0.125,0.097-0.259,0.252-0.355,0.458c-0.099,0.206-0.161,0.454-0.198,0.724c-0.018,0.136-0.032,0.276-0.041,0.422
		c-0.004,0.072-0.009,0.152-0.008,0.233c0.001,0.081,0.006,0.163,0.014,0.246c0.035,0.334,0.148,0.69,0.357,1.013
		c0.207,0.323,0.504,0.604,0.849,0.819c0.139,0.088,0.3,0.447,0.239,0.771c-0.044,0.245-0.077,0.587-0.059,0.948
		c0.017,0.36,0.101,0.78,0.321,1.193c0.109,0.207,0.25,0.408,0.423,0.595c0.172,0.188,0.374,0.358,0.599,0.51
		c0.448,0.304,1.381,0.336,1.542,1.088c0.042,0.195,0.15,0.556,0.266,0.817c0.114,0.265,0.294,0.541,0.536,0.806
		c0.168,0.181,0.361,0.355,0.585,0.517C28.106,36.537,28.042,36.537,27.967,36.538z M37.939,30.641
		c-0.007,0.216-0.03,0.427-0.072,0.631c-0.041,0.2-0.105,0.401-0.174,0.593c-0.03,0.09-0.065,0.176-0.101,0.261
		c-0.181,0.322-0.441,0.752-0.816,1.226c-0.414,0.523-0.972,1.128-1.675,1.657c-0.318,0.242-0.667,0.437-1.042,0.719l0,0
		c-0.005,0-0.007-0.024-0.012-0.022c-0.017,0.009-0.032,0.003-0.047,0.012c-0.067,0.037-0.131,0.063-0.192,0.098
		c-0.006,0.004-0.014-0.013-0.019-0.011c-1.073,0.574-1.676,0.664-1.676,0.664l0,0c-1.058,0.211-1.578,0.328-2.284,0.241
		c-0.212-0.026-0.414-0.06-0.607-0.116c-0.097-0.029-0.191-0.057-0.281-0.092c-0.046-0.018-0.089-0.033-0.132-0.053
		c-0.043-0.019-0.083-0.038-0.125-0.061c-0.334-0.174-0.625-0.392-0.859-0.614c-0.236-0.225-0.415-0.458-0.539-0.683
		c-0.125-0.223-0.69-0.435-0.73-0.611c-0.042-0.179-0.558-0.323-0.558-0.422c0-0.004,0-0.007,0-0.01c1,0.271,2.835,0.352,4.111,0.17
		c0.676-0.097,1.574-0.266,2.176-0.501c0.605-0.234,1.279-0.534,1.767-0.877c0.241-0.17,0.531-0.353,0.74-0.541
		c0.212-0.19,0.433-0.394,0.602-0.596c0.337-0.408,0.617-0.819,0.838-1.202c0.221-0.384,0.406-0.74,0.554-1.057
		c0.146-0.317,0.268-0.594,0.358-0.822c0.143-0.36,0.265-0.618,0.279-0.585l0.036,0.085c0.021,0.056,0.043,0.112,0.062,0.17
		c0.041,0.112,0.079,0.227,0.114,0.339c0.068,0.228,0.126,0.454,0.173,0.681C37.904,29.762,37.954,30.21,37.939,30.641z"/>
	<path fill="#005958" d="M30.503,37.404L30.503,37.404c-0.262,0-0.517-0.019-0.759-0.056c-0.244-0.036-0.481-0.091-0.706-0.166
		c-0.115-0.036-0.223-0.079-0.331-0.126c-0.051-0.023-0.104-0.047-0.154-0.071c-0.054-0.026-0.105-0.055-0.156-0.083
		c-0.043-0.025-0.083-0.049-0.124-0.076c-0.069,0.028-0.149,0.053-0.242,0.075c-0.273,0.066-0.662,0.11-1.124,0.13
		c-0.49,0.019-1.077,0.01-1.641-0.036c-0.285-0.024-0.624-0.059-0.982-0.13c-0.047-0.01-0.089-0.021-0.135-0.031l-0.135-0.035
		c-0.08-0.021-0.17-0.047-0.255-0.074c-0.181-0.057-0.354-0.122-0.52-0.19c-0.343-0.146-0.667-0.323-0.962-0.531
		c-0.04-0.026-0.145-0.101-0.19-0.104l0,0c-0.049,0-0.136,0.049-0.221,0.096c-0.047,0.025-0.096,0.054-0.147,0.08
		c-0.108,0.051-0.225,0.112-0.352,0.179l-0.258,0.133c-0.232,0.119-0.508,0.256-0.828,0.367c-0.177,0.062-0.352,0.109-0.521,0.142
		c-0.197,0.037-0.383,0.063-0.568,0.078c-0.423,0.036-0.887,0.009-1.299-0.095c-0.233-0.058-0.464-0.141-0.686-0.246
		c-0.11-0.053-0.223-0.115-0.33-0.178c-0.104-0.062-0.209-0.126-0.317-0.194c-0.941-0.601-1.772-1.349-2.468-2.223
		c-0.402-0.507-0.748-1.044-1.029-1.599c-0.152-0.298-0.289-0.61-0.406-0.928c-0.108-0.294-0.208-0.617-0.307-0.992
		c-0.171-0.654-0.307-1.346-0.417-2.112c-0.117-0.832-0.176-1.578-0.183-2.279c-0.002-0.484,0.019-0.86,0.07-1.218
		c0.026-0.175,0.064-0.406,0.149-0.648c0.02-0.057,0.042-0.113,0.069-0.17c0.014-0.029,0.028-0.059,0.042-0.088
		c0.019-0.03,0.033-0.057,0.049-0.083c0.059-0.099,0.126-0.193,0.198-0.284c0.254-0.322,0.583-0.611,1.009-0.886
		c0.173-0.113,0.368-0.224,0.575-0.329c0.1-0.05,0.203-0.097,0.305-0.143c0.033-0.014,0.069-0.03,0.105-0.044l0.051-0.021
		c-0.005-0.021-0.01-0.043-0.007-0.067c0.005-0.072,0.014-0.141,0.021-0.21c0.018-0.136,0.038-0.271,0.061-0.405
		c0.047-0.266,0.103-0.53,0.166-0.793c0.062-0.262,0.13-0.523,0.2-0.785c0.037-0.13,0.073-0.262,0.11-0.393
		c0.04-0.134,0.082-0.27,0.126-0.403c0.156-0.456,0.352-0.9,0.542-1.329l0.096-0.216c0.205-0.471,0.41-0.979,0.513-1.5
		c0.099-0.495,0.11-1.022,0.033-1.568c-0.035-0.254-0.092-0.523-0.166-0.801c-0.036-0.135-0.075-0.268-0.117-0.401
		c-0.041-0.129-0.088-0.251-0.14-0.378c-0.095-0.224-0.206-0.462-0.363-0.772c-0.133-0.26-0.271-0.52-0.41-0.78l-0.864-1.584
		c-0.278-0.512-0.573-1.065-0.857-1.64c-0.25-0.509-0.537-1.115-0.759-1.756c-0.054-0.157-0.104-0.316-0.146-0.48
		c-0.022-0.082-0.042-0.166-0.06-0.251c-0.009-0.042-0.016-0.087-0.024-0.128l-0.02-0.118c-0.049-0.297-0.099-0.649-0.091-1.021
		c0.008-0.389,0.081-0.753,0.215-1.081c0.136-0.331,0.347-0.651,0.614-0.928c0.232-0.242,0.506-0.459,0.837-0.664
		c0.075-0.045,0.149-0.089,0.225-0.132c0.078-0.043,0.151-0.083,0.236-0.124c0.163-0.079,0.336-0.146,0.519-0.199
		c0.683-0.201,1.437-0.211,2.157-0.034c0.68,0.166,1.341,0.509,1.913,0.992c0.506,0.426,0.967,0.975,1.367,1.628
		c0.115,0.188,0.227,0.39,0.333,0.599c0.101,0.202,0.195,0.402,0.286,0.604c0.18,0.401,0.352,0.81,0.506,1.218
		c0.307,0.802,0.572,1.64,0.786,2.488c0.054,0.208,0.104,0.417,0.154,0.624l0.077,0.311c0.02,0.092,0.034,0.176,0.049,0.259
		l0.012,0.071c0.059,0.338,0.108,0.672,0.16,1.005l0.302,2.216l0.027-0.007l0.458-0.154c0.313-0.103,0.624-0.203,0.935-0.302
		c0.661-0.21,1.271-0.395,1.861-0.564c0.31-0.088,0.619-0.174,0.928-0.255c0.312-0.082,0.619-0.157,0.927-0.231
		c0.696-0.167,1.284-0.291,1.892-0.354c0.353-0.036,0.665-0.045,0.985-0.027c0.352,0.02,0.685,0.076,0.992,0.167
		c0.328,0.097,0.64,0.237,0.924,0.417c0.273,0.172,0.532,0.385,0.767,0.633c0.112,0.118,0.214,0.238,0.316,0.369
		c0.1,0.13,0.192,0.267,0.274,0.407c0.164,0.276,0.295,0.575,0.392,0.888c0.091,0.3,0.15,0.613,0.178,0.935
		c0.012,0.157,0.018,0.314,0.014,0.47c0,0.07-0.005,0.14-0.008,0.211c0.008,0.001,0.015,0.003,0.023,0.005
		c0.089,0.02,0.176,0.046,0.259,0.078c0.162,0.062,0.318,0.144,0.469,0.247c0.262,0.182,0.497,0.425,0.694,0.724
		c0.162,0.242,0.298,0.518,0.415,0.841c0.104,0.277,0.185,0.571,0.241,0.87c0.103,0.559,0.123,1.146,0.059,1.747
		c-0.03,0.279-0.08,0.561-0.146,0.839c-0.033,0.136-0.07,0.272-0.11,0.406c-0.021,0.065-0.042,0.131-0.066,0.196
		c0.045,0.026,0.089,0.054,0.134,0.082c0.137,0.089,0.27,0.192,0.395,0.305c0.241,0.217,0.451,0.471,0.623,0.752
		c0.159,0.264,0.288,0.555,0.382,0.865c0.087,0.285,0.143,0.586,0.169,0.895c0.045,0.524,0.014,1.083-0.093,1.708
		c-0.045,0.266-0.104,0.533-0.175,0.798c-0.035,0.129-0.071,0.258-0.111,0.384c-0.02,0.063-0.041,0.127-0.062,0.19l-0.021,0.064
		l0.021,0.056c0.023,0.063,0.044,0.126,0.066,0.187c0.042,0.119,0.08,0.24,0.115,0.361c0.073,0.243,0.131,0.488,0.178,0.727
		c0.1,0.511,0.141,0.998,0.12,1.445c-0.012,0.247-0.042,0.483-0.092,0.707c-0.023,0.114-0.056,0.229-0.091,0.337
		c-0.033,0.108-0.069,0.214-0.108,0.316c-0.147,0.392-0.34,0.776-0.569,1.145c-0.117,0.187-0.248,0.372-0.387,0.556
		c-0.443,0.628-1.021,1.238-1.668,1.756c-0.815,0.653-1.712,1.157-2.667,1.497c-0.528,0.187-1.053,0.314-1.56,0.38
		C31.008,37.388,30.751,37.404,30.503,37.404z M28.358,36.462l0.029,0.017c0.061,0.041,0.123,0.079,0.188,0.119
		c0.042,0.023,0.088,0.048,0.133,0.07c0.047,0.023,0.094,0.045,0.143,0.065c0.096,0.042,0.195,0.08,0.298,0.115
		c0.205,0.067,0.423,0.119,0.647,0.152c0.225,0.032,0.463,0.052,0.707,0.052l0,0c0.233,0,0.476-0.017,0.719-0.049
		c0.484-0.062,0.983-0.183,1.486-0.361c0.904-0.323,1.791-0.821,2.564-1.439c0.622-0.498,1.176-1.083,1.604-1.69
		c0.018-0.023,0.037-0.047,0.055-0.072c-0.006,0.008-0.012,0.014-0.017,0.021c-0.522,0.659-1.097,1.229-1.707,1.688
		c-0.157,0.12-0.32,0.228-0.49,0.338c-0.069,0.046-0.141,0.092-0.211,0.14h0.075l-0.326,0.176c-0.03,0.02-0.061,0.043-0.09,0.065
		l-0.069,0.053l-0.042-0.012l-0.094,0.051c-1.085,0.58-1.617,0.678-1.641,0.681c-1.027,0.205-1.7,0.331-2.424,0.243
		c-0.234-0.029-0.478-0.063-0.68-0.121l-0.076-0.021c-0.082-0.023-0.168-0.047-0.24-0.074l-0.047-0.018
		c-0.038-0.014-0.074-0.027-0.105-0.041c-0.054-0.021-0.099-0.043-0.141-0.063c-0.328-0.173-0.64-0.395-0.9-0.645
		c-0.002-0.002-0.004-0.004-0.007-0.005c0.002,0.001,0.002,0.002,0.003,0.003c0.167,0.182,0.355,0.349,0.559,0.496L28.358,36.462z
		 M22.084,35.548c0.168,0.007,0.306,0.103,0.396,0.166c0.275,0.193,0.578,0.358,0.896,0.494c0.155,0.066,0.319,0.126,0.489,0.18
		c0.081,0.025,0.166,0.051,0.243,0.07l0.246,0.062c0.34,0.067,0.667,0.101,0.942,0.124c0.539,0.043,1.103,0.053,1.575,0.036
		c-0.562-0.035-1.075-0.08-1.566-0.141c-0.295-0.037-0.61-0.081-0.923-0.15c-0.04-0.009-0.08-0.019-0.119-0.028l-0.116-0.032
		c-0.084-0.026-0.16-0.048-0.239-0.074c-0.16-0.053-0.319-0.111-0.476-0.177c-0.308-0.13-0.604-0.289-0.879-0.473
		c-0.245-0.165-0.49-0.359-0.729-0.58c-0.403-0.375-0.729-0.758-1.015-1.095l-0.052-0.061c0.274,0.395,0.586,0.818,0.995,1.23
		c0.083,0.083,0.124,0.194,0.113,0.314c-0.007,0.079-0.035,0.154-0.075,0.22C21.887,35.586,21.98,35.548,22.084,35.548z
		 M27.189,34.275c0.01,0.051,0.019,0.104,0.033,0.163c0.043,0.194,0.117,0.385,0.22,0.565c0.12,0.218,0.298,0.439,0.507,0.64
		c0.238,0.228,0.522,0.43,0.822,0.588c0.033,0.017,0.07,0.033,0.105,0.047c0.038,0.017,0.064,0.026,0.091,0.035l0.059,0.021
		c0.062,0.024,0.137,0.045,0.208,0.064l0.081,0.022c0.178,0.052,0.415,0.084,0.624,0.11c0.656,0.079,1.207-0.017,2.317-0.239
		l0.027-0.005c0.073-0.017,0.345-0.087,0.83-0.304l0.698-0.369c0.034-0.018,0.069-0.032,0.103-0.054l0.118-0.033
		c0.17-0.124,0.334-0.232,0.494-0.337c0.163-0.105,0.32-0.209,0.47-0.322c0.586-0.443,1.14-0.991,1.644-1.628
		c0.293-0.368,0.556-0.763,0.799-1.202c0.026-0.065,0.059-0.148,0.089-0.233c0.081-0.226,0.134-0.406,0.168-0.57
		c0.039-0.188,0.062-0.391,0.069-0.599c0.012-0.396-0.029-0.83-0.124-1.29c-0.047-0.223-0.104-0.445-0.172-0.665
		c-0.02-0.069-0.043-0.139-0.065-0.208c-0.027,0.062-0.055,0.133-0.088,0.212c-0.108,0.27-0.228,0.55-0.359,0.831
		c-0.184,0.396-0.361,0.735-0.553,1.07c-0.278,0.48-0.544,0.87-0.84,1.227c-0.192,0.232-0.384,0.434-0.587,0.616
		c-0.22,0.197-0.455,0.383-0.697,0.553c-0.512,0.361-1.076,0.663-1.68,0.898c-0.619,0.241-1.282,0.412-1.969,0.512
		C29.476,34.556,28.289,34.514,27.189,34.275z M14.442,23.008c-0.064,0.03-0.127,0.06-0.189,0.091
		c-0.181,0.09-0.352,0.186-0.508,0.286c-0.352,0.224-0.63,0.464-0.832,0.715c-0.054,0.066-0.103,0.136-0.148,0.207l-0.051,0.095
		c-0.018,0.036-0.031,0.072-0.044,0.108c-0.049,0.137-0.088,0.303-0.12,0.507c-0.047,0.314-0.069,0.667-0.07,1.108
		c0,0.672,0.051,1.386,0.156,2.187c0.096,0.727,0.224,1.412,0.381,2.037c0.089,0.353,0.179,0.659,0.277,0.933
		c0.105,0.293,0.226,0.582,0.363,0.86c0.255,0.52,0.572,1.025,0.94,1.501c0.64,0.828,1.41,1.543,2.287,2.124
		c0.099,0.065,0.197,0.129,0.297,0.188c0.096,0.061,0.188,0.111,0.283,0.161c0.14,0.07,0.289,0.119,0.434,0.171l0.152,0.052
		c0.188,0.067,0.424,0.102,0.706,0.102c0.358,0,0.689-0.058,0.812-0.078c0.167-0.027,0.922-0.296,1.168-0.408
		c0.183-0.085,0.406-0.219,0.644-0.384c0.073-0.052,0.13-0.134,0.137-0.189c0-0.015-0.002-0.023-0.013-0.033
		c-0.433-0.438-0.758-0.88-1.044-1.292c-0.289-0.421-0.483-0.733-0.593-0.922c-0.157-0.267-0.281-0.476-0.122-0.6l0.049-0.037
		l0.07-0.005c0.089,0,0.18,0.049,0.435,0.313c0.173,0.18,0.404,0.447,0.719,0.821l0.062,0.072c0.28,0.33,0.599,0.703,0.987,1.066
		c0.224,0.206,0.456,0.391,0.686,0.544c0.256,0.171,0.532,0.319,0.821,0.44c0.147,0.063,0.296,0.119,0.445,0.167
		c0.077,0.025,0.15,0.047,0.229,0.07l0.108,0.03c0.033,0.01,0.068,0.017,0.104,0.025c0.299,0.066,0.606,0.108,0.89,0.145
		c0.49,0.06,1.002,0.104,1.566,0.14c0.265,0.015,0.522,0.025,0.751,0.03c-0.077-0.07-0.151-0.146-0.221-0.221
		c-0.244-0.266-0.441-0.56-0.57-0.853c-0.117-0.269-0.229-0.641-0.274-0.853c-0.091-0.423-0.491-0.57-0.914-0.726
		c-0.206-0.076-0.401-0.147-0.557-0.253c-0.238-0.162-0.449-0.343-0.629-0.537c-0.177-0.192-0.328-0.404-0.449-0.631
		c-0.205-0.384-0.32-0.811-0.343-1.268c-0.02-0.45,0.032-0.812,0.064-0.989c0.049-0.262-0.093-0.544-0.163-0.589
		c-0.375-0.236-0.687-0.539-0.9-0.874c-0.212-0.323-0.345-0.701-0.384-1.09c-0.01-0.089-0.016-0.176-0.017-0.263
		c0-0.084,0.003-0.171,0.009-0.246c0.009-0.147,0.023-0.294,0.042-0.434c0.042-0.307,0.113-0.567,0.213-0.775
		c0.083-0.179,0.201-0.339,0.334-0.462c-0.025-0.011-0.052-0.023-0.079-0.035l-0.073-0.035c-0.246-0.119-0.494-0.266-0.736-0.437
		c-0.08-0.076-0.159-0.133-0.238-0.188c-0.087-0.061-0.172-0.122-0.237-0.185c-0.208-0.202-0.381-0.423-0.517-0.658
		c-0.142-0.245-0.246-0.511-0.306-0.792c-0.056-0.255-0.079-0.526-0.064-0.806c0.021-0.452,0.126-0.915,0.324-1.417
		c0.021-0.054,0.044-0.114,0.072-0.171c0.027-0.058,0.057-0.113,0.088-0.167c0.06-0.104,0.13-0.204,0.208-0.3
		c0.139-0.169,0.305-0.326,0.493-0.466c0.215-0.16,0.403-0.26,0.583-0.358c0.322-0.146,0.816-0.307,1.489-0.307h0.036
		c0.214,0.006,0.415,0.033,0.597,0.08c0.08,0.021,0.151,0.044,0.211,0.066c0.047-0.252,0.115-0.515,0.204-0.781
		c0.085-0.263,0.192-0.537,0.326-0.837c0.061-0.14,0.128-0.281,0.197-0.423c0.068-0.139,0.138-0.281,0.211-0.424
		c0.316-0.624,0.612-1.142,0.903-1.583c0.322-0.486,0.645-0.887,0.963-1.19c0.389-0.377,0.72-0.552,0.881-0.622
		c0.159-0.068,0.3-0.106,0.394-0.106c0.148,0,0.197,0.09,0.213,0.129c0.059,0.148-0.062,0.239-0.227,0.365l-0.104,0.079
		c-0.153,0.121-0.391,0.329-0.646,0.635c-0.25,0.299-0.517,0.683-0.789,1.142c-0.243,0.406-0.506,0.894-0.832,1.535l-0.208,0.415
		c-0.068,0.134-0.131,0.267-0.193,0.398c-0.133,0.283-0.241,0.53-0.327,0.757c-0.17,0.445-0.289,0.899-0.343,1.313
		c-0.047,0.353-0.053,0.653-0.057,0.873l-0.001,0.062c-0.005,0.313-0.007,0.504-0.19,0.537c-0.179-0.013-0.263-0.124-0.349-0.476
		c-0.054-0.224-0.115-0.588-0.104-1.051c0.001-0.079,0.005-0.161,0.013-0.246c-0.068-0.011-0.146-0.022-0.238-0.03
		c-0.163-0.014-0.361-0.017-0.588,0.01c-0.256,0.031-0.509,0.094-0.755,0.187c-0.304,0.115-0.573,0.267-0.802,0.454
		c-0.131,0.108-0.246,0.225-0.34,0.349c-0.048,0.066-0.093,0.134-0.131,0.206c-0.019,0.035-0.037,0.071-0.053,0.108
		c-0.018,0.04-0.031,0.077-0.047,0.123c-0.152,0.426-0.233,0.808-0.245,1.166c-0.007,0.206,0.012,0.405,0.054,0.589
		c0.043,0.195,0.116,0.38,0.216,0.552c0.184,0.319,0.471,0.61,0.855,0.862c0.162,0.107,0.338,0.208,0.542,0.306
		c0.092,0.044,0.188,0.087,0.277,0.124c0.077,0.032,0.164,0.061,0.249,0.082c0.162,0.041,0.339,0.07,0.544,0.087
		c0.143,0.012,0.286,0.017,0.426,0.017l0.115-0.001c0.319-0.006,0.644-0.034,0.991-0.086c0.251-0.038,0.497-0.086,0.739-0.144
		c-0.101-0.041-0.199-0.09-0.291-0.146c-0.206-0.124-0.387-0.277-0.534-0.456c-0.131-0.158-0.204-0.293-0.242-0.379
		c-0.03-0.068-0.119-0.272,0.045-0.366l0.04-0.023l0.053-0.001c0.096,0,0.163,0.068,0.233,0.14l0.03,0.031
		c0.057,0.058,0.129,0.133,0.228,0.215c0.138,0.118,0.283,0.209,0.441,0.282c0.201,0.092,0.429,0.146,0.655,0.158
		c0.262,0.01,0.545-0.037,0.784-0.143c0.066-0.029,0.13-0.062,0.192-0.101c0.068-0.041,0.136-0.086,0.204-0.136
		c0.131-0.095,0.27-0.205,0.42-0.337c0.268-0.234,0.556-0.515,0.857-0.833c0.295-0.315,0.582-0.645,0.849-0.978
		c0.138-0.172,0.27-0.345,0.394-0.518c0.061-0.085,0.119-0.171,0.174-0.257l0.178-0.272c0.236-0.362,0.465-0.708,0.686-1.036
		c0.441-0.657,0.842-1.244,1.178-1.737c0.451-0.659,0.753-1.084,0.945-1.326c0.003-0.074,0.004-0.156,0.006-0.227
		c0.002-0.083,0.004-0.152,0.007-0.175l0.008-0.105c0.003-0.062,0.006-0.126,0.008-0.191c0.001-0.13-0.005-0.261-0.017-0.391
		c-0.023-0.265-0.073-0.523-0.149-0.768c-0.079-0.252-0.186-0.492-0.317-0.714c-0.068-0.112-0.142-0.222-0.223-0.325
		c-0.081-0.105-0.17-0.208-0.263-0.305c-0.191-0.199-0.397-0.369-0.614-0.503c-0.223-0.14-0.466-0.247-0.723-0.323
		c-0.468-0.137-1.021-0.171-1.666-0.103c-0.595,0.062-1.208,0.201-1.779,0.34c-0.305,0.075-0.609,0.15-0.911,0.23
		c-0.304,0.08-0.607,0.165-0.913,0.253c-0.578,0.167-1.179,0.351-1.835,0.561c-0.307,0.098-0.615,0.199-0.924,0.302
		c-0.004,0.001-0.34,0.102-0.45,0.138c-0.094,0.031-0.224,0.079-0.27,0.103l-0.115,0.06l-0.014-0.014
		c-0.029,0.007-0.061,0.012-0.097,0.012c-0.176,0-0.341-0.105-0.491-0.312l-0.028-0.037l-0.005-0.045
		c-0.06-0.473-0.188-1.134-0.188-1.142l-0.187-1.24c-0.063-0.41-0.127-0.823-0.198-1.233c-0.017-0.099-0.035-0.2-0.054-0.291
		l0.162-0.074l-0.174,0.03c-0.012-0.036-0.018-0.064-0.025-0.092l-0.04-0.164c-0.049-0.206-0.099-0.408-0.15-0.61
		c-0.209-0.816-0.464-1.621-0.76-2.394c-0.152-0.4-0.316-0.793-0.488-1.17c-0.086-0.191-0.176-0.385-0.27-0.57
		s-0.197-0.368-0.302-0.54c-0.349-0.575-0.749-1.053-1.188-1.422c-0.473-0.4-1.016-0.683-1.569-0.819
		c-0.572-0.141-1.178-0.133-1.713,0.023c-0.139,0.041-0.27,0.09-0.389,0.148c-0.061,0.029-0.13,0.066-0.195,0.101
		c-0.065,0.037-0.129,0.074-0.192,0.113c-0.268,0.165-0.493,0.343-0.673,0.529c-0.197,0.204-0.346,0.427-0.442,0.663
		c-0.096,0.231-0.149,0.495-0.155,0.779c-0.007,0.307,0.038,0.623,0.077,0.864l0.039,0.218c0.014,0.07,0.03,0.138,0.049,0.207
		c0.035,0.141,0.08,0.281,0.127,0.42c0.206,0.596,0.478,1.174,0.715,1.66c0.281,0.573,0.582,1.138,0.838,1.613l0.86,1.588
		c0.142,0.267,0.281,0.533,0.416,0.802c0.12,0.241,0.26,0.528,0.386,0.828c0.06,0.144,0.117,0.295,0.163,0.446
		c0.047,0.145,0.088,0.291,0.126,0.438c0.082,0.31,0.142,0.612,0.181,0.899c0.043,0.312,0.061,0.623,0.055,0.92
		c-0.008,0.308-0.042,0.616-0.104,0.916c-0.12,0.597-0.346,1.151-0.572,1.662l-0.094,0.208c-0.195,0.437-0.381,0.85-0.527,1.273
		c-0.042,0.122-0.082,0.244-0.117,0.366c-0.038,0.128-0.075,0.255-0.11,0.382c-0.07,0.252-0.138,0.505-0.199,0.756l-0.03,0.131
		c-0.007,0.085-0.019,0.201-0.027,0.322c-0.039,0.478-0.058,1.022-0.055,1.577c0.001,0.299,0.009,0.61,0.022,0.935l0.001,0.04
		c0.007,0.149,0.013,0.288,0.028,0.434c0.018,0.159,0.042,0.318,0.072,0.478c0.11,0.563,0.3,1.146,0.582,1.781
		c0.202,0.452,0.438,0.906,0.722,1.387c0.168,0.286,0.323,0.527,0.445,0.721l0.122,0.189c0.183,0.291,0.293,0.466,0.147,0.595
		l-0.05,0.043l-0.078,0.004c-0.071,0-0.163-0.022-0.444-0.302c-0.229-0.225-0.488-0.532-0.73-0.862
		c-0.327-0.446-0.62-0.929-0.869-1.433c-0.332-0.673-0.554-1.315-0.681-1.961c-0.037-0.188-0.063-0.375-0.081-0.552
		c-0.019-0.174-0.023-0.355-0.027-0.518C14.432,23.607,14.433,23.304,14.442,23.008z M26.787,33.846l0.24,0.029
		c1.125,0.277,2.356,0.339,3.552,0.167c0.66-0.094,1.296-0.26,1.891-0.489c0.575-0.226,1.117-0.514,1.604-0.858
		c0.232-0.163,0.455-0.34,0.663-0.527c0.191-0.171,0.371-0.359,0.553-0.578c0.274-0.331,0.525-0.697,0.786-1.143
		c-0.188,0.286-0.471,0.698-0.83,1.104c-0.185,0.21-0.37,0.39-0.562,0.553c-0.185,0.157-0.377,0.286-0.582,0.422l-0.086,0.059
		c-0.023,0.015-0.046,0.033-0.068,0.05c-0.08,0.061-0.176,0.134-0.291,0.152c-1.538,0.982-3.504,1.142-3.589,1.147
		c-1.102,0.102-2.219,0.025-3.209-0.222c-0.595-0.15-1.099-0.355-1.498-0.604c-0.427-0.268-0.772-0.607-0.997-0.986
		c0.105,0.198,0.239,0.387,0.396,0.557c0.161,0.176,0.352,0.338,0.567,0.483c0.121,0.082,0.295,0.146,0.48,0.213
		c0.349,0.129,0.767,0.283,0.995,0.637L26.787,33.846z M24.685,29.936c-0.069,0-0.297,0.017-0.333,0.225
		c-0.044,0.249-0.048,0.527-0.014,0.802c0.046,0.361,0.155,0.689,0.327,0.976c0.197,0.331,0.501,0.633,0.881,0.869
		c0.371,0.232,0.839,0.421,1.399,0.563c0.951,0.236,2.021,0.312,3.093,0.211c0.022,0,1.997-0.161,3.463-1.114l0.043-0.027h0.053
		c0.026-0.003,0.094-0.056,0.135-0.087c0.028-0.021,0.058-0.043,0.085-0.062l0.087-0.059c0.196-0.131,0.38-0.254,0.55-0.397
		c0.181-0.153,0.353-0.322,0.527-0.519c0.357-0.404,0.64-0.819,0.819-1.097c0.244-0.376,0.445-0.728,0.593-0.991
		c0.124-0.219,0.232-0.42,0.328-0.594l0.098-0.181c0.111-0.207,0.225-0.401,0.311-0.548c0.065-0.112,0.112-0.193,0.125-0.223
		l0.026-0.078c0.019-0.058,0.038-0.116,0.055-0.175c0.035-0.117,0.068-0.235,0.1-0.357c0.062-0.249,0.115-0.497,0.154-0.738
		c0.091-0.567,0.116-1.067,0.071-1.528c-0.052-0.539-0.211-1.039-0.463-1.444c-0.137-0.222-0.301-0.418-0.491-0.586
		c-0.099-0.087-0.202-0.165-0.307-0.233c-0.046-0.029-0.091-0.056-0.141-0.082c-0.138,0.336-0.382,0.83-0.679,1.37
		c-0.291,0.527-0.641,1.12-1.044,1.765c-0.204,0.325-0.422,0.666-0.651,1.015l-0.274,0.411c-0.036,0.05-0.073,0.097-0.11,0.144
		c-0.132,0.168-0.285,0.337-0.462,0.519c-0.318,0.325-0.661,0.623-1.02,0.888c-0.389,0.288-0.75,0.505-1.104,0.661
		c-0.218,0.096-0.417,0.161-0.609,0.201c-0.041,0.01-0.078,0.016-0.113,0.021c-0.312,0.176-0.715,0.335-1.144,0.45
		c-0.568,0.153-1.225,0.25-1.898,0.281c-0.377,0.016-0.77,0.012-1.137-0.021c-0.442-0.041-0.841-0.112-1.224-0.218
		C24.759,29.938,24.722,29.936,24.685,29.936z M24.685,29.581c0.069,0,0.141,0.01,0.2,0.027c0.362,0.1,0.741,0.168,1.161,0.206
		c0.349,0.032,0.729,0.034,1.092,0.019c0.639-0.029,1.261-0.12,1.8-0.264c-0.558,0.099-1.182,0.155-1.804,0.16h-0.089
		c-0.357,0-0.681-0.016-0.988-0.047c-0.417-0.046-0.788-0.115-1.134-0.211c-0.401-0.113-0.756-0.261-1.054-0.443
		c-0.32-0.192-0.588-0.438-0.778-0.71c-0.18-0.26-0.306-0.566-0.358-0.887c-0.012-0.072-0.021-0.147-0.026-0.222
		c-0.005-0.073-0.007-0.142-0.007-0.217c0-0.137,0-0.267,0.007-0.389c-0.018,0.124-0.029,0.253-0.038,0.387
		c-0.004,0.067-0.008,0.146-0.007,0.221c0,0.074,0.004,0.15,0.013,0.229c0.035,0.333,0.149,0.656,0.33,0.934
		c0.188,0.292,0.462,0.557,0.794,0.767c0.16,0.103,0.305,0.38,0.332,0.677C24.272,29.648,24.495,29.581,24.685,29.581z
		 M23.49,25.495c-0.042,0.036-0.089,0.08-0.136,0.135c-0.084,0.101-0.151,0.222-0.197,0.362c-0.052,0.159-0.084,0.363-0.097,0.609
		c-0.006,0.122-0.008,0.252-0.007,0.39c0,0.067,0.001,0.128,0.006,0.193c0.005,0.062,0.012,0.125,0.023,0.189
		c0.043,0.269,0.148,0.525,0.3,0.742c0.159,0.232,0.391,0.443,0.67,0.61c0.271,0.166,0.595,0.302,0.966,0.405
		c0.326,0.091,0.677,0.156,1.076,0.199c0.295,0.03,0.606,0.045,0.951,0.045h0.087c0.395-0.003,0.789-0.026,1.166-0.07
		c-0.028-0.015-0.056-0.03-0.084-0.047c-0.125-0.071-0.244-0.161-0.354-0.267c-0.199-0.193-0.323-0.384-0.408-0.529
		c-0.095-0.164-0.147-0.293-0.178-0.372c-0.028-0.082-0.094-0.27,0.061-0.354l0.04-0.021l0.049-0.003
		c0.098,0,0.165,0.068,0.236,0.151c0.028,0.031,0.061,0.072,0.101,0.121c0.039,0.049,0.084,0.103,0.135,0.164
		c0.105,0.122,0.224,0.251,0.374,0.365c0.168,0.129,0.357,0.214,0.562,0.251c0.223,0.042,0.497,0.04,0.82-0.007
		c0.078-0.012,0.157-0.026,0.238-0.042l0.124-0.026c0.049-0.009,0.085-0.019,0.116-0.025c0.137-0.034,0.287-0.092,0.448-0.168
		c0.292-0.141,0.599-0.334,0.939-0.596c0.319-0.244,0.628-0.518,0.917-0.812c0.159-0.162,0.292-0.311,0.409-0.455
		c0.029-0.037,0.06-0.076,0.089-0.115l0.255-0.373l0.67-0.993c0.427-0.632,0.805-1.203,1.121-1.686
		c0.469-0.715,0.928-1.708,0.957-1.775l0.029-0.088c0.02-0.056,0.039-0.115,0.057-0.174c0.035-0.119,0.067-0.239,0.095-0.36
		c0.056-0.247,0.098-0.497,0.123-0.746c0.054-0.528,0.033-1.041-0.061-1.525c-0.049-0.256-0.12-0.506-0.211-0.746
		c-0.099-0.266-0.208-0.488-0.337-0.678c-0.146-0.215-0.311-0.387-0.493-0.511c-0.096-0.066-0.197-0.119-0.3-0.157
		c-0.052-0.02-0.105-0.035-0.16-0.047c-0.025-0.006-0.051-0.011-0.077-0.015l-0.073-0.008c-0.003,0-0.044,0.007-0.093,0.02
		c-0.147,0.313-0.417,0.809-0.765,1.411c-0.3,0.517-0.666,1.124-1.092,1.802l-0.833,1.323c-0.062,0.099-0.128,0.196-0.194,0.291
		c-0.133,0.19-0.273,0.376-0.421,0.56c-0.283,0.352-0.587,0.697-0.905,1.025c-0.333,0.341-0.64,0.626-0.942,0.874
		c-0.174,0.142-0.335,0.263-0.495,0.368c-0.087,0.057-0.174,0.11-0.263,0.159c-0.096,0.052-0.195,0.098-0.293,0.135
		c-0.185,0.071-0.382,0.118-0.584,0.138c-0.069,0.046-0.154,0.097-0.255,0.151c-0.234,0.124-0.741,0.355-1.5,0.525
		c-0.373,0.083-0.729,0.135-1.089,0.159c-0.2,0.013-0.408,0.019-0.625,0.008c-0.251-0.012-0.474-0.041-0.68-0.088L23.49,25.495z
		 M28.792,29.116c0.11,0.029,0.232,0.048,0.365,0.058l0.715,0.052c0.071-0.035,0.13-0.066,0.173-0.092l0.059-0.021
		c0.048-0.007,0.086-0.014,0.13-0.023c0.168-0.035,0.345-0.094,0.539-0.179c0.331-0.146,0.669-0.35,1.039-0.621
		c0.342-0.255,0.671-0.542,0.978-0.853c0.168-0.171,0.312-0.333,0.438-0.492c0.034-0.042,0.066-0.087,0.098-0.13l0.265-0.397
		c0.227-0.348,0.444-0.686,0.647-1.009c0.396-0.631,0.741-1.213,1.024-1.729c-0.314,0.48-0.689,1.046-1.111,1.673l-0.937,1.379
		c-0.032,0.043-0.063,0.084-0.096,0.125c-0.125,0.154-0.266,0.312-0.432,0.48c-0.303,0.307-0.624,0.591-0.957,0.846
		c-0.359,0.274-0.686,0.482-0.999,0.633c-0.183,0.088-0.356,0.152-0.514,0.192c-0.033,0.009-0.075,0.017-0.115,0.026l-0.143,0.03
		c-0.088,0.017-0.173,0.031-0.255,0.042C29.353,29.159,29.048,29.162,28.792,29.116z M14.588,22.513l-0.13,0.05
		c-0.033,0.012-0.064,0.025-0.094,0.039c-0.096,0.043-0.196,0.087-0.29,0.135c-0.196,0.1-0.379,0.204-0.544,0.31
		c-0.393,0.254-0.694,0.52-0.924,0.808c-0.062,0.079-0.121,0.163-0.172,0.249c-0.014,0.022-0.027,0.043-0.04,0.067
		c-0.012,0.021-0.023,0.045-0.034,0.069c-0.021,0.044-0.04,0.092-0.055,0.138c-0.075,0.213-0.11,0.422-0.133,0.582
		c-0.049,0.339-0.068,0.699-0.067,1.166c0.008,0.685,0.064,1.416,0.179,2.231c0.001,0.005,0.002,0.009,0.002,0.012
		c0-0.003-0.001-0.007-0.002-0.012c-0.105-0.814-0.158-1.545-0.159-2.231c0.002-0.459,0.026-0.829,0.075-1.162
		c0.035-0.226,0.08-0.415,0.136-0.574c0.019-0.048,0.038-0.094,0.056-0.137l0.073-0.131c0.051-0.083,0.109-0.164,0.171-0.243
		c0.228-0.282,0.535-0.548,0.919-0.793c0.167-0.105,0.348-0.208,0.54-0.303c0.094-0.046,0.188-0.091,0.283-0.132
		c0.047-0.021,0.096-0.042,0.145-0.061l0.299-0.118l-0.023,0.476c-0.011,0.311-0.014,0.631-0.007,0.955
		c0.005,0.168,0.007,0.34,0.026,0.506c0.017,0.168,0.042,0.343,0.075,0.52c0.122,0.616,0.334,1.228,0.651,1.875
		c0.237,0.479,0.516,0.937,0.827,1.363c-0.287-0.486-0.526-0.948-0.731-1.408c-0.292-0.659-0.489-1.266-0.605-1.857
		c-0.034-0.17-0.06-0.339-0.076-0.506c-0.019-0.153-0.023-0.299-0.03-0.457l-0.002-0.04c-0.014-0.329-0.021-0.646-0.022-0.947
		c-0.002-0.565,0.018-1.12,0.055-1.606c0.009-0.124,0.021-0.241,0.033-0.353l0.035-0.156c0.062-0.256,0.129-0.512,0.202-0.77
		c0.037-0.129,0.073-0.257,0.111-0.386c0.037-0.128,0.079-0.255,0.123-0.383c0.15-0.437,0.339-0.857,0.538-1.301l0.093-0.209
		c0.218-0.491,0.437-1.023,0.551-1.587c0.056-0.28,0.089-0.567,0.095-0.854c0.008-0.279-0.011-0.57-0.051-0.864
		c-0.038-0.272-0.095-0.561-0.172-0.856c-0.036-0.142-0.078-0.282-0.123-0.422c-0.042-0.141-0.096-0.282-0.151-0.416
		c-0.121-0.289-0.257-0.568-0.375-0.805c-0.134-0.266-0.273-0.529-0.413-0.792l-0.859-1.587c-0.258-0.479-0.56-1.048-0.844-1.626
		c-0.243-0.496-0.52-1.086-0.731-1.701c-0.052-0.149-0.097-0.297-0.136-0.446c-0.019-0.075-0.037-0.151-0.051-0.226
		c-0.009-0.037-0.017-0.073-0.022-0.113l-0.02-0.115c-0.042-0.258-0.09-0.596-0.082-0.931c0.007-0.329,0.068-0.633,0.181-0.906
		C13,3.263,13.173,3.002,13.4,2.767c0.202-0.208,0.45-0.404,0.743-0.586c0.068-0.042,0.137-0.082,0.207-0.12
		c0.07-0.039,0.145-0.079,0.211-0.111c0.138-0.066,0.287-0.123,0.443-0.168c0.598-0.175,1.269-0.184,1.9-0.028
		c0.604,0.149,1.197,0.457,1.711,0.892c0.468,0.393,0.892,0.9,1.262,1.507c0.11,0.18,0.216,0.372,0.314,0.564
		c0.096,0.19,0.188,0.388,0.276,0.584c0.176,0.385,0.342,0.784,0.497,1.19c0.3,0.785,0.559,1.604,0.771,2.432
		c0.052,0.205,0.101,0.408,0.15,0.616l0.038,0.157c0.007,0.025,0.013,0.048,0.021,0.077l0.02,0.072
		c0.021,0.094,0.041,0.202,0.059,0.307c0.07,0.411,0.135,0.828,0.198,1.24l0.186,1.234c0.003,0.019,0.115,0.599,0.178,1.07v-0.317
		l0.034-0.009l-0.011-0.162l-0.08-0.604l-0.213-1.478c-0.05-0.331-0.101-0.663-0.157-0.998l-0.014-0.072
		c-0.013-0.079-0.026-0.158-0.044-0.243l-0.01-0.045l0.159-0.086L22.08,9.734l-0.058-0.227c-0.047-0.206-0.097-0.412-0.15-0.619
		c-0.213-0.834-0.474-1.659-0.775-2.449c-0.152-0.401-0.32-0.804-0.498-1.197c-0.089-0.197-0.181-0.392-0.28-0.59
		C20.218,4.452,20.11,4.26,20,4.078c-0.378-0.621-0.813-1.14-1.293-1.542c-0.531-0.448-1.143-0.766-1.769-0.919
		c-0.659-0.163-1.35-0.152-1.974,0.029c-0.163,0.049-0.319,0.109-0.464,0.178c-0.077,0.038-0.146,0.076-0.218,0.115
		c-0.07,0.04-0.141,0.082-0.211,0.125c-0.305,0.188-0.558,0.387-0.769,0.608c-0.236,0.245-0.422,0.527-0.541,0.816
		c-0.118,0.288-0.182,0.609-0.19,0.955c-0.007,0.342,0.04,0.674,0.087,0.955L12.7,5.631c0.017,0.079,0.035,0.156,0.056,0.232
		c0.04,0.156,0.088,0.306,0.138,0.454c0.217,0.622,0.485,1.192,0.743,1.715c0.281,0.57,0.575,1.12,0.85,1.627l0.864,1.585
		c0.143,0.264,0.281,0.526,0.415,0.788c0.16,0.319,0.276,0.564,0.374,0.796c0.058,0.137,0.109,0.27,0.151,0.409
		c0.043,0.137,0.084,0.276,0.122,0.415c0.077,0.292,0.136,0.575,0.174,0.843c0.083,0.586,0.07,1.153-0.038,1.686
		c-0.109,0.555-0.322,1.084-0.537,1.574l-0.095,0.217c-0.188,0.422-0.38,0.859-0.53,1.301c-0.045,0.128-0.084,0.257-0.123,0.387
		c-0.037,0.129-0.074,0.258-0.109,0.388c-0.07,0.256-0.136,0.514-0.197,0.773c-0.061,0.256-0.115,0.513-0.162,0.772
		c-0.021,0.126-0.042,0.256-0.059,0.386c-0.005,0.048-0.009,0.098-0.014,0.146c0.006,0.01,0.013,0.021,0.019,0.033l0.078,0.066
		v0.224l-0.157,0.044C14.635,22.507,14.606,22.51,14.588,22.513z M36.261,22.07l0.137,0.064c0.067,0.035,0.131,0.072,0.193,0.112
		c0.122,0.079,0.239,0.168,0.352,0.267c0.214,0.19,0.403,0.414,0.557,0.664c0.28,0.452,0.458,1.004,0.515,1.597
		c0.019,0.196,0.026,0.397,0.021,0.608c0.007-0.21,0.001-0.413-0.015-0.61c-0.024-0.284-0.077-0.561-0.156-0.823
		c-0.085-0.282-0.202-0.545-0.347-0.784c-0.152-0.252-0.34-0.479-0.557-0.673c-0.111-0.101-0.229-0.191-0.353-0.271
		c-0.061-0.042-0.127-0.079-0.192-0.114l-0.148-0.054l0.028-0.214l0.038-0.108c0.022-0.061,0.043-0.123,0.063-0.187
		c0.038-0.126,0.073-0.255,0.104-0.384c0.063-0.263,0.109-0.531,0.137-0.794c0.061-0.567,0.042-1.121-0.054-1.645
		c-0.054-0.28-0.129-0.553-0.225-0.813c-0.108-0.297-0.232-0.548-0.377-0.768c-0.174-0.261-0.376-0.473-0.603-0.628
		c-0.125-0.087-0.257-0.156-0.392-0.208c-0.069-0.026-0.141-0.047-0.213-0.064c-0.038-0.009-0.074-0.015-0.111-0.021l-0.149,0.008
		l-0.056-0.184l0.018-0.155c0.006-0.07,0.008-0.143,0.011-0.215c0.002-0.144-0.002-0.289-0.014-0.435
		c-0.026-0.296-0.081-0.585-0.164-0.86c-0.088-0.287-0.208-0.56-0.357-0.812c-0.076-0.128-0.16-0.253-0.251-0.371
		c-0.091-0.119-0.188-0.232-0.292-0.342c-0.215-0.227-0.45-0.42-0.698-0.577c-0.258-0.162-0.538-0.289-0.836-0.377
		c-0.28-0.083-0.587-0.134-0.913-0.151c-0.3-0.017-0.595-0.008-0.928,0.026c-0.588,0.06-1.164,0.181-1.845,0.344
		c-0.306,0.075-0.612,0.149-0.921,0.23c-0.307,0.08-0.613,0.165-0.921,0.253c-0.587,0.167-1.193,0.351-1.852,0.56
		c-0.308,0.098-0.619,0.199-0.929,0.301l-0.797,0.229l-0.182,0.005c0.002,0.013,0.005,0.026,0.006,0.04
		c0.098,0.122,0.163,0.132,0.181,0.132l0.128-0.111l0.049,0.044c0.096-0.039,0.203-0.073,0.208-0.075
		c0.115-0.038,0.452-0.14,0.452-0.14c0.306-0.102,0.614-0.203,0.924-0.302c0.66-0.211,1.264-0.395,1.847-0.564
		c0.307-0.088,0.612-0.173,0.919-0.255c0.304-0.081,0.612-0.157,0.917-0.231c0.584-0.143,1.21-0.284,1.829-0.349
		c0.689-0.073,1.288-0.035,1.8,0.116c0.287,0.084,0.56,0.205,0.81,0.361c0.241,0.15,0.47,0.338,0.683,0.559
		c0.101,0.105,0.197,0.217,0.286,0.332c0.089,0.115,0.172,0.237,0.246,0.36c0.146,0.246,0.265,0.512,0.352,0.791
		c0.083,0.269,0.14,0.552,0.164,0.841c0.014,0.142,0.019,0.285,0.017,0.426c-0.001,0.071-0.003,0.141-0.008,0.211l-0.009,0.113
		c-0.002,0.022-0.002,0.08-0.003,0.15c-0.002,0.051-0.002,0.106-0.005,0.162c0.068-0.015,0.129-0.023,0.163-0.023l0.114,0.012
		c0.033,0.005,0.069,0.011,0.103,0.019c0.07,0.015,0.138,0.036,0.205,0.061c0.13,0.048,0.257,0.114,0.376,0.196
		c0.218,0.149,0.415,0.353,0.586,0.606c0.144,0.213,0.267,0.459,0.376,0.752c0.097,0.258,0.173,0.528,0.226,0.802
		c0.101,0.518,0.122,1.065,0.066,1.628c-0.026,0.264-0.07,0.53-0.131,0.79c-0.03,0.129-0.063,0.257-0.101,0.382
		c-0.019,0.063-0.04,0.126-0.061,0.188l-0.033,0.096c-0.005,0.013-0.035,0.082-0.087,0.189L36.261,22.07z M23.459,25.128
		l0.119,0.025c0.188,0.043,0.385,0.068,0.618,0.079c0.202,0.007,0.398,0.003,0.586-0.008c0.333-0.022,0.664-0.069,1.01-0.146
		c-0.356,0.052-0.687,0.081-1.014,0.087l-0.121,0c-0.15,0-0.302-0.005-0.457-0.018c-0.225-0.019-0.421-0.051-0.6-0.097
		c-0.101-0.026-0.203-0.059-0.296-0.097c-0.097-0.041-0.198-0.087-0.296-0.133c-0.216-0.105-0.407-0.213-0.582-0.329
		c-0.429-0.283-0.755-0.613-0.967-0.981c-0.116-0.202-0.203-0.421-0.254-0.65c-0.049-0.213-0.07-0.442-0.061-0.678
		c0.012-0.396,0.099-0.812,0.265-1.273c0.019-0.054,0.035-0.1,0.055-0.144c0.019-0.046,0.041-0.091,0.066-0.136
		c0.048-0.087,0.102-0.171,0.16-0.25c0.11-0.146,0.244-0.285,0.399-0.411c0.258-0.21,0.56-0.382,0.897-0.511
		c0.031-0.011,0.059-0.021,0.089-0.032c-0.198,0.048-0.356,0.107-0.477,0.162c-0.183,0.099-0.351,0.189-0.546,0.334
		c-0.164,0.122-0.308,0.258-0.428,0.405c-0.065,0.082-0.126,0.168-0.177,0.255c-0.027,0.046-0.052,0.093-0.075,0.142
		c-0.023,0.048-0.043,0.102-0.062,0.147c-0.182,0.466-0.281,0.893-0.3,1.305c-0.012,0.249,0.007,0.489,0.058,0.715
		c0.053,0.244,0.143,0.477,0.267,0.691c0.119,0.206,0.273,0.402,0.458,0.581c0.051,0.051,0.122,0.1,0.192,0.149
		c0.092,0.064,0.186,0.131,0.263,0.208c0.203,0.14,0.434,0.277,0.664,0.389c0.007,0,0.03,0.012,0.056,0.026
		c0.075,0.035,0.141,0.063,0.208,0.091L23.459,25.128z M27.173,24.392l0.325,0.027l0.028-0.019l0.046-0.005
		c0.185-0.017,0.366-0.058,0.537-0.122c0.083-0.032,0.167-0.07,0.246-0.114c0.081-0.044,0.161-0.092,0.239-0.145
		c0.15-0.098,0.301-0.212,0.467-0.347c0.292-0.238,0.589-0.515,0.911-0.846c0.311-0.32,0.608-0.657,0.882-1
		c0.143-0.178,0.279-0.359,0.409-0.542c0.063-0.091,0.125-0.183,0.185-0.277l0.833-1.323c0.418-0.665,0.779-1.259,1.072-1.769
		c-0.333,0.488-0.727,1.068-1.16,1.712c-0.219,0.326-0.448,0.672-0.684,1.033l-0.177,0.272c-0.059,0.09-0.12,0.18-0.184,0.27
		c-0.128,0.179-0.264,0.356-0.406,0.533c-0.273,0.34-0.565,0.676-0.867,0.998c-0.313,0.333-0.602,0.613-0.883,0.858
		c-0.159,0.14-0.305,0.256-0.445,0.357c-0.075,0.055-0.151,0.105-0.226,0.151c-0.079,0.047-0.156,0.088-0.234,0.123
		C27.807,24.342,27.484,24.401,27.173,24.392z M25.06,19.493l0.001,0.006c-0.014,0.126-0.023,0.248-0.028,0.363
		c0.059-0.437,0.185-0.914,0.363-1.378c0.089-0.235,0.199-0.491,0.335-0.782c0.063-0.133,0.129-0.268,0.198-0.406l0.208-0.415
		c0.33-0.649,0.597-1.145,0.844-1.558c0.279-0.469,0.553-0.864,0.812-1.176c-0.295,0.284-0.598,0.661-0.9,1.12
		c-0.283,0.43-0.573,0.937-0.883,1.548c-0.07,0.141-0.141,0.281-0.209,0.419c-0.065,0.138-0.131,0.275-0.191,0.412
		c-0.128,0.29-0.231,0.552-0.313,0.803c-0.087,0.26-0.151,0.514-0.194,0.756c-0.012,0.067-0.021,0.133-0.032,0.198L25.06,19.493z"/>
</g>
<g>
	<g>
		<path fill="#5B9B98" d="M51.95,26.021c-0.342-0.184-0.606-0.58-0.606-1.107c0-0.713,0.554-1.293,1.293-1.293
			c0.264,0,0.501,0.078,0.686,0.184c1.346,0.898,2.744,1.347,4.011,1.347c1.372,0,2.164-0.581,2.164-1.504v-0.053
			c0-1.082-1.478-1.451-3.114-1.952c-2.058-0.581-4.354-1.425-4.354-4.09v-0.053c0-2.639,2.19-4.249,4.96-4.249
			c1.478,0,3.035,0.422,4.38,1.135c0.449,0.238,0.766,0.66,0.766,1.214c0,0.739-0.581,1.293-1.319,1.293
			c-0.264,0-0.422-0.053-0.633-0.158c-1.135-0.581-2.295-0.95-3.272-0.95c-1.24,0-1.953,0.581-1.953,1.373v0.052
			c0,1.029,1.504,1.452,3.14,1.979c2.032,0.633,4.328,1.557,4.328,4.063v0.053c0,2.929-2.27,4.38-5.172,4.38
			C55.486,27.684,53.56,27.13,51.95,26.021z"/>
		<path fill="#5B9B98" d="M64.511,23.567v-7.335h-0.527c-0.766,0-1.373-0.607-1.373-1.372s0.607-1.372,1.373-1.372h0.527v-2.375
			c0-0.871,0.712-1.583,1.61-1.583c0.871,0,1.583,0.712,1.583,1.583v2.375h2.506c0.766,0,1.398,0.607,1.398,1.372
			s-0.633,1.372-1.398,1.372h-2.506v6.833c0,1.24,0.633,1.742,1.715,1.742c0.369,0,0.686-0.08,0.791-0.08
			c0.713,0,1.346,0.582,1.346,1.32c0,0.58-0.396,1.055-0.845,1.24c-0.686,0.237-1.346,0.369-2.19,0.369
			C66.173,27.657,64.511,26.628,64.511,23.567z"/>
		<path fill="#5B9B98" d="M72.533,9.741c0-0.95,0.792-1.557,1.821-1.557c1.029,0,1.821,0.607,1.821,1.557v0.158
			c0,0.95-0.792,1.583-1.821,1.583c-1.029,0-1.821-0.633-1.821-1.583V9.741z M72.77,14.939c0-0.897,0.686-1.609,1.583-1.609
			c0.897,0,1.609,0.712,1.609,1.609v11.03c0,0.897-0.712,1.583-1.609,1.583c-0.871,0-1.583-0.686-1.583-1.583V14.939z"/>
		<path fill="#5B9B98" d="M78.206,9.609c0-0.871,0.686-1.583,1.583-1.583c0.897,0,1.609,0.712,1.609,1.583v16.36
			c0,0.897-0.712,1.583-1.609,1.583c-0.871,0-1.583-0.686-1.583-1.583V9.609z"/>
		<path fill="#5B9B98" d="M83.642,9.609c0-0.871,0.686-1.583,1.583-1.583c0.897,0,1.61,0.712,1.61,1.583v16.36
			c0,0.897-0.713,1.583-1.61,1.583c-0.871,0-1.583-0.686-1.583-1.583V9.609z"/>
	</g>
	<g>
		<path fill="#5B9B98" d="M88.497,23.409v-0.053c0-3.008,2.349-4.486,5.752-4.486c1.557,0,2.666,0.237,3.747,0.581v-0.343
			c0-1.979-1.213-3.034-3.457-3.034c-1.214,0-2.216,0.211-3.087,0.554c-0.185,0.053-0.343,0.08-0.501,0.08
			c-0.739,0-1.346-0.581-1.346-1.32c0-0.58,0.396-1.082,0.871-1.266c1.319-0.501,2.666-0.818,4.486-0.818
			c2.084,0,3.642,0.554,4.617,1.557c1.029,1.003,1.504,2.48,1.504,4.301v6.86c0,0.871-0.686,1.531-1.557,1.531
			c-0.923,0-1.556-0.634-1.556-1.346v-0.527c-0.95,1.134-2.401,2.031-4.539,2.031C90.819,27.71,88.497,26.206,88.497,23.409z
			 M98.049,22.406v-0.95c-0.818-0.316-1.899-0.554-3.167-0.554c-2.058,0-3.272,0.87-3.272,2.322v0.052
			c0,1.346,1.188,2.111,2.719,2.111C96.439,25.388,98.049,24.175,98.049,22.406z"/>
		<path fill="#5B9B98" d="M102.456,9.609c0-0.871,0.686-1.583,1.583-1.583s1.609,0.712,1.609,1.583v16.36
			c0,0.897-0.712,1.583-1.609,1.583c-0.871,0-1.583-0.686-1.583-1.583V9.609z"/>
		<path fill="#5B9B98" d="M107.126,9.741c0-0.95,0.792-1.557,1.821-1.557c1.028,0,1.82,0.607,1.82,1.557v0.158
			c0,0.95-0.792,1.583-1.82,1.583c-1.029,0-1.821-0.633-1.821-1.583V9.741z M107.364,14.939c0-0.897,0.686-1.609,1.583-1.609
			s1.609,0.712,1.609,1.609v11.03c0,0.897-0.712,1.583-1.609,1.583c-0.87,0-1.583-0.686-1.583-1.583V14.939z"/>
		<path fill="#5B9B98" d="M118.421,27.684h-0.159c-0.87,0-1.451-0.554-1.82-1.399l-4.644-10.633
			c-0.08-0.237-0.186-0.501-0.186-0.792c0-0.792,0.713-1.53,1.583-1.53s1.319,0.501,1.583,1.161l3.589,9.235l3.642-9.288
			c0.237-0.554,0.659-1.108,1.504-1.108c0.871,0,1.557,0.66,1.557,1.53c0,0.291-0.105,0.607-0.185,0.765l-4.644,10.659
			C119.871,27.103,119.291,27.684,118.421,27.684z"/>
		<path fill="#5B9B98" d="M131.825,27.736c-4.037,0-7.15-2.929-7.15-7.229v-0.053c0-3.984,2.822-7.256,6.807-7.256
			c4.434,0,6.623,3.641,6.623,6.86c0,0.897-0.686,1.531-1.504,1.531h-8.734c0.344,2.269,1.953,3.535,4.012,3.535
			c1.346,0,2.4-0.475,3.298-1.214c0.237-0.185,0.448-0.29,0.818-0.29c0.712,0,1.267,0.555,1.267,1.293
			c0,0.396-0.186,0.738-0.422,0.977C135.571,27.024,133.988,27.736,131.825,27.736z M134.991,19.478
			c-0.211-2.058-1.426-3.668-3.535-3.668c-1.953,0-3.325,1.504-3.615,3.668H134.991z"/>
	</g>
	<g>
		<path fill="#5B9B98" d="M141.255,23.646c1.057,0,1.848,0.792,1.848,1.821v0.264c0,1.028-0.791,1.82-1.848,1.82
			c-1.08,0-1.873-0.792-1.873-1.82v-0.264C139.382,24.438,140.175,23.646,141.255,23.646z"/>
		<path fill="#5B9B98" d="M142.865,20.533V20.48c0-3.958,3.062-7.282,7.257-7.282c2.189,0,3.693,0.712,4.881,1.741
			c0.211,0.185,0.502,0.581,0.502,1.108c0,0.818-0.66,1.451-1.479,1.451c-0.396,0-0.738-0.159-0.949-0.317
			c-0.818-0.686-1.715-1.187-2.982-1.187c-2.322,0-4.036,2.005-4.036,4.433v0.053c0,2.48,1.714,4.459,4.169,4.459
			c1.266,0,2.242-0.501,3.113-1.241c0.185-0.158,0.501-0.342,0.871-0.342c0.765,0,1.371,0.633,1.371,1.398
			c0,0.422-0.158,0.765-0.448,1.002c-1.24,1.188-2.744,1.979-5.065,1.979C145.927,27.736,142.865,24.491,142.865,20.533z"/>
		<path fill="#5B9B98" d="M155.954,20.533V20.48c0-3.984,3.166-7.282,7.44-7.282s7.415,3.246,7.415,7.229v0.053
			c0,3.958-3.167,7.256-7.468,7.256C159.095,27.736,155.954,24.491,155.954,20.533z M167.616,20.533V20.48
			c0-2.454-1.768-4.485-4.274-4.485c-2.56,0-4.195,2.005-4.195,4.433v0.053c0,2.427,1.769,4.459,4.248,4.459
			C165.981,24.939,167.616,22.935,167.616,20.533z"/>
		<path fill="#5B9B98" d="M171.944,14.939c0-0.897,0.687-1.609,1.584-1.609c0.896,0,1.609,0.712,1.609,1.609v0.66
			c0.896-1.24,2.11-2.401,4.248-2.401c2.006,0,3.43,0.976,4.169,2.454c1.108-1.478,2.585-2.454,4.696-2.454
			c3.034,0,4.881,1.926,4.881,5.33v7.441c0,0.897-0.686,1.583-1.582,1.583c-0.897,0-1.609-0.686-1.609-1.583v-6.465
			c0-2.216-1.029-3.404-2.823-3.404c-1.741,0-2.982,1.213-2.982,3.456v6.413c0,0.897-0.712,1.583-1.583,1.583
			c-0.896,0-1.609-0.686-1.609-1.583v-6.491c0-2.164-1.056-3.377-2.823-3.377c-1.769,0-2.981,1.319-2.981,3.456v6.413
			c0,0.897-0.713,1.583-1.609,1.583c-0.871,0-1.584-0.686-1.584-1.583V14.939z"/>
	</g>
</g>
<g>
	<path fill="#5B9B98" d="M53.032,38.355l-1.62-4.587c-0.034-0.091-0.068-0.239-0.068-0.354c0-0.331,0.262-0.639,0.673-0.639
		c0.342,0,0.57,0.229,0.673,0.548l1.164,3.651l1.175-3.651c0.103-0.319,0.354-0.548,0.708-0.548h0.08
		c0.354,0,0.605,0.229,0.708,0.548l1.187,3.651l1.175-3.663c0.091-0.297,0.308-0.536,0.673-0.536c0.377,0,0.651,0.297,0.651,0.639
		c0,0.103-0.035,0.24-0.057,0.309l-1.643,4.632c-0.148,0.423-0.434,0.616-0.765,0.616h-0.046c-0.342,0-0.627-0.193-0.753-0.593
		l-1.175-3.583l-1.187,3.583c-0.125,0.399-0.41,0.593-0.741,0.593h-0.046C53.455,38.972,53.169,38.778,53.032,38.355z"/>
	<path fill="#5B9B98" d="M63.644,39.007c-1.746,0-3.092-1.268-3.092-3.127v-0.022c0-1.724,1.221-3.139,2.944-3.139
		c1.917,0,2.864,1.575,2.864,2.968c0,0.388-0.297,0.661-0.651,0.661h-3.776c0.148,0.98,0.844,1.528,1.734,1.528
		c0.582,0,1.038-0.204,1.426-0.524c0.103-0.079,0.194-0.125,0.354-0.125c0.308,0,0.548,0.239,0.548,0.559
		c0,0.172-0.08,0.319-0.183,0.423C65.265,38.698,64.58,39.007,63.644,39.007z M65.013,35.435c-0.091-0.891-0.616-1.586-1.529-1.586
		c-0.844,0-1.438,0.651-1.563,1.586H65.013z"/>
	<path fill="#5B9B98" d="M67.318,31.168c0-0.388,0.297-0.686,0.685-0.686c0.388,0,0.696,0.298,0.696,0.686v2.681
		c0.445-0.628,1.073-1.13,2.054-1.13c1.415,0,2.795,1.119,2.795,3.127v0.022c0,1.997-1.369,3.127-2.795,3.127
		c-1.004,0-1.631-0.502-2.054-1.062v0.309c0,0.377-0.308,0.684-0.696,0.684c-0.376,0-0.685-0.307-0.685-0.684V31.168z
		 M72.145,35.868v-0.022c0-1.164-0.787-1.929-1.723-1.929c-0.936,0-1.757,0.776-1.757,1.929v0.022c0,1.153,0.822,1.929,1.757,1.929
		C71.369,37.797,72.145,37.056,72.145,35.868z"/>
	<path fill="#5B9B98" d="M77.484,33.473c0-0.389,0.296-0.696,0.685-0.696c0.388,0,0.696,0.308,0.696,0.696v0.284
		c0.388-0.536,0.913-1.038,1.837-1.038c0.867,0,1.483,0.423,1.803,1.062c0.479-0.639,1.118-1.062,2.032-1.062
		c1.312,0,2.111,0.834,2.111,2.306v3.218c0,0.388-0.297,0.684-0.685,0.684s-0.696-0.296-0.696-0.684v-2.796
		c0-0.958-0.445-1.472-1.221-1.472c-0.753,0-1.289,0.525-1.289,1.494v2.773c0,0.388-0.308,0.684-0.685,0.684
		c-0.388,0-0.696-0.296-0.696-0.684v-2.808c0-0.935-0.457-1.46-1.221-1.46c-0.765,0-1.29,0.569-1.29,1.494v2.773
		c0,0.388-0.308,0.684-0.696,0.684c-0.377,0-0.685-0.296-0.685-0.684V33.473z"/>
	<path fill="#5B9B98" d="M87.537,35.891v-0.022c0-1.723,1.369-3.149,3.217-3.149c1.849,0,3.207,1.404,3.207,3.127v0.022
		c0,1.712-1.369,3.139-3.229,3.139C88.894,39.007,87.537,37.603,87.537,35.891z M92.58,35.891v-0.022
		c0-1.062-0.765-1.939-1.849-1.939c-1.107,0-1.814,0.867-1.814,1.917v0.022c0,1.05,0.765,1.929,1.837,1.929
		C91.873,37.797,92.58,36.929,92.58,35.891z"/>
	<path fill="#5B9B98" d="M94.907,33.473c0-0.389,0.296-0.696,0.685-0.696s0.696,0.308,0.696,0.696v0.296
		c0.388-0.56,0.947-1.05,1.883-1.05c1.357,0,2.145,0.913,2.145,2.306v3.218c0,0.388-0.297,0.684-0.684,0.684
		c-0.389,0-0.697-0.296-0.697-0.684v-2.796c0-0.936-0.468-1.472-1.289-1.472c-0.798,0-1.358,0.559-1.358,1.494v2.773
		c0,0.388-0.308,0.684-0.696,0.684c-0.377,0-0.685-0.296-0.685-0.684V33.473z"/>
	<path fill="#5B9B98" d="M101.502,31.224c0-0.41,0.343-0.672,0.787-0.672c0.445,0,0.788,0.262,0.788,0.672v0.069
		c0,0.411-0.343,0.685-0.788,0.685c-0.444,0-0.787-0.273-0.787-0.685V31.224z M101.604,33.473c0-0.389,0.297-0.696,0.685-0.696
		c0.389,0,0.696,0.308,0.696,0.696v4.77c0,0.388-0.308,0.684-0.696,0.684c-0.376,0-0.685-0.296-0.685-0.684V33.473z"/>
	<path fill="#5B9B98" d="M104.618,37.203v-3.172h-0.229c-0.332,0-0.594-0.263-0.594-0.593c0-0.332,0.262-0.594,0.594-0.594h0.229
		v-1.026c0-0.377,0.307-0.686,0.695-0.686c0.376,0,0.685,0.309,0.685,0.686v1.026h1.085c0.33,0,0.604,0.262,0.604,0.594
		c0,0.33-0.273,0.593-0.604,0.593h-1.085v2.956c0,0.536,0.274,0.752,0.741,0.752c0.16,0,0.297-0.033,0.344-0.033
		c0.307,0,0.581,0.251,0.581,0.569c0,0.251-0.171,0.457-0.365,0.537c-0.296,0.103-0.582,0.159-0.946,0.159
		C105.337,38.972,104.618,38.526,104.618,37.203z"/>
	<path fill="#5B9B98" d="M108.063,35.891v-0.022c0-1.723,1.369-3.149,3.217-3.149c1.85,0,3.207,1.404,3.207,3.127v0.022
		c0,1.712-1.369,3.139-3.229,3.139C109.421,39.007,108.063,37.603,108.063,35.891z M113.106,35.891v-0.022
		c0-1.062-0.766-1.939-1.849-1.939c-1.106,0-1.814,0.867-1.814,1.917v0.022c0,1.05,0.765,1.929,1.837,1.929
		C112.399,37.797,113.106,36.929,113.106,35.891z"/>
	<path fill="#5B9B98" d="M115.435,33.473c0-0.389,0.296-0.696,0.685-0.696c0.388,0,0.695,0.308,0.695,0.696v0.616
		c0.319-0.754,0.913-1.323,1.518-1.323c0.435,0,0.685,0.284,0.685,0.684c0,0.365-0.238,0.604-0.547,0.662
		c-0.982,0.171-1.655,0.925-1.655,2.351v1.78c0,0.377-0.308,0.684-0.695,0.684c-0.377,0-0.685-0.296-0.685-0.684V33.473z"/>
	<path fill="#5B9B98" d="M119.667,31.224c0-0.41,0.342-0.672,0.787-0.672s0.787,0.262,0.787,0.672v0.069
		c0,0.411-0.342,0.685-0.787,0.685s-0.787-0.273-0.787-0.685V31.224z M119.77,33.473c0-0.389,0.296-0.696,0.685-0.696
		s0.696,0.308,0.696,0.696v4.77c0,0.388-0.308,0.684-0.696,0.684c-0.377,0-0.685-0.296-0.685-0.684V33.473z"/>
	<path fill="#5B9B98" d="M122.497,33.473c0-0.389,0.296-0.696,0.685-0.696c0.388,0,0.696,0.308,0.696,0.696v0.296
		c0.387-0.56,0.947-1.05,1.883-1.05c1.357,0,2.145,0.913,2.145,2.306v3.218c0,0.388-0.297,0.684-0.685,0.684
		s-0.696-0.296-0.696-0.684v-2.796c0-0.936-0.468-1.472-1.289-1.472c-0.799,0-1.357,0.559-1.357,1.494v2.773
		c0,0.388-0.309,0.684-0.696,0.684c-0.377,0-0.685-0.296-0.685-0.684V33.473z"/>
	<path fill="#5B9B98" d="M129.469,40.182c-0.24-0.092-0.389-0.285-0.389-0.548c0-0.309,0.263-0.57,0.583-0.57
		c0.102,0,0.182,0.022,0.25,0.058c0.549,0.308,1.153,0.479,1.849,0.479c1.233,0,1.905-0.639,1.905-1.849v-0.467
		c-0.502,0.649-1.129,1.105-2.122,1.105c-1.415,0-2.738-1.05-2.738-2.818V35.55c0-1.781,1.335-2.831,2.738-2.831
		c1.016,0,1.644,0.468,2.111,1.027v-0.285c0-0.377,0.308-0.685,0.685-0.685c0.388,0,0.696,0.308,0.696,0.696v4.164
		c0,1.016-0.263,1.77-0.765,2.271c-0.549,0.548-1.393,0.81-2.477,0.81C130.952,40.718,130.198,40.535,129.469,40.182z
		 M133.679,35.561v-0.022c0-0.982-0.811-1.655-1.769-1.655s-1.712,0.661-1.712,1.655v0.022c0,0.98,0.766,1.654,1.712,1.654
		C132.868,37.215,133.679,36.541,133.679,35.561z"/>
	<path fill="#5B9B98" d="M145.202,38.242c0,0.388-0.309,0.684-0.685,0.684c-0.388,0-0.696-0.296-0.696-0.684v-0.377
		c-0.445,0.628-1.072,1.13-2.054,1.13c-1.415,0-2.795-1.13-2.795-3.127v-0.022c0-1.997,1.357-3.127,2.795-3.127
		c0.993,0,1.62,0.49,2.054,1.062v-2.612c0-0.388,0.309-0.686,0.686-0.686c0.387,0,0.695,0.298,0.695,0.686V38.242z M140.364,35.846
		v0.022c0,1.164,0.799,1.929,1.734,1.929c0.925,0,1.746-0.775,1.746-1.929v-0.022c0-1.164-0.821-1.929-1.746-1.929
		C141.151,33.917,140.364,34.647,140.364,35.846z"/>
	<path fill="#5B9B98" d="M146.149,35.891v-0.022c0-1.723,1.369-3.149,3.217-3.149c1.85,0,3.207,1.404,3.207,3.127v0.022
		c0,1.712-1.369,3.139-3.229,3.139C147.507,39.007,146.149,37.603,146.149,35.891z M151.192,35.891v-0.022
		c0-1.062-0.765-1.939-1.848-1.939c-1.107,0-1.814,0.867-1.814,1.917v0.022c0,1.05,0.764,1.929,1.836,1.929
		C150.485,37.797,151.192,36.929,151.192,35.891z"/>
	<path fill="#5B9B98" d="M153.521,33.473c0-0.389,0.297-0.696,0.685-0.696s0.696,0.308,0.696,0.696v0.296
		c0.387-0.56,0.947-1.05,1.883-1.05c1.357,0,2.145,0.913,2.145,2.306v3.218c0,0.388-0.297,0.684-0.684,0.684
		c-0.389,0-0.697-0.296-0.697-0.684v-2.796c0-0.936-0.468-1.472-1.289-1.472c-0.799,0-1.357,0.559-1.357,1.494v2.773
		c0,0.388-0.309,0.684-0.696,0.684c-0.377,0-0.685-0.296-0.685-0.684V33.473z"/>
	<path fill="#5B9B98" d="M162.899,39.007c-1.746,0-3.092-1.268-3.092-3.127v-0.022c0-1.724,1.221-3.139,2.943-3.139
		c1.918,0,2.864,1.575,2.864,2.968c0,0.388-0.296,0.661-0.65,0.661h-3.776c0.148,0.98,0.844,1.528,1.734,1.528
		c0.582,0,1.037-0.204,1.426-0.524c0.104-0.079,0.194-0.125,0.354-0.125c0.309,0,0.548,0.239,0.548,0.559
		c0,0.172-0.079,0.319-0.183,0.423C164.521,38.698,163.835,39.007,162.899,39.007z M164.269,35.435
		c-0.091-0.891-0.615-1.586-1.528-1.586c-0.845,0-1.438,0.651-1.563,1.586H164.269z"/>
	<path fill="#5B9B98" d="M169.54,33.473c0-0.389,0.296-0.696,0.685-0.696c0.388,0,0.696,0.308,0.696,0.696v0.616
		c0.318-0.754,0.912-1.323,1.517-1.323c0.435,0,0.685,0.284,0.685,0.684c0,0.365-0.238,0.604-0.547,0.662
		c-0.981,0.171-1.654,0.925-1.654,2.351v1.78c0,0.377-0.309,0.684-0.696,0.684c-0.377,0-0.685-0.296-0.685-0.684V33.473z"/>
	<path fill="#5B9B98" d="M173.772,31.224c0-0.41,0.343-0.672,0.787-0.672c0.445,0,0.789,0.262,0.789,0.672v0.069
		c0,0.411-0.344,0.685-0.789,0.685c-0.444,0-0.787-0.273-0.787-0.685V31.224z M173.876,33.473c0-0.389,0.297-0.696,0.684-0.696
		c0.389,0,0.697,0.308,0.697,0.696v4.77c0,0.388-0.309,0.684-0.697,0.684c-0.376,0-0.684-0.296-0.684-0.684V33.473z"/>
	<path fill="#5B9B98" d="M176.956,40.182c-0.24-0.092-0.389-0.285-0.389-0.548c0-0.309,0.263-0.57,0.583-0.57
		c0.103,0,0.183,0.022,0.251,0.058c0.548,0.308,1.152,0.479,1.848,0.479c1.233,0,1.906-0.639,1.906-1.849v-0.467
		c-0.502,0.649-1.13,1.105-2.123,1.105c-1.414,0-2.738-1.05-2.738-2.818V35.55c0-1.781,1.335-2.831,2.738-2.831
		c1.016,0,1.645,0.468,2.111,1.027v-0.285c0-0.377,0.309-0.685,0.685-0.685c0.388,0,0.696,0.308,0.696,0.696v4.164
		c0,1.016-0.262,1.77-0.765,2.271c-0.548,0.548-1.392,0.81-2.476,0.81C178.439,40.718,177.687,40.535,176.956,40.182z
		 M181.167,35.561v-0.022c0-0.982-0.811-1.655-1.77-1.655c-0.958,0-1.711,0.661-1.711,1.655v0.022c0,0.98,0.764,1.654,1.711,1.654
		C180.356,37.215,181.167,36.541,181.167,35.561z"/>
	<path fill="#5B9B98" d="M183.802,31.168c0-0.377,0.297-0.686,0.686-0.686c0.388,0,0.695,0.309,0.695,0.686v2.601
		c0.388-0.56,0.947-1.05,1.883-1.05c1.357,0,2.145,0.913,2.145,2.306v3.218c0,0.388-0.296,0.684-0.684,0.684
		c-0.389,0-0.696-0.296-0.696-0.684v-2.796c0-0.936-0.468-1.472-1.289-1.472c-0.799,0-1.358,0.559-1.358,1.494v2.773
		c0,0.388-0.308,0.684-0.695,0.684c-0.377,0-0.686-0.296-0.686-0.684V31.168z"/>
	<path fill="#5B9B98" d="M190.706,37.203v-3.172h-0.229c-0.332,0-0.594-0.263-0.594-0.593c0-0.332,0.262-0.594,0.594-0.594h0.229
		v-1.026c0-0.377,0.307-0.686,0.695-0.686c0.376,0,0.685,0.309,0.685,0.686v1.026h1.085c0.33,0,0.604,0.262,0.604,0.594
		c0,0.33-0.273,0.593-0.604,0.593h-1.085v2.956c0,0.536,0.274,0.752,0.741,0.752c0.16,0,0.297-0.033,0.344-0.033
		c0.307,0,0.581,0.251,0.581,0.569c0,0.251-0.171,0.457-0.365,0.537c-0.296,0.103-0.582,0.159-0.946,0.159
		C191.425,38.972,190.706,38.526,190.706,37.203z"/>
</g>
<g>
</g>
<g>
</g>
<g>
</g>
<g>
</g>
<g>
</g>
<g>
</g>
</svg>
