<svg height="49.35924951863217" overflow="visible" viewBox="0 0 221.99999999999977  49.35924951863217" width="221.99999999999977" xmlns="http://www.w3.org/2000/svg"><g><defs><path id="path-15658255251805044" d="M1461.8339350180515 227.42089711618888 C1461.8339350180515 227.42089711618888 1502.7075812274372 222.0797132195077 1522.7436823104706 197.24185055679968 C1542.7797833935017 172.4039878940915 1598.0794223826713 170.94293714922634 1620.5198555956688 197.24185055679968 C1642.9602888086656 223.54076396437284 1683.8339350180518 227.42089711618888 1683.8339350180518 227.42089711618888 C1683.8339350180518 227.42089711618888 1461.8339350180515 227.42089711618888 1461.8339350180515 227.42089711618888 Z"></path></defs> <path d="M0 49.35924951863217 C0 49.35924951863217 40.8736462093857 44.018065621950996 60.90974729241907 19.18020295924299 C80.94584837545017 -5.657659703465185 136.24548736461975 -7.118710448330376 158.68592057761725 19.18020295924299 C181.12635379061408 45.47911636681613 222.00000000000023 49.35924951863217 222.00000000000023 49.35924951863217 C222.00000000000023 49.35924951863217 0 49.35924951863217 0 49.35924951863217 Z" style="stroke: rgb(102, 102, 102); stroke-width: 0; stroke-linecap: butt; stroke-linejoin: miter; fill: rgb(250, 250, 250);"></path></g><g><defs><path id="path-15658255251775035" d="M243.53810489713152 26.29236879507773 C243.53810489713152 26.29236879507773 261.31092436974825 26.4126606784539 261.31092436974825 26.4126606784539 C261.31092436974825 26.4126606784539 265.35294117647095 33.68860116723555 265.35294117647095 33.68860116723555 C265.35294117647095 33.68860116723555 252.46218487394992 46.74542587998069 252.46218487394992 46.74542587998069 C252.46218487394992 46.74542587998069 239.35294117647098 33.58893074958101 239.35294117647098 33.58893074958101 C239.35294117647098 33.58893074958101 243.53810489713152 26.29236879507773 243.53810489713152 26.29236879507773 Z"></path></defs> <path d="M102.18516372066028 14.99999999999983 C102.18516372066028 14.99999999999983 119.95798319327719 15.120291883376012 119.95798319327719 15.120291883376012 C119.95798319327719 15.120291883376012 123.99999999999977 22.39623237215767 123.99999999999977 22.39623237215767 C123.99999999999977 22.39623237215767 111.10924369747886 35.45305708490281 111.10924369747886 35.45305708490281 C111.10924369747886 35.45305708490281 97.99999999999977 22.296561954503147 97.99999999999977 22.296561954503147 C97.99999999999977 22.296561954503147 102.18516372066028 14.99999999999983 102.18516372066028 14.99999999999983 Z" style="stroke: rgb(102, 102, 102); stroke-width: 0; stroke-linecap: butt; stroke-linejoin: miter; fill: rgb(222, 68, 60);"></path></g></svg>