<svg id="Layer_1" data-name="Layer 1" xmlns="http://www.w3.org/2000/svg" viewBox="0 0 600 600"><defs><style>.cls-1{fill:none;stroke:#fff;stroke-miterlimit:10;stroke-width:5px;}</style></defs><title>ruby</title><ellipse class="cls-1" cx="256.26" cy="192.04" rx="169" ry="67.81" transform="translate(-59.31 137.56) rotate(-27.05)"/><polyline class="cls-1" points="104.73 432 419.95 512.32 539.48 209.98"/><path class="cls-1" d="M292.08,261.91l-75.7,38.66-115.49.33-7.06-46.82s-35,66.2-33.64,90.24c1.41,24.47,44.59,87.33,44.59,87.33l156.3.44,95.49-43.62,63.14,123.64"/><path class="cls-1" d="M419.76,512.09,356.62,388.44l91.31-51.77,91.29-126.88s-25.6-71.83-44.6-87.33C476,107.25,401.8,96.81,401.8,96.81L435.58,130l-68,93.36L291.9,262"/><polyline class="cls-1" points="261.01 431.94 419.95 512.32 448.03 336.43"/><path class="cls-1" d="M60.11,344.17l40.71-43.42s3.94,128.66,3.89,130.75c1.3.36,111.59-131.08,111.59-131.08l140.3,87.85,11.1-165.16s171.14-12.28,171.62-13.55c-1.73-1.18-103.64-79.82-103.64-79.82l59-7.51"/></svg>