<svg id="Layer_1" data-name="Layer 1" xmlns="http://www.w3.org/2000/svg" xmlns:xlink="http://www.w3.org/1999/xlink" viewBox="0 0 574 449"><defs><style>.cls-1,.cls-2,.cls-3,.cls-4,.cls-5,.cls-6{fill:none;stroke-miterlimit:10;stroke-width:5px;}.cls-1{stroke:url(#radial-gradient);}.cls-2{stroke:url(#radial-gradient-2);}.cls-3{stroke:url(#radial-gradient-3);}.cls-4{stroke:url(#radial-gradient-4);}.cls-5{stroke:url(#radial-gradient-5);}.cls-6{stroke:url(#radial-gradient-6);}</style><radialGradient id="radial-gradient" cx="235.66" cy="113.29" r="131.22" gradientTransform="translate(77.3 -94.78) rotate(27.05)" gradientUnits="userSpaceOnUse"><stop offset="0" stop-color="#ff7f83"/><stop offset="1" stop-color="#820005"/></radialGradient><radialGradient id="radial-gradient-2" cx="302.36" cy="283.41" r="188.86" gradientTransform="matrix(1, 0, 0, 1, 0, 0)" xlink:href="#radial-gradient"/><radialGradient id="radial-gradient-3" cx="334.59" cy="346.3" r="92.71" gradientTransform="matrix(1, 0, 0, 1, 0, 0)" xlink:href="#radial-gradient"/><radialGradient id="radial-gradient-4" cx="279.71" cy="198.1" r="204.04" gradientTransform="matrix(1, 0, 0, 1, 0, 0)" xlink:href="#radial-gradient"/><radialGradient id="radial-gradient-5" cx="395.85" cy="223.76" r="173.48" gradientTransform="matrix(1, 0, 0, 1, 0, 0)" xlink:href="#radial-gradient"/><radialGradient id="radial-gradient-6" cx="219.1" cy="299.59" r="160.09" gradientTransform="matrix(1, 0, 0, 1, 0, 0)" xlink:href="#radial-gradient"/></defs><title>ruby-02</title><ellipse class="cls-1" cx="235.66" cy="113.29" rx="169" ry="67.81" transform="translate(-25.74 119.56) rotate(-27.05)"/><polyline class="cls-2" points="84.13 353.23 399.35 433.55 518.88 131.21"/><polyline class="cls-3" points="240.41 352.17 399.35 432.55 427.43 256.66"/><path class="cls-4" d="M39.51,265.4,80.21,222s4,128.66,3.9,130.75c1.3.36,111.59-131.08,111.59-131.08L336,309.48l11.1-165.16S518.24,132,518.71,130.76C517,129.59,415.08,51,415.08,51l59-7.51"/><polyline class="cls-5" points="399.16 433.32 336.02 309.67 427.33 257.9 518.62 131.02 474.02 43.69 381.2 18.04 414.98 51.2 347 144.57 271.3 183.23"/><polyline class="cls-6" points="271.45 182.86 195.79 221.5 80.37 221.82 73.31 175.03 39.68 265.23 84.25 352.5 240.47 352.94 335.91 309.35 399.02 432.93"/></svg>