<?xml version="1.0" encoding="UTF-8"?>
<svg width="454px" height="463px" viewBox="0 0 454 463" version="1.1" xmlns="http://www.w3.org/2000/svg" xmlns:xlink="http://www.w3.org/1999/xlink">
    <!-- Generator: Sketch 42 (36781) - http://www.bohemiancoding.com/sketch -->
    <title>RubyConf2018 Logo Final</title>
    <desc>Created with Sketch.</desc>
    <defs></defs>
    <g id="Page-1" stroke="none" stroke-width="1" fill="none" fill-rule="evenodd">
        <g id="RubyConf2018-Logo-Final">
            <g id="Group-2">
                <path d="M84.3702251,25.6063492 C92.0362915,20.5861043 158.107388,10.9671922 223.38794,9.07825326 C288.668492,7.18931435 354.280106,13.0426036 360.917131,18.5122116 C367.956477,24.3133755 400.322994,62.1193473 418.658432,106.031466 C436.99387,149.943585 445.662116,180.172158 445.357281,191.218368 C445.046459,202.481516 408.993229,269.01294 368.748063,326.870724 C339.865005,368.393964 303.016377,417.569514 274.784344,441.312853 C263.678338,450.653082 251.286339,454.733325 245.193079,454.8639 C239.55,454.984828 226.471434,455.579814 215.472376,448.79779 C204.473318,442.015766 145.483709,386.54004 106.138026,342.092005 C52.0943847,281.039977 9.50646305,212.733953 8.62226032,198.454388 C7.73368074,184.104139 20.022065,140.612178 37.2253251,102.302688 C54.4285851,63.9931983 76.6599797,30.6555254 84.3702251,25.6063492 Z" id="Path" fill="#FF9F9F"></path>
                <g id="Group" transform="translate(17.000000, 17.000000)" fill-opacity="0.201086957" fill-rule="nonzero" fill="#FFFFFF">
                    <path d="M72.5086722,14.1421024 C72.3869953,15.2333599 72.3274317,15.8149619 72.2633484,16.4852971 C72.0805706,18.3972209 71.8979156,20.6383845 71.7275176,23.1916746 C70.5169125,41.3317091 70.5618494,63.2669045 72.7059552,87.8086567 C75.7170402,122.273982 82.5160274,156.96478 93.9486811,190.691781 C101.883181,214.099021 114.150761,242.131184 129.989942,273.814096 C136.67542,287.186971 143.928828,301.070305 151.66449,315.353819 C166.509346,342.764104 182.413467,370.356947 198.31753,396.767479 C203.883956,406.011172 209.0529,414.447019 213.691914,421.904325 C215.315773,424.514712 216.757471,426.816433 218.000451,428.788148 C218.435617,429.478444 218.814894,430.078236 219.136212,430.584855 C219.329177,430.889101 221.212906,430.123832 221.212906,430.123832 C220.504811,429.00857 220.12651,428.410322 219.692325,427.721582 C218.451441,425.753192 217.011859,423.454849 215.390138,420.8479 C210.756065,413.398536 205.592139,404.970878 200.030861,395.735734 C184.141482,369.349587 168.252161,341.782422 153.423138,314.401371 C145.697456,300.136285 138.454081,286.272155 131.778848,272.919771 C115.977031,241.3116 103.74357,213.357401 95.8428167,190.049714 C84.4647107,156.483632 77.6962146,121.94841 74.6983658,87.6345885 C72.5637107,63.2010103 72.5189818,41.3673633 73.7230787,23.3248516 C73.8921881,20.7908699 74.0732912,18.5687476 74.2542714,16.6756271 C74.3175034,16.0141967 74.3761612,15.4414395 74.4287299,14.9594981 C74.460096,14.6719392 72.5086722,14.1421024 72.5086722,14.1421024 Z" id="Path-12"></path>
                    <path d="M0.76775809,182.793196 C1.36428859,182.657428 1.68678101,182.584741 2.05974464,182.501295 C3.12613865,182.262704 4.38261843,181.985859 5.82131546,181.673948 C9.93332535,180.782462 14.679812,179.788957 19.997822,178.718935 C35.1941204,175.66133 51.92139,172.603585 69.6758594,169.749695 C106.402714,163.846146 142.570241,159.603195 176.403376,157.738132 C188.749975,157.057522 200.63405,156.70606 212,156.70606 C222.24325,156.70606 232.88678,156.920611 243.891621,157.337552 C278.602591,158.652647 315.721723,161.909265 353.35903,166.514423 C370.897126,168.660318 387.392149,170.959487 402.356082,173.258567 C407.592883,174.063156 412.264003,174.810221 416.308455,175.48059 C417.723604,175.715151 418.959222,175.923349 420.007686,176.102789 C420.374427,176.165555 420.691522,176.220233 420.958017,176.266523 C421.225084,176.313046 421.625318,174.352756 421.625318,174.352756 C421.032173,174.249457 420.71345,174.194498 420.345071,174.131452 C419.293192,173.951428 418.054126,173.742648 416.635493,173.507509 C412.583425,172.835878 407.904544,172.087573 402.659801,171.281763 C387.676466,168.979702 371.16134,166.677731 353.601931,164.529228 C315.913062,159.917761 278.74013,156.656423 243.967341,155.338986 C232.938028,154.921118 222.26936,154.70606 212,154.70606 C200.595888,154.70606 188.675306,155.058601 176.293292,155.741164 C142.383353,157.610461 106.149091,161.86124 69.3584498,167.775043 C51.5768797,170.633289 34.8241421,173.695689 19.603314,176.75823 C14.2753297,177.830259 9.51911034,178.825801 5.39755845,179.719356 C3.95450886,180.032211 2.69372409,180.310004 1.62306764,180.549549 C1.24806361,180.633451 0.923541389,180.706596 0.650483954,180.768584 C0.48627358,180.805863 0.76775809,182.793196 0.76775809,182.793196 Z" id="Path-13"></path>
                    <path d="M336.538593,7.57733142 C336.842358,9.16044262 337.000883,10.0001861 337.179487,10.9584612 C337.689961,13.6973383 338.258849,16.836099 338.871548,20.3252237 C340.622298,30.2951924 342.373108,41.0726968 344.007143,52.261404 C346.15491,66.9677908 347.935727,81.2697094 349.225605,94.7456524 C352.138243,125.175296 352.348957,149.152992 349.15606,164.169966 C345.462628,181.541076 324.526259,227.639846 291.479641,293.4381 C289.355995,297.666435 287.191264,301.95789 284.98787,306.308242 C270.806893,334.30698 255.61249,363.598915 240.418026,392.419167 C235.099923,402.506331 230.161712,411.813958 225.730042,420.12148 C224.179015,423.029007 222.802112,425.603804 221.615166,427.818301 C221.19977,428.593309 220.837799,429.267904 220.531232,429.83864 C220.347342,430.180988 220.22275,430.412704 220.159626,430.529986 L221.920739,431.477868 C221.984255,431.359859 222.108986,431.127885 222.293144,430.785037 C222.599991,430.21378 222.962244,429.538659 223.377924,428.76312 C224.565482,426.547483 225.943004,423.971527 227.494661,421.06282 C231.927807,412.752531 236.867532,403.442051 242.187207,393.351905 C257.386393,364.522695 272.585641,335.221421 286.772072,307.211915 C288.976469,302.859581 291.142216,298.566114 293.26689,294.33573 C326.423535,228.318405 347.365839,182.206566 351.11233,164.585907 C354.359603,149.313192 354.14749,125.176412 351.216506,94.5550891 C349.923215,81.0434949 348.138403,66.7094907 345.986149,51.9723836 C344.349167,40.7634931 342.595317,29.9672705 340.841407,19.9793117 C340.227474,16.4831616 339.657348,13.3375708 339.145629,10.5920106 C338.966465,9.63073263 338.807381,8.78802325 338.6702,8.07006709 C338.587797,7.63880048 336.538593,7.57733142 336.538593,7.57733142 Z" id="Path-17"></path>
                    <path d="M217.573345,5.43284623 C220.940025,8.0290831 224.691898,10.9731886 228.732579,14.2077817 C240.276948,23.4491301 251.821035,33.1646088 262.593025,42.8942384 C269.378696,49.0232878 275.643721,54.9692428 281.280582,60.6676918 C285.461048,64.8938329 289.267862,68.9557691 292.667047,72.8328749 C300.94025,82.2692789 309.68762,94.579859 318.682174,109.072199 C326.382419,121.479103 333.832204,134.77628 340.746902,148.073933 C343.167192,152.728392 345.347553,157.050136 347.252546,160.928084 C347.919042,162.284854 348.503427,163.489058 349.001275,164.526815 C349.175369,164.889712 349.326171,165.205795 349.453126,165.473329 C349.529086,165.6334 351.415876,164.945522 351.415876,164.945522 C351.131848,164.345831 350.979832,164.027202 350.804508,163.661742 C350.304017,162.618477 349.716925,161.408695 349.047648,160.046263 C347.136145,156.155062 344.948941,151.819755 342.52134,147.151236 C335.584919,133.811807 328.111196,120.471903 320.381491,108.017532 C311.333905,93.4397461 302.526844,81.0451586 294.170908,71.5143905 C290.743794,67.6054281 286.909842,63.5145358 282.702458,59.2611828 C277.037442,53.5342709 270.745631,47.5628945 263.933605,41.4100393 C253.129177,31.651111 241.555673,21.9108748 229.982452,12.6464303 C225.931976,9.40399594 222.170632,6.45245893 218.794681,3.84907325 C217.612735,2.93760758 216.563261,2.134672 215.658295,1.44742602 C215.341332,1.20671948 215.065012,0.997621906 214.830838,0.82102834 C214.690017,0.714832931 213.893843,0.118151115 213.893843,0.118151115 L213.283744,0.657086787 C212.8259,1.0631418 212.582298,1.27994265 212.302845,1.52930791 C211.504868,2.24136971 210.57942,3.0717615 209.537119,4.01253548 C206.55986,6.69979044 203.242649,9.73315283 199.670408,13.0490584 C189.463633,22.5234214 179.256633,32.3645138 169.728211,42.0645852 C165.633732,46.2328243 161.746682,50.2933397 158.098588,54.2226101 C152.356291,60.4074939 147.26479,66.2035509 142.916799,71.5421311 C139.233928,76.0640582 135.317935,81.3698282 131.198181,87.382352 C126.735456,93.8954205 122.077864,101.172661 117.277495,109.080956 C109.968345,121.122306 102.686865,134.020657 95.7708421,146.91862 C93.350373,151.432648 91.1483623,155.624406 89.2071302,159.386603 C88.5275216,160.703715 87.9289938,161.873174 87.4168389,162.881566 C87.2374754,163.234718 87.081691,163.54257 86.9501472,163.803446 C86.8710672,163.960276 88.5785345,165.016856 88.5785345,165.016856 C88.8666406,164.444767 89.0215496,164.138644 89.200028,163.787235 C89.7102783,162.782593 90.3068611,161.616935 90.9844768,160.303684 C92.9210284,156.550559 95.1181536,152.368101 97.5334379,147.863742 C104.433853,134.994886 111.698463,122.126418 118.987175,110.118739 C123.769566,102.240061 128.407713,94.9932042 132.848038,88.5128263 C136.938545,82.5429862 140.822525,77.28059 144.467548,72.8051344 C148.785924,67.5029162 153.849556,61.7385843 159.564271,55.5834093 C163.19901,51.6685231 167.073168,47.6214749 171.154992,43.4661185 C180.659652,33.7902376 190.845239,23.96979 201.031051,14.5148857 C204.596217,11.2055477 207.906596,8.17843225 210.877175,5.4972077 C211.916617,4.55901385 212.839248,3.73114959 213.634442,3.02157117 C215.349813,3.72450475 216.395371,4.52444401 217.573345,5.43284623 Z" id="Path-16"></path>
                </g>
                <path d="M172.474797,255.268989 C172.543082,255.73424 172.673144,256.46725 172.87807,257.431694 C173.203073,258.961253 173.629112,260.645742 174.170336,262.449242 C175.713284,267.590752 177.88851,272.736081 180.835533,277.593154 C183.515338,282.009815 186.714237,285.972589 190.490822,289.346158 C196.828127,295.007181 203.209573,298.424853 209.941856,300.044514 C214.921846,301.242606 218.625589,301.38078 225.619598,301.097265 C226.929446,301.044168 227.372821,301.027408 227.996495,301.00985 C241.954537,300.616908 259.735029,292.019944 269.320439,280.752681 C271.61776,278.052273 273.597107,275.006561 275.298356,271.683862 C277.437123,267.506652 279.039221,263.101714 280.20364,258.704966 C280.610758,257.167724 280.936139,255.733123 281.188926,254.431544 C281.347848,253.613272 281.450745,252.993289 281.505932,252.602585 C282.123881,248.227734 279.078311,244.18027 274.70346,243.562321 C270.328609,242.944371 266.281145,245.989942 265.663196,250.364792 C265.645311,250.491407 265.587224,250.841398 265.482408,251.38109 C265.295632,252.342783 265.049014,253.430114 264.736856,254.608799 C263.8462,257.971841 262.626023,261.326694 261.056583,264.391955 C259.891765,266.666954 258.580642,268.684439 257.133807,270.385135 C250.474021,278.213445 236.952036,284.751398 227.546246,285.016187 C226.831614,285.036305 226.352174,285.054428 224.971542,285.110395 C219.378691,285.337111 216.81464,285.241455 213.684371,284.488371 C209.571825,283.49897 205.552239,281.346224 201.149919,277.413695 C198.617159,275.151218 196.408962,272.415719 194.514524,269.293442 C192.328749,265.691005 190.672203,261.772573 189.49515,257.850322 C189.084374,256.481506 188.765384,255.220273 188.528671,254.106234 C188.449384,253.733083 188.386723,253.410676 188.339392,253.143929 C188.315833,253.011152 188.304884,252.9434 188.305201,252.94556 C187.663604,248.574115 183.59973,245.550476 179.228285,246.192073 C174.856839,246.83367 171.8332,250.897544 172.474797,255.268989 Z" id="Path-2" fill="#000000" fill-rule="nonzero"></path>
                <ellipse id="Oval" fill="#000000" cx="171.5" cy="161.5" rx="14.5" ry="27.5"></ellipse>
                <ellipse id="Oval-Copy" fill="#000000" cx="288.5" cy="158.5" rx="14.5" ry="27.5"></ellipse>
                <path d="M86.1044396,32.3775099 C86.1044396,32.3775099 52.8585224,59.5494736 38.9949293,98.493048 C25.1313363,137.436622 12.1606043,178.648007 12.1606043,178.648007 L13.2002063,194.754361 C13.2002063,194.754361 34.4436764,189.954903 58.0956927,185.630658 C81.747709,181.306413 99.0873852,179.648007 99.0873852,179.648007 C99.0873852,179.648007 90.2003603,148.741847 87.2005833,113.997525 C83.9028706,86.05282 86.1044396,32.3775099 86.1044396,32.3775099 Z" id="Path-18" fill-opacity="0.119999997" fill="#FFFFFF"></path>
                <path d="M94.7810965,29.5666246 C94.7810965,29.5666246 91.8699044,69.0532946 94.7810965,103.455838 C97.6922885,137.858382 105.876647,171.533465 105.876647,171.533465 C105.876647,171.533465 128.734297,122.438646 149.621459,95.7790368 C170.508621,69.1194274 191.243273,48.6830478 205.12036,35.6697357 C218.997447,22.6564236 231.721935,10.9360749 231.721935,10.9360749 L98.2565313,23.6133245 L94.7810965,29.5666246 Z" id="Path-20" fill-opacity="0.25999999" fill="#FFFFFF"></path>
                <path d="M17.1664107,205.905035 C17.1664107,205.905035 35.6134464,199.695387 58.8361347,195.422933 C82.058823,191.150478 102.503293,187.951747 102.503293,187.951747 C102.503293,187.951747 105.828414,208.357238 122.919415,248.78078 C140.010416,289.204322 176.09063,354.610563 194.524672,385.935205 C212.958715,417.259848 234.698978,450.828799 234.698978,450.828799 L213.737136,448.095467 L120.405789,359.073193 L28.7635802,245.600949 L17.1664107,205.905035 Z" id="Path-19" fill-opacity="0.12" fill="#FFFFFF"></path>
                <path d="M240.757302,199.253101 C240.757302,199.253101 245.813584,197.63325 269.036273,193.360795 C292.258961,189.08834 316.204681,186.982851 316.204681,186.982851 C316.204681,186.982851 329.559734,221.043755 347.522045,259.081217 C365.484355,297.11868 384.815282,333.981465 403.323147,369.519782 C421.831012,405.058099 446.866612,452.062526 446.866612,452.062526 L426.662072,448.14372 L338.755327,358.883042 L259.869061,235.5 L240.757302,199.253101 Z" id="Path-19" fill-opacity="0.310000002" fill="#E77071" transform="translate(343.811957, 319.522688) scale(-1, 1) translate(-343.811957, -319.522688) "></path>
                <path d="M86.6694874,34.2552099 C85.4784613,35.5241516 84.067827,37.202834 82.4930016,39.2343513 C79.1661269,43.526004 75.2593047,49.1912058 71.1248654,55.7486176 C61.9036079,70.3739587 52.4186705,87.9978211 44.523262,105.5799 C28.4630821,141.343894 15.782642,184.6474 16.6069675,197.959968 C16.9281628,203.14716 27.7067365,223.494036 44.1190296,248.321942 C63.1018573,277.038457 87.2271729,308.659186 112.128242,336.789428 C146.877481,376.044953 207.581387,434.533663 219.671159,441.988222 C221.448918,443.084389 223.388076,443.984466 225.480486,444.702887 C231.046293,446.613884 236.341462,447.065292 243.907799,446.891375 C250.585109,446.746515 261.189603,442.293052 269.635194,435.190251 C293.383935,415.217392 325.438784,375.123776 362.180623,322.302493 C380.944335,295.327159 399.975266,264.712195 415.03976,237.677487 C421.946796,225.282136 427.671941,214.245606 431.659854,205.6595 C435.28405,197.856488 437.326075,192.238786 437.360325,190.997681 C437.646973,180.610544 428.043107,149.269698 411.27613,109.113935 C403.318921,90.0569661 391.996887,70.6484977 379.056369,52.650355 C369.593831,39.4895141 359.607784,27.799733 355.829354,24.6859079 C355.506398,24.7055004 354.723665,24.4561833 353.723935,24.190363 C351.47982,23.5936707 348.379064,22.9741817 344.552257,22.3658182 C336.625339,21.1056431 325.937526,19.9459242 313.54352,19.0132202 C286.384919,16.9694148 253.995074,16.1959626 223.619329,17.0749063 C193.544216,17.9451509 161.180278,20.5474763 133.285391,24.1038275 C120.845773,25.6897686 109.93719,27.3927308 101.695433,29.0200278 C97.7282917,29.8033216 94.4605789,30.5536281 92.0246296,31.2358545 C90.8934066,31.5526715 89.9743215,31.8459246 89.2959883,32.1012718 C88.4176775,32.5185695 87.6613148,33.1984983 86.6694874,34.2552099 Z M223.156551,1.08160026 C254.09131,0.18648116 287.036255,0.973188871 314.744196,3.0583345 C342.989711,5.18393494 360.749165,8.00722925 366.004908,12.3385153 C371.085287,16.5252835 381.845486,29.1212965 392.047125,43.3101066 C405.650651,62.2303846 417.570899,82.6643227 426.040734,102.948997 C443.70957,145.264648 453.726399,177.953142 453.354236,191.439055 C453.147242,198.939849 444.162283,218.284757 429.016342,245.465628 C413.698536,272.95493 394.387956,304.019764 375.315503,331.438954 C337.775629,385.40752 305.117937,426.255161 279.933495,447.435454 C268.836373,456.768212 254.80768,462.659701 245.364475,462.862064 C234.957616,463.101327 228.090746,462.515932 220.284678,459.835751 C217.105737,458.744274 214.093521,457.346127 211.273593,455.607358 C197.441309,447.078366 135.898149,387.781028 100.147811,347.394581 C49.8925153,290.622173 1.81009016,217.884871 0.637553125,198.948808 C-0.393345871,182.30015 12.8665512,137.017808 29.9273881,99.0254764 C46.2523832,62.6717718 69.5197423,25.7686642 79.9874508,18.9137197 C90.5984234,11.9649563 162.108356,2.84807293 223.156551,1.08160026 Z" id="Path" fill="#000000" fill-rule="nonzero"></path>
            </g>
        </g>
    </g>
</svg>